  0
SECTION
  2
HEADER
  9
$ANGBASE
  50
0.0
  9
$ANGDIR
  70
1
  9
$MEASUREMENT
  70
0
  0
ENDSEC
  0
SECTION
  2
TABLES
  0
TABLE
  2
LTYPE
  70
4
  0
LTYPE
  5
40F
  2
CONTINUOUS
  70
0
  3
Solid line
  72
65
  73
0
  40
0.0
  0
LTYPE
  5
410
  2
DASHDOT
 70
0
  3
Dash Dot ____ _ ____ _
 72
65
 73
4
 40
2.0
 49
1.25
 49
-0.25
 49
0.25
 49
-0.25
  0
LTYPE
  5
411
  2
DASHED
 70
0
  3
Dashed __ __ __ __ __
 72
65
 73
2
 40
0.75
 49
0.5
 49
-0.25
  0
LTYPE
  5
43B
  2
DOTTED
 70
0
  3
Dotted .  .  .  .
 72
65
 73
2
 40
0.2
 49
0.0
 49
-0.2
  0
ENDTAB
  0
TABLE
  2
STYLE
  70
4
  0
STYLE
  2
KICAD
  70
0
  40
0
  41
1
  42
1
  50
0
  71
0
  3
isocp.shx
  0
STYLE
  2
KICADB
  70
0
  40
0
  41
1
  42
1
  50
0
  71
0
  3
isocp.shx
  0
STYLE
  2
KICADI
  70
0
  40
0
  41
1
  42
1
  50
15
  71
0
  3
isocp.shx
  0
STYLE
  2
KICADBI
  70
0
  40
0
  41
1
  42
1
  50
15
  71
0
  3
isocp.shx
  0
ENDTAB
  0
TABLE
  2
LAYER
  70
1
  0
LAYER
  2
BLACK
  70
0
  62
7
  6
CONTINUOUS
  0
ENDTAB
  0
ENDSEC
  0
SECTION
  2
ENTITIES
0
LINE
8
BLACK
6
CONTINUOUS
10
13.7373
20
-6.63685
11
13.7373
21
-6.63685
0
LINE
8
BLACK
6
CONTINUOUS
10
13.7373
20
-6.63685
11
13.7354
21
-6.65594
0
LINE
8
BLACK
6
CONTINUOUS
10
13.7354
20
-6.65594
11
13.7354
21
-6.65595
0
LINE
8
BLACK
6
CONTINUOUS
10
13.7354
20
-6.65595
11
13.7354
21
-6.65604
0
LINE
8
BLACK
6
CONTINUOUS
10
13.7354
20
-6.65604
11
13.7354
21
-6.65613
0
LINE
8
BLACK
6
CONTINUOUS
10
13.7354
20
-6.65613
11
13.7298
21
-6.67449
0
LINE
8
BLACK
6
CONTINUOUS
10
13.7298
20
-6.67449
11
13.7298
21
-6.6745
0
LINE
8
BLACK
6
CONTINUOUS
10
13.7298
20
-6.6745
11
13.7298
21
-6.67458
0
LINE
8
BLACK
6
CONTINUOUS
10
13.7298
20
-6.67458
11
13.7298
21
-6.67467
0
LINE
8
BLACK
6
CONTINUOUS
10
13.7298
20
-6.67467
11
13.7208
21
-6.6916
0
LINE
8
BLACK
6
CONTINUOUS
10
13.7208
20
-6.6916
11
13.7208
21
-6.69161
0
LINE
8
BLACK
6
CONTINUOUS
10
13.7208
20
-6.69161
11
13.7207
21
-6.69169
0
LINE
8
BLACK
6
CONTINUOUS
10
13.7207
20
-6.69169
11
13.7207
21
-6.69176
0
LINE
8
BLACK
6
CONTINUOUS
10
13.7207
20
-6.69176
11
13.7085
21
-6.70662
0
LINE
8
BLACK
6
CONTINUOUS
10
13.7085
20
-6.70662
11
13.7085
21
-6.70664
0
LINE
8
BLACK
6
CONTINUOUS
10
13.7085
20
-6.70664
11
13.7085
21
-6.7067
0
LINE
8
BLACK
6
CONTINUOUS
10
13.7085
20
-6.7067
11
13.7084
21
-6.70676
0
LINE
8
BLACK
6
CONTINUOUS
10
13.7084
20
-6.70676
11
13.6936
21
-6.71899
0
LINE
8
BLACK
6
CONTINUOUS
10
13.6936
20
-6.71899
11
13.6936
21
-6.719
0
LINE
8
BLACK
6
CONTINUOUS
10
13.6936
20
-6.719
11
13.6935
21
-6.71904
0
LINE
8
BLACK
6
CONTINUOUS
10
13.6935
20
-6.71904
11
13.6935
21
-6.71909
0
LINE
8
BLACK
6
CONTINUOUS
10
13.6935
20
-6.71909
11
13.6766
21
-6.72822
0
LINE
8
BLACK
6
CONTINUOUS
10
13.6766
20
-6.72822
11
13.6766
21
-6.72822
0
LINE
8
BLACK
6
CONTINUOUS
10
13.6766
20
-6.72822
11
13.6765
21
-6.72826
0
LINE
8
BLACK
6
CONTINUOUS
10
13.6765
20
-6.72826
11
13.6764
21
-6.72829
0
LINE
8
BLACK
6
CONTINUOUS
10
13.6764
20
-6.72829
11
13.6581
21
-6.73396
0
LINE
8
BLACK
6
CONTINUOUS
10
13.6581
20
-6.73396
11
13.6581
21
-6.73397
0
LINE
8
BLACK
6
CONTINUOUS
10
13.6581
20
-6.73397
11
13.658
21
-6.73398
0
LINE
8
BLACK
6
CONTINUOUS
10
13.658
20
-6.73398
11
13.6579
21
-6.734
0
LINE
8
BLACK
6
CONTINUOUS
10
13.6579
20
-6.734
11
13.6388
21
-6.73601
0
LINE
8
BLACK
6
CONTINUOUS
10
13.6388
20
-6.73601
11
13.6388
21
-6.73601
0
LINE
8
BLACK
6
CONTINUOUS
10
13.6388
20
-6.73601
11
13.6388
21
-6.73601
0
LINE
8
BLACK
6
CONTINUOUS
10
13.6388
20
-6.73601
11
13.6387
21
-6.73601
0
LINE
8
BLACK
6
CONTINUOUS
10
13.6387
20
-6.73601
11
13.6381
21
-6.73601
0
LINE
8
BLACK
6
CONTINUOUS
10
13.6381
20
-6.73601
11
13.6381
21
-6.73601
0
LINE
8
BLACK
6
CONTINUOUS
10
13.6381
20
-6.73601
11
13.6381
21
-6.73601
0
LINE
8
BLACK
6
CONTINUOUS
10
13.6381
20
-6.73601
11
13.638
21
-6.73601
0
LINE
8
BLACK
6
CONTINUOUS
10
13.638
20
-6.73601
11
13.638
21
-6.73601
0
LINE
8
BLACK
6
CONTINUOUS
10
13.638
20
-6.73601
11
2.61429
21
-6.73601
0
LINE
8
BLACK
6
CONTINUOUS
10
2.61429
20
-6.73601
11
2.61382
21
-6.73601
0
LINE
8
BLACK
6
CONTINUOUS
10
2.61382
20
-6.73601
11
2.61377
21
-6.73601
0
LINE
8
BLACK
6
CONTINUOUS
10
2.61377
20
-6.73601
11
2.61377
21
-6.73601
0
LINE
8
BLACK
6
CONTINUOUS
10
2.61377
20
-6.73601
11
2.61376
21
-6.73601
0
LINE
8
BLACK
6
CONTINUOUS
10
2.61376
20
-6.73601
11
2.61368
21
-6.736
0
LINE
8
BLACK
6
CONTINUOUS
10
2.61368
20
-6.736
11
2.61368
21
-6.736
0
LINE
8
BLACK
6
CONTINUOUS
10
2.61368
20
-6.736
11
2.59466
21
-6.73406
0
LINE
8
BLACK
6
CONTINUOUS
10
2.59466
20
-6.73406
11
2.59466
21
-6.73406
0
LINE
8
BLACK
6
CONTINUOUS
10
2.59466
20
-6.73406
11
2.59466
21
-6.73406
0
LINE
8
BLACK
6
CONTINUOUS
10
2.59466
20
-6.73406
11
2.59465
21
-6.73406
0
LINE
8
BLACK
6
CONTINUOUS
10
2.59465
20
-6.73406
11
2.59456
21
-6.73404
0
LINE
8
BLACK
6
CONTINUOUS
10
2.59456
20
-6.73404
11
2.59448
21
-6.73402
0
LINE
8
BLACK
6
CONTINUOUS
10
2.59448
20
-6.73402
11
2.57611
21
-6.7284
0
LINE
8
BLACK
6
CONTINUOUS
10
2.57611
20
-6.7284
11
2.57611
21
-6.7284
0
LINE
8
BLACK
6
CONTINUOUS
10
2.57611
20
-6.7284
11
2.57611
21
-6.7284
0
LINE
8
BLACK
6
CONTINUOUS
10
2.57611
20
-6.7284
11
2.5761
21
-6.7284
0
LINE
8
BLACK
6
CONTINUOUS
10
2.5761
20
-6.7284
11
2.57601
21
-6.72836
0
LINE
8
BLACK
6
CONTINUOUS
10
2.57601
20
-6.72836
11
2.57593
21
-6.72833
0
LINE
8
BLACK
6
CONTINUOUS
10
2.57593
20
-6.72833
11
2.55901
21
-6.71925
0
LINE
8
BLACK
6
CONTINUOUS
10
2.55901
20
-6.71925
11
2.55899
21
-6.71924
0
LINE
8
BLACK
6
CONTINUOUS
10
2.55899
20
-6.71924
11
2.55892
21
-6.71919
0
LINE
8
BLACK
6
CONTINUOUS
10
2.55892
20
-6.71919
11
2.55885
21
-6.71914
0
LINE
8
BLACK
6
CONTINUOUS
10
2.55885
20
-6.71914
11
2.54401
21
-6.70694
0
LINE
8
BLACK
6
CONTINUOUS
10
2.54401
20
-6.70694
11
2.544
21
-6.70694
0
LINE
8
BLACK
6
CONTINUOUS
10
2.544
20
-6.70694
11
2.54394
21
-6.70687
0
LINE
8
BLACK
6
CONTINUOUS
10
2.54394
20
-6.70687
11
2.54387
21
-6.70681
0
LINE
8
BLACK
6
CONTINUOUS
10
2.54387
20
-6.70681
11
2.53169
21
-6.69196
0
LINE
8
BLACK
6
CONTINUOUS
10
2.53169
20
-6.69196
11
2.53169
21
-6.69196
0
LINE
8
BLACK
6
CONTINUOUS
10
2.53169
20
-6.69196
11
2.53169
21
-6.69196
0
LINE
8
BLACK
6
CONTINUOUS
10
2.53169
20
-6.69196
11
2.53168
21
-6.69195
0
LINE
8
BLACK
6
CONTINUOUS
10
2.53168
20
-6.69195
11
2.53163
21
-6.69188
0
LINE
8
BLACK
6
CONTINUOUS
10
2.53163
20
-6.69188
11
2.53158
21
-6.6918
0
LINE
8
BLACK
6
CONTINUOUS
10
2.53158
20
-6.6918
11
2.52251
21
-6.67487
0
LINE
8
BLACK
6
CONTINUOUS
10
2.52251
20
-6.67487
11
2.5225
21
-6.67486
0
LINE
8
BLACK
6
CONTINUOUS
10
2.5225
20
-6.67486
11
2.52247
21
-6.67478
0
LINE
8
BLACK
6
CONTINUOUS
10
2.52247
20
-6.67478
11
2.52243
21
-6.6747
0
LINE
8
BLACK
6
CONTINUOUS
10
2.52243
20
-6.6747
11
2.51682
21
-6.65633
0
LINE
8
BLACK
6
CONTINUOUS
10
2.51682
20
-6.65633
11
2.51682
21
-6.65631
0
LINE
8
BLACK
6
CONTINUOUS
10
2.51682
20
-6.65631
11
2.5168
21
-6.65622
0
LINE
8
BLACK
6
CONTINUOUS
10
2.5168
20
-6.65622
11
2.51679
21
-6.65614
0
LINE
8
BLACK
6
CONTINUOUS
10
2.51679
20
-6.65614
11
2.51485
21
-6.63703
0
LINE
8
BLACK
6
CONTINUOUS
10
2.51485
20
-6.63703
11
2.51485
21
-6.63701
0
LINE
8
BLACK
6
CONTINUOUS
10
2.51485
20
-6.63701
11
2.51485
21
-6.63697
0
LINE
8
BLACK
6
CONTINUOUS
10
2.51485
20
-6.63697
11
2.51485
21
-6.63693
0
LINE
8
BLACK
6
CONTINUOUS
10
2.51485
20
-6.63693
11
2.51485
21
-6.6368
0
LINE
8
BLACK
6
CONTINUOUS
10
2.51485
20
-6.6368
11
2.51485
21
-6.6368
0
LINE
8
BLACK
6
CONTINUOUS
10
2.51485
20
-6.6368
11
2.51485
21
-6.63678
0
LINE
8
BLACK
6
CONTINUOUS
10
2.51485
20
-6.63678
11
2.51485
21
-6.63676
0
LINE
8
BLACK
6
CONTINUOUS
10
2.51485
20
-6.63676
11
2.51485
21
-6.63674
0
LINE
8
BLACK
6
CONTINUOUS
10
2.51485
20
-6.63674
11
2.51485
21
-5.28446
0
LINE
8
BLACK
6
CONTINUOUS
10
2.51485
20
-5.28446
11
2.51484
21
-5.28441
0
LINE
8
BLACK
6
CONTINUOUS
10
2.51484
20
-5.28441
11
2.51486
21
-5.28422
0
LINE
8
BLACK
6
CONTINUOUS
10
2.51486
20
-5.28422
11
2.51492
21
-5.28403
0
LINE
8
BLACK
6
CONTINUOUS
10
2.51492
20
-5.28403
11
2.51501
21
-5.28386
0
LINE
8
BLACK
6
CONTINUOUS
10
2.51501
20
-5.28386
11
2.51513
21
-5.28371
0
LINE
8
BLACK
6
CONTINUOUS
10
2.51513
20
-5.28371
11
2.51528
21
-5.28359
0
LINE
8
BLACK
6
CONTINUOUS
10
2.51528
20
-5.28359
11
2.51545
21
-5.2835
0
LINE
8
BLACK
6
CONTINUOUS
10
2.51545
20
-5.2835
11
2.51564
21
-5.28344
0
LINE
8
BLACK
6
CONTINUOUS
10
2.51564
20
-5.28344
11
2.51578
21
-5.28343
0
LINE
8
BLACK
6
CONTINUOUS
10
2.51578
20
-5.28343
11
2.51578
21
-5.28343
0
LINE
8
BLACK
6
CONTINUOUS
10
2.51578
20
-5.28343
11
2.51583
21
-5.28342
0
LINE
8
BLACK
6
CONTINUOUS
10
2.51583
20
-5.28342
11
2.51588
21
-5.28343
0
LINE
8
BLACK
6
CONTINUOUS
10
2.51588
20
-5.28343
11
2.6143
21
-5.28343
0
LINE
8
BLACK
6
CONTINUOUS
10
2.6143
20
-5.28343
11
2.61431
21
-5.28343
0
LINE
8
BLACK
6
CONTINUOUS
10
2.61431
20
-5.28343
11
2.6149
21
-5.28343
0
LINE
8
BLACK
6
CONTINUOUS
10
2.6149
20
-5.28343
11
2.62431
21
-5.28251
0
LINE
8
BLACK
6
CONTINUOUS
10
2.62431
20
-5.28251
11
2.63332
21
-5.2798
0
LINE
8
BLACK
6
CONTINUOUS
10
2.63332
20
-5.2798
11
2.64163
21
-5.27538
0
LINE
8
BLACK
6
CONTINUOUS
10
2.64163
20
-5.27538
11
2.64893
21
-5.26943
0
LINE
8
BLACK
6
CONTINUOUS
10
2.64893
20
-5.26943
11
2.65493
21
-5.26218
0
LINE
8
BLACK
6
CONTINUOUS
10
2.65493
20
-5.26218
11
2.65941
21
-5.25391
0
LINE
8
BLACK
6
CONTINUOUS
10
2.65941
20
-5.25391
11
2.6622
21
-5.24492
0
LINE
8
BLACK
6
CONTINUOUS
10
2.6622
20
-5.24492
11
2.66319
21
-5.23555
0
LINE
8
BLACK
6
CONTINUOUS
10
2.66319
20
-5.23555
11
2.66234
21
-5.22618
0
LINE
8
BLACK
6
CONTINUOUS
10
2.66234
20
-5.22618
11
2.65968
21
-5.21715
0
LINE
8
BLACK
6
CONTINUOUS
10
2.65968
20
-5.21715
11
2.65533
21
-5.20881
0
LINE
8
BLACK
6
CONTINUOUS
10
2.65533
20
-5.20881
11
2.64943
21
-5.20147
0
LINE
8
BLACK
6
CONTINUOUS
10
2.64943
20
-5.20147
11
2.64222
21
-5.19542
0
LINE
8
BLACK
6
CONTINUOUS
10
2.64222
20
-5.19542
11
2.63398
21
-5.19088
0
LINE
8
BLACK
6
CONTINUOUS
10
2.63398
20
-5.19088
11
2.62501
21
-5.18803
0
LINE
8
BLACK
6
CONTINUOUS
10
2.62501
20
-5.18803
11
2.61561
21
-5.18697
0
LINE
8
BLACK
6
CONTINUOUS
10
2.61561
20
-5.18697
11
2.6143
21
-5.18697
0
LINE
8
BLACK
6
CONTINUOUS
10
2.6143
20
-5.18697
11
2.6143
21
-5.18697
0
LINE
8
BLACK
6
CONTINUOUS
10
2.6143
20
-5.18697
11
2.51594
21
-5.18697
0
LINE
8
BLACK
6
CONTINUOUS
10
2.51594
20
-5.18697
11
2.51589
21
-5.18698
0
LINE
8
BLACK
6
CONTINUOUS
10
2.51589
20
-5.18698
11
2.51585
21
-5.18697
0
LINE
8
BLACK
6
CONTINUOUS
10
2.51585
20
-5.18697
11
2.51585
21
-5.18697
0
LINE
8
BLACK
6
CONTINUOUS
10
2.51585
20
-5.18697
11
2.5157
21
-5.18696
0
LINE
8
BLACK
6
CONTINUOUS
10
2.5157
20
-5.18696
11
2.51552
21
-5.1869
0
LINE
8
BLACK
6
CONTINUOUS
10
2.51552
20
-5.1869
11
2.51534
21
-5.18681
0
LINE
8
BLACK
6
CONTINUOUS
10
2.51534
20
-5.18681
11
2.51519
21
-5.18669
0
LINE
8
BLACK
6
CONTINUOUS
10
2.51519
20
-5.18669
11
2.51507
21
-5.18654
0
LINE
8
BLACK
6
CONTINUOUS
10
2.51507
20
-5.18654
11
2.51498
21
-5.18637
0
LINE
8
BLACK
6
CONTINUOUS
10
2.51498
20
-5.18637
11
2.51492
21
-5.18618
0
LINE
8
BLACK
6
CONTINUOUS
10
2.51492
20
-5.18618
11
2.5149
21
-5.18599
0
LINE
8
BLACK
6
CONTINUOUS
10
2.5149
20
-5.18599
11
2.51491
21
-5.18594
0
LINE
8
BLACK
6
CONTINUOUS
10
2.51491
20
-5.18594
11
2.51491
21
-3.10909
0
LINE
8
BLACK
6
CONTINUOUS
10
2.51491
20
-3.10909
11
2.51491
21
-3.10904
0
LINE
8
BLACK
6
CONTINUOUS
10
2.51491
20
-3.10904
11
2.51491
21
-3.10904
0
LINE
8
BLACK
6
CONTINUOUS
10
2.51491
20
-3.10904
11
2.51678
21
-3.08994
0
LINE
8
BLACK
6
CONTINUOUS
10
2.51678
20
-3.08994
11
2.51678
21
-3.08992
0
LINE
8
BLACK
6
CONTINUOUS
10
2.51678
20
-3.08992
11
2.5168
21
-3.08984
0
LINE
8
BLACK
6
CONTINUOUS
10
2.5168
20
-3.08984
11
2.51682
21
-3.08975
0
LINE
8
BLACK
6
CONTINUOUS
10
2.51682
20
-3.08975
11
2.52237
21
-3.07137
0
LINE
8
BLACK
6
CONTINUOUS
10
2.52237
20
-3.07137
11
2.52237
21
-3.07136
0
LINE
8
BLACK
6
CONTINUOUS
10
2.52237
20
-3.07136
11
2.52241
21
-3.07128
0
LINE
8
BLACK
6
CONTINUOUS
10
2.52241
20
-3.07128
11
2.52244
21
-3.0712
0
LINE
8
BLACK
6
CONTINUOUS
10
2.52244
20
-3.0712
11
2.53145
21
-3.05425
0
LINE
8
BLACK
6
CONTINUOUS
10
2.53145
20
-3.05425
11
2.53146
21
-3.05423
0
LINE
8
BLACK
6
CONTINUOUS
10
2.53146
20
-3.05423
11
2.53151
21
-3.05416
0
LINE
8
BLACK
6
CONTINUOUS
10
2.53151
20
-3.05416
11
2.53156
21
-3.05409
0
LINE
8
BLACK
6
CONTINUOUS
10
2.53156
20
-3.05409
11
2.54369
21
-3.03921
0
LINE
8
BLACK
6
CONTINUOUS
10
2.54369
20
-3.03921
11
2.54369
21
-3.03921
0
LINE
8
BLACK
6
CONTINUOUS
10
2.54369
20
-3.03921
11
2.54369
21
-3.03921
0
LINE
8
BLACK
6
CONTINUOUS
10
2.54369
20
-3.03921
11
2.5437
21
-3.0392
0
LINE
8
BLACK
6
CONTINUOUS
10
2.5437
20
-3.0392
11
2.54377
21
-3.03914
0
LINE
8
BLACK
6
CONTINUOUS
10
2.54377
20
-3.03914
11
2.54383
21
-3.03907
0
LINE
8
BLACK
6
CONTINUOUS
10
2.54383
20
-3.03907
11
2.55862
21
-3.02684
0
LINE
8
BLACK
6
CONTINUOUS
10
2.55862
20
-3.02684
11
2.55862
21
-3.02684
0
LINE
8
BLACK
6
CONTINUOUS
10
2.55862
20
-3.02684
11
2.55862
21
-3.02684
0
LINE
8
BLACK
6
CONTINUOUS
10
2.55862
20
-3.02684
11
2.55863
21
-3.02683
0
LINE
8
BLACK
6
CONTINUOUS
10
2.55863
20
-3.02683
11
2.5587
21
-3.02678
0
LINE
8
BLACK
6
CONTINUOUS
10
2.5587
20
-3.02678
11
2.55878
21
-3.02673
0
LINE
8
BLACK
6
CONTINUOUS
10
2.55878
20
-3.02673
11
2.57566
21
-3.0176
0
LINE
8
BLACK
6
CONTINUOUS
10
2.57566
20
-3.0176
11
2.57566
21
-3.0176
0
LINE
8
BLACK
6
CONTINUOUS
10
2.57566
20
-3.0176
11
2.57566
21
-3.0176
0
LINE
8
BLACK
6
CONTINUOUS
10
2.57566
20
-3.0176
11
2.57567
21
-3.0176
0
LINE
8
BLACK
6
CONTINUOUS
10
2.57567
20
-3.0176
11
2.57576
21
-3.01756
0
LINE
8
BLACK
6
CONTINUOUS
10
2.57576
20
-3.01756
11
2.57584
21
-3.01753
0
LINE
8
BLACK
6
CONTINUOUS
10
2.57584
20
-3.01753
11
2.59418
21
-3.01185
0
LINE
8
BLACK
6
CONTINUOUS
10
2.59418
20
-3.01185
11
2.59419
21
-3.01185
0
LINE
8
BLACK
6
CONTINUOUS
10
2.59419
20
-3.01185
11
2.59428
21
-3.01183
0
LINE
8
BLACK
6
CONTINUOUS
10
2.59428
20
-3.01183
11
2.59437
21
-3.01181
0
LINE
8
BLACK
6
CONTINUOUS
10
2.59437
20
-3.01181
11
2.61346
21
-3.00981
0
LINE
8
BLACK
6
CONTINUOUS
10
2.61346
20
-3.00981
11
2.61347
21
-3.0098
0
LINE
8
BLACK
6
CONTINUOUS
10
2.61347
20
-3.0098
11
2.61351
21
-3.0098
0
LINE
8
BLACK
6
CONTINUOUS
10
2.61351
20
-3.0098
11
2.61356
21
-3.0098
0
LINE
8
BLACK
6
CONTINUOUS
10
2.61356
20
-3.0098
11
2.6142
21
-3.0098
0
LINE
8
BLACK
6
CONTINUOUS
10
2.6142
20
-3.0098
11
2.6142
21
-3.0098
0
LINE
8
BLACK
6
CONTINUOUS
10
2.6142
20
-3.0098
11
2.61423
21
-3.0098
0
LINE
8
BLACK
6
CONTINUOUS
10
2.61423
20
-3.0098
11
2.61424
21
-3.0098
0
LINE
8
BLACK
6
CONTINUOUS
10
2.61424
20
-3.0098
11
2.61426
21
-3.0098
0
LINE
8
BLACK
6
CONTINUOUS
10
2.61426
20
-3.0098
11
13.6378
21
-3.0098
0
LINE
8
BLACK
6
CONTINUOUS
10
13.6378
20
-3.0098
11
13.6378
21
-3.0098
0
LINE
8
BLACK
6
CONTINUOUS
10
13.6378
20
-3.0098
11
13.6379
21
-3.0098
0
LINE
8
BLACK
6
CONTINUOUS
10
13.6379
20
-3.0098
11
13.6379
21
-3.0098
0
LINE
8
BLACK
6
CONTINUOUS
10
13.6379
20
-3.0098
11
13.6379
21
-3.0098
0
LINE
8
BLACK
6
CONTINUOUS
10
13.6379
20
-3.0098
11
13.6397
21
-3.0098
0
LINE
8
BLACK
6
CONTINUOUS
10
13.6397
20
-3.0098
11
13.6398
21
-3.0098
0
LINE
8
BLACK
6
CONTINUOUS
10
13.6398
20
-3.0098
11
13.6582
21
-3.01129
0
LINE
8
BLACK
6
CONTINUOUS
10
13.6582
20
-3.01129
11
13.6582
21
-3.01129
0
LINE
8
BLACK
6
CONTINUOUS
10
13.6582
20
-3.01129
11
13.6582
21
-3.01129
0
LINE
8
BLACK
6
CONTINUOUS
10
13.6582
20
-3.01129
11
13.6582
21
-3.01129
0
LINE
8
BLACK
6
CONTINUOUS
10
13.6582
20
-3.01129
11
13.6583
21
-3.01131
0
LINE
8
BLACK
6
CONTINUOUS
10
13.6583
20
-3.01131
11
13.6584
21
-3.01132
0
LINE
8
BLACK
6
CONTINUOUS
10
13.6584
20
-3.01132
11
13.6763
21
-3.01637
0
LINE
8
BLACK
6
CONTINUOUS
10
13.6763
20
-3.01637
11
13.6763
21
-3.01637
0
LINE
8
BLACK
6
CONTINUOUS
10
13.6763
20
-3.01637
11
13.6763
21
-3.01637
0
LINE
8
BLACK
6
CONTINUOUS
10
13.6763
20
-3.01637
11
13.6763
21
-3.01638
0
LINE
8
BLACK
6
CONTINUOUS
10
13.6763
20
-3.01638
11
13.6764
21
-3.01641
0
LINE
8
BLACK
6
CONTINUOUS
10
13.6764
20
-3.01641
11
13.6764
21
-3.01644
0
LINE
8
BLACK
6
CONTINUOUS
10
13.6764
20
-3.01644
11
13.693
21
-3.02486
0
LINE
8
BLACK
6
CONTINUOUS
10
13.693
20
-3.02486
11
13.693
21
-3.02486
0
LINE
8
BLACK
6
CONTINUOUS
10
13.693
20
-3.02486
11
13.693
21
-3.02491
0
LINE
8
BLACK
6
CONTINUOUS
10
13.693
20
-3.02491
11
13.6931
21
-3.02496
0
LINE
8
BLACK
6
CONTINUOUS
10
13.6931
20
-3.02496
11
13.7077
21
-3.03642
0
LINE
8
BLACK
6
CONTINUOUS
10
13.7077
20
-3.03642
11
13.7077
21
-3.03642
0
LINE
8
BLACK
6
CONTINUOUS
10
13.7077
20
-3.03642
11
13.7077
21
-3.03642
0
LINE
8
BLACK
6
CONTINUOUS
10
13.7077
20
-3.03642
11
13.7077
21
-3.03643
0
LINE
8
BLACK
6
CONTINUOUS
10
13.7077
20
-3.03643
11
13.7078
21
-3.03649
0
LINE
8
BLACK
6
CONTINUOUS
10
13.7078
20
-3.03649
11
13.7078
21
-3.03656
0
LINE
8
BLACK
6
CONTINUOUS
10
13.7078
20
-3.03656
11
13.7199
21
-3.05063
0
LINE
8
BLACK
6
CONTINUOUS
10
13.7199
20
-3.05063
11
13.7199
21
-3.05063
0
LINE
8
BLACK
6
CONTINUOUS
10
13.7199
20
-3.05063
11
13.7199
21
-3.05063
0
LINE
8
BLACK
6
CONTINUOUS
10
13.7199
20
-3.05063
11
13.7199
21
-3.05064
0
LINE
8
BLACK
6
CONTINUOUS
10
13.7199
20
-3.05064
11
13.7199
21
-3.05071
0
LINE
8
BLACK
6
CONTINUOUS
10
13.7199
20
-3.05071
11
13.72
21
-3.05079
0
LINE
8
BLACK
6
CONTINUOUS
10
13.72
20
-3.05079
11
13.7291
21
-3.06694
0
LINE
8
BLACK
6
CONTINUOUS
10
13.7291
20
-3.06694
11
13.7291
21
-3.06695
0
LINE
8
BLACK
6
CONTINUOUS
10
13.7291
20
-3.06695
11
13.7291
21
-3.06703
0
LINE
8
BLACK
6
CONTINUOUS
10
13.7291
20
-3.06703
11
13.7292
21
-3.06711
0
LINE
8
BLACK
6
CONTINUOUS
10
13.7292
20
-3.06711
11
13.735
21
-3.08472
0
LINE
8
BLACK
6
CONTINUOUS
10
13.735
20
-3.08472
11
13.735
21
-3.08473
0
LINE
8
BLACK
6
CONTINUOUS
10
13.735
20
-3.08473
11
13.735
21
-3.08482
0
LINE
8
BLACK
6
CONTINUOUS
10
13.735
20
-3.08482
11
13.735
21
-3.08491
0
LINE
8
BLACK
6
CONTINUOUS
10
13.735
20
-3.08491
11
13.7373
21
-3.1033
0
LINE
8
BLACK
6
CONTINUOUS
10
13.7373
20
-3.1033
11
13.7373
21
-3.10332
0
LINE
8
BLACK
6
CONTINUOUS
10
13.7373
20
-3.10332
11
13.7373
21
-3.10337
0
LINE
8
BLACK
6
CONTINUOUS
10
13.7373
20
-3.10337
11
13.7373
21
-3.10341
0
LINE
8
BLACK
6
CONTINUOUS
10
13.7373
20
-3.10341
11
13.7373
21
-3.10569
0
LINE
8
BLACK
6
CONTINUOUS
10
13.7373
20
-3.10569
11
13.7373
21
-3.1057
0
LINE
8
BLACK
6
CONTINUOUS
10
13.7373
20
-3.1057
11
13.7373
21
-3.10574
0
LINE
8
BLACK
6
CONTINUOUS
10
13.7373
20
-3.10574
11
13.7373
21
-3.10575
0
LINE
8
BLACK
6
CONTINUOUS
10
13.7373
20
-3.10575
11
13.7373
21
-3.10575
0
LINE
8
BLACK
6
CONTINUOUS
10
13.7373
20
-3.10575
11
13.7373
21
-5.18594
0
LINE
8
BLACK
6
CONTINUOUS
10
13.7373
20
-5.18594
11
13.7373
21
-5.18599
0
LINE
8
BLACK
6
CONTINUOUS
10
13.7373
20
-5.18599
11
13.7373
21
-5.18618
0
LINE
8
BLACK
6
CONTINUOUS
10
13.7373
20
-5.18618
11
13.7372
21
-5.18637
0
LINE
8
BLACK
6
CONTINUOUS
10
13.7372
20
-5.18637
11
13.7371
21
-5.18654
0
LINE
8
BLACK
6
CONTINUOUS
10
13.7371
20
-5.18654
11
13.737
21
-5.18669
0
LINE
8
BLACK
6
CONTINUOUS
10
13.737
20
-5.18669
11
13.7369
21
-5.18681
0
LINE
8
BLACK
6
CONTINUOUS
10
13.7369
20
-5.18681
11
13.7367
21
-5.1869
0
LINE
8
BLACK
6
CONTINUOUS
10
13.7367
20
-5.1869
11
13.7365
21
-5.18696
0
LINE
8
BLACK
6
CONTINUOUS
10
13.7365
20
-5.18696
11
13.7364
21
-5.18697
0
LINE
8
BLACK
6
CONTINUOUS
10
13.7364
20
-5.18697
11
13.7364
21
-5.18697
0
LINE
8
BLACK
6
CONTINUOUS
10
13.7364
20
-5.18697
11
13.7363
21
-5.18698
0
LINE
8
BLACK
6
CONTINUOUS
10
13.7363
20
-5.18698
11
13.7363
21
-5.18697
0
LINE
8
BLACK
6
CONTINUOUS
10
13.7363
20
-5.18697
11
13.6379
21
-5.18697
0
LINE
8
BLACK
6
CONTINUOUS
10
13.6379
20
-5.18697
11
13.6373
21
-5.18698
0
LINE
8
BLACK
6
CONTINUOUS
10
13.6373
20
-5.18698
11
13.6279
21
-5.18803
0
LINE
8
BLACK
6
CONTINUOUS
10
13.6279
20
-5.18803
11
13.6189
21
-5.19088
0
LINE
8
BLACK
6
CONTINUOUS
10
13.6189
20
-5.19088
11
13.6106
21
-5.19541
0
LINE
8
BLACK
6
CONTINUOUS
10
13.6106
20
-5.19541
11
13.6034
21
-5.20146
0
LINE
8
BLACK
6
CONTINUOUS
10
13.6034
20
-5.20146
11
13.5975
21
-5.20879
0
LINE
8
BLACK
6
CONTINUOUS
10
13.5975
20
-5.20879
11
13.5932
21
-5.21713
0
LINE
8
BLACK
6
CONTINUOUS
10
13.5932
20
-5.21713
11
13.5905
21
-5.22616
0
LINE
8
BLACK
6
CONTINUOUS
10
13.5905
20
-5.22616
11
13.5897
21
-5.23554
0
LINE
8
BLACK
6
CONTINUOUS
10
13.5897
20
-5.23554
11
13.5906
21
-5.2449
0
LINE
8
BLACK
6
CONTINUOUS
10
13.5906
20
-5.2449
11
13.5934
21
-5.25389
0
LINE
8
BLACK
6
CONTINUOUS
10
13.5934
20
-5.25389
11
13.5979
21
-5.26217
0
LINE
8
BLACK
6
CONTINUOUS
10
13.5979
20
-5.26217
11
13.6039
21
-5.26942
0
LINE
8
BLACK
6
CONTINUOUS
10
13.6039
20
-5.26942
11
13.6112
21
-5.27537
0
LINE
8
BLACK
6
CONTINUOUS
10
13.6112
20
-5.27537
11
13.6195
21
-5.27978
0
LINE
8
BLACK
6
CONTINUOUS
10
13.6195
20
-5.27978
11
13.6285
21
-5.2825
0
LINE
8
BLACK
6
CONTINUOUS
10
13.6285
20
-5.2825
11
13.6379
21
-5.28343
0
LINE
8
BLACK
6
CONTINUOUS
10
13.6379
20
-5.28343
11
13.7363
21
-5.28343
0
LINE
8
BLACK
6
CONTINUOUS
10
13.7363
20
-5.28343
11
13.7363
21
-5.28342
0
LINE
8
BLACK
6
CONTINUOUS
10
13.7363
20
-5.28342
11
13.7365
21
-5.28344
0
LINE
8
BLACK
6
CONTINUOUS
10
13.7365
20
-5.28344
11
13.7367
21
-5.2835
0
LINE
8
BLACK
6
CONTINUOUS
10
13.7367
20
-5.2835
11
13.7369
21
-5.28359
0
LINE
8
BLACK
6
CONTINUOUS
10
13.7369
20
-5.28359
11
13.737
21
-5.28371
0
LINE
8
BLACK
6
CONTINUOUS
10
13.737
20
-5.28371
11
13.7371
21
-5.28386
0
LINE
8
BLACK
6
CONTINUOUS
10
13.7371
20
-5.28386
11
13.7372
21
-5.28403
0
LINE
8
BLACK
6
CONTINUOUS
10
13.7372
20
-5.28403
11
13.7373
21
-5.28422
0
LINE
8
BLACK
6
CONTINUOUS
10
13.7373
20
-5.28422
11
13.7373
21
-5.28436
0
LINE
8
BLACK
6
CONTINUOUS
10
13.7373
20
-5.28436
11
13.7373
21
-5.28436
0
LINE
8
BLACK
6
CONTINUOUS
10
13.7373
20
-5.28436
11
13.7373
21
-5.28441
0
LINE
8
BLACK
6
CONTINUOUS
10
13.7373
20
-5.28441
11
13.7373
21
-5.28446
0
LINE
8
BLACK
6
CONTINUOUS
10
13.7373
20
-5.28446
11
13.7373
21
-6.6368
0
LINE
8
BLACK
6
CONTINUOUS
10
13.7373
20
-6.6368
11
13.7373
21
-6.63685
0
LINE
8
BLACK
6
CONTINUOUS
10
2.61571
20
-5.185
11
2.61586
21
-5.18502
0
LINE
8
BLACK
6
CONTINUOUS
10
2.61586
20
-5.18502
11
2.61587
21
-5.18502
0
LINE
8
BLACK
6
CONTINUOUS
10
2.61587
20
-5.18502
11
2.62532
21
-5.18608
0
LINE
8
BLACK
6
CONTINUOUS
10
2.62532
20
-5.18608
11
2.62534
21
-5.18608
0
LINE
8
BLACK
6
CONTINUOUS
10
2.62534
20
-5.18608
11
2.62542
21
-5.1861
0
LINE
8
BLACK
6
CONTINUOUS
10
2.62542
20
-5.1861
11
2.62551
21
-5.18612
0
LINE
8
BLACK
6
CONTINUOUS
10
2.62551
20
-5.18612
11
2.63466
21
-5.18903
0
LINE
8
BLACK
6
CONTINUOUS
10
2.63466
20
-5.18903
11
2.63468
21
-5.18904
0
LINE
8
BLACK
6
CONTINUOUS
10
2.63468
20
-5.18904
11
2.63476
21
-5.18907
0
LINE
8
BLACK
6
CONTINUOUS
10
2.63476
20
-5.18907
11
2.63484
21
-5.18911
0
LINE
8
BLACK
6
CONTINUOUS
10
2.63484
20
-5.18911
11
2.64326
21
-5.19374
0
LINE
8
BLACK
6
CONTINUOUS
10
2.64326
20
-5.19374
11
2.64327
21
-5.19374
0
LINE
8
BLACK
6
CONTINUOUS
10
2.64327
20
-5.19374
11
2.64334
21
-5.1938
0
LINE
8
BLACK
6
CONTINUOUS
10
2.64334
20
-5.1938
11
2.64342
21
-5.19385
0
LINE
8
BLACK
6
CONTINUOUS
10
2.64342
20
-5.19385
11
2.65077
21
-5.20002
0
LINE
8
BLACK
6
CONTINUOUS
10
2.65077
20
-5.20002
11
2.65078
21
-5.20003
0
LINE
8
BLACK
6
CONTINUOUS
10
2.65078
20
-5.20003
11
2.65084
21
-5.2001
0
LINE
8
BLACK
6
CONTINUOUS
10
2.65084
20
-5.2001
11
2.65091
21
-5.20016
0
LINE
8
BLACK
6
CONTINUOUS
10
2.65091
20
-5.20016
11
2.65692
21
-5.20765
0
LINE
8
BLACK
6
CONTINUOUS
10
2.65692
20
-5.20765
11
2.65692
21
-5.20765
0
LINE
8
BLACK
6
CONTINUOUS
10
2.65692
20
-5.20765
11
2.65692
21
-5.20765
0
LINE
8
BLACK
6
CONTINUOUS
10
2.65692
20
-5.20765
11
2.65693
21
-5.20766
0
LINE
8
BLACK
6
CONTINUOUS
10
2.65693
20
-5.20766
11
2.65698
21
-5.20774
0
LINE
8
BLACK
6
CONTINUOUS
10
2.65698
20
-5.20774
11
2.65703
21
-5.20781
0
LINE
8
BLACK
6
CONTINUOUS
10
2.65703
20
-5.20781
11
2.66147
21
-5.21632
0
LINE
8
BLACK
6
CONTINUOUS
10
2.66147
20
-5.21632
11
2.66148
21
-5.21634
0
LINE
8
BLACK
6
CONTINUOUS
10
2.66148
20
-5.21634
11
2.66151
21
-5.21642
0
LINE
8
BLACK
6
CONTINUOUS
10
2.66151
20
-5.21642
11
2.66155
21
-5.2165
0
LINE
8
BLACK
6
CONTINUOUS
10
2.66155
20
-5.2165
11
2.66425
21
-5.22572
0
LINE
8
BLACK
6
CONTINUOUS
10
2.66425
20
-5.22572
11
2.66426
21
-5.22573
0
LINE
8
BLACK
6
CONTINUOUS
10
2.66426
20
-5.22573
11
2.66427
21
-5.22582
0
LINE
8
BLACK
6
CONTINUOUS
10
2.66427
20
-5.22582
11
2.66429
21
-5.22591
0
LINE
8
BLACK
6
CONTINUOUS
10
2.66429
20
-5.22591
11
2.66516
21
-5.23547
0
LINE
8
BLACK
6
CONTINUOUS
10
2.66516
20
-5.23547
11
2.66516
21
-5.23549
0
LINE
8
BLACK
6
CONTINUOUS
10
2.66516
20
-5.23549
11
2.66516
21
-5.23558
0
LINE
8
BLACK
6
CONTINUOUS
10
2.66516
20
-5.23558
11
2.66516
21
-5.23567
0
LINE
8
BLACK
6
CONTINUOUS
10
2.66516
20
-5.23567
11
2.66415
21
-5.24522
0
LINE
8
BLACK
6
CONTINUOUS
10
2.66415
20
-5.24522
11
2.66415
21
-5.24523
0
LINE
8
BLACK
6
CONTINUOUS
10
2.66415
20
-5.24523
11
2.66413
21
-5.24532
0
LINE
8
BLACK
6
CONTINUOUS
10
2.66413
20
-5.24532
11
2.66411
21
-5.24541
0
LINE
8
BLACK
6
CONTINUOUS
10
2.66411
20
-5.24541
11
2.66127
21
-5.25458
0
LINE
8
BLACK
6
CONTINUOUS
10
2.66127
20
-5.25458
11
2.66126
21
-5.25459
0
LINE
8
BLACK
6
CONTINUOUS
10
2.66126
20
-5.25459
11
2.66122
21
-5.25468
0
LINE
8
BLACK
6
CONTINUOUS
10
2.66122
20
-5.25468
11
2.66119
21
-5.25476
0
LINE
8
BLACK
6
CONTINUOUS
10
2.66119
20
-5.25476
11
2.65662
21
-5.26321
0
LINE
8
BLACK
6
CONTINUOUS
10
2.65662
20
-5.26321
11
2.65661
21
-5.26322
0
LINE
8
BLACK
6
CONTINUOUS
10
2.65661
20
-5.26322
11
2.65656
21
-5.26329
0
LINE
8
BLACK
6
CONTINUOUS
10
2.65656
20
-5.26329
11
2.65651
21
-5.26337
0
LINE
8
BLACK
6
CONTINUOUS
10
2.65651
20
-5.26337
11
2.65039
21
-5.27076
0
LINE
8
BLACK
6
CONTINUOUS
10
2.65039
20
-5.27076
11
2.65038
21
-5.27077
0
LINE
8
BLACK
6
CONTINUOUS
10
2.65038
20
-5.27077
11
2.65031
21
-5.27084
0
LINE
8
BLACK
6
CONTINUOUS
10
2.65031
20
-5.27084
11
2.65025
21
-5.2709
0
LINE
8
BLACK
6
CONTINUOUS
10
2.65025
20
-5.2709
11
2.6428
21
-5.27697
0
LINE
8
BLACK
6
CONTINUOUS
10
2.6428
20
-5.27697
11
2.6428
21
-5.27697
0
LINE
8
BLACK
6
CONTINUOUS
10
2.6428
20
-5.27697
11
2.6428
21
-5.27697
0
LINE
8
BLACK
6
CONTINUOUS
10
2.6428
20
-5.27697
11
2.64279
21
-5.27698
0
LINE
8
BLACK
6
CONTINUOUS
10
2.64279
20
-5.27698
11
2.64272
21
-5.27702
0
LINE
8
BLACK
6
CONTINUOUS
10
2.64272
20
-5.27702
11
2.64264
21
-5.27707
0
LINE
8
BLACK
6
CONTINUOUS
10
2.64264
20
-5.27707
11
2.63416
21
-5.28158
0
LINE
8
BLACK
6
CONTINUOUS
10
2.63416
20
-5.28158
11
2.63415
21
-5.28159
0
LINE
8
BLACK
6
CONTINUOUS
10
2.63415
20
-5.28159
11
2.63406
21
-5.28162
0
LINE
8
BLACK
6
CONTINUOUS
10
2.63406
20
-5.28162
11
2.63398
21
-5.28165
0
LINE
8
BLACK
6
CONTINUOUS
10
2.63398
20
-5.28165
11
2.62479
21
-5.28443
0
LINE
8
BLACK
6
CONTINUOUS
10
2.62479
20
-5.28443
11
2.62477
21
-5.28443
0
LINE
8
BLACK
6
CONTINUOUS
10
2.62477
20
-5.28443
11
2.62468
21
-5.28445
0
LINE
8
BLACK
6
CONTINUOUS
10
2.62468
20
-5.28445
11
2.6246
21
-5.28446
0
LINE
8
BLACK
6
CONTINUOUS
10
2.6246
20
-5.28446
11
2.61504
21
-5.2854
0
LINE
8
BLACK
6
CONTINUOUS
10
2.61504
20
-5.2854
11
2.61502
21
-5.2854
0
LINE
8
BLACK
6
CONTINUOUS
10
2.61502
20
-5.2854
11
2.61498
21
-5.2854
0
LINE
8
BLACK
6
CONTINUOUS
10
2.61498
20
-5.2854
11
2.61493
21
-5.2854
0
LINE
8
BLACK
6
CONTINUOUS
10
2.61493
20
-5.2854
11
2.61426
21
-5.2854
0
LINE
8
BLACK
6
CONTINUOUS
10
2.61426
20
-5.2854
11
2.51681
21
-5.2854
0
LINE
8
BLACK
6
CONTINUOUS
10
2.51681
20
-5.2854
11
2.51681
21
-6.63675
0
LINE
8
BLACK
6
CONTINUOUS
10
2.51681
20
-6.63675
11
2.51681
21
-6.63688
0
LINE
8
BLACK
6
CONTINUOUS
10
2.51681
20
-6.63688
11
2.51873
21
-6.65584
0
LINE
8
BLACK
6
CONTINUOUS
10
2.51873
20
-6.65584
11
2.52429
21
-6.67403
0
LINE
8
BLACK
6
CONTINUOUS
10
2.52429
20
-6.67403
11
2.53327
21
-6.69079
0
LINE
8
BLACK
6
CONTINUOUS
10
2.53327
20
-6.69079
11
2.54533
21
-6.70548
0
LINE
8
BLACK
6
CONTINUOUS
10
2.54533
20
-6.70548
11
2.56002
21
-6.71756
0
LINE
8
BLACK
6
CONTINUOUS
10
2.56002
20
-6.71756
11
2.57678
21
-6.72655
0
LINE
8
BLACK
6
CONTINUOUS
10
2.57678
20
-6.72655
11
2.59496
21
-6.73211
0
LINE
8
BLACK
6
CONTINUOUS
10
2.59496
20
-6.73211
11
2.61392
21
-6.73405
0
LINE
8
BLACK
6
CONTINUOUS
10
2.61392
20
-6.73405
11
2.61429
21
-6.73405
0
LINE
8
BLACK
6
CONTINUOUS
10
2.61429
20
-6.73405
11
2.61429
21
-6.73405
0
LINE
8
BLACK
6
CONTINUOUS
10
2.61429
20
-6.73405
11
13.638
21
-6.73405
0
LINE
8
BLACK
6
CONTINUOUS
10
13.638
20
-6.73405
11
13.6387
21
-6.73404
0
LINE
8
BLACK
6
CONTINUOUS
10
13.6387
20
-6.73404
11
13.6576
21
-6.73205
0
LINE
8
BLACK
6
CONTINUOUS
10
13.6576
20
-6.73205
11
13.6757
21
-6.72644
0
LINE
8
BLACK
6
CONTINUOUS
10
13.6757
20
-6.72644
11
13.6924
21
-6.71741
0
LINE
8
BLACK
6
CONTINUOUS
10
13.6924
20
-6.71741
11
13.7071
21
-6.70531
0
LINE
8
BLACK
6
CONTINUOUS
10
13.7071
20
-6.70531
11
13.7191
21
-6.69059
0
LINE
8
BLACK
6
CONTINUOUS
10
13.7191
20
-6.69059
11
13.728
21
-6.67383
0
LINE
8
BLACK
6
CONTINUOUS
10
13.728
20
-6.67383
11
13.7335
21
-6.65565
0
LINE
8
BLACK
6
CONTINUOUS
10
13.7335
20
-6.65565
11
13.7353
21
-6.63671
0
LINE
8
BLACK
6
CONTINUOUS
10
13.7353
20
-6.63671
11
13.7353
21
-6.63637
0
LINE
8
BLACK
6
CONTINUOUS
10
13.7353
20
-6.63637
11
13.7353
21
-5.2854
0
LINE
8
BLACK
6
CONTINUOUS
10
13.7353
20
-5.2854
11
13.6378
21
-5.2854
0
LINE
8
BLACK
6
CONTINUOUS
10
13.6378
20
-5.2854
11
13.6378
21
-5.28539
0
LINE
8
BLACK
6
CONTINUOUS
10
13.6378
20
-5.28539
11
13.6378
21
-5.28539
0
LINE
8
BLACK
6
CONTINUOUS
10
13.6378
20
-5.28539
11
13.6282
21
-5.28445
0
LINE
8
BLACK
6
CONTINUOUS
10
13.6282
20
-5.28445
11
13.6282
21
-5.28445
0
LINE
8
BLACK
6
CONTINUOUS
10
13.6282
20
-5.28445
11
13.6281
21
-5.28443
0
LINE
8
BLACK
6
CONTINUOUS
10
13.6281
20
-5.28443
11
13.628
21
-5.28442
0
LINE
8
BLACK
6
CONTINUOUS
10
13.628
20
-5.28442
11
13.6189
21
-5.28164
0
LINE
8
BLACK
6
CONTINUOUS
10
13.6189
20
-5.28164
11
13.6188
21
-5.28164
0
LINE
8
BLACK
6
CONTINUOUS
10
13.6188
20
-5.28164
11
13.6188
21
-5.2816
0
LINE
8
BLACK
6
CONTINUOUS
10
13.6188
20
-5.2816
11
13.6187
21
-5.28157
0
LINE
8
BLACK
6
CONTINUOUS
10
13.6187
20
-5.28157
11
13.6102
21
-5.27706
0
LINE
8
BLACK
6
CONTINUOUS
10
13.6102
20
-5.27706
11
13.6102
21
-5.27705
0
LINE
8
BLACK
6
CONTINUOUS
10
13.6102
20
-5.27705
11
13.6101
21
-5.277
0
LINE
8
BLACK
6
CONTINUOUS
10
13.6101
20
-5.277
11
13.61
21
-5.27695
0
LINE
8
BLACK
6
CONTINUOUS
10
13.61
20
-5.27695
11
13.6026
21
-5.27088
0
LINE
8
BLACK
6
CONTINUOUS
10
13.6026
20
-5.27088
11
13.6026
21
-5.27087
0
LINE
8
BLACK
6
CONTINUOUS
10
13.6026
20
-5.27087
11
13.6025
21
-5.27081
0
LINE
8
BLACK
6
CONTINUOUS
10
13.6025
20
-5.27081
11
13.6025
21
-5.27075
0
LINE
8
BLACK
6
CONTINUOUS
10
13.6025
20
-5.27075
11
13.5963
21
-5.26335
0
LINE
8
BLACK
6
CONTINUOUS
10
13.5963
20
-5.26335
11
13.5963
21
-5.26334
0
LINE
8
BLACK
6
CONTINUOUS
10
13.5963
20
-5.26334
11
13.5963
21
-5.26326
0
LINE
8
BLACK
6
CONTINUOUS
10
13.5963
20
-5.26326
11
13.5962
21
-5.26319
0
LINE
8
BLACK
6
CONTINUOUS
10
13.5962
20
-5.26319
11
13.5917
21
-5.25474
0
LINE
8
BLACK
6
CONTINUOUS
10
13.5917
20
-5.25474
11
13.5916
21
-5.25473
0
LINE
8
BLACK
6
CONTINUOUS
10
13.5916
20
-5.25473
11
13.5916
21
-5.25464
0
LINE
8
BLACK
6
CONTINUOUS
10
13.5916
20
-5.25464
11
13.5916
21
-5.25456
0
LINE
8
BLACK
6
CONTINUOUS
10
13.5916
20
-5.25456
11
13.5887
21
-5.24539
0
LINE
8
BLACK
6
CONTINUOUS
10
13.5887
20
-5.24539
11
13.5887
21
-5.24537
0
LINE
8
BLACK
6
CONTINUOUS
10
13.5887
20
-5.24537
11
13.5887
21
-5.24528
0
LINE
8
BLACK
6
CONTINUOUS
10
13.5887
20
-5.24528
11
13.5887
21
-5.2452
0
LINE
8
BLACK
6
CONTINUOUS
10
13.5887
20
-5.2452
11
13.5877
21
-5.23565
0
LINE
8
BLACK
6
CONTINUOUS
10
13.5877
20
-5.23565
11
13.5877
21
-5.23563
0
LINE
8
BLACK
6
CONTINUOUS
10
13.5877
20
-5.23563
11
13.5877
21
-5.23554
0
LINE
8
BLACK
6
CONTINUOUS
10
13.5877
20
-5.23554
11
13.5877
21
-5.23545
0
LINE
8
BLACK
6
CONTINUOUS
10
13.5877
20
-5.23545
11
13.5886
21
-5.22589
0
LINE
8
BLACK
6
CONTINUOUS
10
13.5886
20
-5.22589
11
13.5886
21
-5.22588
0
LINE
8
BLACK
6
CONTINUOUS
10
13.5886
20
-5.22588
11
13.5886
21
-5.22579
0
LINE
8
BLACK
6
CONTINUOUS
10
13.5886
20
-5.22579
11
13.5886
21
-5.2257
0
LINE
8
BLACK
6
CONTINUOUS
10
13.5886
20
-5.2257
11
13.5913
21
-5.21649
0
LINE
8
BLACK
6
CONTINUOUS
10
13.5913
20
-5.21649
11
13.5913
21
-5.21647
0
LINE
8
BLACK
6
CONTINUOUS
10
13.5913
20
-5.21647
11
13.5914
21
-5.21639
0
LINE
8
BLACK
6
CONTINUOUS
10
13.5914
20
-5.21639
11
13.5914
21
-5.21631
0
LINE
8
BLACK
6
CONTINUOUS
10
13.5914
20
-5.21631
11
13.5958
21
-5.2078
0
LINE
8
BLACK
6
CONTINUOUS
10
13.5958
20
-5.2078
11
13.5958
21
-5.20778
0
LINE
8
BLACK
6
CONTINUOUS
10
13.5958
20
-5.20778
11
13.5959
21
-5.20771
0
LINE
8
BLACK
6
CONTINUOUS
10
13.5959
20
-5.20771
11
13.5959
21
-5.20764
0
LINE
8
BLACK
6
CONTINUOUS
10
13.5959
20
-5.20764
11
13.602
21
-5.20015
0
LINE
8
BLACK
6
CONTINUOUS
10
13.602
20
-5.20015
11
13.602
21
-5.20014
0
LINE
8
BLACK
6
CONTINUOUS
10
13.602
20
-5.20014
11
13.602
21
-5.20008
0
LINE
8
BLACK
6
CONTINUOUS
10
13.602
20
-5.20008
11
13.6021
21
-5.20001
0
LINE
8
BLACK
6
CONTINUOUS
10
13.6021
20
-5.20001
11
13.6095
21
-5.19384
0
LINE
8
BLACK
6
CONTINUOUS
10
13.6095
20
-5.19384
11
13.6095
21
-5.19383
0
LINE
8
BLACK
6
CONTINUOUS
10
13.6095
20
-5.19383
11
13.6095
21
-5.19378
0
LINE
8
BLACK
6
CONTINUOUS
10
13.6095
20
-5.19378
11
13.6096
21
-5.19373
0
LINE
8
BLACK
6
CONTINUOUS
10
13.6096
20
-5.19373
11
13.618
21
-5.1891
0
LINE
8
BLACK
6
CONTINUOUS
10
13.618
20
-5.1891
11
13.618
21
-5.1891
0
LINE
8
BLACK
6
CONTINUOUS
10
13.618
20
-5.1891
11
13.6181
21
-5.18906
0
LINE
8
BLACK
6
CONTINUOUS
10
13.6181
20
-5.18906
11
13.6182
21
-5.18903
0
LINE
8
BLACK
6
CONTINUOUS
10
13.6182
20
-5.18903
11
13.6274
21
-5.18612
0
LINE
8
BLACK
6
CONTINUOUS
10
13.6274
20
-5.18612
11
13.6274
21
-5.18612
0
LINE
8
BLACK
6
CONTINUOUS
10
13.6274
20
-5.18612
11
13.6275
21
-5.1861
0
LINE
8
BLACK
6
CONTINUOUS
10
13.6275
20
-5.1861
11
13.6275
21
-5.18608
0
LINE
8
BLACK
6
CONTINUOUS
10
13.6275
20
-5.18608
11
13.6371
21
-5.18501
0
LINE
8
BLACK
6
CONTINUOUS
10
13.6371
20
-5.18501
11
13.6371
21
-5.18501
0
LINE
8
BLACK
6
CONTINUOUS
10
13.6371
20
-5.18501
11
13.6371
21
-5.18501
0
LINE
8
BLACK
6
CONTINUOUS
10
13.6371
20
-5.18501
11
13.6372
21
-5.18501
0
LINE
8
BLACK
6
CONTINUOUS
10
13.6372
20
-5.18501
11
13.6378
21
-5.185
0
LINE
8
BLACK
6
CONTINUOUS
10
13.6378
20
-5.185
11
13.6378
21
-5.185
0
LINE
8
BLACK
6
CONTINUOUS
10
13.6378
20
-5.185
11
13.7353
21
-5.185
0
LINE
8
BLACK
6
CONTINUOUS
10
13.7353
20
-5.185
11
13.7353
21
-3.10575
0
LINE
8
BLACK
6
CONTINUOUS
10
13.7353
20
-3.10575
11
13.7353
21
-3.10349
0
LINE
8
BLACK
6
CONTINUOUS
10
13.7353
20
-3.10349
11
13.7331
21
-3.08524
0
LINE
8
BLACK
6
CONTINUOUS
10
13.7331
20
-3.08524
11
13.7273
21
-3.06782
0
LINE
8
BLACK
6
CONTINUOUS
10
13.7273
20
-3.06782
11
13.7183
21
-3.05184
0
LINE
8
BLACK
6
CONTINUOUS
10
13.7183
20
-3.05184
11
13.7064
21
-3.03791
0
LINE
8
BLACK
6
CONTINUOUS
10
13.7064
20
-3.03791
11
13.692
21
-3.02657
0
LINE
8
BLACK
6
CONTINUOUS
10
13.692
20
-3.02657
11
13.6756
21
-3.01824
0
LINE
8
BLACK
6
CONTINUOUS
10
13.6756
20
-3.01824
11
13.658
21
-3.01324
0
LINE
8
BLACK
6
CONTINUOUS
10
13.658
20
-3.01324
11
13.6396
21
-3.01177
0
LINE
8
BLACK
6
CONTINUOUS
10
13.6396
20
-3.01177
11
13.6379
21
-3.01177
0
LINE
8
BLACK
6
CONTINUOUS
10
13.6379
20
-3.01177
11
2.61425
21
-3.01177
0
LINE
8
BLACK
6
CONTINUOUS
10
2.61425
20
-3.01177
11
2.61361
21
-3.01177
0
LINE
8
BLACK
6
CONTINUOUS
10
2.61361
20
-3.01177
11
2.59467
21
-3.01376
0
LINE
8
BLACK
6
CONTINUOUS
10
2.59467
20
-3.01376
11
2.57651
21
-3.01938
0
LINE
8
BLACK
6
CONTINUOUS
10
2.57651
20
-3.01938
11
2.5598
21
-3.02842
0
LINE
8
BLACK
6
CONTINUOUS
10
2.5598
20
-3.02842
11
2.54516
21
-3.04053
0
LINE
8
BLACK
6
CONTINUOUS
10
2.54516
20
-3.04053
11
2.53315
21
-3.05526
0
LINE
8
BLACK
6
CONTINUOUS
10
2.53315
20
-3.05526
11
2.52423
21
-3.07203
0
LINE
8
BLACK
6
CONTINUOUS
10
2.52423
20
-3.07203
11
2.51873
21
-3.09023
0
LINE
8
BLACK
6
CONTINUOUS
10
2.51873
20
-3.09023
11
2.51687
21
-3.10919
0
LINE
8
BLACK
6
CONTINUOUS
10
2.51687
20
-3.10919
11
2.51688
21
-5.185
0
LINE
8
BLACK
6
CONTINUOUS
10
2.51688
20
-5.185
11
2.6143
21
-5.185
0
LINE
8
BLACK
6
CONTINUOUS
10
2.6143
20
-5.185
11
2.61571
21
-5.185
0
LINE
8
BLACK
6
CONTINUOUS
10
8.70648
20
-5.81094
11
8.70631
21
-5.81097
0
LINE
8
BLACK
6
CONTINUOUS
10
8.70631
20
-5.81097
11
8.70613
21
-5.811
0
LINE
8
BLACK
6
CONTINUOUS
10
8.70613
20
-5.811
11
8.70231
21
-5.81141
0
LINE
8
BLACK
6
CONTINUOUS
10
8.70231
20
-5.81141
11
8.70228
21
-5.81141
0
LINE
8
BLACK
6
CONTINUOUS
10
8.70228
20
-5.81141
11
8.7022
21
-5.81141
0
LINE
8
BLACK
6
CONTINUOUS
10
8.7022
20
-5.81141
11
8.70211
21
-5.81142
0
LINE
8
BLACK
6
CONTINUOUS
10
8.70211
20
-5.81142
11
8.70207
21
-5.81142
0
LINE
8
BLACK
6
CONTINUOUS
10
8.70207
20
-5.81142
11
8.70206
21
-5.81142
0
LINE
8
BLACK
6
CONTINUOUS
10
8.70206
20
-5.81142
11
7.52077
21
-5.81142
0
LINE
8
BLACK
6
CONTINUOUS
10
7.52077
20
-5.81142
11
7.52062
21
-5.8114
0
LINE
8
BLACK
6
CONTINUOUS
10
7.52062
20
-5.8114
11
7.51685
21
-5.81103
0
LINE
8
BLACK
6
CONTINUOUS
10
7.51685
20
-5.81103
11
7.51685
21
-5.81103
0
LINE
8
BLACK
6
CONTINUOUS
10
7.51685
20
-5.81103
11
7.51685
21
-5.81103
0
LINE
8
BLACK
6
CONTINUOUS
10
7.51685
20
-5.81103
11
7.51682
21
-5.81103
0
LINE
8
BLACK
6
CONTINUOUS
10
7.51682
20
-5.81103
11
7.51665
21
-5.81099
0
LINE
8
BLACK
6
CONTINUOUS
10
7.51665
20
-5.81099
11
7.51647
21
-5.81096
0
LINE
8
BLACK
6
CONTINUOUS
10
7.51647
20
-5.81096
11
7.5128
21
-5.80985
0
LINE
8
BLACK
6
CONTINUOUS
10
7.5128
20
-5.80985
11
7.51277
21
-5.80984
0
LINE
8
BLACK
6
CONTINUOUS
10
7.51277
20
-5.80984
11
7.51261
21
-5.80977
0
LINE
8
BLACK
6
CONTINUOUS
10
7.51261
20
-5.80977
11
7.51244
21
-5.8097
0
LINE
8
BLACK
6
CONTINUOUS
10
7.51244
20
-5.8097
11
7.50905
21
-5.8079
0
LINE
8
BLACK
6
CONTINUOUS
10
7.50905
20
-5.8079
11
7.50902
21
-5.80788
0
LINE
8
BLACK
6
CONTINUOUS
10
7.50902
20
-5.80788
11
7.50888
21
-5.80778
0
LINE
8
BLACK
6
CONTINUOUS
10
7.50888
20
-5.80778
11
7.50873
21
-5.80769
0
LINE
8
BLACK
6
CONTINUOUS
10
7.50873
20
-5.80769
11
7.50575
21
-5.80526
0
LINE
8
BLACK
6
CONTINUOUS
10
7.50575
20
-5.80526
11
7.50575
21
-5.80526
0
LINE
8
BLACK
6
CONTINUOUS
10
7.50575
20
-5.80526
11
7.50575
21
-5.80526
0
LINE
8
BLACK
6
CONTINUOUS
10
7.50575
20
-5.80526
11
7.50573
21
-5.80524
0
LINE
8
BLACK
6
CONTINUOUS
10
7.50573
20
-5.80524
11
7.50561
21
-5.80511
0
LINE
8
BLACK
6
CONTINUOUS
10
7.50561
20
-5.80511
11
7.50548
21
-5.80499
0
LINE
8
BLACK
6
CONTINUOUS
10
7.50548
20
-5.80499
11
7.50303
21
-5.80203
0
LINE
8
BLACK
6
CONTINUOUS
10
7.50303
20
-5.80203
11
7.50301
21
-5.802
0
LINE
8
BLACK
6
CONTINUOUS
10
7.50301
20
-5.802
11
7.50292
21
-5.80186
0
LINE
8
BLACK
6
CONTINUOUS
10
7.50292
20
-5.80186
11
7.50281
21
-5.80171
0
LINE
8
BLACK
6
CONTINUOUS
10
7.50281
20
-5.80171
11
7.50099
21
-5.79833
0
LINE
8
BLACK
6
CONTINUOUS
10
7.50099
20
-5.79833
11
7.50099
21
-5.79833
0
LINE
8
BLACK
6
CONTINUOUS
10
7.50099
20
-5.79833
11
7.50099
21
-5.79833
0
LINE
8
BLACK
6
CONTINUOUS
10
7.50099
20
-5.79833
11
7.50097
21
-5.7983
0
LINE
8
BLACK
6
CONTINUOUS
10
7.50097
20
-5.7983
11
7.50091
21
-5.79814
0
LINE
8
BLACK
6
CONTINUOUS
10
7.50091
20
-5.79814
11
7.50084
21
-5.79797
0
LINE
8
BLACK
6
CONTINUOUS
10
7.50084
20
-5.79797
11
7.4997
21
-5.7943
0
LINE
8
BLACK
6
CONTINUOUS
10
7.4997
20
-5.7943
11
7.49969
21
-5.79428
0
LINE
8
BLACK
6
CONTINUOUS
10
7.49969
20
-5.79428
11
7.49966
21
-5.7941
0
LINE
8
BLACK
6
CONTINUOUS
10
7.49966
20
-5.7941
11
7.49963
21
-5.79393
0
LINE
8
BLACK
6
CONTINUOUS
10
7.49963
20
-5.79393
11
7.49922
21
-5.79011
0
LINE
8
BLACK
6
CONTINUOUS
10
7.49922
20
-5.79011
11
7.49922
21
-5.79008
0
LINE
8
BLACK
6
CONTINUOUS
10
7.49922
20
-5.79008
11
7.49922
21
-5.78999
0
LINE
8
BLACK
6
CONTINUOUS
10
7.49922
20
-5.78999
11
7.49921
21
-5.78991
0
LINE
8
BLACK
6
CONTINUOUS
10
7.49921
20
-5.78991
11
7.49921
21
-5.78986
0
LINE
8
BLACK
6
CONTINUOUS
10
7.49921
20
-5.78986
11
7.49921
21
-5.78986
0
LINE
8
BLACK
6
CONTINUOUS
10
7.49921
20
-5.78986
11
7.49921
21
-4.60857
0
LINE
8
BLACK
6
CONTINUOUS
10
7.49921
20
-4.60857
11
7.49922
21
-4.60847
0
LINE
8
BLACK
6
CONTINUOUS
10
7.49922
20
-4.60847
11
7.49922
21
-4.60847
0
LINE
8
BLACK
6
CONTINUOUS
10
7.49922
20
-4.60847
11
7.4996
21
-4.60465
0
LINE
8
BLACK
6
CONTINUOUS
10
7.4996
20
-4.60465
11
7.4996
21
-4.60465
0
LINE
8
BLACK
6
CONTINUOUS
10
7.4996
20
-4.60465
11
7.4996
21
-4.60465
0
LINE
8
BLACK
6
CONTINUOUS
10
7.4996
20
-4.60465
11
7.4996
21
-4.60462
0
LINE
8
BLACK
6
CONTINUOUS
10
7.4996
20
-4.60462
11
7.49964
21
-4.60445
0
LINE
8
BLACK
6
CONTINUOUS
10
7.49964
20
-4.60445
11
7.49967
21
-4.60427
0
LINE
8
BLACK
6
CONTINUOUS
10
7.49967
20
-4.60427
11
7.50078
21
-4.60059
0
LINE
8
BLACK
6
CONTINUOUS
10
7.50078
20
-4.60059
11
7.50079
21
-4.60056
0
LINE
8
BLACK
6
CONTINUOUS
10
7.50079
20
-4.60056
11
7.50086
21
-4.6004
0
LINE
8
BLACK
6
CONTINUOUS
10
7.50086
20
-4.6004
11
7.50093
21
-4.60024
0
LINE
8
BLACK
6
CONTINUOUS
10
7.50093
20
-4.60024
11
7.50273
21
-4.59684
0
LINE
8
BLACK
6
CONTINUOUS
10
7.50273
20
-4.59684
11
7.50273
21
-4.59684
0
LINE
8
BLACK
6
CONTINUOUS
10
7.50273
20
-4.59684
11
7.50273
21
-4.59684
0
LINE
8
BLACK
6
CONTINUOUS
10
7.50273
20
-4.59684
11
7.50275
21
-4.59682
0
LINE
8
BLACK
6
CONTINUOUS
10
7.50275
20
-4.59682
11
7.50285
21
-4.59667
0
LINE
8
BLACK
6
CONTINUOUS
10
7.50285
20
-4.59667
11
7.50294
21
-4.59652
0
LINE
8
BLACK
6
CONTINUOUS
10
7.50294
20
-4.59652
11
7.50537
21
-4.59355
0
LINE
8
BLACK
6
CONTINUOUS
10
7.50537
20
-4.59355
11
7.50539
21
-4.59353
0
LINE
8
BLACK
6
CONTINUOUS
10
7.50539
20
-4.59353
11
7.50552
21
-4.5934
0
LINE
8
BLACK
6
CONTINUOUS
10
7.50552
20
-4.5934
11
7.50564
21
-4.59327
0
LINE
8
BLACK
6
CONTINUOUS
10
7.50564
20
-4.59327
11
7.5086
21
-4.59083
0
LINE
8
BLACK
6
CONTINUOUS
10
7.5086
20
-4.59083
11
7.5086
21
-4.59082
0
LINE
8
BLACK
6
CONTINUOUS
10
7.5086
20
-4.59082
11
7.5086
21
-4.59082
0
LINE
8
BLACK
6
CONTINUOUS
10
7.5086
20
-4.59082
11
7.50862
21
-4.59081
0
LINE
8
BLACK
6
CONTINUOUS
10
7.50862
20
-4.59081
11
7.50877
21
-4.59071
0
LINE
8
BLACK
6
CONTINUOUS
10
7.50877
20
-4.59071
11
7.50892
21
-4.59061
0
LINE
8
BLACK
6
CONTINUOUS
10
7.50892
20
-4.59061
11
7.5123
21
-4.58878
0
LINE
8
BLACK
6
CONTINUOUS
10
7.5123
20
-4.58878
11
7.5123
21
-4.58878
0
LINE
8
BLACK
6
CONTINUOUS
10
7.5123
20
-4.58878
11
7.5123
21
-4.58878
0
LINE
8
BLACK
6
CONTINUOUS
10
7.5123
20
-4.58878
11
7.51233
21
-4.58877
0
LINE
8
BLACK
6
CONTINUOUS
10
7.51233
20
-4.58877
11
7.51249
21
-4.5887
0
LINE
8
BLACK
6
CONTINUOUS
10
7.51249
20
-4.5887
11
7.51266
21
-4.58863
0
LINE
8
BLACK
6
CONTINUOUS
10
7.51266
20
-4.58863
11
7.51633
21
-4.5875
0
LINE
8
BLACK
6
CONTINUOUS
10
7.51633
20
-4.5875
11
7.51633
21
-4.5875
0
LINE
8
BLACK
6
CONTINUOUS
10
7.51633
20
-4.5875
11
7.51635
21
-4.58749
0
LINE
8
BLACK
6
CONTINUOUS
10
7.51635
20
-4.58749
11
7.51653
21
-4.58746
0
LINE
8
BLACK
6
CONTINUOUS
10
7.51653
20
-4.58746
11
7.5167
21
-4.58742
0
LINE
8
BLACK
6
CONTINUOUS
10
7.5167
20
-4.58742
11
7.52052
21
-4.58702
0
LINE
8
BLACK
6
CONTINUOUS
10
7.52052
20
-4.58702
11
7.52055
21
-4.58702
0
LINE
8
BLACK
6
CONTINUOUS
10
7.52055
20
-4.58702
11
7.52064
21
-4.58702
0
LINE
8
BLACK
6
CONTINUOUS
10
7.52064
20
-4.58702
11
7.52072
21
-4.58701
0
LINE
8
BLACK
6
CONTINUOUS
10
7.52072
20
-4.58701
11
7.52077
21
-4.58701
0
LINE
8
BLACK
6
CONTINUOUS
10
7.52077
20
-4.58701
11
7.52077
21
-4.58701
0
LINE
8
BLACK
6
CONTINUOUS
10
7.52077
20
-4.58701
11
8.70206
21
-4.58701
0
LINE
8
BLACK
6
CONTINUOUS
10
8.70206
20
-4.58701
11
8.70216
21
-4.58702
0
LINE
8
BLACK
6
CONTINUOUS
10
8.70216
20
-4.58702
11
8.70216
21
-4.58702
0
LINE
8
BLACK
6
CONTINUOUS
10
8.70216
20
-4.58702
11
8.70598
21
-4.58739
0
LINE
8
BLACK
6
CONTINUOUS
10
8.70598
20
-4.58739
11
8.70598
21
-4.58739
0
LINE
8
BLACK
6
CONTINUOUS
10
8.70598
20
-4.58739
11
8.70598
21
-4.58739
0
LINE
8
BLACK
6
CONTINUOUS
10
8.70598
20
-4.58739
11
8.70601
21
-4.5874
0
LINE
8
BLACK
6
CONTINUOUS
10
8.70601
20
-4.5874
11
8.70618
21
-4.58743
0
LINE
8
BLACK
6
CONTINUOUS
10
8.70618
20
-4.58743
11
8.70636
21
-4.58747
0
LINE
8
BLACK
6
CONTINUOUS
10
8.70636
20
-4.58747
11
8.71004
21
-4.58858
0
LINE
8
BLACK
6
CONTINUOUS
10
8.71004
20
-4.58858
11
8.71007
21
-4.58859
0
LINE
8
BLACK
6
CONTINUOUS
10
8.71007
20
-4.58859
11
8.71023
21
-4.58866
0
LINE
8
BLACK
6
CONTINUOUS
10
8.71023
20
-4.58866
11
8.71039
21
-4.58872
0
LINE
8
BLACK
6
CONTINUOUS
10
8.71039
20
-4.58872
11
8.71379
21
-4.59053
0
LINE
8
BLACK
6
CONTINUOUS
10
8.71379
20
-4.59053
11
8.71379
21
-4.59053
0
LINE
8
BLACK
6
CONTINUOUS
10
8.71379
20
-4.59053
11
8.71379
21
-4.59053
0
LINE
8
BLACK
6
CONTINUOUS
10
8.71379
20
-4.59053
11
8.71381
21
-4.59054
0
LINE
8
BLACK
6
CONTINUOUS
10
8.71381
20
-4.59054
11
8.71396
21
-4.59064
0
LINE
8
BLACK
6
CONTINUOUS
10
8.71396
20
-4.59064
11
8.71411
21
-4.59074
0
LINE
8
BLACK
6
CONTINUOUS
10
8.71411
20
-4.59074
11
8.71708
21
-4.59317
0
LINE
8
BLACK
6
CONTINUOUS
10
8.71708
20
-4.59317
11
8.7171
21
-4.59319
0
LINE
8
BLACK
6
CONTINUOUS
10
8.7171
20
-4.59319
11
8.71723
21
-4.59331
0
LINE
8
BLACK
6
CONTINUOUS
10
8.71723
20
-4.59331
11
8.71736
21
-4.59344
0
LINE
8
BLACK
6
CONTINUOUS
10
8.71736
20
-4.59344
11
8.7198
21
-4.5964
0
LINE
8
BLACK
6
CONTINUOUS
10
8.7198
20
-4.5964
11
8.7198
21
-4.5964
0
LINE
8
BLACK
6
CONTINUOUS
10
8.7198
20
-4.5964
11
8.71981
21
-4.5964
0
LINE
8
BLACK
6
CONTINUOUS
10
8.71981
20
-4.5964
11
8.71982
21
-4.59642
0
LINE
8
BLACK
6
CONTINUOUS
10
8.71982
20
-4.59642
11
8.71992
21
-4.59657
0
LINE
8
BLACK
6
CONTINUOUS
10
8.71992
20
-4.59657
11
8.72002
21
-4.59672
0
LINE
8
BLACK
6
CONTINUOUS
10
8.72002
20
-4.59672
11
8.72185
21
-4.6001
0
LINE
8
BLACK
6
CONTINUOUS
10
8.72185
20
-4.6001
11
8.72185
21
-4.6001
0
LINE
8
BLACK
6
CONTINUOUS
10
8.72185
20
-4.6001
11
8.72185
21
-4.6001
0
LINE
8
BLACK
6
CONTINUOUS
10
8.72185
20
-4.6001
11
8.72186
21
-4.60012
0
LINE
8
BLACK
6
CONTINUOUS
10
8.72186
20
-4.60012
11
8.72193
21
-4.60028
0
LINE
8
BLACK
6
CONTINUOUS
10
8.72193
20
-4.60028
11
8.722
21
-4.60045
0
LINE
8
BLACK
6
CONTINUOUS
10
8.722
20
-4.60045
11
8.72313
21
-4.60412
0
LINE
8
BLACK
6
CONTINUOUS
10
8.72313
20
-4.60412
11
8.72314
21
-4.60415
0
LINE
8
BLACK
6
CONTINUOUS
10
8.72314
20
-4.60415
11
8.72317
21
-4.60432
0
LINE
8
BLACK
6
CONTINUOUS
10
8.72317
20
-4.60432
11
8.72321
21
-4.6045
0
LINE
8
BLACK
6
CONTINUOUS
10
8.72321
20
-4.6045
11
8.72361
21
-4.60832
0
LINE
8
BLACK
6
CONTINUOUS
10
8.72361
20
-4.60832
11
8.72361
21
-4.60835
0
LINE
8
BLACK
6
CONTINUOUS
10
8.72361
20
-4.60835
11
8.72361
21
-4.60843
0
LINE
8
BLACK
6
CONTINUOUS
10
8.72361
20
-4.60843
11
8.72362
21
-4.60852
0
LINE
8
BLACK
6
CONTINUOUS
10
8.72362
20
-4.60852
11
8.72362
21
-4.60856
0
LINE
8
BLACK
6
CONTINUOUS
10
8.72362
20
-4.60856
11
8.72362
21
-4.60857
0
LINE
8
BLACK
6
CONTINUOUS
10
8.72362
20
-4.60857
11
8.72362
21
-5.78986
0
LINE
8
BLACK
6
CONTINUOUS
10
8.72362
20
-5.78986
11
8.72361
21
-5.78996
0
LINE
8
BLACK
6
CONTINUOUS
10
8.72361
20
-5.78996
11
8.72361
21
-5.78996
0
LINE
8
BLACK
6
CONTINUOUS
10
8.72361
20
-5.78996
11
8.72324
21
-5.79378
0
LINE
8
BLACK
6
CONTINUOUS
10
8.72324
20
-5.79378
11
8.72324
21
-5.79378
0
LINE
8
BLACK
6
CONTINUOUS
10
8.72324
20
-5.79378
11
8.72324
21
-5.79378
0
LINE
8
BLACK
6
CONTINUOUS
10
8.72324
20
-5.79378
11
8.72323
21
-5.79381
0
LINE
8
BLACK
6
CONTINUOUS
10
8.72323
20
-5.79381
11
8.7232
21
-5.79398
0
LINE
8
BLACK
6
CONTINUOUS
10
8.7232
20
-5.79398
11
8.72316
21
-5.79416
0
LINE
8
BLACK
6
CONTINUOUS
10
8.72316
20
-5.79416
11
8.72205
21
-5.79783
0
LINE
8
BLACK
6
CONTINUOUS
10
8.72205
20
-5.79783
11
8.72204
21
-5.79786
0
LINE
8
BLACK
6
CONTINUOUS
10
8.72204
20
-5.79786
11
8.72197
21
-5.79802
0
LINE
8
BLACK
6
CONTINUOUS
10
8.72197
20
-5.79802
11
8.72191
21
-5.79819
0
LINE
8
BLACK
6
CONTINUOUS
10
8.72191
20
-5.79819
11
8.7201
21
-5.80158
0
LINE
8
BLACK
6
CONTINUOUS
10
8.7201
20
-5.80158
11
8.72009
21
-5.80161
0
LINE
8
BLACK
6
CONTINUOUS
10
8.72009
20
-5.80161
11
8.71999
21
-5.80175
0
LINE
8
BLACK
6
CONTINUOUS
10
8.71999
20
-5.80175
11
8.71989
21
-5.8019
0
LINE
8
BLACK
6
CONTINUOUS
10
8.71989
20
-5.8019
11
8.71746
21
-5.80488
0
LINE
8
BLACK
6
CONTINUOUS
10
8.71746
20
-5.80488
11
8.71746
21
-5.80488
0
LINE
8
BLACK
6
CONTINUOUS
10
8.71746
20
-5.80488
11
8.71746
21
-5.80488
0
LINE
8
BLACK
6
CONTINUOUS
10
8.71746
20
-5.80488
11
8.71744
21
-5.8049
0
LINE
8
BLACK
6
CONTINUOUS
10
8.71744
20
-5.8049
11
8.71732
21
-5.80502
0
LINE
8
BLACK
6
CONTINUOUS
10
8.71732
20
-5.80502
11
8.71719
21
-5.80515
0
LINE
8
BLACK
6
CONTINUOUS
10
8.71719
20
-5.80515
11
8.71423
21
-5.8076
0
LINE
8
BLACK
6
CONTINUOUS
10
8.71423
20
-5.8076
11
8.71421
21
-5.80762
0
LINE
8
BLACK
6
CONTINUOUS
10
8.71421
20
-5.80762
11
8.71406
21
-5.80771
0
LINE
8
BLACK
6
CONTINUOUS
10
8.71406
20
-5.80771
11
8.71391
21
-5.80782
0
LINE
8
BLACK
6
CONTINUOUS
10
8.71391
20
-5.80782
11
8.71053
21
-5.80964
0
LINE
8
BLACK
6
CONTINUOUS
10
8.71053
20
-5.80964
11
8.71053
21
-5.80964
0
LINE
8
BLACK
6
CONTINUOUS
10
8.71053
20
-5.80964
11
8.71053
21
-5.80964
0
LINE
8
BLACK
6
CONTINUOUS
10
8.71053
20
-5.80964
11
8.71051
21
-5.80966
0
LINE
8
BLACK
6
CONTINUOUS
10
8.71051
20
-5.80966
11
8.71034
21
-5.80972
0
LINE
8
BLACK
6
CONTINUOUS
10
8.71034
20
-5.80972
11
8.71018
21
-5.80979
0
LINE
8
BLACK
6
CONTINUOUS
10
8.71018
20
-5.80979
11
8.70651
21
-5.81093
0
LINE
8
BLACK
6
CONTINUOUS
10
8.70651
20
-5.81093
11
8.70651
21
-5.81093
0
LINE
8
BLACK
6
CONTINUOUS
10
8.70651
20
-5.81093
11
8.70648
21
-5.81094
0
LINE
8
BLACK
6
CONTINUOUS
10
7.52087
20
-4.59094
11
7.52084
21
-4.59094
0
LINE
8
BLACK
6
CONTINUOUS
10
7.52084
20
-4.59094
11
7.51731
21
-4.59132
0
LINE
8
BLACK
6
CONTINUOUS
10
7.51731
20
-4.59132
11
7.514
21
-4.59234
0
LINE
8
BLACK
6
CONTINUOUS
10
7.514
20
-4.59234
11
7.51096
21
-4.59398
0
LINE
8
BLACK
6
CONTINUOUS
10
7.51096
20
-4.59398
11
7.5083
21
-4.59618
0
LINE
8
BLACK
6
CONTINUOUS
10
7.5083
20
-4.59618
11
7.50612
21
-4.59886
0
LINE
8
BLACK
6
CONTINUOUS
10
7.50612
20
-4.59886
11
7.5045
21
-4.60191
0
LINE
8
BLACK
6
CONTINUOUS
10
7.5045
20
-4.60191
11
7.5035
21
-4.60522
0
LINE
8
BLACK
6
CONTINUOUS
10
7.5035
20
-4.60522
11
7.50315
21
-4.60876
0
LINE
8
BLACK
6
CONTINUOUS
10
7.50315
20
-4.60876
11
7.50315
21
-5.78976
0
LINE
8
BLACK
6
CONTINUOUS
10
7.50315
20
-5.78976
11
7.50315
21
-5.78979
0
LINE
8
BLACK
6
CONTINUOUS
10
7.50315
20
-5.78979
11
7.50352
21
-5.79332
0
LINE
8
BLACK
6
CONTINUOUS
10
7.50352
20
-5.79332
11
7.50454
21
-5.79663
0
LINE
8
BLACK
6
CONTINUOUS
10
7.50454
20
-5.79663
11
7.50619
21
-5.79967
0
LINE
8
BLACK
6
CONTINUOUS
10
7.50619
20
-5.79967
11
7.50839
21
-5.80233
0
LINE
8
BLACK
6
CONTINUOUS
10
7.50839
20
-5.80233
11
7.51107
21
-5.80451
0
LINE
8
BLACK
6
CONTINUOUS
10
7.51107
20
-5.80451
11
7.51412
21
-5.80613
0
LINE
8
BLACK
6
CONTINUOUS
10
7.51412
20
-5.80613
11
7.51743
21
-5.80713
0
LINE
8
BLACK
6
CONTINUOUS
10
7.51743
20
-5.80713
11
7.52096
21
-5.80748
0
LINE
8
BLACK
6
CONTINUOUS
10
7.52096
20
-5.80748
11
8.70196
21
-5.80748
0
LINE
8
BLACK
6
CONTINUOUS
10
8.70196
20
-5.80748
11
8.702
21
-5.80748
0
LINE
8
BLACK
6
CONTINUOUS
10
8.702
20
-5.80748
11
8.70553
21
-5.80711
0
LINE
8
BLACK
6
CONTINUOUS
10
8.70553
20
-5.80711
11
8.70883
21
-5.80609
0
LINE
8
BLACK
6
CONTINUOUS
10
8.70883
20
-5.80609
11
8.71187
21
-5.80444
0
LINE
8
BLACK
6
CONTINUOUS
10
8.71187
20
-5.80444
11
8.71453
21
-5.80224
0
LINE
8
BLACK
6
CONTINUOUS
10
8.71453
20
-5.80224
11
8.71672
21
-5.79956
0
LINE
8
BLACK
6
CONTINUOUS
10
8.71672
20
-5.79956
11
8.71834
21
-5.79651
0
LINE
8
BLACK
6
CONTINUOUS
10
8.71834
20
-5.79651
11
8.71934
21
-5.7932
0
LINE
8
BLACK
6
CONTINUOUS
10
8.71934
20
-5.7932
11
8.71969
21
-5.78967
0
LINE
8
BLACK
6
CONTINUOUS
10
8.71969
20
-5.78967
11
8.71969
21
-4.60867
0
LINE
8
BLACK
6
CONTINUOUS
10
8.71969
20
-4.60867
11
8.71968
21
-4.60863
0
LINE
8
BLACK
6
CONTINUOUS
10
8.71968
20
-4.60863
11
8.71931
21
-4.6051
0
LINE
8
BLACK
6
CONTINUOUS
10
8.71931
20
-4.6051
11
8.71829
21
-4.6018
0
LINE
8
BLACK
6
CONTINUOUS
10
8.71829
20
-4.6018
11
8.71665
21
-4.59876
0
LINE
8
BLACK
6
CONTINUOUS
10
8.71665
20
-4.59876
11
8.71445
21
-4.5961
0
LINE
8
BLACK
6
CONTINUOUS
10
8.71445
20
-4.5961
11
8.71177
21
-4.59391
0
LINE
8
BLACK
6
CONTINUOUS
10
8.71177
20
-4.59391
11
8.70872
21
-4.59229
0
LINE
8
BLACK
6
CONTINUOUS
10
8.70872
20
-4.59229
11
8.70541
21
-4.59129
0
LINE
8
BLACK
6
CONTINUOUS
10
8.70541
20
-4.59129
11
8.70187
21
-4.59094
0
LINE
8
BLACK
6
CONTINUOUS
10
8.70187
20
-4.59094
11
7.52087
21
-4.59094
  0
ENDSEC
  0
EOF
