M48
; DRILL file {KiCad (5.1.8)-1} date 02/19/21 01:39:33
; FORMAT={-:-/ absolute / metric / decimal}
; #@! TF.CreationDate,2021-02-19T01:39:33-05:00
; #@! TF.GenerationSoftware,Kicad,Pcbnew,(5.1.8)-1
; #@! TF.FileFunction,NonPlated,1,2,NPTH
FMAT,2
METRIC
T1C0.650
T2C1.500
T3C1.750
T4C2.700
T5C3.988
%
G90
G05
T1
X79.17Y-81.18
X84.95Y-81.18
T3
X228.294Y-116.487
X238.416Y-115.601
X324.228Y-120.142
X334.349Y-119.256
X264.268Y-149.534
X274.082Y-146.904
X77.792Y-119.236
X87.913Y-120.122
X116.992Y-108.323
X127.114Y-109.209
X264.107Y-88.685
X274.229Y-87.799
X267.428Y-126.64
X277.549Y-125.754
X76.132Y-138.214
X86.253Y-139.099
X134.592Y-125.734
X144.713Y-126.62
X200.95Y-161.36
X211.11Y-161.36
X156.346Y-151.77
X166.16Y-154.399
X200.94Y-100.56
X211.1Y-100.56
X137.912Y-87.779
X148.034Y-88.665
X303.175Y-98.08
X313.296Y-97.194
X154.947Y-111.644
X165.069Y-112.529
X229.955Y-135.464
X240.076Y-134.579
X288.348Y-147.184
X298.469Y-146.298
X286.688Y-128.206
X296.809Y-127.321
X136.252Y-106.757
X146.373Y-107.642
X156.608Y-92.666
X166.729Y-93.552
X322.567Y-101.164
X332.689Y-100.279
X172.065Y-134.559
X182.187Y-135.444
X95.524Y-135.129
X105.646Y-136.015
X174.747Y-156.7
X184.56Y-159.33
X306.495Y-136.035
X316.617Y-135.149
X325.888Y-139.119
X336.009Y-138.234
X97.185Y-116.152
X107.306Y-117.037
X173.726Y-115.581
X183.847Y-116.467
X265.768Y-107.662
X275.889Y-106.777
X227.466Y-159.395
X237.28Y-156.765
X74.471Y-157.191
X84.593Y-158.077
X308.156Y-155.012
X318.277Y-154.127
X245.412Y-93.572
X255.534Y-92.686
X283.367Y-90.251
X293.489Y-89.366
X115.332Y-127.301
X125.453Y-128.186
X153.287Y-130.621
X163.408Y-131.507
X327.548Y-158.097
X337.67Y-157.211
X93.864Y-154.107
X103.985Y-154.992
X226.634Y-97.509
X236.755Y-96.624
X98.845Y-97.174
X108.966Y-98.06
X247.072Y-112.549
X257.194Y-111.664
X304.835Y-117.057
X314.957Y-116.172
X248.733Y-131.527
X258.854Y-130.641
X245.867Y-154.464
X255.681Y-151.835
X137.945Y-146.839
X147.759Y-149.469
X113.669Y-146.308
X123.79Y-147.194
X79.452Y-100.259
X89.574Y-101.144
X118.653Y-89.346
X128.774Y-90.231
X175.386Y-96.604
X185.507Y-97.489
X285.028Y-109.229
X295.149Y-108.343
T5
X232.373Y-158.08
X79.532Y-157.634
X313.216Y-154.569
X250.473Y-93.129
X288.428Y-89.808
X120.393Y-127.743
X158.348Y-131.064
X332.609Y-157.654
X98.925Y-154.549
X231.695Y-97.067
X103.906Y-97.617
X252.133Y-112.107
X309.896Y-116.614
X253.793Y-131.084
X250.774Y-153.15
X142.852Y-148.154
X118.73Y-146.751
X84.513Y-100.701
X123.713Y-89.788
X180.447Y-97.047
X290.088Y-108.786
X233.355Y-116.044
X329.288Y-119.699
X269.175Y-148.219
X82.853Y-119.679
X122.053Y-108.766
X269.168Y-88.242
X272.489Y-126.197
X81.192Y-138.656
X139.652Y-126.177
X206.03Y-161.36
X161.253Y-153.084
X206.02Y-100.56
X142.973Y-88.222
X308.236Y-97.637
X160.008Y-112.086
X235.015Y-135.022
X293.409Y-146.741
X291.748Y-127.763
X141.313Y-107.199
X161.668Y-93.109
X327.628Y-100.721
X177.126Y-135.002
X100.585Y-135.572
X179.654Y-158.015
X311.556Y-135.592
X330.949Y-138.676
X102.245Y-116.594
X178.786Y-116.024
X270.828Y-107.22
T2
X200.44Y-162.15G85X200.44Y-160.85
G05
X211.64Y-162.15G85X211.64Y-160.85
G05
X200.43Y-101.35G85X200.43Y-100.05
G05
X211.63Y-101.35G85X211.63Y-100.05
G05
T4
X194.35Y-120.1G85X195.65Y-120.1
G05
X194.35Y-143.9G85X195.65Y-143.9
G05
X216.35Y-120.1G85X217.65Y-120.1
G05
X216.35Y-143.9G85X217.65Y-143.9
G05
T0
M30
