%TF.GenerationSoftware,KiCad,Pcbnew,(5.1.8)-1*%
%TF.CreationDate,2021-01-27T21:30:17-05:00*%
%TF.ProjectId,ergo_60_case,6572676f-5f36-4305-9f63-6173652e6b69,rev?*%
%TF.SameCoordinates,Original*%
%TF.FileFunction,Legend,Top*%
%TF.FilePolarity,Positive*%
%FSLAX46Y46*%
G04 Gerber Fmt 4.6, Leading zero omitted, Abs format (unit mm)*
G04 Created by KiCad (PCBNEW (5.1.8)-1) date 2021-01-27 21:30:17*
%MOMM*%
%LPD*%
G01*
G04 APERTURE LIST*
%ADD10C,0.120000*%
%ADD11C,0.150000*%
G04 APERTURE END LIST*
D10*
%TO.C,U2*%
X214000000Y-143100000D02*
X198000000Y-143100000D01*
X198000000Y-143100000D02*
X198000000Y-145900000D01*
X214000000Y-145900000D02*
X214000000Y-143100000D01*
X219350000Y-136270000D02*
X219350000Y-122370000D01*
X219350000Y-122370000D02*
X192650000Y-122370000D01*
X201000000Y-118300000D02*
X201000000Y-120900000D01*
X211000000Y-120900000D02*
X201000000Y-120900000D01*
X211000000Y-118300000D02*
X211000000Y-120900000D01*
X201000000Y-118300000D02*
X211000000Y-118300000D01*
X192650000Y-136270000D02*
X192650000Y-122370000D01*
X192350000Y-145900000D02*
X192350000Y-118100000D01*
X219650000Y-145900000D02*
X192350000Y-145900000D01*
X219650000Y-118100000D02*
X219650000Y-145900000D01*
X192350000Y-118100000D02*
X219650000Y-118100000D01*
X219350000Y-136270000D02*
X192650000Y-136270000D01*
D11*
X205258095Y-129876380D02*
X205258095Y-130685904D01*
X205305714Y-130781142D01*
X205353333Y-130828761D01*
X205448571Y-130876380D01*
X205639047Y-130876380D01*
X205734285Y-130828761D01*
X205781904Y-130781142D01*
X205829523Y-130685904D01*
X205829523Y-129876380D01*
X206258095Y-129971619D02*
X206305714Y-129924000D01*
X206400952Y-129876380D01*
X206639047Y-129876380D01*
X206734285Y-129924000D01*
X206781904Y-129971619D01*
X206829523Y-130066857D01*
X206829523Y-130162095D01*
X206781904Y-130304952D01*
X206210476Y-130876380D01*
X206829523Y-130876380D01*
%TD*%
M02*
