%TF.GenerationSoftware,KiCad,Pcbnew,(5.1.8)-1*%
%TF.CreationDate,2021-02-22T23:32:27-05:00*%
%TF.ProjectId,ergo_60_case,6572676f-5f36-4305-9f63-6173652e6b69,rev?*%
%TF.SameCoordinates,Original*%
%TF.FileFunction,Soldermask,Bot*%
%TF.FilePolarity,Negative*%
%FSLAX46Y46*%
G04 Gerber Fmt 4.6, Leading zero omitted, Abs format (unit mm)*
G04 Created by KiCad (PCBNEW (5.1.8)-1) date 2021-02-22 23:32:27*
%MOMM*%
%LPD*%
G01*
G04 APERTURE LIST*
%ADD10C,0.650000*%
%ADD11R,0.250000X1.450000*%
%ADD12R,0.500000X1.450000*%
%ADD13R,0.400000X1.475000*%
%ADD14R,1.475000X0.400000*%
%ADD15R,1.524000X1.524000*%
%ADD16O,1.600000X2.000000*%
%ADD17R,1.600000X2.000000*%
%ADD18O,4.000000X2.700000*%
%ADD19R,2.000000X2.000000*%
%ADD20C,2.000000*%
%ADD21O,1.500000X2.800000*%
%ADD22O,2.000000X4.000000*%
%ADD23R,2.550000X2.500000*%
%ADD24C,1.750000*%
%ADD25O,4.000000X4.000000*%
%ADD26C,3.987800*%
%ADD27C,4.000000*%
%ADD28C,0.100000*%
%ADD29R,1.150000X1.000000*%
%ADD30R,1.400000X0.550000*%
%ADD31R,1.400000X0.450000*%
%ADD32R,1.400000X0.600000*%
%ADD33R,1.000000X1.150000*%
%ADD34R,0.550000X1.400000*%
%ADD35R,0.450000X1.400000*%
%ADD36R,0.600000X1.400000*%
%ADD37R,1.308000X1.308000*%
%ADD38C,1.308000*%
%ADD39R,1.200000X1.400000*%
%ADD40R,0.700000X0.600000*%
%ADD41R,0.700000X1.000000*%
%ADD42R,0.900000X1.200000*%
G04 APERTURE END LIST*
D10*
%TO.C,USB1*%
X79170000Y-81180000D03*
X84950000Y-81180000D03*
D11*
X81810000Y-82625000D03*
X82310000Y-82625000D03*
X82810000Y-82625000D03*
X81310000Y-82625000D03*
X83310000Y-82625000D03*
X80810000Y-82625000D03*
X83810000Y-82625000D03*
X80310000Y-82625000D03*
D12*
X79610000Y-82625000D03*
X84510000Y-82625000D03*
X78835000Y-82625000D03*
X85285000Y-82625000D03*
%TD*%
D13*
%TO.C,U3*%
X200120000Y-127892000D03*
X200920000Y-127892000D03*
X201720000Y-127892000D03*
X202520000Y-127892000D03*
X203320000Y-127892000D03*
X204120000Y-127892000D03*
X204920000Y-127892000D03*
X205720000Y-127892000D03*
X206520000Y-127892000D03*
X207320000Y-127892000D03*
X208120000Y-127892000D03*
X208920000Y-127892000D03*
X209720000Y-127892000D03*
X210520000Y-127892000D03*
X211320000Y-127892000D03*
X212120000Y-127892000D03*
D14*
X213858000Y-129630000D03*
X213858000Y-130430000D03*
X213858000Y-131230000D03*
X213858000Y-132030000D03*
X213858000Y-132830000D03*
X213858000Y-133630000D03*
X213858000Y-134430000D03*
X213858000Y-135230000D03*
X213858000Y-136030000D03*
X213858000Y-136830000D03*
X213858000Y-137630000D03*
X213858000Y-138430000D03*
X213858000Y-139230000D03*
X213858000Y-140030000D03*
X213858000Y-140830000D03*
X213858000Y-141630000D03*
D13*
X212120000Y-143368000D03*
X211320000Y-143368000D03*
X210520000Y-143368000D03*
X209720000Y-143368000D03*
X208920000Y-143368000D03*
X208120000Y-143368000D03*
X207320000Y-143368000D03*
X206520000Y-143368000D03*
X205720000Y-143368000D03*
X204920000Y-143368000D03*
X204120000Y-143368000D03*
X203320000Y-143368000D03*
X202520000Y-143368000D03*
X201720000Y-143368000D03*
X200920000Y-143368000D03*
X200120000Y-143368000D03*
D14*
X198382000Y-141630000D03*
X198382000Y-140830000D03*
X198382000Y-140030000D03*
X198382000Y-139230000D03*
X198382000Y-138430000D03*
X198382000Y-137630000D03*
X198382000Y-136830000D03*
X198382000Y-136030000D03*
X198382000Y-135230000D03*
X198382000Y-134430000D03*
X198382000Y-133630000D03*
X198382000Y-132830000D03*
X198382000Y-132030000D03*
X198382000Y-131230000D03*
X198382000Y-130430000D03*
X198382000Y-129630000D03*
%TD*%
D15*
%TO.C,LED3*%
X194620000Y-162080000D03*
X194620000Y-159540000D03*
X194620000Y-157000000D03*
%TD*%
%TO.C,LED2*%
X72770000Y-130580000D03*
X72770000Y-128040000D03*
X72770000Y-125500000D03*
%TD*%
%TO.C,LED1*%
X192970000Y-102880000D03*
X192970000Y-100340000D03*
X192970000Y-97800000D03*
%TD*%
D16*
%TO.C,U2*%
X204730000Y-119570000D03*
D17*
X202190000Y-119570000D03*
D16*
X207270000Y-119570000D03*
X209810000Y-119570000D03*
D18*
X195000000Y-120100000D03*
X217000000Y-120100000D03*
X217000000Y-143900000D03*
X195000000Y-143900000D03*
%TD*%
D19*
%TO.C,MX_ec11_7*%
X206030000Y-108200000D03*
D20*
X203530000Y-93700000D03*
D21*
X200430000Y-100700000D03*
D22*
X208530000Y-94700000D03*
D20*
X208530000Y-108200000D03*
X203530000Y-108200000D03*
D21*
X211630000Y-100700000D03*
D23*
X211835000Y-95480000D03*
X198935000Y-98020000D03*
D24*
X211100000Y-100560000D03*
X200940000Y-100560000D03*
D25*
X202210000Y-98020000D03*
D26*
X206020000Y-100560000D03*
D27*
X208560000Y-95480000D03*
%TD*%
D19*
%TO.C,MX_ec11_46*%
X206040000Y-169000000D03*
D20*
X203540000Y-154500000D03*
D21*
X200440000Y-161500000D03*
D22*
X208540000Y-155500000D03*
D20*
X208540000Y-169000000D03*
X203540000Y-169000000D03*
D21*
X211640000Y-161500000D03*
D23*
X211845000Y-156280000D03*
X198945000Y-158820000D03*
D24*
X211110000Y-161360000D03*
X200950000Y-161360000D03*
D25*
X202220000Y-158820000D03*
D26*
X206030000Y-161360000D03*
D27*
X208570000Y-156280000D03*
%TD*%
%TO.C,MX52*%
X334696690Y-152371949D03*
D26*
X332609107Y-157653994D03*
D27*
X328592230Y-155455723D03*
D24*
X327548438Y-158096745D03*
X337669776Y-157211243D03*
D28*
G36*
X324168488Y-157097525D02*
G01*
X323950599Y-154607038D01*
X326490896Y-154384791D01*
X326708785Y-156875278D01*
X324168488Y-157097525D01*
G37*
G36*
X336798024Y-153442881D02*
G01*
X336580135Y-150952394D01*
X339120432Y-150730147D01*
X339338321Y-153220634D01*
X336798024Y-153442881D01*
G37*
%TD*%
D27*
%TO.C,MX51*%
X315304057Y-149287391D03*
D26*
X313216474Y-154569436D03*
D27*
X309199597Y-152371165D03*
D24*
X308155805Y-155012187D03*
X318277143Y-154126685D03*
D28*
G36*
X304775855Y-154012967D02*
G01*
X304557966Y-151522480D01*
X307098263Y-151300233D01*
X307316152Y-153790720D01*
X304775855Y-154012967D01*
G37*
G36*
X317405391Y-150358323D02*
G01*
X317187502Y-147867836D01*
X319727799Y-147645589D01*
X319945688Y-150136076D01*
X317405391Y-150358323D01*
G37*
%TD*%
D27*
%TO.C,MX50*%
X295496391Y-141458953D03*
D26*
X293408808Y-146740998D03*
D27*
X289391931Y-144542727D03*
D24*
X288348139Y-147183749D03*
X298469477Y-146298247D03*
D28*
G36*
X284968189Y-146184529D02*
G01*
X284750300Y-143694042D01*
X287290597Y-143471795D01*
X287508486Y-145962282D01*
X284968189Y-146184529D01*
G37*
G36*
X297597725Y-142529885D02*
G01*
X297379836Y-140039398D01*
X299920133Y-139817151D01*
X300138022Y-142307638D01*
X297597725Y-142529885D01*
G37*
%TD*%
D27*
%TO.C,MX49*%
X270313532Y-142654875D03*
D26*
X269174881Y-148219179D03*
D27*
X264837303Y-146751828D03*
D24*
X264267978Y-149533980D03*
X274081784Y-146904378D03*
D28*
G36*
X260765864Y-149136862D02*
G01*
X260118817Y-146722047D01*
X262581928Y-146062058D01*
X263228975Y-148476873D01*
X260765864Y-149136862D01*
G37*
G36*
X272568907Y-143344645D02*
G01*
X271921860Y-140929830D01*
X274384971Y-140269841D01*
X275032018Y-142684656D01*
X272568907Y-143344645D01*
G37*
%TD*%
D27*
%TO.C,MX48*%
X251912645Y-147585379D03*
D26*
X250773994Y-153149683D03*
D27*
X246436416Y-151682332D03*
D24*
X245867091Y-154464484D03*
X255680897Y-151834882D03*
D28*
G36*
X242364977Y-154067366D02*
G01*
X241717930Y-151652551D01*
X244181041Y-150992562D01*
X244828088Y-153407377D01*
X242364977Y-154067366D01*
G37*
G36*
X254168020Y-148275149D02*
G01*
X253520973Y-145860334D01*
X255984084Y-145200345D01*
X256631131Y-147615160D01*
X254168020Y-148275149D01*
G37*
%TD*%
D27*
%TO.C,MX47*%
X233511758Y-152515881D03*
D26*
X232373107Y-158080185D03*
D27*
X228035529Y-156612834D03*
D24*
X227466204Y-159394986D03*
X237280010Y-156765384D03*
D28*
G36*
X223964090Y-158997868D02*
G01*
X223317043Y-156583053D01*
X225780154Y-155923064D01*
X226427201Y-158337879D01*
X223964090Y-158997868D01*
G37*
G36*
X235767133Y-153205651D02*
G01*
X235120086Y-150790836D01*
X237583197Y-150130847D01*
X238230244Y-152545662D01*
X235767133Y-153205651D01*
G37*
%TD*%
D27*
%TO.C,MX45*%
X183421838Y-153765434D03*
D26*
X179653586Y-158014937D03*
D27*
X176630809Y-154575385D03*
D24*
X174746683Y-156700136D03*
X184560489Y-159329738D03*
D28*
G36*
X171912323Y-154605165D02*
G01*
X172559370Y-152190350D01*
X175022481Y-152850339D01*
X174375434Y-155265154D01*
X171912323Y-154605165D01*
G37*
G36*
X185030166Y-155490480D02*
G01*
X185677213Y-153075665D01*
X188140324Y-153735654D01*
X187493277Y-156150469D01*
X185030166Y-155490480D01*
G37*
%TD*%
D27*
%TO.C,MX44*%
X165020949Y-148834932D03*
D26*
X161252697Y-153084435D03*
D27*
X158229920Y-149644883D03*
D24*
X156345794Y-151769634D03*
X166159600Y-154399236D03*
D28*
G36*
X153511434Y-149674663D02*
G01*
X154158481Y-147259848D01*
X156621592Y-147919837D01*
X155974545Y-150334652D01*
X153511434Y-149674663D01*
G37*
G36*
X166629277Y-150559978D02*
G01*
X167276324Y-148145163D01*
X169739435Y-148805152D01*
X169092388Y-151219967D01*
X166629277Y-150559978D01*
G37*
%TD*%
D27*
%TO.C,MX43*%
X146620062Y-143904430D03*
D26*
X142851810Y-148153933D03*
D27*
X139829033Y-144714381D03*
D24*
X137944907Y-146839132D03*
X147758713Y-149468734D03*
D28*
G36*
X135110547Y-144744161D02*
G01*
X135757594Y-142329346D01*
X138220705Y-142989335D01*
X137573658Y-145404150D01*
X135110547Y-144744161D01*
G37*
G36*
X148228390Y-145629476D02*
G01*
X148875437Y-143214661D01*
X151338548Y-143874650D01*
X150691501Y-146289465D01*
X148228390Y-145629476D01*
G37*
%TD*%
D27*
%TO.C,MX42*%
X121702824Y-141911456D03*
D26*
X118729738Y-146750749D03*
D27*
X115155612Y-143888351D03*
D24*
X113669069Y-146307998D03*
X123790407Y-147193500D03*
D28*
G36*
X110513981Y-144737036D02*
G01*
X110731870Y-142246549D01*
X113272167Y-142468796D01*
X113054278Y-144959283D01*
X110513981Y-144737036D01*
G37*
G36*
X123586268Y-143331011D02*
G01*
X123804157Y-140840524D01*
X126344454Y-141062771D01*
X126126565Y-143553258D01*
X123586268Y-143331011D01*
G37*
%TD*%
D27*
%TO.C,MX41*%
X101897770Y-149710006D03*
D26*
X98924684Y-154549299D03*
D27*
X95350558Y-151686901D03*
D24*
X93864015Y-154106548D03*
X103985353Y-154992050D03*
D28*
G36*
X90708927Y-152535586D02*
G01*
X90926816Y-150045099D01*
X93467113Y-150267346D01*
X93249224Y-152757833D01*
X90708927Y-152535586D01*
G37*
G36*
X103781214Y-151129561D02*
G01*
X103999103Y-148639074D01*
X106539400Y-148861321D01*
X106321511Y-151351808D01*
X103781214Y-151129561D01*
G37*
%TD*%
D27*
%TO.C,MX40*%
X82505137Y-152794566D03*
D26*
X79532051Y-157633859D03*
D27*
X75957925Y-154771461D03*
D24*
X74471382Y-157191108D03*
X84592720Y-158076610D03*
D28*
G36*
X71316294Y-155620146D02*
G01*
X71534183Y-153129659D01*
X74074480Y-153351906D01*
X73856591Y-155842393D01*
X71316294Y-155620146D01*
G37*
G36*
X84388581Y-154214121D02*
G01*
X84606470Y-151723634D01*
X87146767Y-151945881D01*
X86928878Y-154436368D01*
X84388581Y-154214121D01*
G37*
%TD*%
D27*
%TO.C,MX39*%
X333036372Y-133394440D03*
D26*
X330948789Y-138676485D03*
D27*
X326931912Y-136478214D03*
D24*
X325888120Y-139119236D03*
X336009458Y-138233734D03*
D28*
G36*
X322508170Y-138120016D02*
G01*
X322290281Y-135629529D01*
X324830578Y-135407282D01*
X325048467Y-137897769D01*
X322508170Y-138120016D01*
G37*
G36*
X335137706Y-134465372D02*
G01*
X334919817Y-131974885D01*
X337460114Y-131752638D01*
X337678003Y-134243125D01*
X335137706Y-134465372D01*
G37*
%TD*%
D27*
%TO.C,MX38*%
X313643739Y-130309882D03*
D26*
X311556156Y-135591927D03*
D27*
X307539279Y-133393656D03*
D24*
X306495487Y-136034678D03*
X316616825Y-135149176D03*
D28*
G36*
X303115537Y-135035458D02*
G01*
X302897648Y-132544971D01*
X305437945Y-132322724D01*
X305655834Y-134813211D01*
X303115537Y-135035458D01*
G37*
G36*
X315745073Y-131380814D02*
G01*
X315527184Y-128890327D01*
X318067481Y-128668080D01*
X318285370Y-131158567D01*
X315745073Y-131380814D01*
G37*
%TD*%
D27*
%TO.C,MX37*%
X293836074Y-122481444D03*
D26*
X291748491Y-127763489D03*
D27*
X287731614Y-125565218D03*
D24*
X286687822Y-128206240D03*
X296809160Y-127320738D03*
D28*
G36*
X283307872Y-127207020D02*
G01*
X283089983Y-124716533D01*
X285630280Y-124494286D01*
X285848169Y-126984773D01*
X283307872Y-127207020D01*
G37*
G36*
X295937408Y-123552376D02*
G01*
X295719519Y-121061889D01*
X298259816Y-120839642D01*
X298477705Y-123330129D01*
X295937408Y-123552376D01*
G37*
%TD*%
D27*
%TO.C,MX36*%
X274576267Y-120915086D03*
D26*
X272488684Y-126197131D03*
D27*
X268471807Y-123998860D03*
D24*
X267428015Y-126639882D03*
X277549353Y-125754380D03*
D28*
G36*
X264048065Y-125640662D02*
G01*
X263830176Y-123150175D01*
X266370473Y-122927928D01*
X266588362Y-125418415D01*
X264048065Y-125640662D01*
G37*
G36*
X276677601Y-121986018D02*
G01*
X276459712Y-119495531D01*
X279000009Y-119273284D01*
X279217898Y-121763771D01*
X276677601Y-121986018D01*
G37*
%TD*%
D27*
%TO.C,MX35*%
X255881056Y-125802077D03*
D26*
X253793473Y-131084122D03*
D27*
X249776596Y-128885851D03*
D24*
X248732804Y-131526873D03*
X258854142Y-130641371D03*
D28*
G36*
X245352854Y-130527653D02*
G01*
X245134965Y-128037166D01*
X247675262Y-127814919D01*
X247893151Y-130305406D01*
X245352854Y-130527653D01*
G37*
G36*
X257982390Y-126873009D02*
G01*
X257764501Y-124382522D01*
X260304798Y-124160275D01*
X260522687Y-126650762D01*
X257982390Y-126873009D01*
G37*
%TD*%
D27*
%TO.C,MX34*%
X237102785Y-129739696D03*
D26*
X235015202Y-135021741D03*
D27*
X230998325Y-132823470D03*
D24*
X229954533Y-135464492D03*
X240075871Y-134578990D03*
D28*
G36*
X226574583Y-134465272D02*
G01*
X226356694Y-131974785D01*
X228896991Y-131752538D01*
X229114880Y-134243025D01*
X226574583Y-134465272D01*
G37*
G36*
X239204119Y-130810628D02*
G01*
X238986230Y-128320141D01*
X241526527Y-128097894D01*
X241744416Y-130588381D01*
X239204119Y-130810628D01*
G37*
%TD*%
D27*
%TO.C,MX32*%
X180099046Y-130162313D03*
D26*
X177125960Y-135001606D03*
D27*
X173551834Y-132139208D03*
D24*
X172065291Y-134558855D03*
X182186629Y-135444357D03*
D28*
G36*
X168910203Y-132987893D02*
G01*
X169128092Y-130497406D01*
X171668389Y-130719653D01*
X171450500Y-133210140D01*
X168910203Y-132987893D01*
G37*
G36*
X181982490Y-131581868D02*
G01*
X182200379Y-129091381D01*
X184740676Y-129313628D01*
X184522787Y-131804115D01*
X181982490Y-131581868D01*
G37*
%TD*%
D27*
%TO.C,MX31*%
X161320774Y-126224693D03*
D26*
X158347688Y-131063986D03*
D27*
X154773562Y-128201588D03*
D24*
X153287019Y-130621235D03*
X163408357Y-131506737D03*
D28*
G36*
X150131931Y-129050273D02*
G01*
X150349820Y-126559786D01*
X152890117Y-126782033D01*
X152672228Y-129272520D01*
X150131931Y-129050273D01*
G37*
G36*
X163204218Y-127644248D02*
G01*
X163422107Y-125153761D01*
X165962404Y-125376008D01*
X165744515Y-127866495D01*
X163204218Y-127644248D01*
G37*
%TD*%
D27*
%TO.C,MX30*%
X142625562Y-121337703D03*
D26*
X139652476Y-126176996D03*
D27*
X136078350Y-123314598D03*
D24*
X134591807Y-125734245D03*
X144713145Y-126619747D03*
D28*
G36*
X131436719Y-124163283D02*
G01*
X131654608Y-121672796D01*
X134194905Y-121895043D01*
X133977016Y-124385530D01*
X131436719Y-124163283D01*
G37*
G36*
X144509006Y-122757258D02*
G01*
X144726895Y-120266771D01*
X147267192Y-120489018D01*
X147049303Y-122979505D01*
X144509006Y-122757258D01*
G37*
%TD*%
D27*
%TO.C,MX29*%
X123365756Y-122904061D03*
D26*
X120392670Y-127743354D03*
D27*
X116818544Y-124880956D03*
D24*
X115332001Y-127300603D03*
X125453339Y-128186105D03*
D28*
G36*
X112176913Y-125729641D02*
G01*
X112394802Y-123239154D01*
X114935099Y-123461401D01*
X114717210Y-125951888D01*
X112176913Y-125729641D01*
G37*
G36*
X125249200Y-124323616D02*
G01*
X125467089Y-121833129D01*
X128007386Y-122055376D01*
X127789497Y-124545863D01*
X125249200Y-124323616D01*
G37*
%TD*%
D27*
%TO.C,MX28*%
X103558088Y-130732498D03*
D26*
X100585002Y-135571791D03*
D27*
X97010876Y-132709393D03*
D24*
X95524333Y-135129040D03*
X105645671Y-136014542D03*
D28*
G36*
X92369245Y-133558078D02*
G01*
X92587134Y-131067591D01*
X95127431Y-131289838D01*
X94909542Y-133780325D01*
X92369245Y-133558078D01*
G37*
G36*
X105441532Y-132152053D02*
G01*
X105659421Y-129661566D01*
X108199718Y-129883813D01*
X107981829Y-132374300D01*
X105441532Y-132152053D01*
G37*
%TD*%
D27*
%TO.C,MX27*%
X84165455Y-133817057D03*
D26*
X81192369Y-138656350D03*
D27*
X77618243Y-135793952D03*
D24*
X76131700Y-138213599D03*
X86253038Y-139099101D03*
D28*
G36*
X72976612Y-136642637D02*
G01*
X73194501Y-134152150D01*
X75734798Y-134374397D01*
X75516909Y-136864884D01*
X72976612Y-136642637D01*
G37*
G36*
X86048899Y-135236612D02*
G01*
X86266788Y-132746125D01*
X88807085Y-132968372D01*
X88589196Y-135458859D01*
X86048899Y-135236612D01*
G37*
%TD*%
D27*
%TO.C,MX26*%
X331376056Y-114416930D03*
D26*
X329288473Y-119698975D03*
D27*
X325271596Y-117500704D03*
D24*
X324227804Y-120141726D03*
X334349142Y-119256224D03*
D28*
G36*
X320847854Y-119142506D02*
G01*
X320629965Y-116652019D01*
X323170262Y-116429772D01*
X323388151Y-118920259D01*
X320847854Y-119142506D01*
G37*
G36*
X333477390Y-115487862D02*
G01*
X333259501Y-112997375D01*
X335799798Y-112775128D01*
X336017687Y-115265615D01*
X333477390Y-115487862D01*
G37*
%TD*%
D27*
%TO.C,MX25*%
X311983424Y-111332373D03*
D26*
X309895841Y-116614418D03*
D27*
X305878964Y-114416147D03*
D24*
X304835172Y-117057169D03*
X314956510Y-116171667D03*
D28*
G36*
X301455222Y-116057949D02*
G01*
X301237333Y-113567462D01*
X303777630Y-113345215D01*
X303995519Y-115835702D01*
X301455222Y-116057949D01*
G37*
G36*
X314084758Y-112403305D02*
G01*
X313866869Y-109912818D01*
X316407166Y-109690571D01*
X316625055Y-112181058D01*
X314084758Y-112403305D01*
G37*
%TD*%
D27*
%TO.C,MX24*%
X292175757Y-103503935D03*
D26*
X290088174Y-108785980D03*
D27*
X286071297Y-106587709D03*
D24*
X285027505Y-109228731D03*
X295148843Y-108343229D03*
D28*
G36*
X281647555Y-108229511D02*
G01*
X281429666Y-105739024D01*
X283969963Y-105516777D01*
X284187852Y-108007264D01*
X281647555Y-108229511D01*
G37*
G36*
X294277091Y-104574867D02*
G01*
X294059202Y-102084380D01*
X296599499Y-101862133D01*
X296817388Y-104352620D01*
X294277091Y-104574867D01*
G37*
%TD*%
D27*
%TO.C,MX23*%
X272915950Y-101937577D03*
D26*
X270828367Y-107219622D03*
D27*
X266811490Y-105021351D03*
D24*
X265767698Y-107662373D03*
X275889036Y-106776871D03*
D28*
G36*
X262387748Y-106663153D02*
G01*
X262169859Y-104172666D01*
X264710156Y-103950419D01*
X264928045Y-106440906D01*
X262387748Y-106663153D01*
G37*
G36*
X275017284Y-103008509D02*
G01*
X274799395Y-100518022D01*
X277339692Y-100295775D01*
X277557581Y-102786262D01*
X275017284Y-103008509D01*
G37*
%TD*%
D27*
%TO.C,MX22*%
X254220739Y-106824568D03*
D26*
X252133156Y-112106613D03*
D27*
X248116279Y-109908342D03*
D24*
X247072487Y-112549364D03*
X257193825Y-111663862D03*
D28*
G36*
X243692537Y-111550144D02*
G01*
X243474648Y-109059657D01*
X246014945Y-108837410D01*
X246232834Y-111327897D01*
X243692537Y-111550144D01*
G37*
G36*
X256322073Y-107895500D02*
G01*
X256104184Y-105405013D01*
X258644481Y-105182766D01*
X258862370Y-107673253D01*
X256322073Y-107895500D01*
G37*
%TD*%
D27*
%TO.C,MX21*%
X235442468Y-110762187D03*
D26*
X233354885Y-116044232D03*
D27*
X229338008Y-113845961D03*
D24*
X228294216Y-116486983D03*
X238415554Y-115601481D03*
D28*
G36*
X224914266Y-115487763D02*
G01*
X224696377Y-112997276D01*
X227236674Y-112775029D01*
X227454563Y-115265516D01*
X224914266Y-115487763D01*
G37*
G36*
X237543802Y-111833119D02*
G01*
X237325913Y-109342632D01*
X239866210Y-109120385D01*
X240084099Y-111610872D01*
X237543802Y-111833119D01*
G37*
%TD*%
D27*
%TO.C,MX19*%
X181759362Y-111184802D03*
D26*
X178786276Y-116024095D03*
D27*
X175212150Y-113161697D03*
D24*
X173725607Y-115581344D03*
X183846945Y-116466846D03*
D28*
G36*
X170570519Y-114010382D02*
G01*
X170788408Y-111519895D01*
X173328705Y-111742142D01*
X173110816Y-114232629D01*
X170570519Y-114010382D01*
G37*
G36*
X183642806Y-112604357D02*
G01*
X183860695Y-110113870D01*
X186400992Y-110336117D01*
X186183103Y-112826604D01*
X183642806Y-112604357D01*
G37*
%TD*%
D27*
%TO.C,MX18*%
X162981091Y-107247184D03*
D26*
X160008005Y-112086477D03*
D27*
X156433879Y-109224079D03*
D24*
X154947336Y-111643726D03*
X165068674Y-112529228D03*
D28*
G36*
X151792248Y-110072764D02*
G01*
X152010137Y-107582277D01*
X154550434Y-107804524D01*
X154332545Y-110295011D01*
X151792248Y-110072764D01*
G37*
G36*
X164864535Y-108666739D02*
G01*
X165082424Y-106176252D01*
X167622721Y-106398499D01*
X167404832Y-108888986D01*
X164864535Y-108666739D01*
G37*
%TD*%
D27*
%TO.C,MX17*%
X144285878Y-102360194D03*
D26*
X141312792Y-107199487D03*
D27*
X137738666Y-104337089D03*
D24*
X136252123Y-106756736D03*
X146373461Y-107642238D03*
D28*
G36*
X133097035Y-105185774D02*
G01*
X133314924Y-102695287D01*
X135855221Y-102917534D01*
X135637332Y-105408021D01*
X133097035Y-105185774D01*
G37*
G36*
X146169322Y-103779749D02*
G01*
X146387211Y-101289262D01*
X148927508Y-101511509D01*
X148709619Y-104001996D01*
X146169322Y-103779749D01*
G37*
%TD*%
D27*
%TO.C,MX16*%
X125026073Y-103926552D03*
D26*
X122052987Y-108765845D03*
D27*
X118478861Y-105903447D03*
D24*
X116992318Y-108323094D03*
X127113656Y-109208596D03*
D28*
G36*
X113837230Y-106752132D02*
G01*
X114055119Y-104261645D01*
X116595416Y-104483892D01*
X116377527Y-106974379D01*
X113837230Y-106752132D01*
G37*
G36*
X126909517Y-105346107D02*
G01*
X127127406Y-102855620D01*
X129667703Y-103077867D01*
X129449814Y-105568354D01*
X126909517Y-105346107D01*
G37*
%TD*%
D27*
%TO.C,MX15*%
X105218404Y-111754988D03*
D26*
X102245318Y-116594281D03*
D27*
X98671192Y-113731883D03*
D24*
X97184649Y-116151530D03*
X107305987Y-117037032D03*
D28*
G36*
X94029561Y-114580568D02*
G01*
X94247450Y-112090081D01*
X96787747Y-112312328D01*
X96569858Y-114802815D01*
X94029561Y-114580568D01*
G37*
G36*
X107101848Y-113174543D02*
G01*
X107319737Y-110684056D01*
X109860034Y-110906303D01*
X109642145Y-113396790D01*
X107101848Y-113174543D01*
G37*
%TD*%
D27*
%TO.C,MX14*%
X85825773Y-114839548D03*
D26*
X82852687Y-119678841D03*
D27*
X79278561Y-116816443D03*
D24*
X77792018Y-119236090D03*
X87913356Y-120121592D03*
D28*
G36*
X74636930Y-117665128D02*
G01*
X74854819Y-115174641D01*
X77395116Y-115396888D01*
X77177227Y-117887375D01*
X74636930Y-117665128D01*
G37*
G36*
X87709217Y-116259103D02*
G01*
X87927106Y-113768616D01*
X90467403Y-113990863D01*
X90249514Y-116481350D01*
X87709217Y-116259103D01*
G37*
%TD*%
D27*
%TO.C,MX13*%
X329715737Y-95439422D03*
D26*
X327628154Y-100721467D03*
D27*
X323611277Y-98523196D03*
D24*
X322567485Y-101164218D03*
X332688823Y-100278716D03*
D28*
G36*
X319187535Y-100164998D02*
G01*
X318969646Y-97674511D01*
X321509943Y-97452264D01*
X321727832Y-99942751D01*
X319187535Y-100164998D01*
G37*
G36*
X331817071Y-96510354D02*
G01*
X331599182Y-94019867D01*
X334139479Y-93797620D01*
X334357368Y-96288107D01*
X331817071Y-96510354D01*
G37*
%TD*%
D27*
%TO.C,MX12*%
X310323107Y-92354864D03*
D26*
X308235524Y-97636909D03*
D27*
X304218647Y-95438638D03*
D24*
X303174855Y-98079660D03*
X313296193Y-97194158D03*
D28*
G36*
X299794905Y-97080440D02*
G01*
X299577016Y-94589953D01*
X302117313Y-94367706D01*
X302335202Y-96858193D01*
X299794905Y-97080440D01*
G37*
G36*
X312424441Y-93425796D02*
G01*
X312206552Y-90935309D01*
X314746849Y-90713062D01*
X314964738Y-93203549D01*
X312424441Y-93425796D01*
G37*
%TD*%
D27*
%TO.C,MX11*%
X290515439Y-84526426D03*
D26*
X288427856Y-89808471D03*
D27*
X284410979Y-87610200D03*
D24*
X283367187Y-90251222D03*
X293488525Y-89365720D03*
D28*
G36*
X279987237Y-89252002D02*
G01*
X279769348Y-86761515D01*
X282309645Y-86539268D01*
X282527534Y-89029755D01*
X279987237Y-89252002D01*
G37*
G36*
X292616773Y-85597358D02*
G01*
X292398884Y-83106871D01*
X294939181Y-82884624D01*
X295157070Y-85375111D01*
X292616773Y-85597358D01*
G37*
%TD*%
D27*
%TO.C,MX10*%
X271255632Y-82960069D03*
D26*
X269168049Y-88242114D03*
D27*
X265151172Y-86043843D03*
D24*
X264107380Y-88684865D03*
X274228718Y-87799363D03*
D28*
G36*
X260727430Y-87685645D02*
G01*
X260509541Y-85195158D01*
X263049838Y-84972911D01*
X263267727Y-87463398D01*
X260727430Y-87685645D01*
G37*
G36*
X273356966Y-84031001D02*
G01*
X273139077Y-81540514D01*
X275679374Y-81318267D01*
X275897263Y-83808754D01*
X273356966Y-84031001D01*
G37*
%TD*%
D27*
%TO.C,MX9*%
X252560421Y-87847060D03*
D26*
X250472838Y-93129105D03*
D27*
X246455961Y-90930834D03*
D24*
X245412169Y-93571856D03*
X255533507Y-92686354D03*
D28*
G36*
X242032219Y-92572636D02*
G01*
X241814330Y-90082149D01*
X244354627Y-89859902D01*
X244572516Y-92350389D01*
X242032219Y-92572636D01*
G37*
G36*
X254661755Y-88917992D02*
G01*
X254443866Y-86427505D01*
X256984163Y-86205258D01*
X257202052Y-88695745D01*
X254661755Y-88917992D01*
G37*
%TD*%
D27*
%TO.C,MX8*%
X233782150Y-91784678D03*
D26*
X231694567Y-97066723D03*
D27*
X227677690Y-94868452D03*
D24*
X226633898Y-97509474D03*
X236755236Y-96623972D03*
D28*
G36*
X223253948Y-96510254D02*
G01*
X223036059Y-94019767D01*
X225576356Y-93797520D01*
X225794245Y-96288007D01*
X223253948Y-96510254D01*
G37*
G36*
X235883484Y-92855610D02*
G01*
X235665595Y-90365123D01*
X238205892Y-90142876D01*
X238423781Y-92633363D01*
X235883484Y-92855610D01*
G37*
%TD*%
D27*
%TO.C,MX6*%
X183419677Y-92207293D03*
D26*
X180446591Y-97046586D03*
D27*
X176872465Y-94184188D03*
D24*
X175385922Y-96603835D03*
X185507260Y-97489337D03*
D28*
G36*
X172230834Y-95032873D02*
G01*
X172448723Y-92542386D01*
X174989020Y-92764633D01*
X174771131Y-95255120D01*
X172230834Y-95032873D01*
G37*
G36*
X185303121Y-93626848D02*
G01*
X185521010Y-91136361D01*
X188061307Y-91358608D01*
X187843418Y-93849095D01*
X185303121Y-93626848D01*
G37*
%TD*%
D27*
%TO.C,MX5*%
X164641407Y-88269675D03*
D26*
X161668321Y-93108968D03*
D27*
X158094195Y-90246570D03*
D24*
X156607652Y-92666217D03*
X166728990Y-93551719D03*
D28*
G36*
X153452564Y-91095255D02*
G01*
X153670453Y-88604768D01*
X156210750Y-88827015D01*
X155992861Y-91317502D01*
X153452564Y-91095255D01*
G37*
G36*
X166524851Y-89689230D02*
G01*
X166742740Y-87198743D01*
X169283037Y-87420990D01*
X169065148Y-89911477D01*
X166524851Y-89689230D01*
G37*
%TD*%
D27*
%TO.C,MX4*%
X145946195Y-83382685D03*
D26*
X142973109Y-88221978D03*
D27*
X139398983Y-85359580D03*
D24*
X137912440Y-87779227D03*
X148033778Y-88664729D03*
D28*
G36*
X134757352Y-86208265D02*
G01*
X134975241Y-83717778D01*
X137515538Y-83940025D01*
X137297649Y-86430512D01*
X134757352Y-86208265D01*
G37*
G36*
X147829639Y-84802240D02*
G01*
X148047528Y-82311753D01*
X150587825Y-82534000D01*
X150369936Y-85024487D01*
X147829639Y-84802240D01*
G37*
%TD*%
D27*
%TO.C,MX3*%
X126686388Y-84949043D03*
D26*
X123713302Y-89788336D03*
D27*
X120139176Y-86925938D03*
D24*
X118652633Y-89345585D03*
X128773971Y-90231087D03*
D28*
G36*
X115497545Y-87774623D02*
G01*
X115715434Y-85284136D01*
X118255731Y-85506383D01*
X118037842Y-87996870D01*
X115497545Y-87774623D01*
G37*
G36*
X128569832Y-86368598D02*
G01*
X128787721Y-83878111D01*
X131328018Y-84100358D01*
X131110129Y-86590845D01*
X128569832Y-86368598D01*
G37*
%TD*%
D27*
%TO.C,MX2*%
X106878721Y-92777479D03*
D26*
X103905635Y-97616772D03*
D27*
X100331509Y-94754374D03*
D24*
X98844966Y-97174021D03*
X108966304Y-98059523D03*
D28*
G36*
X95689878Y-95603059D02*
G01*
X95907767Y-93112572D01*
X98448064Y-93334819D01*
X98230175Y-95825306D01*
X95689878Y-95603059D01*
G37*
G36*
X108762165Y-94197034D02*
G01*
X108980054Y-91706547D01*
X111520351Y-91928794D01*
X111302462Y-94419281D01*
X108762165Y-94197034D01*
G37*
%TD*%
D27*
%TO.C,MX1*%
X87486090Y-95862039D03*
D26*
X84513004Y-100701332D03*
D27*
X80938878Y-97838934D03*
D24*
X79452335Y-100258581D03*
X89573673Y-101144083D03*
D28*
G36*
X76297247Y-98687619D02*
G01*
X76515136Y-96197132D01*
X79055433Y-96419379D01*
X78837544Y-98909866D01*
X76297247Y-98687619D01*
G37*
G36*
X89369534Y-97281594D02*
G01*
X89587423Y-94791107D01*
X92127720Y-95013354D01*
X91909831Y-97503841D01*
X89369534Y-97281594D01*
G37*
%TD*%
D29*
%TO.C,D66*%
X343680000Y-83520000D03*
X343680000Y-87020000D03*
D30*
X343810000Y-86790000D03*
D31*
X343810000Y-85795000D03*
D32*
X343810000Y-84820000D03*
D30*
X343810000Y-83745000D03*
%TD*%
D29*
%TO.C,D68*%
X343680000Y-122140000D03*
X343680000Y-125640000D03*
D30*
X343810000Y-125410000D03*
D31*
X343810000Y-124415000D03*
D32*
X343810000Y-123440000D03*
D30*
X343810000Y-122365000D03*
%TD*%
D29*
%TO.C,D67*%
X343680000Y-102830000D03*
X343680000Y-106330000D03*
D30*
X343810000Y-106100000D03*
D31*
X343810000Y-105105000D03*
D32*
X343810000Y-104130000D03*
D30*
X343810000Y-103055000D03*
%TD*%
D33*
%TO.C,D90*%
X71580000Y-80620000D03*
X75080000Y-80620000D03*
D34*
X74850000Y-80490000D03*
D35*
X73855000Y-80490000D03*
D36*
X72880000Y-80490000D03*
D34*
X71805000Y-80490000D03*
%TD*%
D29*
%TO.C,D89*%
X69120000Y-86810000D03*
X69120000Y-83310000D03*
D30*
X68990000Y-83540000D03*
D31*
X68990000Y-84535000D03*
D32*
X68990000Y-85510000D03*
D30*
X68990000Y-86585000D03*
%TD*%
D29*
%TO.C,D88*%
X69120000Y-106147500D03*
X69120000Y-102647500D03*
D30*
X68990000Y-102877500D03*
D31*
X68990000Y-103872500D03*
D32*
X68990000Y-104847500D03*
D30*
X68990000Y-105922500D03*
%TD*%
D29*
%TO.C,D87*%
X69120000Y-125485000D03*
X69120000Y-121985000D03*
D30*
X68990000Y-122215000D03*
D31*
X68990000Y-123210000D03*
D32*
X68990000Y-124185000D03*
D30*
X68990000Y-125260000D03*
%TD*%
D29*
%TO.C,D86*%
X69120000Y-144822500D03*
X69120000Y-141322500D03*
D30*
X68990000Y-141552500D03*
D31*
X68990000Y-142547500D03*
D32*
X68990000Y-143522500D03*
D30*
X68990000Y-144597500D03*
%TD*%
D29*
%TO.C,D85*%
X69120000Y-164160000D03*
X69120000Y-160660000D03*
D30*
X68990000Y-160890000D03*
D31*
X68990000Y-161885000D03*
D32*
X68990000Y-162860000D03*
D30*
X68990000Y-163935000D03*
%TD*%
D33*
%TO.C,D84*%
X75770000Y-166830000D03*
X72270000Y-166830000D03*
D34*
X72500000Y-166960000D03*
D35*
X73495000Y-166960000D03*
D36*
X74470000Y-166960000D03*
D34*
X75545000Y-166960000D03*
%TD*%
D33*
%TO.C,D83*%
X96139230Y-166830000D03*
X92639230Y-166830000D03*
D34*
X92869230Y-166960000D03*
D35*
X93864230Y-166960000D03*
D36*
X94839230Y-166960000D03*
D34*
X95914230Y-166960000D03*
%TD*%
D33*
%TO.C,D82*%
X116508460Y-166830000D03*
X113008460Y-166830000D03*
D34*
X113238460Y-166960000D03*
D35*
X114233460Y-166960000D03*
D36*
X115208460Y-166960000D03*
D34*
X116283460Y-166960000D03*
%TD*%
D33*
%TO.C,D81*%
X136877690Y-166830000D03*
X133377690Y-166830000D03*
D34*
X133607690Y-166960000D03*
D35*
X134602690Y-166960000D03*
D36*
X135577690Y-166960000D03*
D34*
X136652690Y-166960000D03*
%TD*%
D33*
%TO.C,D80*%
X157246920Y-166830000D03*
X153746920Y-166830000D03*
D34*
X153976920Y-166960000D03*
D35*
X154971920Y-166960000D03*
D36*
X155946920Y-166960000D03*
D34*
X157021920Y-166960000D03*
%TD*%
D33*
%TO.C,D79*%
X177616150Y-166830000D03*
X174116150Y-166830000D03*
D34*
X174346150Y-166960000D03*
D35*
X175341150Y-166960000D03*
D36*
X176316150Y-166960000D03*
D34*
X177391150Y-166960000D03*
%TD*%
D33*
%TO.C,D78*%
X197985380Y-166830000D03*
X194485380Y-166830000D03*
D34*
X194715380Y-166960000D03*
D35*
X195710380Y-166960000D03*
D36*
X196685380Y-166960000D03*
D34*
X197760380Y-166960000D03*
%TD*%
D33*
%TO.C,D77*%
X218354610Y-166830000D03*
X214854610Y-166830000D03*
D34*
X215084610Y-166960000D03*
D35*
X216079610Y-166960000D03*
D36*
X217054610Y-166960000D03*
D34*
X218129610Y-166960000D03*
%TD*%
D33*
%TO.C,D76*%
X238723840Y-166830000D03*
X235223840Y-166830000D03*
D34*
X235453840Y-166960000D03*
D35*
X236448840Y-166960000D03*
D36*
X237423840Y-166960000D03*
D34*
X238498840Y-166960000D03*
%TD*%
D33*
%TO.C,D75*%
X259093070Y-166830000D03*
X255593070Y-166830000D03*
D34*
X255823070Y-166960000D03*
D35*
X256818070Y-166960000D03*
D36*
X257793070Y-166960000D03*
D34*
X258868070Y-166960000D03*
%TD*%
D33*
%TO.C,D74*%
X279462300Y-166830000D03*
X275962300Y-166830000D03*
D34*
X276192300Y-166960000D03*
D35*
X277187300Y-166960000D03*
D36*
X278162300Y-166960000D03*
D34*
X279237300Y-166960000D03*
%TD*%
D33*
%TO.C,D73*%
X299831530Y-166830000D03*
X296331530Y-166830000D03*
D34*
X296561530Y-166960000D03*
D35*
X297556530Y-166960000D03*
D36*
X298531530Y-166960000D03*
D34*
X299606530Y-166960000D03*
%TD*%
D33*
%TO.C,D72*%
X320200760Y-166830000D03*
X316700760Y-166830000D03*
D34*
X316930760Y-166960000D03*
D35*
X317925760Y-166960000D03*
D36*
X318900760Y-166960000D03*
D34*
X319975760Y-166960000D03*
%TD*%
D33*
%TO.C,D71*%
X340570000Y-166830000D03*
X337070000Y-166830000D03*
D34*
X337300000Y-166960000D03*
D35*
X338295000Y-166960000D03*
D36*
X339270000Y-166960000D03*
D34*
X340345000Y-166960000D03*
%TD*%
D29*
%TO.C,D70*%
X343680000Y-160760000D03*
X343680000Y-164260000D03*
D30*
X343810000Y-164030000D03*
D31*
X343810000Y-163035000D03*
D32*
X343810000Y-162060000D03*
D30*
X343810000Y-160985000D03*
%TD*%
D29*
%TO.C,D69*%
X343680000Y-141450000D03*
X343680000Y-144950000D03*
D30*
X343810000Y-144720000D03*
D31*
X343810000Y-143725000D03*
D32*
X343810000Y-142750000D03*
D30*
X343810000Y-141675000D03*
%TD*%
D33*
%TO.C,D65*%
X337140000Y-80620000D03*
X340640000Y-80620000D03*
D34*
X340410000Y-80490000D03*
D35*
X339415000Y-80490000D03*
D36*
X338440000Y-80490000D03*
D34*
X337365000Y-80490000D03*
%TD*%
D33*
%TO.C,D64*%
X317616666Y-80620000D03*
X321116666Y-80620000D03*
D34*
X320886666Y-80490000D03*
D35*
X319891666Y-80490000D03*
D36*
X318916666Y-80490000D03*
D34*
X317841666Y-80490000D03*
%TD*%
D33*
%TO.C,D63*%
X298093333Y-80620000D03*
X301593333Y-80620000D03*
D34*
X301363333Y-80490000D03*
D35*
X300368333Y-80490000D03*
D36*
X299393333Y-80490000D03*
D34*
X298318333Y-80490000D03*
%TD*%
D33*
%TO.C,D62*%
X278570000Y-80620000D03*
X282070000Y-80620000D03*
D34*
X281840000Y-80490000D03*
D35*
X280845000Y-80490000D03*
D36*
X279870000Y-80490000D03*
D34*
X278795000Y-80490000D03*
%TD*%
D33*
%TO.C,D61*%
X254540000Y-80620000D03*
X258040000Y-80620000D03*
D34*
X257810000Y-80490000D03*
D35*
X256815000Y-80490000D03*
D36*
X255840000Y-80490000D03*
D34*
X254765000Y-80490000D03*
%TD*%
D33*
%TO.C,D60*%
X235705000Y-80620000D03*
X239205000Y-80620000D03*
D34*
X238975000Y-80490000D03*
D35*
X237980000Y-80490000D03*
D36*
X237005000Y-80490000D03*
D34*
X235930000Y-80490000D03*
%TD*%
D33*
%TO.C,D59*%
X216870000Y-80620000D03*
X220370000Y-80620000D03*
D34*
X220140000Y-80490000D03*
D35*
X219145000Y-80490000D03*
D36*
X218170000Y-80490000D03*
D34*
X217095000Y-80490000D03*
%TD*%
D33*
%TO.C,D58*%
X191630000Y-80620000D03*
X195130000Y-80620000D03*
D34*
X194900000Y-80490000D03*
D35*
X193905000Y-80490000D03*
D36*
X192930000Y-80490000D03*
D34*
X191855000Y-80490000D03*
%TD*%
D33*
%TO.C,D57*%
X172880000Y-80620000D03*
X176380000Y-80620000D03*
D34*
X176150000Y-80490000D03*
D35*
X175155000Y-80490000D03*
D36*
X174180000Y-80490000D03*
D34*
X173105000Y-80490000D03*
%TD*%
D33*
%TO.C,D56*%
X154130000Y-80620000D03*
X157630000Y-80620000D03*
D34*
X157400000Y-80490000D03*
D35*
X156405000Y-80490000D03*
D36*
X155430000Y-80490000D03*
D34*
X154355000Y-80490000D03*
%TD*%
D33*
%TO.C,D55*%
X129670000Y-80620000D03*
X133170000Y-80620000D03*
D34*
X132940000Y-80490000D03*
D35*
X131945000Y-80490000D03*
D36*
X130970000Y-80490000D03*
D34*
X129895000Y-80490000D03*
%TD*%
D33*
%TO.C,D54*%
X110306666Y-80620000D03*
X113806666Y-80620000D03*
D34*
X113576666Y-80490000D03*
D35*
X112581666Y-80490000D03*
D36*
X111606666Y-80490000D03*
D34*
X110531666Y-80490000D03*
%TD*%
D33*
%TO.C,D53*%
X90943333Y-80620000D03*
X94443333Y-80620000D03*
D34*
X94213333Y-80490000D03*
D35*
X93218333Y-80490000D03*
D36*
X92243333Y-80490000D03*
D34*
X91168333Y-80490000D03*
%TD*%
%TO.C,C11*%
G36*
G01*
X213075000Y-151600000D02*
X213075000Y-151100000D01*
G75*
G02*
X213300000Y-150875000I225000J0D01*
G01*
X213750000Y-150875000D01*
G75*
G02*
X213975000Y-151100000I0J-225000D01*
G01*
X213975000Y-151600000D01*
G75*
G02*
X213750000Y-151825000I-225000J0D01*
G01*
X213300000Y-151825000D01*
G75*
G02*
X213075000Y-151600000I0J225000D01*
G01*
G37*
G36*
G01*
X211525000Y-151600000D02*
X211525000Y-151100000D01*
G75*
G02*
X211750000Y-150875000I225000J0D01*
G01*
X212200000Y-150875000D01*
G75*
G02*
X212425000Y-151100000I0J-225000D01*
G01*
X212425000Y-151600000D01*
G75*
G02*
X212200000Y-151825000I-225000J0D01*
G01*
X211750000Y-151825000D01*
G75*
G02*
X211525000Y-151600000I0J225000D01*
G01*
G37*
%TD*%
%TO.C,C10*%
G36*
G01*
X210125000Y-149430000D02*
X210125000Y-148930000D01*
G75*
G02*
X210350000Y-148705000I225000J0D01*
G01*
X210800000Y-148705000D01*
G75*
G02*
X211025000Y-148930000I0J-225000D01*
G01*
X211025000Y-149430000D01*
G75*
G02*
X210800000Y-149655000I-225000J0D01*
G01*
X210350000Y-149655000D01*
G75*
G02*
X210125000Y-149430000I0J225000D01*
G01*
G37*
G36*
G01*
X208575000Y-149430000D02*
X208575000Y-148930000D01*
G75*
G02*
X208800000Y-148705000I225000J0D01*
G01*
X209250000Y-148705000D01*
G75*
G02*
X209475000Y-148930000I0J-225000D01*
G01*
X209475000Y-149430000D01*
G75*
G02*
X209250000Y-149655000I-225000J0D01*
G01*
X208800000Y-149655000D01*
G75*
G02*
X208575000Y-149430000I0J225000D01*
G01*
G37*
%TD*%
%TO.C,C9*%
G36*
G01*
X203035000Y-113110000D02*
X203035000Y-113610000D01*
G75*
G02*
X202810000Y-113835000I-225000J0D01*
G01*
X202360000Y-113835000D01*
G75*
G02*
X202135000Y-113610000I0J225000D01*
G01*
X202135000Y-113110000D01*
G75*
G02*
X202360000Y-112885000I225000J0D01*
G01*
X202810000Y-112885000D01*
G75*
G02*
X203035000Y-113110000I0J-225000D01*
G01*
G37*
G36*
G01*
X201485000Y-113110000D02*
X201485000Y-113610000D01*
G75*
G02*
X201260000Y-113835000I-225000J0D01*
G01*
X200810000Y-113835000D01*
G75*
G02*
X200585000Y-113610000I0J225000D01*
G01*
X200585000Y-113110000D01*
G75*
G02*
X200810000Y-112885000I225000J0D01*
G01*
X201260000Y-112885000D01*
G75*
G02*
X201485000Y-113110000I0J-225000D01*
G01*
G37*
%TD*%
%TO.C,C8*%
G36*
G01*
X208145000Y-113670000D02*
X208145000Y-113170000D01*
G75*
G02*
X208370000Y-112945000I225000J0D01*
G01*
X208820000Y-112945000D01*
G75*
G02*
X209045000Y-113170000I0J-225000D01*
G01*
X209045000Y-113670000D01*
G75*
G02*
X208820000Y-113895000I-225000J0D01*
G01*
X208370000Y-113895000D01*
G75*
G02*
X208145000Y-113670000I0J225000D01*
G01*
G37*
G36*
G01*
X209695000Y-113670000D02*
X209695000Y-113170000D01*
G75*
G02*
X209920000Y-112945000I225000J0D01*
G01*
X210370000Y-112945000D01*
G75*
G02*
X210595000Y-113170000I0J-225000D01*
G01*
X210595000Y-113670000D01*
G75*
G02*
X210370000Y-113895000I-225000J0D01*
G01*
X209920000Y-113895000D01*
G75*
G02*
X209695000Y-113670000I0J225000D01*
G01*
G37*
%TD*%
D28*
%TO.C,D10*%
G36*
X265623689Y-130280744D02*
G01*
X265519102Y-129085310D01*
X266415677Y-129006870D01*
X266520264Y-130202304D01*
X265623689Y-130280744D01*
G37*
G36*
X268911131Y-129993130D02*
G01*
X268806544Y-128797696D01*
X269703119Y-128719256D01*
X269807706Y-129914690D01*
X268911131Y-129993130D01*
G37*
%TD*%
%TO.C,D49*%
G36*
X261330095Y-142417212D02*
G01*
X261019512Y-141258101D01*
X261888845Y-141025164D01*
X262199428Y-142184275D01*
X261330095Y-142417212D01*
G37*
G36*
X264517651Y-141563110D02*
G01*
X264207068Y-140403999D01*
X265076401Y-140171062D01*
X265386984Y-141330173D01*
X264517651Y-141563110D01*
G37*
%TD*%
%TO.C,D36*%
G36*
X266111762Y-135950358D02*
G01*
X266007175Y-134754924D01*
X266903750Y-134676484D01*
X267008337Y-135871918D01*
X266111762Y-135950358D01*
G37*
G36*
X269399204Y-135662744D02*
G01*
X269294617Y-134467310D01*
X270191192Y-134388870D01*
X270295779Y-135584304D01*
X269399204Y-135662744D01*
G37*
%TD*%
%TO.C,D23*%
G36*
X265830285Y-132690744D02*
G01*
X265725698Y-131495310D01*
X266622273Y-131416870D01*
X266726860Y-132612304D01*
X265830285Y-132690744D01*
G37*
G36*
X269117727Y-132403130D02*
G01*
X269013140Y-131207696D01*
X269909715Y-131129256D01*
X270014302Y-132324690D01*
X269117727Y-132403130D01*
G37*
%TD*%
%TO.C,SW1*%
G36*
X89483070Y-124334860D02*
G01*
X89605088Y-122940188D01*
X90501664Y-123018628D01*
X90379646Y-124413300D01*
X89483070Y-124334860D01*
G37*
G36*
X95958336Y-124901372D02*
G01*
X96080354Y-123506700D01*
X96976930Y-123585140D01*
X96854912Y-124979812D01*
X95958336Y-124901372D01*
G37*
%TD*%
D37*
%TO.C,U4*%
X218600000Y-111700000D03*
D38*
X221140000Y-111700000D03*
X221140000Y-106620000D03*
X218600000Y-106620000D03*
X221140000Y-109160000D03*
X218600000Y-109160000D03*
%TD*%
D39*
%TO.C,Y1*%
X218560000Y-136210000D03*
X218560000Y-134010000D03*
X220260000Y-134010000D03*
X220260000Y-136210000D03*
%TD*%
D40*
%TO.C,U1*%
X81048626Y-87051263D03*
X81048626Y-88951263D03*
X83048626Y-88951263D03*
D41*
X83048626Y-87251263D03*
%TD*%
%TO.C,RC7*%
G36*
G01*
X206195000Y-146125000D02*
X206195000Y-146675000D01*
G75*
G02*
X205995000Y-146875000I-200000J0D01*
G01*
X205595000Y-146875000D01*
G75*
G02*
X205395000Y-146675000I0J200000D01*
G01*
X205395000Y-146125000D01*
G75*
G02*
X205595000Y-145925000I200000J0D01*
G01*
X205995000Y-145925000D01*
G75*
G02*
X206195000Y-146125000I0J-200000D01*
G01*
G37*
G36*
G01*
X204545000Y-146125000D02*
X204545000Y-146675000D01*
G75*
G02*
X204345000Y-146875000I-200000J0D01*
G01*
X203945000Y-146875000D01*
G75*
G02*
X203745000Y-146675000I0J200000D01*
G01*
X203745000Y-146125000D01*
G75*
G02*
X203945000Y-145925000I200000J0D01*
G01*
X204345000Y-145925000D01*
G75*
G02*
X204545000Y-146125000I0J-200000D01*
G01*
G37*
%TD*%
%TO.C,RC5*%
G36*
G01*
X219515000Y-129025000D02*
X219515000Y-128475000D01*
G75*
G02*
X219715000Y-128275000I200000J0D01*
G01*
X220115000Y-128275000D01*
G75*
G02*
X220315000Y-128475000I0J-200000D01*
G01*
X220315000Y-129025000D01*
G75*
G02*
X220115000Y-129225000I-200000J0D01*
G01*
X219715000Y-129225000D01*
G75*
G02*
X219515000Y-129025000I0J200000D01*
G01*
G37*
G36*
G01*
X221165000Y-129025000D02*
X221165000Y-128475000D01*
G75*
G02*
X221365000Y-128275000I200000J0D01*
G01*
X221765000Y-128275000D01*
G75*
G02*
X221965000Y-128475000I0J-200000D01*
G01*
X221965000Y-129025000D01*
G75*
G02*
X221765000Y-129225000I-200000J0D01*
G01*
X221365000Y-129225000D01*
G75*
G02*
X221165000Y-129025000I0J200000D01*
G01*
G37*
%TD*%
%TO.C,RC4*%
G36*
G01*
X85663626Y-88406263D02*
X86213626Y-88406263D01*
G75*
G02*
X86413626Y-88606263I0J-200000D01*
G01*
X86413626Y-89006263D01*
G75*
G02*
X86213626Y-89206263I-200000J0D01*
G01*
X85663626Y-89206263D01*
G75*
G02*
X85463626Y-89006263I0J200000D01*
G01*
X85463626Y-88606263D01*
G75*
G02*
X85663626Y-88406263I200000J0D01*
G01*
G37*
G36*
G01*
X85663626Y-86756263D02*
X86213626Y-86756263D01*
G75*
G02*
X86413626Y-86956263I0J-200000D01*
G01*
X86413626Y-87356263D01*
G75*
G02*
X86213626Y-87556263I-200000J0D01*
G01*
X85663626Y-87556263D01*
G75*
G02*
X85463626Y-87356263I0J200000D01*
G01*
X85463626Y-86956263D01*
G75*
G02*
X85663626Y-86756263I200000J0D01*
G01*
G37*
%TD*%
%TO.C,RC3*%
G36*
G01*
X77953626Y-88366264D02*
X78503626Y-88366264D01*
G75*
G02*
X78703626Y-88566264I0J-200000D01*
G01*
X78703626Y-88966264D01*
G75*
G02*
X78503626Y-89166264I-200000J0D01*
G01*
X77953626Y-89166264D01*
G75*
G02*
X77753626Y-88966264I0J200000D01*
G01*
X77753626Y-88566264D01*
G75*
G02*
X77953626Y-88366264I200000J0D01*
G01*
G37*
G36*
G01*
X77953626Y-86716264D02*
X78503626Y-86716264D01*
G75*
G02*
X78703626Y-86916264I0J-200000D01*
G01*
X78703626Y-87316264D01*
G75*
G02*
X78503626Y-87516264I-200000J0D01*
G01*
X77953626Y-87516264D01*
G75*
G02*
X77753626Y-87316264I0J200000D01*
G01*
X77753626Y-86916264D01*
G75*
G02*
X77953626Y-86716264I200000J0D01*
G01*
G37*
%TD*%
%TO.C,RC2*%
G36*
G01*
X75434286Y-93660234D02*
X75984286Y-93660234D01*
G75*
G02*
X76184286Y-93860234I0J-200000D01*
G01*
X76184286Y-94260234D01*
G75*
G02*
X75984286Y-94460234I-200000J0D01*
G01*
X75434286Y-94460234D01*
G75*
G02*
X75234286Y-94260234I0J200000D01*
G01*
X75234286Y-93860234D01*
G75*
G02*
X75434286Y-93660234I200000J0D01*
G01*
G37*
G36*
G01*
X75434286Y-92010234D02*
X75984286Y-92010234D01*
G75*
G02*
X76184286Y-92210234I0J-200000D01*
G01*
X76184286Y-92610234D01*
G75*
G02*
X75984286Y-92810234I-200000J0D01*
G01*
X75434286Y-92810234D01*
G75*
G02*
X75234286Y-92610234I0J200000D01*
G01*
X75234286Y-92210234D01*
G75*
G02*
X75434286Y-92010234I200000J0D01*
G01*
G37*
%TD*%
%TO.C,RC1*%
G36*
G01*
X74044286Y-92840234D02*
X73494286Y-92840234D01*
G75*
G02*
X73294286Y-92640234I0J200000D01*
G01*
X73294286Y-92240234D01*
G75*
G02*
X73494286Y-92040234I200000J0D01*
G01*
X74044286Y-92040234D01*
G75*
G02*
X74244286Y-92240234I0J-200000D01*
G01*
X74244286Y-92640234D01*
G75*
G02*
X74044286Y-92840234I-200000J0D01*
G01*
G37*
G36*
G01*
X74044286Y-94490234D02*
X73494286Y-94490234D01*
G75*
G02*
X73294286Y-94290234I0J200000D01*
G01*
X73294286Y-93890234D01*
G75*
G02*
X73494286Y-93690234I200000J0D01*
G01*
X74044286Y-93690234D01*
G75*
G02*
X74244286Y-93890234I0J-200000D01*
G01*
X74244286Y-94290234D01*
G75*
G02*
X74044286Y-94490234I-200000J0D01*
G01*
G37*
%TD*%
%TO.C,F1*%
G36*
G01*
X71695000Y-92205000D02*
X70445000Y-92205000D01*
G75*
G02*
X70195000Y-91955000I0J250000D01*
G01*
X70195000Y-91205000D01*
G75*
G02*
X70445000Y-90955000I250000J0D01*
G01*
X71695000Y-90955000D01*
G75*
G02*
X71945000Y-91205000I0J-250000D01*
G01*
X71945000Y-91955000D01*
G75*
G02*
X71695000Y-92205000I-250000J0D01*
G01*
G37*
G36*
G01*
X71695000Y-95005000D02*
X70445000Y-95005000D01*
G75*
G02*
X70195000Y-94755000I0J250000D01*
G01*
X70195000Y-94005000D01*
G75*
G02*
X70445000Y-93755000I250000J0D01*
G01*
X71695000Y-93755000D01*
G75*
G02*
X71945000Y-94005000I0J-250000D01*
G01*
X71945000Y-94755000D01*
G75*
G02*
X71695000Y-95005000I-250000J0D01*
G01*
G37*
%TD*%
D28*
%TO.C,D52*%
G36*
X324790285Y-150840744D02*
G01*
X324685698Y-149645310D01*
X325582273Y-149566870D01*
X325686860Y-150762304D01*
X324790285Y-150840744D01*
G37*
G36*
X328077727Y-150553130D02*
G01*
X327973140Y-149357696D01*
X328869715Y-149279256D01*
X328974302Y-150474690D01*
X328077727Y-150553130D01*
G37*
%TD*%
%TO.C,D51*%
G36*
X305390285Y-147770744D02*
G01*
X305285698Y-146575310D01*
X306182273Y-146496870D01*
X306286860Y-147692304D01*
X305390285Y-147770744D01*
G37*
G36*
X308677727Y-147483130D02*
G01*
X308573140Y-146287696D01*
X309469715Y-146209256D01*
X309574302Y-147404690D01*
X308677727Y-147483130D01*
G37*
%TD*%
%TO.C,D50*%
G36*
X285580285Y-139900744D02*
G01*
X285475698Y-138705310D01*
X286372273Y-138626870D01*
X286476860Y-139822304D01*
X285580285Y-139900744D01*
G37*
G36*
X288867727Y-139613130D02*
G01*
X288763140Y-138417696D01*
X289659715Y-138339256D01*
X289764302Y-139534690D01*
X288867727Y-139613130D01*
G37*
%TD*%
%TO.C,D48*%
G36*
X242929208Y-147347714D02*
G01*
X242618625Y-146188603D01*
X243487958Y-145955666D01*
X243798541Y-147114777D01*
X242929208Y-147347714D01*
G37*
G36*
X246116764Y-146493612D02*
G01*
X245806181Y-145334501D01*
X246675514Y-145101564D01*
X246986097Y-146260675D01*
X246116764Y-146493612D01*
G37*
%TD*%
%TO.C,D47*%
G36*
X224528322Y-152278216D02*
G01*
X224217739Y-151119105D01*
X225087072Y-150886168D01*
X225397655Y-152045279D01*
X224528322Y-152278216D01*
G37*
G36*
X227715878Y-151424114D02*
G01*
X227405295Y-150265003D01*
X228274628Y-150032066D01*
X228585211Y-151191177D01*
X227715878Y-151424114D01*
G37*
%TD*%
D42*
%TO.C,D46*%
X205270000Y-150420000D03*
X201970000Y-150420000D03*
%TD*%
D28*
%TO.C,D45*%
G36*
X175928375Y-149112310D02*
G01*
X176238958Y-147953199D01*
X177108291Y-148186136D01*
X176797708Y-149345247D01*
X175928375Y-149112310D01*
G37*
G36*
X179115931Y-149966412D02*
G01*
X179426514Y-148807301D01*
X180295847Y-149040238D01*
X179985264Y-150199349D01*
X179115931Y-149966412D01*
G37*
%TD*%
%TO.C,D44*%
G36*
X157527486Y-144181804D02*
G01*
X157838069Y-143022693D01*
X158707402Y-143255630D01*
X158396819Y-144414741D01*
X157527486Y-144181804D01*
G37*
G36*
X160715042Y-145035906D02*
G01*
X161025625Y-143876795D01*
X161894958Y-144109732D01*
X161584375Y-145268843D01*
X160715042Y-145035906D01*
G37*
%TD*%
%TO.C,D43*%
G36*
X139126599Y-139251301D02*
G01*
X139437182Y-138092190D01*
X140306515Y-138325127D01*
X139995932Y-139484238D01*
X139126599Y-139251301D01*
G37*
G36*
X142314155Y-140105403D02*
G01*
X142624738Y-138946292D01*
X143494071Y-139179229D01*
X143183488Y-140338340D01*
X142314155Y-140105403D01*
G37*
%TD*%
%TO.C,D42*%
G36*
X111715698Y-138604690D02*
G01*
X111820285Y-137409256D01*
X112716860Y-137487696D01*
X112612273Y-138683130D01*
X111715698Y-138604690D01*
G37*
G36*
X115003140Y-138892304D02*
G01*
X115107727Y-137696870D01*
X116004302Y-137775310D01*
X115899715Y-138970744D01*
X115003140Y-138892304D01*
G37*
%TD*%
%TO.C,D41*%
G36*
X91905698Y-146464690D02*
G01*
X92010285Y-145269256D01*
X92906860Y-145347696D01*
X92802273Y-146543130D01*
X91905698Y-146464690D01*
G37*
G36*
X95193140Y-146752304D02*
G01*
X95297727Y-145556870D01*
X96194302Y-145635310D01*
X96089715Y-146830744D01*
X95193140Y-146752304D01*
G37*
%TD*%
%TO.C,D40*%
G36*
X72515698Y-149584690D02*
G01*
X72620285Y-148389256D01*
X73516860Y-148467696D01*
X73412273Y-149663130D01*
X72515698Y-149584690D01*
G37*
G36*
X75803140Y-149872304D02*
G01*
X75907727Y-148676870D01*
X76804302Y-148755310D01*
X76699715Y-149950744D01*
X75803140Y-149872304D01*
G37*
%TD*%
%TO.C,D39*%
G36*
X324571865Y-148429711D02*
G01*
X324467278Y-147234277D01*
X325363853Y-147155837D01*
X325468440Y-148351271D01*
X324571865Y-148429711D01*
G37*
G36*
X327859307Y-148142097D02*
G01*
X327754720Y-146946663D01*
X328651295Y-146868223D01*
X328755882Y-148063657D01*
X327859307Y-148142097D01*
G37*
%TD*%
%TO.C,D38*%
G36*
X305179235Y-145345153D02*
G01*
X305074648Y-144149719D01*
X305971223Y-144071279D01*
X306075810Y-145266713D01*
X305179235Y-145345153D01*
G37*
G36*
X308466677Y-145057539D02*
G01*
X308362090Y-143862105D01*
X309258665Y-143783665D01*
X309363252Y-144979099D01*
X308466677Y-145057539D01*
G37*
%TD*%
%TO.C,D37*%
G36*
X285371566Y-137516715D02*
G01*
X285266979Y-136321281D01*
X286163554Y-136242841D01*
X286268141Y-137438275D01*
X285371566Y-137516715D01*
G37*
G36*
X288659008Y-137229101D02*
G01*
X288554421Y-136033667D01*
X289450996Y-135955227D01*
X289555583Y-137150661D01*
X288659008Y-137229101D01*
G37*
%TD*%
%TO.C,D35*%
G36*
X247416549Y-140837349D02*
G01*
X247311962Y-139641915D01*
X248208537Y-139563475D01*
X248313124Y-140758909D01*
X247416549Y-140837349D01*
G37*
G36*
X250703991Y-140549735D02*
G01*
X250599404Y-139354301D01*
X251495979Y-139275861D01*
X251600566Y-140471295D01*
X250703991Y-140549735D01*
G37*
%TD*%
%TO.C,D34*%
G36*
X228638278Y-144774966D02*
G01*
X228533691Y-143579532D01*
X229430266Y-143501092D01*
X229534853Y-144696526D01*
X228638278Y-144774966D01*
G37*
G36*
X231925720Y-144487352D02*
G01*
X231821133Y-143291918D01*
X232717708Y-143213478D01*
X232822295Y-144408912D01*
X231925720Y-144487352D01*
G37*
%TD*%
%TO.C,D32*%
G36*
X168658316Y-143500353D02*
G01*
X168762903Y-142304919D01*
X169659478Y-142383359D01*
X169554891Y-143578793D01*
X168658316Y-143500353D01*
G37*
G36*
X171945758Y-143787967D02*
G01*
X172050345Y-142592533D01*
X172946920Y-142670973D01*
X172842333Y-143866407D01*
X171945758Y-143787967D01*
G37*
%TD*%
%TO.C,D31*%
G36*
X149880045Y-139562736D02*
G01*
X149984632Y-138367302D01*
X150881207Y-138445742D01*
X150776620Y-139641176D01*
X149880045Y-139562736D01*
G37*
G36*
X153167487Y-139850350D02*
G01*
X153272074Y-138654916D01*
X154168649Y-138733356D01*
X154064062Y-139928790D01*
X153167487Y-139850350D01*
G37*
%TD*%
%TO.C,D30*%
G36*
X131184835Y-134675746D02*
G01*
X131289422Y-133480312D01*
X132185997Y-133558752D01*
X132081410Y-134754186D01*
X131184835Y-134675746D01*
G37*
G36*
X134472277Y-134963360D02*
G01*
X134576864Y-133767926D01*
X135473439Y-133846366D01*
X135368852Y-135041800D01*
X134472277Y-134963360D01*
G37*
%TD*%
%TO.C,D29*%
G36*
X111925028Y-136242103D02*
G01*
X112029615Y-135046669D01*
X112926190Y-135125109D01*
X112821603Y-136320543D01*
X111925028Y-136242103D01*
G37*
G36*
X115212470Y-136529717D02*
G01*
X115317057Y-135334283D01*
X116213632Y-135412723D01*
X116109045Y-136608157D01*
X115212470Y-136529717D01*
G37*
%TD*%
%TO.C,D28*%
G36*
X92117361Y-144070540D02*
G01*
X92221948Y-142875106D01*
X93118523Y-142953546D01*
X93013936Y-144148980D01*
X92117361Y-144070540D01*
G37*
G36*
X95404803Y-144358154D02*
G01*
X95509390Y-143162720D01*
X96405965Y-143241160D01*
X96301378Y-144436594D01*
X95404803Y-144358154D01*
G37*
%TD*%
%TO.C,D27*%
G36*
X72724729Y-147155100D02*
G01*
X72829316Y-145959666D01*
X73725891Y-146038106D01*
X73621304Y-147233540D01*
X72724729Y-147155100D01*
G37*
G36*
X76012171Y-147442714D02*
G01*
X76116758Y-146247280D01*
X77013333Y-146325720D01*
X76908746Y-147521154D01*
X76012171Y-147442714D01*
G37*
%TD*%
%TO.C,D26*%
G36*
X324284253Y-145142268D02*
G01*
X324179666Y-143946834D01*
X325076241Y-143868394D01*
X325180828Y-145063828D01*
X324284253Y-145142268D01*
G37*
G36*
X327571695Y-144854654D02*
G01*
X327467108Y-143659220D01*
X328363683Y-143580780D01*
X328468270Y-144776214D01*
X327571695Y-144854654D01*
G37*
%TD*%
%TO.C,D25*%
G36*
X304891621Y-142057711D02*
G01*
X304787034Y-140862277D01*
X305683609Y-140783837D01*
X305788196Y-141979271D01*
X304891621Y-142057711D01*
G37*
G36*
X308179063Y-141770097D02*
G01*
X308074476Y-140574663D01*
X308971051Y-140496223D01*
X309075638Y-141691657D01*
X308179063Y-141770097D01*
G37*
%TD*%
%TO.C,D24*%
G36*
X285083953Y-134229272D02*
G01*
X284979366Y-133033838D01*
X285875941Y-132955398D01*
X285980528Y-134150832D01*
X285083953Y-134229272D01*
G37*
G36*
X288371395Y-133941658D02*
G01*
X288266808Y-132746224D01*
X289163383Y-132667784D01*
X289267970Y-133863218D01*
X288371395Y-133941658D01*
G37*
%TD*%
%TO.C,D22*%
G36*
X247128935Y-137549906D02*
G01*
X247024348Y-136354472D01*
X247920923Y-136276032D01*
X248025510Y-137471466D01*
X247128935Y-137549906D01*
G37*
G36*
X250416377Y-137262292D02*
G01*
X250311790Y-136066858D01*
X251208365Y-135988418D01*
X251312952Y-137183852D01*
X250416377Y-137262292D01*
G37*
%TD*%
%TO.C,D21*%
G36*
X228350664Y-141487524D02*
G01*
X228246077Y-140292090D01*
X229142652Y-140213650D01*
X229247239Y-141409084D01*
X228350664Y-141487524D01*
G37*
G36*
X231638106Y-141199910D02*
G01*
X231533519Y-140004476D01*
X232430094Y-139926036D01*
X232534681Y-141121470D01*
X231638106Y-141199910D01*
G37*
%TD*%
%TO.C,D19*%
G36*
X172233373Y-140500526D02*
G01*
X172337960Y-139305092D01*
X173234535Y-139383532D01*
X173129948Y-140578966D01*
X172233373Y-140500526D01*
G37*
G36*
X168945931Y-140212912D02*
G01*
X169050518Y-139017478D01*
X169947093Y-139095918D01*
X169842506Y-140291352D01*
X168945931Y-140212912D01*
G37*
%TD*%
%TO.C,D18*%
G36*
X153455101Y-136562908D02*
G01*
X153559688Y-135367474D01*
X154456263Y-135445914D01*
X154351676Y-136641348D01*
X153455101Y-136562908D01*
G37*
G36*
X150167659Y-136275294D02*
G01*
X150272246Y-135079860D01*
X151168821Y-135158300D01*
X151064234Y-136353734D01*
X150167659Y-136275294D01*
G37*
%TD*%
%TO.C,D17*%
G36*
X134759891Y-131675915D02*
G01*
X134864478Y-130480481D01*
X135761053Y-130558921D01*
X135656466Y-131754355D01*
X134759891Y-131675915D01*
G37*
G36*
X131472449Y-131388301D02*
G01*
X131577036Y-130192867D01*
X132473611Y-130271307D01*
X132369024Y-131466741D01*
X131472449Y-131388301D01*
G37*
%TD*%
%TO.C,D16*%
G36*
X115493140Y-133292304D02*
G01*
X115597727Y-132096870D01*
X116494302Y-132175310D01*
X116389715Y-133370744D01*
X115493140Y-133292304D01*
G37*
G36*
X112205698Y-133004690D02*
G01*
X112310285Y-131809256D01*
X113206860Y-131887696D01*
X113102273Y-133083130D01*
X112205698Y-133004690D01*
G37*
%TD*%
%TO.C,D15*%
G36*
X95692417Y-141070712D02*
G01*
X95797004Y-139875278D01*
X96693579Y-139953718D01*
X96588992Y-141149152D01*
X95692417Y-141070712D01*
G37*
G36*
X92404975Y-140783098D02*
G01*
X92509562Y-139587664D01*
X93406137Y-139666104D01*
X93301550Y-140861538D01*
X92404975Y-140783098D01*
G37*
%TD*%
%TO.C,D14*%
G36*
X76299785Y-144155270D02*
G01*
X76404372Y-142959836D01*
X77300947Y-143038276D01*
X77196360Y-144233710D01*
X76299785Y-144155270D01*
G37*
G36*
X73012343Y-143867656D02*
G01*
X73116930Y-142672222D01*
X74013505Y-142750662D01*
X73908918Y-143946096D01*
X73012343Y-143867656D01*
G37*
%TD*%
%TO.C,D13*%
G36*
X324070285Y-142750744D02*
G01*
X323965698Y-141555310D01*
X324862273Y-141476870D01*
X324966860Y-142672304D01*
X324070285Y-142750744D01*
G37*
G36*
X327357727Y-142463130D02*
G01*
X327253140Y-141267696D01*
X328149715Y-141189256D01*
X328254302Y-142384690D01*
X327357727Y-142463130D01*
G37*
%TD*%
%TO.C,D12*%
G36*
X304680285Y-139670744D02*
G01*
X304575698Y-138475310D01*
X305472273Y-138396870D01*
X305576860Y-139592304D01*
X304680285Y-139670744D01*
G37*
G36*
X307967727Y-139383130D02*
G01*
X307863140Y-138187696D01*
X308759715Y-138109256D01*
X308864302Y-139304690D01*
X307967727Y-139383130D01*
G37*
%TD*%
%TO.C,D11*%
G36*
X284870285Y-131860744D02*
G01*
X284765698Y-130665310D01*
X285662273Y-130586870D01*
X285766860Y-131782304D01*
X284870285Y-131860744D01*
G37*
G36*
X288157727Y-131573130D02*
G01*
X288053140Y-130377696D01*
X288949715Y-130299256D01*
X289054302Y-131494690D01*
X288157727Y-131573130D01*
G37*
%TD*%
%TO.C,D9*%
G36*
X246920285Y-135160744D02*
G01*
X246815698Y-133965310D01*
X247712273Y-133886870D01*
X247816860Y-135082304D01*
X246920285Y-135160744D01*
G37*
G36*
X250207727Y-134873130D02*
G01*
X250103140Y-133677696D01*
X250999715Y-133599256D01*
X251104302Y-134794690D01*
X250207727Y-134873130D01*
G37*
%TD*%
%TO.C,D8*%
G36*
X228140285Y-139090744D02*
G01*
X228035698Y-137895310D01*
X228932273Y-137816870D01*
X229036860Y-139012304D01*
X228140285Y-139090744D01*
G37*
G36*
X231427727Y-138803130D02*
G01*
X231323140Y-137607696D01*
X232219715Y-137529256D01*
X232324302Y-138724690D01*
X231427727Y-138803130D01*
G37*
%TD*%
D42*
%TO.C,D7*%
X205340000Y-89730000D03*
X202040000Y-89730000D03*
%TD*%
D28*
%TO.C,D6*%
G36*
X172453140Y-138102304D02*
G01*
X172557727Y-136906870D01*
X173454302Y-136985310D01*
X173349715Y-138180744D01*
X172453140Y-138102304D01*
G37*
G36*
X169165698Y-137814690D02*
G01*
X169270285Y-136619256D01*
X170166860Y-136697696D01*
X170062273Y-137893130D01*
X169165698Y-137814690D01*
G37*
%TD*%
%TO.C,D5*%
G36*
X153663140Y-134182304D02*
G01*
X153767727Y-132986870D01*
X154664302Y-133065310D01*
X154559715Y-134260744D01*
X153663140Y-134182304D01*
G37*
G36*
X150375698Y-133894690D02*
G01*
X150480285Y-132699256D01*
X151376860Y-132777696D01*
X151272273Y-133973130D01*
X150375698Y-133894690D01*
G37*
%TD*%
%TO.C,D4*%
G36*
X134973140Y-129282304D02*
G01*
X135077727Y-128086870D01*
X135974302Y-128165310D01*
X135869715Y-129360744D01*
X134973140Y-129282304D01*
G37*
G36*
X131685698Y-128994690D02*
G01*
X131790285Y-127799256D01*
X132686860Y-127877696D01*
X132582273Y-129073130D01*
X131685698Y-128994690D01*
G37*
%TD*%
%TO.C,D3*%
G36*
X115700540Y-130922304D02*
G01*
X115805127Y-129726870D01*
X116701702Y-129805310D01*
X116597115Y-131000744D01*
X115700540Y-130922304D01*
G37*
G36*
X112413098Y-130634690D02*
G01*
X112517685Y-129439256D01*
X113414260Y-129517696D01*
X113309673Y-130713130D01*
X112413098Y-130634690D01*
G37*
%TD*%
%TO.C,D2*%
G36*
X95892875Y-138692304D02*
G01*
X95997462Y-137496870D01*
X96894037Y-137575310D01*
X96789450Y-138770744D01*
X95892875Y-138692304D01*
G37*
G36*
X92605433Y-138404690D02*
G01*
X92710020Y-137209256D01*
X93606595Y-137287696D01*
X93502008Y-138483130D01*
X92605433Y-138404690D01*
G37*
%TD*%
%TO.C,D1*%
G36*
X76523140Y-141712304D02*
G01*
X76627727Y-140516870D01*
X77524302Y-140595310D01*
X77419715Y-141790744D01*
X76523140Y-141712304D01*
G37*
G36*
X73235698Y-141424690D02*
G01*
X73340285Y-140229256D01*
X74236860Y-140307696D01*
X74132273Y-141503130D01*
X73235698Y-141424690D01*
G37*
%TD*%
%TO.C,C7*%
G36*
G01*
X217960000Y-130775000D02*
X217460000Y-130775000D01*
G75*
G02*
X217235000Y-130550000I0J225000D01*
G01*
X217235000Y-130100000D01*
G75*
G02*
X217460000Y-129875000I225000J0D01*
G01*
X217960000Y-129875000D01*
G75*
G02*
X218185000Y-130100000I0J-225000D01*
G01*
X218185000Y-130550000D01*
G75*
G02*
X217960000Y-130775000I-225000J0D01*
G01*
G37*
G36*
G01*
X217960000Y-129225000D02*
X217460000Y-129225000D01*
G75*
G02*
X217235000Y-129000000I0J225000D01*
G01*
X217235000Y-128550000D01*
G75*
G02*
X217460000Y-128325000I225000J0D01*
G01*
X217960000Y-128325000D01*
G75*
G02*
X218185000Y-128550000I0J-225000D01*
G01*
X218185000Y-129000000D01*
G75*
G02*
X217960000Y-129225000I-225000J0D01*
G01*
G37*
%TD*%
%TO.C,C6*%
G36*
G01*
X208630000Y-121845000D02*
X209130000Y-121845000D01*
G75*
G02*
X209355000Y-122070000I0J-225000D01*
G01*
X209355000Y-122520000D01*
G75*
G02*
X209130000Y-122745000I-225000J0D01*
G01*
X208630000Y-122745000D01*
G75*
G02*
X208405000Y-122520000I0J225000D01*
G01*
X208405000Y-122070000D01*
G75*
G02*
X208630000Y-121845000I225000J0D01*
G01*
G37*
G36*
G01*
X208630000Y-123395000D02*
X209130000Y-123395000D01*
G75*
G02*
X209355000Y-123620000I0J-225000D01*
G01*
X209355000Y-124070000D01*
G75*
G02*
X209130000Y-124295000I-225000J0D01*
G01*
X208630000Y-124295000D01*
G75*
G02*
X208405000Y-124070000I0J225000D01*
G01*
X208405000Y-123620000D01*
G75*
G02*
X208630000Y-123395000I225000J0D01*
G01*
G37*
%TD*%
%TO.C,C5*%
G36*
G01*
X196845000Y-137900000D02*
X196845000Y-138400000D01*
G75*
G02*
X196620000Y-138625000I-225000J0D01*
G01*
X196170000Y-138625000D01*
G75*
G02*
X195945000Y-138400000I0J225000D01*
G01*
X195945000Y-137900000D01*
G75*
G02*
X196170000Y-137675000I225000J0D01*
G01*
X196620000Y-137675000D01*
G75*
G02*
X196845000Y-137900000I0J-225000D01*
G01*
G37*
G36*
G01*
X195295000Y-137900000D02*
X195295000Y-138400000D01*
G75*
G02*
X195070000Y-138625000I-225000J0D01*
G01*
X194620000Y-138625000D01*
G75*
G02*
X194395000Y-138400000I0J225000D01*
G01*
X194395000Y-137900000D01*
G75*
G02*
X194620000Y-137675000I225000J0D01*
G01*
X195070000Y-137675000D01*
G75*
G02*
X195295000Y-137900000I0J-225000D01*
G01*
G37*
%TD*%
%TO.C,C4*%
G36*
G01*
X196590000Y-129585000D02*
X196090000Y-129585000D01*
G75*
G02*
X195865000Y-129360000I0J225000D01*
G01*
X195865000Y-128910000D01*
G75*
G02*
X196090000Y-128685000I225000J0D01*
G01*
X196590000Y-128685000D01*
G75*
G02*
X196815000Y-128910000I0J-225000D01*
G01*
X196815000Y-129360000D01*
G75*
G02*
X196590000Y-129585000I-225000J0D01*
G01*
G37*
G36*
G01*
X196590000Y-128035000D02*
X196090000Y-128035000D01*
G75*
G02*
X195865000Y-127810000I0J225000D01*
G01*
X195865000Y-127360000D01*
G75*
G02*
X196090000Y-127135000I225000J0D01*
G01*
X196590000Y-127135000D01*
G75*
G02*
X196815000Y-127360000I0J-225000D01*
G01*
X196815000Y-127810000D01*
G75*
G02*
X196590000Y-128035000I-225000J0D01*
G01*
G37*
%TD*%
%TO.C,C3*%
G36*
G01*
X206440000Y-124775000D02*
X205940000Y-124775000D01*
G75*
G02*
X205715000Y-124550000I0J225000D01*
G01*
X205715000Y-124100000D01*
G75*
G02*
X205940000Y-123875000I225000J0D01*
G01*
X206440000Y-123875000D01*
G75*
G02*
X206665000Y-124100000I0J-225000D01*
G01*
X206665000Y-124550000D01*
G75*
G02*
X206440000Y-124775000I-225000J0D01*
G01*
G37*
G36*
G01*
X206440000Y-123225000D02*
X205940000Y-123225000D01*
G75*
G02*
X205715000Y-123000000I0J225000D01*
G01*
X205715000Y-122550000D01*
G75*
G02*
X205940000Y-122325000I225000J0D01*
G01*
X206440000Y-122325000D01*
G75*
G02*
X206665000Y-122550000I0J-225000D01*
G01*
X206665000Y-123000000D01*
G75*
G02*
X206440000Y-123225000I-225000J0D01*
G01*
G37*
%TD*%
%TO.C,C2*%
G36*
G01*
X222950000Y-131345000D02*
X223450000Y-131345000D01*
G75*
G02*
X223675000Y-131570000I0J-225000D01*
G01*
X223675000Y-132020000D01*
G75*
G02*
X223450000Y-132245000I-225000J0D01*
G01*
X222950000Y-132245000D01*
G75*
G02*
X222725000Y-132020000I0J225000D01*
G01*
X222725000Y-131570000D01*
G75*
G02*
X222950000Y-131345000I225000J0D01*
G01*
G37*
G36*
G01*
X222950000Y-132895000D02*
X223450000Y-132895000D01*
G75*
G02*
X223675000Y-133120000I0J-225000D01*
G01*
X223675000Y-133570000D01*
G75*
G02*
X223450000Y-133795000I-225000J0D01*
G01*
X222950000Y-133795000D01*
G75*
G02*
X222725000Y-133570000I0J225000D01*
G01*
X222725000Y-133120000D01*
G75*
G02*
X222950000Y-132895000I225000J0D01*
G01*
G37*
%TD*%
%TO.C,C1*%
G36*
G01*
X223440000Y-138295000D02*
X222940000Y-138295000D01*
G75*
G02*
X222715000Y-138070000I0J225000D01*
G01*
X222715000Y-137620000D01*
G75*
G02*
X222940000Y-137395000I225000J0D01*
G01*
X223440000Y-137395000D01*
G75*
G02*
X223665000Y-137620000I0J-225000D01*
G01*
X223665000Y-138070000D01*
G75*
G02*
X223440000Y-138295000I-225000J0D01*
G01*
G37*
G36*
G01*
X223440000Y-136745000D02*
X222940000Y-136745000D01*
G75*
G02*
X222715000Y-136520000I0J225000D01*
G01*
X222715000Y-136070000D01*
G75*
G02*
X222940000Y-135845000I225000J0D01*
G01*
X223440000Y-135845000D01*
G75*
G02*
X223665000Y-136070000I0J-225000D01*
G01*
X223665000Y-136520000D01*
G75*
G02*
X223440000Y-136745000I-225000J0D01*
G01*
G37*
%TD*%
M02*
