%TF.GenerationSoftware,KiCad,Pcbnew,(5.1.8)-1*%
%TF.CreationDate,2021-01-22T10:31:16-05:00*%
%TF.ProjectId,ergo_60_case,6572676f-5f36-4305-9f63-6173652e6b69,rev?*%
%TF.SameCoordinates,Original*%
%TF.FileFunction,Paste,Bot*%
%TF.FilePolarity,Positive*%
%FSLAX46Y46*%
G04 Gerber Fmt 4.6, Leading zero omitted, Abs format (unit mm)*
G04 Created by KiCad (PCBNEW (5.1.8)-1) date 2021-01-22 10:31:16*
%MOMM*%
%LPD*%
G01*
G04 APERTURE LIST*
%ADD10R,1.150000X1.000000*%
%ADD11R,1.400000X0.550000*%
%ADD12R,1.400000X0.450000*%
%ADD13R,1.400000X0.600000*%
%ADD14R,1.000000X1.150000*%
%ADD15R,0.550000X1.400000*%
%ADD16R,0.450000X1.400000*%
%ADD17R,0.600000X1.400000*%
%ADD18R,2.550000X2.500000*%
%ADD19C,0.100000*%
%ADD20R,0.280000X1.470000*%
%ADD21R,1.470000X0.280000*%
%ADD22R,1.200000X1.400000*%
%ADD23R,0.600000X1.450000*%
%ADD24R,0.300000X1.450000*%
%ADD25R,0.600000X0.900000*%
%ADD26R,0.600000X0.500000*%
%ADD27R,0.900000X1.200000*%
G04 APERTURE END LIST*
D10*
%TO.C,D66*%
X343680000Y-83520000D03*
X343680000Y-87020000D03*
D11*
X343810000Y-86790000D03*
D12*
X343810000Y-85795000D03*
D13*
X343810000Y-84820000D03*
D11*
X343810000Y-83745000D03*
%TD*%
D10*
%TO.C,D68*%
X343680000Y-122140000D03*
X343680000Y-125640000D03*
D11*
X343810000Y-125410000D03*
D12*
X343810000Y-124415000D03*
D13*
X343810000Y-123440000D03*
D11*
X343810000Y-122365000D03*
%TD*%
D10*
%TO.C,D67*%
X343680000Y-102830000D03*
X343680000Y-106330000D03*
D11*
X343810000Y-106100000D03*
D12*
X343810000Y-105105000D03*
D13*
X343810000Y-104130000D03*
D11*
X343810000Y-103055000D03*
%TD*%
D14*
%TO.C,D90*%
X71580000Y-80620000D03*
X75080000Y-80620000D03*
D15*
X74850000Y-80490000D03*
D16*
X73855000Y-80490000D03*
D17*
X72880000Y-80490000D03*
D15*
X71805000Y-80490000D03*
%TD*%
D10*
%TO.C,D89*%
X69120000Y-86810000D03*
X69120000Y-83310000D03*
D11*
X68990000Y-83540000D03*
D12*
X68990000Y-84535000D03*
D13*
X68990000Y-85510000D03*
D11*
X68990000Y-86585000D03*
%TD*%
D10*
%TO.C,D88*%
X69120000Y-106147500D03*
X69120000Y-102647500D03*
D11*
X68990000Y-102877500D03*
D12*
X68990000Y-103872500D03*
D13*
X68990000Y-104847500D03*
D11*
X68990000Y-105922500D03*
%TD*%
D10*
%TO.C,D87*%
X69120000Y-125485000D03*
X69120000Y-121985000D03*
D11*
X68990000Y-122215000D03*
D12*
X68990000Y-123210000D03*
D13*
X68990000Y-124185000D03*
D11*
X68990000Y-125260000D03*
%TD*%
D10*
%TO.C,D86*%
X69120000Y-144822500D03*
X69120000Y-141322500D03*
D11*
X68990000Y-141552500D03*
D12*
X68990000Y-142547500D03*
D13*
X68990000Y-143522500D03*
D11*
X68990000Y-144597500D03*
%TD*%
D10*
%TO.C,D85*%
X69120000Y-164160000D03*
X69120000Y-160660000D03*
D11*
X68990000Y-160890000D03*
D12*
X68990000Y-161885000D03*
D13*
X68990000Y-162860000D03*
D11*
X68990000Y-163935000D03*
%TD*%
D14*
%TO.C,D84*%
X75770000Y-166830000D03*
X72270000Y-166830000D03*
D15*
X72500000Y-166960000D03*
D16*
X73495000Y-166960000D03*
D17*
X74470000Y-166960000D03*
D15*
X75545000Y-166960000D03*
%TD*%
D14*
%TO.C,D83*%
X96139230Y-166830000D03*
X92639230Y-166830000D03*
D15*
X92869230Y-166960000D03*
D16*
X93864230Y-166960000D03*
D17*
X94839230Y-166960000D03*
D15*
X95914230Y-166960000D03*
%TD*%
D14*
%TO.C,D82*%
X116508460Y-166830000D03*
X113008460Y-166830000D03*
D15*
X113238460Y-166960000D03*
D16*
X114233460Y-166960000D03*
D17*
X115208460Y-166960000D03*
D15*
X116283460Y-166960000D03*
%TD*%
D14*
%TO.C,D81*%
X136877690Y-166830000D03*
X133377690Y-166830000D03*
D15*
X133607690Y-166960000D03*
D16*
X134602690Y-166960000D03*
D17*
X135577690Y-166960000D03*
D15*
X136652690Y-166960000D03*
%TD*%
D14*
%TO.C,D80*%
X157246920Y-166830000D03*
X153746920Y-166830000D03*
D15*
X153976920Y-166960000D03*
D16*
X154971920Y-166960000D03*
D17*
X155946920Y-166960000D03*
D15*
X157021920Y-166960000D03*
%TD*%
D14*
%TO.C,D79*%
X177616150Y-166830000D03*
X174116150Y-166830000D03*
D15*
X174346150Y-166960000D03*
D16*
X175341150Y-166960000D03*
D17*
X176316150Y-166960000D03*
D15*
X177391150Y-166960000D03*
%TD*%
D14*
%TO.C,D78*%
X197985380Y-166830000D03*
X194485380Y-166830000D03*
D15*
X194715380Y-166960000D03*
D16*
X195710380Y-166960000D03*
D17*
X196685380Y-166960000D03*
D15*
X197760380Y-166960000D03*
%TD*%
D14*
%TO.C,D77*%
X218354610Y-166830000D03*
X214854610Y-166830000D03*
D15*
X215084610Y-166960000D03*
D16*
X216079610Y-166960000D03*
D17*
X217054610Y-166960000D03*
D15*
X218129610Y-166960000D03*
%TD*%
D14*
%TO.C,D76*%
X238723840Y-166830000D03*
X235223840Y-166830000D03*
D15*
X235453840Y-166960000D03*
D16*
X236448840Y-166960000D03*
D17*
X237423840Y-166960000D03*
D15*
X238498840Y-166960000D03*
%TD*%
D14*
%TO.C,D75*%
X259093070Y-166830000D03*
X255593070Y-166830000D03*
D15*
X255823070Y-166960000D03*
D16*
X256818070Y-166960000D03*
D17*
X257793070Y-166960000D03*
D15*
X258868070Y-166960000D03*
%TD*%
D14*
%TO.C,D74*%
X279462300Y-166830000D03*
X275962300Y-166830000D03*
D15*
X276192300Y-166960000D03*
D16*
X277187300Y-166960000D03*
D17*
X278162300Y-166960000D03*
D15*
X279237300Y-166960000D03*
%TD*%
D14*
%TO.C,D73*%
X299831530Y-166830000D03*
X296331530Y-166830000D03*
D15*
X296561530Y-166960000D03*
D16*
X297556530Y-166960000D03*
D17*
X298531530Y-166960000D03*
D15*
X299606530Y-166960000D03*
%TD*%
D14*
%TO.C,D72*%
X320200760Y-166830000D03*
X316700760Y-166830000D03*
D15*
X316930760Y-166960000D03*
D16*
X317925760Y-166960000D03*
D17*
X318900760Y-166960000D03*
D15*
X319975760Y-166960000D03*
%TD*%
D14*
%TO.C,D71*%
X340570000Y-166830000D03*
X337070000Y-166830000D03*
D15*
X337300000Y-166960000D03*
D16*
X338295000Y-166960000D03*
D17*
X339270000Y-166960000D03*
D15*
X340345000Y-166960000D03*
%TD*%
D10*
%TO.C,D70*%
X343680000Y-160760000D03*
X343680000Y-164260000D03*
D11*
X343810000Y-164030000D03*
D12*
X343810000Y-163035000D03*
D13*
X343810000Y-162060000D03*
D11*
X343810000Y-160985000D03*
%TD*%
D10*
%TO.C,D69*%
X343680000Y-141450000D03*
X343680000Y-144950000D03*
D11*
X343810000Y-144720000D03*
D12*
X343810000Y-143725000D03*
D13*
X343810000Y-142750000D03*
D11*
X343810000Y-141675000D03*
%TD*%
D14*
%TO.C,D65*%
X337140000Y-80620000D03*
X340640000Y-80620000D03*
D15*
X340410000Y-80490000D03*
D16*
X339415000Y-80490000D03*
D17*
X338440000Y-80490000D03*
D15*
X337365000Y-80490000D03*
%TD*%
D14*
%TO.C,D64*%
X317616666Y-80620000D03*
X321116666Y-80620000D03*
D15*
X320886666Y-80490000D03*
D16*
X319891666Y-80490000D03*
D17*
X318916666Y-80490000D03*
D15*
X317841666Y-80490000D03*
%TD*%
D14*
%TO.C,D63*%
X298093333Y-80620000D03*
X301593333Y-80620000D03*
D15*
X301363333Y-80490000D03*
D16*
X300368333Y-80490000D03*
D17*
X299393333Y-80490000D03*
D15*
X298318333Y-80490000D03*
%TD*%
D14*
%TO.C,D62*%
X278570000Y-80620000D03*
X282070000Y-80620000D03*
D15*
X281840000Y-80490000D03*
D16*
X280845000Y-80490000D03*
D17*
X279870000Y-80490000D03*
D15*
X278795000Y-80490000D03*
%TD*%
D14*
%TO.C,D61*%
X254540000Y-80620000D03*
X258040000Y-80620000D03*
D15*
X257810000Y-80490000D03*
D16*
X256815000Y-80490000D03*
D17*
X255840000Y-80490000D03*
D15*
X254765000Y-80490000D03*
%TD*%
D14*
%TO.C,D60*%
X235705000Y-80620000D03*
X239205000Y-80620000D03*
D15*
X238975000Y-80490000D03*
D16*
X237980000Y-80490000D03*
D17*
X237005000Y-80490000D03*
D15*
X235930000Y-80490000D03*
%TD*%
D14*
%TO.C,D59*%
X216870000Y-80620000D03*
X220370000Y-80620000D03*
D15*
X220140000Y-80490000D03*
D16*
X219145000Y-80490000D03*
D17*
X218170000Y-80490000D03*
D15*
X217095000Y-80490000D03*
%TD*%
D14*
%TO.C,D58*%
X191630000Y-80620000D03*
X195130000Y-80620000D03*
D15*
X194900000Y-80490000D03*
D16*
X193905000Y-80490000D03*
D17*
X192930000Y-80490000D03*
D15*
X191855000Y-80490000D03*
%TD*%
D14*
%TO.C,D57*%
X172880000Y-80620000D03*
X176380000Y-80620000D03*
D15*
X176150000Y-80490000D03*
D16*
X175155000Y-80490000D03*
D17*
X174180000Y-80490000D03*
D15*
X173105000Y-80490000D03*
%TD*%
D14*
%TO.C,D56*%
X154130000Y-80620000D03*
X157630000Y-80620000D03*
D15*
X157400000Y-80490000D03*
D16*
X156405000Y-80490000D03*
D17*
X155430000Y-80490000D03*
D15*
X154355000Y-80490000D03*
%TD*%
D14*
%TO.C,D55*%
X129670000Y-80620000D03*
X133170000Y-80620000D03*
D15*
X132940000Y-80490000D03*
D16*
X131945000Y-80490000D03*
D17*
X130970000Y-80490000D03*
D15*
X129895000Y-80490000D03*
%TD*%
D14*
%TO.C,D54*%
X110306666Y-80620000D03*
X113806666Y-80620000D03*
D15*
X113576666Y-80490000D03*
D16*
X112581666Y-80490000D03*
D17*
X111606666Y-80490000D03*
D15*
X110531666Y-80490000D03*
%TD*%
D14*
%TO.C,D53*%
X90943333Y-80620000D03*
X94443333Y-80620000D03*
D15*
X94213333Y-80490000D03*
D16*
X93218333Y-80490000D03*
D17*
X92243333Y-80490000D03*
D15*
X91168333Y-80490000D03*
%TD*%
D18*
%TO.C,MX_ec11_46*%
X198945000Y-158820000D03*
X211845000Y-156280000D03*
%TD*%
%TO.C,MX_ec11_7*%
X198935000Y-98020000D03*
X211835000Y-95480000D03*
%TD*%
%TO.C,C11*%
G36*
G01*
X213820000Y-151170000D02*
X213820000Y-150670000D01*
G75*
G02*
X214045000Y-150445000I225000J0D01*
G01*
X214495000Y-150445000D01*
G75*
G02*
X214720000Y-150670000I0J-225000D01*
G01*
X214720000Y-151170000D01*
G75*
G02*
X214495000Y-151395000I-225000J0D01*
G01*
X214045000Y-151395000D01*
G75*
G02*
X213820000Y-151170000I0J225000D01*
G01*
G37*
G36*
G01*
X212270000Y-151170000D02*
X212270000Y-150670000D01*
G75*
G02*
X212495000Y-150445000I225000J0D01*
G01*
X212945000Y-150445000D01*
G75*
G02*
X213170000Y-150670000I0J-225000D01*
G01*
X213170000Y-151170000D01*
G75*
G02*
X212945000Y-151395000I-225000J0D01*
G01*
X212495000Y-151395000D01*
G75*
G02*
X212270000Y-151170000I0J225000D01*
G01*
G37*
%TD*%
%TO.C,C10*%
G36*
G01*
X211055000Y-149640000D02*
X211055000Y-149140000D01*
G75*
G02*
X211280000Y-148915000I225000J0D01*
G01*
X211730000Y-148915000D01*
G75*
G02*
X211955000Y-149140000I0J-225000D01*
G01*
X211955000Y-149640000D01*
G75*
G02*
X211730000Y-149865000I-225000J0D01*
G01*
X211280000Y-149865000D01*
G75*
G02*
X211055000Y-149640000I0J225000D01*
G01*
G37*
G36*
G01*
X209505000Y-149640000D02*
X209505000Y-149140000D01*
G75*
G02*
X209730000Y-148915000I225000J0D01*
G01*
X210180000Y-148915000D01*
G75*
G02*
X210405000Y-149140000I0J-225000D01*
G01*
X210405000Y-149640000D01*
G75*
G02*
X210180000Y-149865000I-225000J0D01*
G01*
X209730000Y-149865000D01*
G75*
G02*
X209505000Y-149640000I0J225000D01*
G01*
G37*
%TD*%
%TO.C,C9*%
G36*
G01*
X203035000Y-113110000D02*
X203035000Y-113610000D01*
G75*
G02*
X202810000Y-113835000I-225000J0D01*
G01*
X202360000Y-113835000D01*
G75*
G02*
X202135000Y-113610000I0J225000D01*
G01*
X202135000Y-113110000D01*
G75*
G02*
X202360000Y-112885000I225000J0D01*
G01*
X202810000Y-112885000D01*
G75*
G02*
X203035000Y-113110000I0J-225000D01*
G01*
G37*
G36*
G01*
X201485000Y-113110000D02*
X201485000Y-113610000D01*
G75*
G02*
X201260000Y-113835000I-225000J0D01*
G01*
X200810000Y-113835000D01*
G75*
G02*
X200585000Y-113610000I0J225000D01*
G01*
X200585000Y-113110000D01*
G75*
G02*
X200810000Y-112885000I225000J0D01*
G01*
X201260000Y-112885000D01*
G75*
G02*
X201485000Y-113110000I0J-225000D01*
G01*
G37*
%TD*%
%TO.C,C8*%
G36*
G01*
X208145000Y-113670000D02*
X208145000Y-113170000D01*
G75*
G02*
X208370000Y-112945000I225000J0D01*
G01*
X208820000Y-112945000D01*
G75*
G02*
X209045000Y-113170000I0J-225000D01*
G01*
X209045000Y-113670000D01*
G75*
G02*
X208820000Y-113895000I-225000J0D01*
G01*
X208370000Y-113895000D01*
G75*
G02*
X208145000Y-113670000I0J225000D01*
G01*
G37*
G36*
G01*
X209695000Y-113670000D02*
X209695000Y-113170000D01*
G75*
G02*
X209920000Y-112945000I225000J0D01*
G01*
X210370000Y-112945000D01*
G75*
G02*
X210595000Y-113170000I0J-225000D01*
G01*
X210595000Y-113670000D01*
G75*
G02*
X210370000Y-113895000I-225000J0D01*
G01*
X209920000Y-113895000D01*
G75*
G02*
X209695000Y-113670000I0J225000D01*
G01*
G37*
%TD*%
D19*
%TO.C,MX9*%
G36*
X254661755Y-88917992D02*
G01*
X254443866Y-86427505D01*
X256984163Y-86205258D01*
X257202052Y-88695745D01*
X254661755Y-88917992D01*
G37*
G36*
X242032219Y-92572636D02*
G01*
X241814330Y-90082149D01*
X244354627Y-89859902D01*
X244572516Y-92350389D01*
X242032219Y-92572636D01*
G37*
%TD*%
D20*
%TO.C,U3*%
X202370000Y-141300000D03*
X202870000Y-141300000D03*
X203370000Y-141300000D03*
X203870000Y-141300000D03*
X204370000Y-141300000D03*
X204870000Y-141300000D03*
X205370000Y-141300000D03*
X205870000Y-141300000D03*
X206370000Y-141300000D03*
X206870000Y-141300000D03*
X207370000Y-141300000D03*
X207870000Y-141300000D03*
X208370000Y-141300000D03*
X208870000Y-141300000D03*
X209370000Y-141300000D03*
X209870000Y-141300000D03*
X209870000Y-129960000D03*
X209370000Y-129960000D03*
X208870000Y-129960000D03*
X208370000Y-129960000D03*
X207870000Y-129960000D03*
X207370000Y-129960000D03*
X206870000Y-129960000D03*
X206370000Y-129960000D03*
X205870000Y-129960000D03*
X205370000Y-129960000D03*
X204870000Y-129960000D03*
X204370000Y-129960000D03*
X203870000Y-129960000D03*
X203370000Y-129960000D03*
X202870000Y-129960000D03*
X202370000Y-129960000D03*
D21*
X200450000Y-131880000D03*
X200450000Y-132380000D03*
X200450000Y-132880000D03*
X200450000Y-133380000D03*
X200450000Y-133880000D03*
X200450000Y-134380000D03*
X200450000Y-134880000D03*
X200450000Y-135380000D03*
X200450000Y-135880000D03*
X200450000Y-136380000D03*
X200450000Y-136880000D03*
X200450000Y-137380000D03*
X200450000Y-137880000D03*
X200450000Y-138380000D03*
X200450000Y-138880000D03*
X200450000Y-139380000D03*
X211790000Y-139380000D03*
X211790000Y-138880000D03*
X211790000Y-138380000D03*
X211790000Y-137880000D03*
X211790000Y-137380000D03*
X211790000Y-136880000D03*
X211790000Y-136380000D03*
X211790000Y-135880000D03*
X211790000Y-135380000D03*
X211790000Y-134880000D03*
X211790000Y-134380000D03*
X211790000Y-133880000D03*
X211790000Y-133380000D03*
X211790000Y-132880000D03*
X211790000Y-132380000D03*
X211790000Y-131880000D03*
%TD*%
D19*
%TO.C,MX14*%
G36*
X87709217Y-116259103D02*
G01*
X87927106Y-113768616D01*
X90467403Y-113990863D01*
X90249514Y-116481350D01*
X87709217Y-116259103D01*
G37*
G36*
X74636930Y-117665128D02*
G01*
X74854819Y-115174641D01*
X77395116Y-115396888D01*
X77177227Y-117887375D01*
X74636930Y-117665128D01*
G37*
%TD*%
%TO.C,MX25*%
G36*
X314084758Y-112403305D02*
G01*
X313866869Y-109912818D01*
X316407166Y-109690571D01*
X316625055Y-112181058D01*
X314084758Y-112403305D01*
G37*
G36*
X301455222Y-116057949D02*
G01*
X301237333Y-113567462D01*
X303777630Y-113345215D01*
X303995519Y-115835702D01*
X301455222Y-116057949D01*
G37*
%TD*%
%TO.C,MX47*%
G36*
X235767133Y-153205651D02*
G01*
X235120086Y-150790836D01*
X237583197Y-150130847D01*
X238230244Y-152545662D01*
X235767133Y-153205651D01*
G37*
G36*
X223964090Y-158997868D02*
G01*
X223317043Y-156583053D01*
X225780154Y-155923064D01*
X226427201Y-158337879D01*
X223964090Y-158997868D01*
G37*
%TD*%
%TO.C,MX22*%
G36*
X256322073Y-107895500D02*
G01*
X256104184Y-105405013D01*
X258644481Y-105182766D01*
X258862370Y-107673253D01*
X256322073Y-107895500D01*
G37*
G36*
X243692537Y-111550144D02*
G01*
X243474648Y-109059657D01*
X246014945Y-108837410D01*
X246232834Y-111327897D01*
X243692537Y-111550144D01*
G37*
%TD*%
%TO.C,MX52*%
G36*
X336798024Y-153442881D02*
G01*
X336580135Y-150952394D01*
X339120432Y-150730147D01*
X339338321Y-153220634D01*
X336798024Y-153442881D01*
G37*
G36*
X324168488Y-157097525D02*
G01*
X323950599Y-154607038D01*
X326490896Y-154384791D01*
X326708785Y-156875278D01*
X324168488Y-157097525D01*
G37*
%TD*%
%TO.C,MX51*%
G36*
X317405391Y-150358323D02*
G01*
X317187502Y-147867836D01*
X319727799Y-147645589D01*
X319945688Y-150136076D01*
X317405391Y-150358323D01*
G37*
G36*
X304775855Y-154012967D02*
G01*
X304557966Y-151522480D01*
X307098263Y-151300233D01*
X307316152Y-153790720D01*
X304775855Y-154012967D01*
G37*
%TD*%
%TO.C,MX50*%
G36*
X297597725Y-142529885D02*
G01*
X297379836Y-140039398D01*
X299920133Y-139817151D01*
X300138022Y-142307638D01*
X297597725Y-142529885D01*
G37*
G36*
X284968189Y-146184529D02*
G01*
X284750300Y-143694042D01*
X287290597Y-143471795D01*
X287508486Y-145962282D01*
X284968189Y-146184529D01*
G37*
%TD*%
%TO.C,MX49*%
G36*
X272568907Y-143344645D02*
G01*
X271921860Y-140929830D01*
X274384971Y-140269841D01*
X275032018Y-142684656D01*
X272568907Y-143344645D01*
G37*
G36*
X260765864Y-149136862D02*
G01*
X260118817Y-146722047D01*
X262581928Y-146062058D01*
X263228975Y-148476873D01*
X260765864Y-149136862D01*
G37*
%TD*%
%TO.C,MX48*%
G36*
X254168020Y-148275149D02*
G01*
X253520973Y-145860334D01*
X255984084Y-145200345D01*
X256631131Y-147615160D01*
X254168020Y-148275149D01*
G37*
G36*
X242364977Y-154067366D02*
G01*
X241717930Y-151652551D01*
X244181041Y-150992562D01*
X244828088Y-153407377D01*
X242364977Y-154067366D01*
G37*
%TD*%
%TO.C,MX45*%
G36*
X185030166Y-155490480D02*
G01*
X185677213Y-153075665D01*
X188140324Y-153735654D01*
X187493277Y-156150469D01*
X185030166Y-155490480D01*
G37*
G36*
X171912323Y-154605165D02*
G01*
X172559370Y-152190350D01*
X175022481Y-152850339D01*
X174375434Y-155265154D01*
X171912323Y-154605165D01*
G37*
%TD*%
%TO.C,MX44*%
G36*
X166629277Y-150559978D02*
G01*
X167276324Y-148145163D01*
X169739435Y-148805152D01*
X169092388Y-151219967D01*
X166629277Y-150559978D01*
G37*
G36*
X153511434Y-149674663D02*
G01*
X154158481Y-147259848D01*
X156621592Y-147919837D01*
X155974545Y-150334652D01*
X153511434Y-149674663D01*
G37*
%TD*%
%TO.C,MX43*%
G36*
X148228390Y-145629476D02*
G01*
X148875437Y-143214661D01*
X151338548Y-143874650D01*
X150691501Y-146289465D01*
X148228390Y-145629476D01*
G37*
G36*
X135110547Y-144744161D02*
G01*
X135757594Y-142329346D01*
X138220705Y-142989335D01*
X137573658Y-145404150D01*
X135110547Y-144744161D01*
G37*
%TD*%
%TO.C,MX42*%
G36*
X123586268Y-143331011D02*
G01*
X123804157Y-140840524D01*
X126344454Y-141062771D01*
X126126565Y-143553258D01*
X123586268Y-143331011D01*
G37*
G36*
X110513981Y-144737036D02*
G01*
X110731870Y-142246549D01*
X113272167Y-142468796D01*
X113054278Y-144959283D01*
X110513981Y-144737036D01*
G37*
%TD*%
%TO.C,MX41*%
G36*
X103781214Y-151129561D02*
G01*
X103999103Y-148639074D01*
X106539400Y-148861321D01*
X106321511Y-151351808D01*
X103781214Y-151129561D01*
G37*
G36*
X90708927Y-152535586D02*
G01*
X90926816Y-150045099D01*
X93467113Y-150267346D01*
X93249224Y-152757833D01*
X90708927Y-152535586D01*
G37*
%TD*%
%TO.C,MX40*%
G36*
X84388581Y-154214121D02*
G01*
X84606470Y-151723634D01*
X87146767Y-151945881D01*
X86928878Y-154436368D01*
X84388581Y-154214121D01*
G37*
G36*
X71316294Y-155620146D02*
G01*
X71534183Y-153129659D01*
X74074480Y-153351906D01*
X73856591Y-155842393D01*
X71316294Y-155620146D01*
G37*
%TD*%
%TO.C,MX39*%
G36*
X335137706Y-134465372D02*
G01*
X334919817Y-131974885D01*
X337460114Y-131752638D01*
X337678003Y-134243125D01*
X335137706Y-134465372D01*
G37*
G36*
X322508170Y-138120016D02*
G01*
X322290281Y-135629529D01*
X324830578Y-135407282D01*
X325048467Y-137897769D01*
X322508170Y-138120016D01*
G37*
%TD*%
%TO.C,MX38*%
G36*
X315745073Y-131380814D02*
G01*
X315527184Y-128890327D01*
X318067481Y-128668080D01*
X318285370Y-131158567D01*
X315745073Y-131380814D01*
G37*
G36*
X303115537Y-135035458D02*
G01*
X302897648Y-132544971D01*
X305437945Y-132322724D01*
X305655834Y-134813211D01*
X303115537Y-135035458D01*
G37*
%TD*%
%TO.C,MX37*%
G36*
X295937408Y-123552376D02*
G01*
X295719519Y-121061889D01*
X298259816Y-120839642D01*
X298477705Y-123330129D01*
X295937408Y-123552376D01*
G37*
G36*
X283307872Y-127207020D02*
G01*
X283089983Y-124716533D01*
X285630280Y-124494286D01*
X285848169Y-126984773D01*
X283307872Y-127207020D01*
G37*
%TD*%
%TO.C,MX36*%
G36*
X276677601Y-121986018D02*
G01*
X276459712Y-119495531D01*
X279000009Y-119273284D01*
X279217898Y-121763771D01*
X276677601Y-121986018D01*
G37*
G36*
X264048065Y-125640662D02*
G01*
X263830176Y-123150175D01*
X266370473Y-122927928D01*
X266588362Y-125418415D01*
X264048065Y-125640662D01*
G37*
%TD*%
%TO.C,MX35*%
G36*
X257982390Y-126873009D02*
G01*
X257764501Y-124382522D01*
X260304798Y-124160275D01*
X260522687Y-126650762D01*
X257982390Y-126873009D01*
G37*
G36*
X245352854Y-130527653D02*
G01*
X245134965Y-128037166D01*
X247675262Y-127814919D01*
X247893151Y-130305406D01*
X245352854Y-130527653D01*
G37*
%TD*%
%TO.C,MX34*%
G36*
X239204119Y-130810628D02*
G01*
X238986230Y-128320141D01*
X241526527Y-128097894D01*
X241744416Y-130588381D01*
X239204119Y-130810628D01*
G37*
G36*
X226574583Y-134465272D02*
G01*
X226356694Y-131974785D01*
X228896991Y-131752538D01*
X229114880Y-134243025D01*
X226574583Y-134465272D01*
G37*
%TD*%
%TO.C,MX32*%
G36*
X181982490Y-131581868D02*
G01*
X182200379Y-129091381D01*
X184740676Y-129313628D01*
X184522787Y-131804115D01*
X181982490Y-131581868D01*
G37*
G36*
X168910203Y-132987893D02*
G01*
X169128092Y-130497406D01*
X171668389Y-130719653D01*
X171450500Y-133210140D01*
X168910203Y-132987893D01*
G37*
%TD*%
%TO.C,MX31*%
G36*
X163204218Y-127644248D02*
G01*
X163422107Y-125153761D01*
X165962404Y-125376008D01*
X165744515Y-127866495D01*
X163204218Y-127644248D01*
G37*
G36*
X150131931Y-129050273D02*
G01*
X150349820Y-126559786D01*
X152890117Y-126782033D01*
X152672228Y-129272520D01*
X150131931Y-129050273D01*
G37*
%TD*%
%TO.C,MX30*%
G36*
X144509006Y-122757258D02*
G01*
X144726895Y-120266771D01*
X147267192Y-120489018D01*
X147049303Y-122979505D01*
X144509006Y-122757258D01*
G37*
G36*
X131436719Y-124163283D02*
G01*
X131654608Y-121672796D01*
X134194905Y-121895043D01*
X133977016Y-124385530D01*
X131436719Y-124163283D01*
G37*
%TD*%
%TO.C,MX29*%
G36*
X125249200Y-124323616D02*
G01*
X125467089Y-121833129D01*
X128007386Y-122055376D01*
X127789497Y-124545863D01*
X125249200Y-124323616D01*
G37*
G36*
X112176913Y-125729641D02*
G01*
X112394802Y-123239154D01*
X114935099Y-123461401D01*
X114717210Y-125951888D01*
X112176913Y-125729641D01*
G37*
%TD*%
%TO.C,MX28*%
G36*
X105441532Y-132152053D02*
G01*
X105659421Y-129661566D01*
X108199718Y-129883813D01*
X107981829Y-132374300D01*
X105441532Y-132152053D01*
G37*
G36*
X92369245Y-133558078D02*
G01*
X92587134Y-131067591D01*
X95127431Y-131289838D01*
X94909542Y-133780325D01*
X92369245Y-133558078D01*
G37*
%TD*%
%TO.C,MX27*%
G36*
X86048899Y-135236612D02*
G01*
X86266788Y-132746125D01*
X88807085Y-132968372D01*
X88589196Y-135458859D01*
X86048899Y-135236612D01*
G37*
G36*
X72976612Y-136642637D02*
G01*
X73194501Y-134152150D01*
X75734798Y-134374397D01*
X75516909Y-136864884D01*
X72976612Y-136642637D01*
G37*
%TD*%
%TO.C,MX26*%
G36*
X333477390Y-115487862D02*
G01*
X333259501Y-112997375D01*
X335799798Y-112775128D01*
X336017687Y-115265615D01*
X333477390Y-115487862D01*
G37*
G36*
X320847854Y-119142506D02*
G01*
X320629965Y-116652019D01*
X323170262Y-116429772D01*
X323388151Y-118920259D01*
X320847854Y-119142506D01*
G37*
%TD*%
%TO.C,MX24*%
G36*
X294277091Y-104574867D02*
G01*
X294059202Y-102084380D01*
X296599499Y-101862133D01*
X296817388Y-104352620D01*
X294277091Y-104574867D01*
G37*
G36*
X281647555Y-108229511D02*
G01*
X281429666Y-105739024D01*
X283969963Y-105516777D01*
X284187852Y-108007264D01*
X281647555Y-108229511D01*
G37*
%TD*%
%TO.C,MX23*%
G36*
X275017284Y-103008509D02*
G01*
X274799395Y-100518022D01*
X277339692Y-100295775D01*
X277557581Y-102786262D01*
X275017284Y-103008509D01*
G37*
G36*
X262387748Y-106663153D02*
G01*
X262169859Y-104172666D01*
X264710156Y-103950419D01*
X264928045Y-106440906D01*
X262387748Y-106663153D01*
G37*
%TD*%
%TO.C,MX21*%
G36*
X237543802Y-111833119D02*
G01*
X237325913Y-109342632D01*
X239866210Y-109120385D01*
X240084099Y-111610872D01*
X237543802Y-111833119D01*
G37*
G36*
X224914266Y-115487763D02*
G01*
X224696377Y-112997276D01*
X227236674Y-112775029D01*
X227454563Y-115265516D01*
X224914266Y-115487763D01*
G37*
%TD*%
%TO.C,MX19*%
G36*
X183642806Y-112604357D02*
G01*
X183860695Y-110113870D01*
X186400992Y-110336117D01*
X186183103Y-112826604D01*
X183642806Y-112604357D01*
G37*
G36*
X170570519Y-114010382D02*
G01*
X170788408Y-111519895D01*
X173328705Y-111742142D01*
X173110816Y-114232629D01*
X170570519Y-114010382D01*
G37*
%TD*%
%TO.C,MX18*%
G36*
X164864535Y-108666739D02*
G01*
X165082424Y-106176252D01*
X167622721Y-106398499D01*
X167404832Y-108888986D01*
X164864535Y-108666739D01*
G37*
G36*
X151792248Y-110072764D02*
G01*
X152010137Y-107582277D01*
X154550434Y-107804524D01*
X154332545Y-110295011D01*
X151792248Y-110072764D01*
G37*
%TD*%
%TO.C,MX17*%
G36*
X146169322Y-103779749D02*
G01*
X146387211Y-101289262D01*
X148927508Y-101511509D01*
X148709619Y-104001996D01*
X146169322Y-103779749D01*
G37*
G36*
X133097035Y-105185774D02*
G01*
X133314924Y-102695287D01*
X135855221Y-102917534D01*
X135637332Y-105408021D01*
X133097035Y-105185774D01*
G37*
%TD*%
%TO.C,MX16*%
G36*
X126909517Y-105346107D02*
G01*
X127127406Y-102855620D01*
X129667703Y-103077867D01*
X129449814Y-105568354D01*
X126909517Y-105346107D01*
G37*
G36*
X113837230Y-106752132D02*
G01*
X114055119Y-104261645D01*
X116595416Y-104483892D01*
X116377527Y-106974379D01*
X113837230Y-106752132D01*
G37*
%TD*%
%TO.C,MX15*%
G36*
X107101848Y-113174543D02*
G01*
X107319737Y-110684056D01*
X109860034Y-110906303D01*
X109642145Y-113396790D01*
X107101848Y-113174543D01*
G37*
G36*
X94029561Y-114580568D02*
G01*
X94247450Y-112090081D01*
X96787747Y-112312328D01*
X96569858Y-114802815D01*
X94029561Y-114580568D01*
G37*
%TD*%
%TO.C,MX13*%
G36*
X331817071Y-96510354D02*
G01*
X331599182Y-94019867D01*
X334139479Y-93797620D01*
X334357368Y-96288107D01*
X331817071Y-96510354D01*
G37*
G36*
X319187535Y-100164998D02*
G01*
X318969646Y-97674511D01*
X321509943Y-97452264D01*
X321727832Y-99942751D01*
X319187535Y-100164998D01*
G37*
%TD*%
%TO.C,MX12*%
G36*
X312424441Y-93425796D02*
G01*
X312206552Y-90935309D01*
X314746849Y-90713062D01*
X314964738Y-93203549D01*
X312424441Y-93425796D01*
G37*
G36*
X299794905Y-97080440D02*
G01*
X299577016Y-94589953D01*
X302117313Y-94367706D01*
X302335202Y-96858193D01*
X299794905Y-97080440D01*
G37*
%TD*%
%TO.C,MX11*%
G36*
X292616773Y-85597358D02*
G01*
X292398884Y-83106871D01*
X294939181Y-82884624D01*
X295157070Y-85375111D01*
X292616773Y-85597358D01*
G37*
G36*
X279987237Y-89252002D02*
G01*
X279769348Y-86761515D01*
X282309645Y-86539268D01*
X282527534Y-89029755D01*
X279987237Y-89252002D01*
G37*
%TD*%
%TO.C,MX10*%
G36*
X273356966Y-84031001D02*
G01*
X273139077Y-81540514D01*
X275679374Y-81318267D01*
X275897263Y-83808754D01*
X273356966Y-84031001D01*
G37*
G36*
X260727430Y-87685645D02*
G01*
X260509541Y-85195158D01*
X263049838Y-84972911D01*
X263267727Y-87463398D01*
X260727430Y-87685645D01*
G37*
%TD*%
%TO.C,MX8*%
G36*
X235883484Y-92855610D02*
G01*
X235665595Y-90365123D01*
X238205892Y-90142876D01*
X238423781Y-92633363D01*
X235883484Y-92855610D01*
G37*
G36*
X223253948Y-96510254D02*
G01*
X223036059Y-94019767D01*
X225576356Y-93797520D01*
X225794245Y-96288007D01*
X223253948Y-96510254D01*
G37*
%TD*%
%TO.C,MX6*%
G36*
X185303121Y-93626848D02*
G01*
X185521010Y-91136361D01*
X188061307Y-91358608D01*
X187843418Y-93849095D01*
X185303121Y-93626848D01*
G37*
G36*
X172230834Y-95032873D02*
G01*
X172448723Y-92542386D01*
X174989020Y-92764633D01*
X174771131Y-95255120D01*
X172230834Y-95032873D01*
G37*
%TD*%
%TO.C,MX5*%
G36*
X166524851Y-89689230D02*
G01*
X166742740Y-87198743D01*
X169283037Y-87420990D01*
X169065148Y-89911477D01*
X166524851Y-89689230D01*
G37*
G36*
X153452564Y-91095255D02*
G01*
X153670453Y-88604768D01*
X156210750Y-88827015D01*
X155992861Y-91317502D01*
X153452564Y-91095255D01*
G37*
%TD*%
%TO.C,MX4*%
G36*
X147829639Y-84802240D02*
G01*
X148047528Y-82311753D01*
X150587825Y-82534000D01*
X150369936Y-85024487D01*
X147829639Y-84802240D01*
G37*
G36*
X134757352Y-86208265D02*
G01*
X134975241Y-83717778D01*
X137515538Y-83940025D01*
X137297649Y-86430512D01*
X134757352Y-86208265D01*
G37*
%TD*%
%TO.C,MX3*%
G36*
X128569832Y-86368598D02*
G01*
X128787721Y-83878111D01*
X131328018Y-84100358D01*
X131110129Y-86590845D01*
X128569832Y-86368598D01*
G37*
G36*
X115497545Y-87774623D02*
G01*
X115715434Y-85284136D01*
X118255731Y-85506383D01*
X118037842Y-87996870D01*
X115497545Y-87774623D01*
G37*
%TD*%
%TO.C,MX2*%
G36*
X108762165Y-94197034D02*
G01*
X108980054Y-91706547D01*
X111520351Y-91928794D01*
X111302462Y-94419281D01*
X108762165Y-94197034D01*
G37*
G36*
X95689878Y-95603059D02*
G01*
X95907767Y-93112572D01*
X98448064Y-93334819D01*
X98230175Y-95825306D01*
X95689878Y-95603059D01*
G37*
%TD*%
%TO.C,MX1*%
G36*
X89369534Y-97281594D02*
G01*
X89587423Y-94791107D01*
X92127720Y-95013354D01*
X91909831Y-97503841D01*
X89369534Y-97281594D01*
G37*
G36*
X76297247Y-98687619D02*
G01*
X76515136Y-96197132D01*
X79055433Y-96419379D01*
X78837544Y-98909866D01*
X76297247Y-98687619D01*
G37*
%TD*%
%TO.C,D10*%
G36*
X265623689Y-130371668D02*
G01*
X265519102Y-129176234D01*
X266415677Y-129097794D01*
X266520264Y-130293228D01*
X265623689Y-130371668D01*
G37*
G36*
X268911131Y-130084054D02*
G01*
X268806544Y-128888620D01*
X269703119Y-128810180D01*
X269807706Y-130005614D01*
X268911131Y-130084054D01*
G37*
%TD*%
%TO.C,D49*%
G36*
X261330095Y-142417212D02*
G01*
X261019512Y-141258101D01*
X261888845Y-141025164D01*
X262199428Y-142184275D01*
X261330095Y-142417212D01*
G37*
G36*
X264517651Y-141563110D02*
G01*
X264207068Y-140403999D01*
X265076401Y-140171062D01*
X265386984Y-141330173D01*
X264517651Y-141563110D01*
G37*
%TD*%
%TO.C,D36*%
G36*
X266111762Y-135950358D02*
G01*
X266007175Y-134754924D01*
X266903750Y-134676484D01*
X267008337Y-135871918D01*
X266111762Y-135950358D01*
G37*
G36*
X269399204Y-135662744D02*
G01*
X269294617Y-134467310D01*
X270191192Y-134388870D01*
X270295779Y-135584304D01*
X269399204Y-135662744D01*
G37*
%TD*%
%TO.C,D23*%
G36*
X265830285Y-132690744D02*
G01*
X265725698Y-131495310D01*
X266622273Y-131416870D01*
X266726860Y-132612304D01*
X265830285Y-132690744D01*
G37*
G36*
X269117727Y-132403130D02*
G01*
X269013140Y-131207696D01*
X269909715Y-131129256D01*
X270014302Y-132324690D01*
X269117727Y-132403130D01*
G37*
%TD*%
%TO.C,SW1*%
G36*
X89483070Y-124334860D02*
G01*
X89605088Y-122940188D01*
X90501664Y-123018628D01*
X90379646Y-124413300D01*
X89483070Y-124334860D01*
G37*
G36*
X95958336Y-124901372D02*
G01*
X96080354Y-123506700D01*
X96976930Y-123585140D01*
X96854912Y-124979812D01*
X95958336Y-124901372D01*
G37*
%TD*%
D22*
%TO.C,Y1*%
X218560000Y-136210000D03*
X218560000Y-134010000D03*
X220260000Y-134010000D03*
X220260000Y-136210000D03*
%TD*%
D23*
%TO.C,USB1*%
X85285000Y-82625000D03*
X78835000Y-82625000D03*
X84510000Y-82625000D03*
X79610000Y-82625000D03*
D24*
X80310000Y-82625000D03*
X83810000Y-82625000D03*
X80810000Y-82625000D03*
X83310000Y-82625000D03*
X81310000Y-82625000D03*
X82810000Y-82625000D03*
X82310000Y-82625000D03*
X81810000Y-82625000D03*
%TD*%
D25*
%TO.C,U1*%
X83048626Y-87251263D03*
D26*
X83048626Y-88951263D03*
X81048626Y-88951263D03*
X81048626Y-87051263D03*
%TD*%
%TO.C,RC7*%
G36*
G01*
X204470000Y-143905000D02*
X204470000Y-144455000D01*
G75*
G02*
X204270000Y-144655000I-200000J0D01*
G01*
X203870000Y-144655000D01*
G75*
G02*
X203670000Y-144455000I0J200000D01*
G01*
X203670000Y-143905000D01*
G75*
G02*
X203870000Y-143705000I200000J0D01*
G01*
X204270000Y-143705000D01*
G75*
G02*
X204470000Y-143905000I0J-200000D01*
G01*
G37*
G36*
G01*
X202820000Y-143905000D02*
X202820000Y-144455000D01*
G75*
G02*
X202620000Y-144655000I-200000J0D01*
G01*
X202220000Y-144655000D01*
G75*
G02*
X202020000Y-144455000I0J200000D01*
G01*
X202020000Y-143905000D01*
G75*
G02*
X202220000Y-143705000I200000J0D01*
G01*
X202620000Y-143705000D01*
G75*
G02*
X202820000Y-143905000I0J-200000D01*
G01*
G37*
%TD*%
%TO.C,RC5*%
G36*
G01*
X217885000Y-129025000D02*
X217885000Y-128475000D01*
G75*
G02*
X218085000Y-128275000I200000J0D01*
G01*
X218485000Y-128275000D01*
G75*
G02*
X218685000Y-128475000I0J-200000D01*
G01*
X218685000Y-129025000D01*
G75*
G02*
X218485000Y-129225000I-200000J0D01*
G01*
X218085000Y-129225000D01*
G75*
G02*
X217885000Y-129025000I0J200000D01*
G01*
G37*
G36*
G01*
X219535000Y-129025000D02*
X219535000Y-128475000D01*
G75*
G02*
X219735000Y-128275000I200000J0D01*
G01*
X220135000Y-128275000D01*
G75*
G02*
X220335000Y-128475000I0J-200000D01*
G01*
X220335000Y-129025000D01*
G75*
G02*
X220135000Y-129225000I-200000J0D01*
G01*
X219735000Y-129225000D01*
G75*
G02*
X219535000Y-129025000I0J200000D01*
G01*
G37*
%TD*%
%TO.C,RC4*%
G36*
G01*
X85663626Y-88406263D02*
X86213626Y-88406263D01*
G75*
G02*
X86413626Y-88606263I0J-200000D01*
G01*
X86413626Y-89006263D01*
G75*
G02*
X86213626Y-89206263I-200000J0D01*
G01*
X85663626Y-89206263D01*
G75*
G02*
X85463626Y-89006263I0J200000D01*
G01*
X85463626Y-88606263D01*
G75*
G02*
X85663626Y-88406263I200000J0D01*
G01*
G37*
G36*
G01*
X85663626Y-86756263D02*
X86213626Y-86756263D01*
G75*
G02*
X86413626Y-86956263I0J-200000D01*
G01*
X86413626Y-87356263D01*
G75*
G02*
X86213626Y-87556263I-200000J0D01*
G01*
X85663626Y-87556263D01*
G75*
G02*
X85463626Y-87356263I0J200000D01*
G01*
X85463626Y-86956263D01*
G75*
G02*
X85663626Y-86756263I200000J0D01*
G01*
G37*
%TD*%
%TO.C,RC3*%
G36*
G01*
X77953626Y-88366264D02*
X78503626Y-88366264D01*
G75*
G02*
X78703626Y-88566264I0J-200000D01*
G01*
X78703626Y-88966264D01*
G75*
G02*
X78503626Y-89166264I-200000J0D01*
G01*
X77953626Y-89166264D01*
G75*
G02*
X77753626Y-88966264I0J200000D01*
G01*
X77753626Y-88566264D01*
G75*
G02*
X77953626Y-88366264I200000J0D01*
G01*
G37*
G36*
G01*
X77953626Y-86716264D02*
X78503626Y-86716264D01*
G75*
G02*
X78703626Y-86916264I0J-200000D01*
G01*
X78703626Y-87316264D01*
G75*
G02*
X78503626Y-87516264I-200000J0D01*
G01*
X77953626Y-87516264D01*
G75*
G02*
X77753626Y-87316264I0J200000D01*
G01*
X77753626Y-86916264D01*
G75*
G02*
X77953626Y-86716264I200000J0D01*
G01*
G37*
%TD*%
%TO.C,RC2*%
G36*
G01*
X75434286Y-93660234D02*
X75984286Y-93660234D01*
G75*
G02*
X76184286Y-93860234I0J-200000D01*
G01*
X76184286Y-94260234D01*
G75*
G02*
X75984286Y-94460234I-200000J0D01*
G01*
X75434286Y-94460234D01*
G75*
G02*
X75234286Y-94260234I0J200000D01*
G01*
X75234286Y-93860234D01*
G75*
G02*
X75434286Y-93660234I200000J0D01*
G01*
G37*
G36*
G01*
X75434286Y-92010234D02*
X75984286Y-92010234D01*
G75*
G02*
X76184286Y-92210234I0J-200000D01*
G01*
X76184286Y-92610234D01*
G75*
G02*
X75984286Y-92810234I-200000J0D01*
G01*
X75434286Y-92810234D01*
G75*
G02*
X75234286Y-92610234I0J200000D01*
G01*
X75234286Y-92210234D01*
G75*
G02*
X75434286Y-92010234I200000J0D01*
G01*
G37*
%TD*%
%TO.C,RC1*%
G36*
G01*
X74044286Y-92840234D02*
X73494286Y-92840234D01*
G75*
G02*
X73294286Y-92640234I0J200000D01*
G01*
X73294286Y-92240234D01*
G75*
G02*
X73494286Y-92040234I200000J0D01*
G01*
X74044286Y-92040234D01*
G75*
G02*
X74244286Y-92240234I0J-200000D01*
G01*
X74244286Y-92640234D01*
G75*
G02*
X74044286Y-92840234I-200000J0D01*
G01*
G37*
G36*
G01*
X74044286Y-94490234D02*
X73494286Y-94490234D01*
G75*
G02*
X73294286Y-94290234I0J200000D01*
G01*
X73294286Y-93890234D01*
G75*
G02*
X73494286Y-93690234I200000J0D01*
G01*
X74044286Y-93690234D01*
G75*
G02*
X74244286Y-93890234I0J-200000D01*
G01*
X74244286Y-94290234D01*
G75*
G02*
X74044286Y-94490234I-200000J0D01*
G01*
G37*
%TD*%
%TO.C,F1*%
G36*
G01*
X71695000Y-92205000D02*
X70445000Y-92205000D01*
G75*
G02*
X70195000Y-91955000I0J250000D01*
G01*
X70195000Y-91205000D01*
G75*
G02*
X70445000Y-90955000I250000J0D01*
G01*
X71695000Y-90955000D01*
G75*
G02*
X71945000Y-91205000I0J-250000D01*
G01*
X71945000Y-91955000D01*
G75*
G02*
X71695000Y-92205000I-250000J0D01*
G01*
G37*
G36*
G01*
X71695000Y-95005000D02*
X70445000Y-95005000D01*
G75*
G02*
X70195000Y-94755000I0J250000D01*
G01*
X70195000Y-94005000D01*
G75*
G02*
X70445000Y-93755000I250000J0D01*
G01*
X71695000Y-93755000D01*
G75*
G02*
X71945000Y-94005000I0J-250000D01*
G01*
X71945000Y-94755000D01*
G75*
G02*
X71695000Y-95005000I-250000J0D01*
G01*
G37*
%TD*%
D19*
%TO.C,D52*%
G36*
X324772324Y-150720959D02*
G01*
X324667737Y-149525525D01*
X325564312Y-149447085D01*
X325668899Y-150642519D01*
X324772324Y-150720959D01*
G37*
G36*
X328059766Y-150433345D02*
G01*
X327955179Y-149237911D01*
X328851754Y-149159471D01*
X328956341Y-150354905D01*
X328059766Y-150433345D01*
G37*
%TD*%
%TO.C,D51*%
G36*
X305379694Y-147636401D02*
G01*
X305275107Y-146440967D01*
X306171682Y-146362527D01*
X306276269Y-147557961D01*
X305379694Y-147636401D01*
G37*
G36*
X308667136Y-147348787D02*
G01*
X308562549Y-146153353D01*
X309459124Y-146074913D01*
X309563711Y-147270347D01*
X308667136Y-147348787D01*
G37*
%TD*%
%TO.C,D50*%
G36*
X285572025Y-139807963D02*
G01*
X285467438Y-138612529D01*
X286364013Y-138534089D01*
X286468600Y-139729523D01*
X285572025Y-139807963D01*
G37*
G36*
X288859467Y-139520349D02*
G01*
X288754880Y-138324915D01*
X289651455Y-138246475D01*
X289756042Y-139441909D01*
X288859467Y-139520349D01*
G37*
%TD*%
%TO.C,D48*%
G36*
X242929208Y-147347714D02*
G01*
X242618625Y-146188603D01*
X243487958Y-145955666D01*
X243798541Y-147114777D01*
X242929208Y-147347714D01*
G37*
G36*
X246116764Y-146493612D02*
G01*
X245806181Y-145334501D01*
X246675514Y-145101564D01*
X246986097Y-146260675D01*
X246116764Y-146493612D01*
G37*
%TD*%
%TO.C,D47*%
G36*
X224528322Y-152278216D02*
G01*
X224217739Y-151119105D01*
X225087072Y-150886168D01*
X225397655Y-152045279D01*
X224528322Y-152278216D01*
G37*
G36*
X227715878Y-151424114D02*
G01*
X227405295Y-150265003D01*
X228274628Y-150032066D01*
X228585211Y-151191177D01*
X227715878Y-151424114D01*
G37*
%TD*%
D27*
%TO.C,D46*%
X205270000Y-150420000D03*
X201970000Y-150420000D03*
%TD*%
D19*
%TO.C,D45*%
G36*
X175928375Y-149112310D02*
G01*
X176238958Y-147953199D01*
X177108291Y-148186136D01*
X176797708Y-149345247D01*
X175928375Y-149112310D01*
G37*
G36*
X179115931Y-149966412D02*
G01*
X179426514Y-148807301D01*
X180295847Y-149040238D01*
X179985264Y-150199349D01*
X179115931Y-149966412D01*
G37*
%TD*%
%TO.C,D44*%
G36*
X157527486Y-144181804D02*
G01*
X157838069Y-143022693D01*
X158707402Y-143255630D01*
X158396819Y-144414741D01*
X157527486Y-144181804D01*
G37*
G36*
X160715042Y-145035906D02*
G01*
X161025625Y-143876795D01*
X161894958Y-144109732D01*
X161584375Y-145268843D01*
X160715042Y-145035906D01*
G37*
%TD*%
%TO.C,D43*%
G36*
X139126599Y-139251301D02*
G01*
X139437182Y-138092190D01*
X140306515Y-138325127D01*
X139995932Y-139484238D01*
X139126599Y-139251301D01*
G37*
G36*
X142314155Y-140105403D02*
G01*
X142624738Y-138946292D01*
X143494071Y-139179229D01*
X143183488Y-140338340D01*
X142314155Y-140105403D01*
G37*
%TD*%
%TO.C,D42*%
G36*
X111724570Y-138554690D02*
G01*
X111829157Y-137359256D01*
X112725732Y-137437696D01*
X112621145Y-138633130D01*
X111724570Y-138554690D01*
G37*
G36*
X115012012Y-138842304D02*
G01*
X115116599Y-137646870D01*
X116013174Y-137725310D01*
X115908587Y-138920744D01*
X115012012Y-138842304D01*
G37*
%TD*%
%TO.C,D41*%
G36*
X91916903Y-146361789D02*
G01*
X92021490Y-145166355D01*
X92918065Y-145244795D01*
X92813478Y-146440229D01*
X91916903Y-146361789D01*
G37*
G36*
X95204345Y-146649403D02*
G01*
X95308932Y-145453969D01*
X96205507Y-145532409D01*
X96100920Y-146727843D01*
X95204345Y-146649403D01*
G37*
%TD*%
%TO.C,D40*%
G36*
X72515698Y-149504690D02*
G01*
X72620285Y-148309256D01*
X73516860Y-148387696D01*
X73412273Y-149583130D01*
X72515698Y-149504690D01*
G37*
G36*
X75803140Y-149792304D02*
G01*
X75907727Y-148596870D01*
X76804302Y-148675310D01*
X76699715Y-149870744D01*
X75803140Y-149792304D01*
G37*
%TD*%
%TO.C,D39*%
G36*
X324571865Y-148429711D02*
G01*
X324467278Y-147234277D01*
X325363853Y-147155837D01*
X325468440Y-148351271D01*
X324571865Y-148429711D01*
G37*
G36*
X327859307Y-148142097D02*
G01*
X327754720Y-146946663D01*
X328651295Y-146868223D01*
X328755882Y-148063657D01*
X327859307Y-148142097D01*
G37*
%TD*%
%TO.C,D38*%
G36*
X305179235Y-145345153D02*
G01*
X305074648Y-144149719D01*
X305971223Y-144071279D01*
X306075810Y-145266713D01*
X305179235Y-145345153D01*
G37*
G36*
X308466677Y-145057539D02*
G01*
X308362090Y-143862105D01*
X309258665Y-143783665D01*
X309363252Y-144979099D01*
X308466677Y-145057539D01*
G37*
%TD*%
%TO.C,D37*%
G36*
X285371566Y-137516715D02*
G01*
X285266979Y-136321281D01*
X286163554Y-136242841D01*
X286268141Y-137438275D01*
X285371566Y-137516715D01*
G37*
G36*
X288659008Y-137229101D02*
G01*
X288554421Y-136033667D01*
X289450996Y-135955227D01*
X289555583Y-137150661D01*
X288659008Y-137229101D01*
G37*
%TD*%
%TO.C,D35*%
G36*
X247416549Y-140837349D02*
G01*
X247311962Y-139641915D01*
X248208537Y-139563475D01*
X248313124Y-140758909D01*
X247416549Y-140837349D01*
G37*
G36*
X250703991Y-140549735D02*
G01*
X250599404Y-139354301D01*
X251495979Y-139275861D01*
X251600566Y-140471295D01*
X250703991Y-140549735D01*
G37*
%TD*%
%TO.C,D34*%
G36*
X228638278Y-144774966D02*
G01*
X228533691Y-143579532D01*
X229430266Y-143501092D01*
X229534853Y-144696526D01*
X228638278Y-144774966D01*
G37*
G36*
X231925720Y-144487352D02*
G01*
X231821133Y-143291918D01*
X232717708Y-143213478D01*
X232822295Y-144408912D01*
X231925720Y-144487352D01*
G37*
%TD*%
%TO.C,D32*%
G36*
X168658316Y-143500353D02*
G01*
X168762903Y-142304919D01*
X169659478Y-142383359D01*
X169554891Y-143578793D01*
X168658316Y-143500353D01*
G37*
G36*
X171945758Y-143787967D02*
G01*
X172050345Y-142592533D01*
X172946920Y-142670973D01*
X172842333Y-143866407D01*
X171945758Y-143787967D01*
G37*
%TD*%
%TO.C,D31*%
G36*
X149880045Y-139562736D02*
G01*
X149984632Y-138367302D01*
X150881207Y-138445742D01*
X150776620Y-139641176D01*
X149880045Y-139562736D01*
G37*
G36*
X153167487Y-139850350D02*
G01*
X153272074Y-138654916D01*
X154168649Y-138733356D01*
X154064062Y-139928790D01*
X153167487Y-139850350D01*
G37*
%TD*%
%TO.C,D30*%
G36*
X131184835Y-134675746D02*
G01*
X131289422Y-133480312D01*
X132185997Y-133558752D01*
X132081410Y-134754186D01*
X131184835Y-134675746D01*
G37*
G36*
X134472277Y-134963360D02*
G01*
X134576864Y-133767926D01*
X135473439Y-133846366D01*
X135368852Y-135041800D01*
X134472277Y-134963360D01*
G37*
%TD*%
%TO.C,D29*%
G36*
X111925028Y-136242103D02*
G01*
X112029615Y-135046669D01*
X112926190Y-135125109D01*
X112821603Y-136320543D01*
X111925028Y-136242103D01*
G37*
G36*
X115212470Y-136529717D02*
G01*
X115317057Y-135334283D01*
X116213632Y-135412723D01*
X116109045Y-136608157D01*
X115212470Y-136529717D01*
G37*
%TD*%
%TO.C,D28*%
G36*
X92117361Y-144070540D02*
G01*
X92221948Y-142875106D01*
X93118523Y-142953546D01*
X93013936Y-144148980D01*
X92117361Y-144070540D01*
G37*
G36*
X95404803Y-144358154D02*
G01*
X95509390Y-143162720D01*
X96405965Y-143241160D01*
X96301378Y-144436594D01*
X95404803Y-144358154D01*
G37*
%TD*%
%TO.C,D27*%
G36*
X72724729Y-147155100D02*
G01*
X72829316Y-145959666D01*
X73725891Y-146038106D01*
X73621304Y-147233540D01*
X72724729Y-147155100D01*
G37*
G36*
X76012171Y-147442714D02*
G01*
X76116758Y-146247280D01*
X77013333Y-146325720D01*
X76908746Y-147521154D01*
X76012171Y-147442714D01*
G37*
%TD*%
%TO.C,D26*%
G36*
X324284253Y-145142268D02*
G01*
X324179666Y-143946834D01*
X325076241Y-143868394D01*
X325180828Y-145063828D01*
X324284253Y-145142268D01*
G37*
G36*
X327571695Y-144854654D02*
G01*
X327467108Y-143659220D01*
X328363683Y-143580780D01*
X328468270Y-144776214D01*
X327571695Y-144854654D01*
G37*
%TD*%
%TO.C,D25*%
G36*
X304891621Y-142057711D02*
G01*
X304787034Y-140862277D01*
X305683609Y-140783837D01*
X305788196Y-141979271D01*
X304891621Y-142057711D01*
G37*
G36*
X308179063Y-141770097D02*
G01*
X308074476Y-140574663D01*
X308971051Y-140496223D01*
X309075638Y-141691657D01*
X308179063Y-141770097D01*
G37*
%TD*%
%TO.C,D24*%
G36*
X285083953Y-134229272D02*
G01*
X284979366Y-133033838D01*
X285875941Y-132955398D01*
X285980528Y-134150832D01*
X285083953Y-134229272D01*
G37*
G36*
X288371395Y-133941658D02*
G01*
X288266808Y-132746224D01*
X289163383Y-132667784D01*
X289267970Y-133863218D01*
X288371395Y-133941658D01*
G37*
%TD*%
%TO.C,D22*%
G36*
X247128935Y-137549906D02*
G01*
X247024348Y-136354472D01*
X247920923Y-136276032D01*
X248025510Y-137471466D01*
X247128935Y-137549906D01*
G37*
G36*
X250416377Y-137262292D02*
G01*
X250311790Y-136066858D01*
X251208365Y-135988418D01*
X251312952Y-137183852D01*
X250416377Y-137262292D01*
G37*
%TD*%
%TO.C,D21*%
G36*
X228350664Y-141487524D02*
G01*
X228246077Y-140292090D01*
X229142652Y-140213650D01*
X229247239Y-141409084D01*
X228350664Y-141487524D01*
G37*
G36*
X231638106Y-141199910D02*
G01*
X231533519Y-140004476D01*
X232430094Y-139926036D01*
X232534681Y-141121470D01*
X231638106Y-141199910D01*
G37*
%TD*%
%TO.C,D19*%
G36*
X172233373Y-140500526D02*
G01*
X172337960Y-139305092D01*
X173234535Y-139383532D01*
X173129948Y-140578966D01*
X172233373Y-140500526D01*
G37*
G36*
X168945931Y-140212912D02*
G01*
X169050518Y-139017478D01*
X169947093Y-139095918D01*
X169842506Y-140291352D01*
X168945931Y-140212912D01*
G37*
%TD*%
%TO.C,D18*%
G36*
X153455101Y-136562908D02*
G01*
X153559688Y-135367474D01*
X154456263Y-135445914D01*
X154351676Y-136641348D01*
X153455101Y-136562908D01*
G37*
G36*
X150167659Y-136275294D02*
G01*
X150272246Y-135079860D01*
X151168821Y-135158300D01*
X151064234Y-136353734D01*
X150167659Y-136275294D01*
G37*
%TD*%
%TO.C,D17*%
G36*
X134759891Y-131675915D02*
G01*
X134864478Y-130480481D01*
X135761053Y-130558921D01*
X135656466Y-131754355D01*
X134759891Y-131675915D01*
G37*
G36*
X131472449Y-131388301D02*
G01*
X131577036Y-130192867D01*
X132473611Y-130271307D01*
X132369024Y-131466741D01*
X131472449Y-131388301D01*
G37*
%TD*%
%TO.C,D16*%
G36*
X115493140Y-133292304D02*
G01*
X115597727Y-132096870D01*
X116494302Y-132175310D01*
X116389715Y-133370744D01*
X115493140Y-133292304D01*
G37*
G36*
X112205698Y-133004690D02*
G01*
X112310285Y-131809256D01*
X113206860Y-131887696D01*
X113102273Y-133083130D01*
X112205698Y-133004690D01*
G37*
%TD*%
%TO.C,D15*%
G36*
X95692417Y-141070712D02*
G01*
X95797004Y-139875278D01*
X96693579Y-139953718D01*
X96588992Y-141149152D01*
X95692417Y-141070712D01*
G37*
G36*
X92404975Y-140783098D02*
G01*
X92509562Y-139587664D01*
X93406137Y-139666104D01*
X93301550Y-140861538D01*
X92404975Y-140783098D01*
G37*
%TD*%
%TO.C,D14*%
G36*
X76299785Y-144155270D02*
G01*
X76404372Y-142959836D01*
X77300947Y-143038276D01*
X77196360Y-144233710D01*
X76299785Y-144155270D01*
G37*
G36*
X73012343Y-143867656D02*
G01*
X73116930Y-142672222D01*
X74013505Y-142750662D01*
X73908918Y-143946096D01*
X73012343Y-143867656D01*
G37*
%TD*%
%TO.C,D13*%
G36*
X324083795Y-142851020D02*
G01*
X323979208Y-141655586D01*
X324875783Y-141577146D01*
X324980370Y-142772580D01*
X324083795Y-142851020D01*
G37*
G36*
X327371237Y-142563406D02*
G01*
X327266650Y-141367972D01*
X328163225Y-141289532D01*
X328267812Y-142484966D01*
X327371237Y-142563406D01*
G37*
%TD*%
%TO.C,D12*%
G36*
X304691162Y-139766463D02*
G01*
X304586575Y-138571029D01*
X305483150Y-138492589D01*
X305587737Y-139688023D01*
X304691162Y-139766463D01*
G37*
G36*
X307978604Y-139478849D02*
G01*
X307874017Y-138283415D01*
X308770592Y-138204975D01*
X308875179Y-139400409D01*
X307978604Y-139478849D01*
G37*
%TD*%
%TO.C,D11*%
G36*
X284883495Y-131938024D02*
G01*
X284778908Y-130742590D01*
X285675483Y-130664150D01*
X285780070Y-131859584D01*
X284883495Y-131938024D01*
G37*
G36*
X288170937Y-131650410D02*
G01*
X288066350Y-130454976D01*
X288962925Y-130376536D01*
X289067512Y-131571970D01*
X288170937Y-131650410D01*
G37*
%TD*%
%TO.C,D9*%
G36*
X246928476Y-135258658D02*
G01*
X246823889Y-134063224D01*
X247720464Y-133984784D01*
X247825051Y-135180218D01*
X246928476Y-135258658D01*
G37*
G36*
X250215918Y-134971044D02*
G01*
X250111331Y-133775610D01*
X251007906Y-133697170D01*
X251112493Y-134892604D01*
X250215918Y-134971044D01*
G37*
%TD*%
%TO.C,D8*%
G36*
X228150205Y-139196276D02*
G01*
X228045618Y-138000842D01*
X228942193Y-137922402D01*
X229046780Y-139117836D01*
X228150205Y-139196276D01*
G37*
G36*
X231437647Y-138908662D02*
G01*
X231333060Y-137713228D01*
X232229635Y-137634788D01*
X232334222Y-138830222D01*
X231437647Y-138908662D01*
G37*
%TD*%
D27*
%TO.C,D7*%
X205340000Y-89730000D03*
X202040000Y-89730000D03*
%TD*%
D19*
%TO.C,D6*%
G36*
X172433828Y-138209278D02*
G01*
X172538415Y-137013844D01*
X173434990Y-137092284D01*
X173330403Y-138287718D01*
X172433828Y-138209278D01*
G37*
G36*
X169146386Y-137921664D02*
G01*
X169250973Y-136726230D01*
X170147548Y-136804670D01*
X170042961Y-138000104D01*
X169146386Y-137921664D01*
G37*
%TD*%
%TO.C,D5*%
G36*
X153655558Y-134271660D02*
G01*
X153760145Y-133076226D01*
X154656720Y-133154666D01*
X154552133Y-134350100D01*
X153655558Y-134271660D01*
G37*
G36*
X150368116Y-133984046D02*
G01*
X150472703Y-132788612D01*
X151369278Y-132867052D01*
X151264691Y-134062486D01*
X150368116Y-133984046D01*
G37*
%TD*%
%TO.C,D4*%
G36*
X134960348Y-129384667D02*
G01*
X135064935Y-128189233D01*
X135961510Y-128267673D01*
X135856923Y-129463107D01*
X134960348Y-129384667D01*
G37*
G36*
X131672906Y-129097053D02*
G01*
X131777493Y-127901619D01*
X132674068Y-127980059D01*
X132569481Y-129175493D01*
X131672906Y-129097053D01*
G37*
%TD*%
%TO.C,D3*%
G36*
X115700540Y-130951027D02*
G01*
X115805127Y-129755593D01*
X116701702Y-129834033D01*
X116597115Y-131029467D01*
X115700540Y-130951027D01*
G37*
G36*
X112413098Y-130663413D02*
G01*
X112517685Y-129467979D01*
X113414260Y-129546419D01*
X113309673Y-130741853D01*
X112413098Y-130663413D01*
G37*
%TD*%
%TO.C,D2*%
G36*
X95892875Y-138779464D02*
G01*
X95997462Y-137584030D01*
X96894037Y-137662470D01*
X96789450Y-138857904D01*
X95892875Y-138779464D01*
G37*
G36*
X92605433Y-138491850D02*
G01*
X92710020Y-137296416D01*
X93606595Y-137374856D01*
X93502008Y-138570290D01*
X92605433Y-138491850D01*
G37*
%TD*%
%TO.C,D1*%
G36*
X76500243Y-141864022D02*
G01*
X76604830Y-140668588D01*
X77501405Y-140747028D01*
X77396818Y-141942462D01*
X76500243Y-141864022D01*
G37*
G36*
X73212801Y-141576408D02*
G01*
X73317388Y-140380974D01*
X74213963Y-140459414D01*
X74109376Y-141654848D01*
X73212801Y-141576408D01*
G37*
%TD*%
%TO.C,C7*%
G36*
G01*
X215550000Y-131135000D02*
X215050000Y-131135000D01*
G75*
G02*
X214825000Y-130910000I0J225000D01*
G01*
X214825000Y-130460000D01*
G75*
G02*
X215050000Y-130235000I225000J0D01*
G01*
X215550000Y-130235000D01*
G75*
G02*
X215775000Y-130460000I0J-225000D01*
G01*
X215775000Y-130910000D01*
G75*
G02*
X215550000Y-131135000I-225000J0D01*
G01*
G37*
G36*
G01*
X215550000Y-129585000D02*
X215050000Y-129585000D01*
G75*
G02*
X214825000Y-129360000I0J225000D01*
G01*
X214825000Y-128910000D01*
G75*
G02*
X215050000Y-128685000I225000J0D01*
G01*
X215550000Y-128685000D01*
G75*
G02*
X215775000Y-128910000I0J-225000D01*
G01*
X215775000Y-129360000D01*
G75*
G02*
X215550000Y-129585000I-225000J0D01*
G01*
G37*
%TD*%
%TO.C,C6*%
G36*
G01*
X208860000Y-123965000D02*
X209360000Y-123965000D01*
G75*
G02*
X209585000Y-124190000I0J-225000D01*
G01*
X209585000Y-124640000D01*
G75*
G02*
X209360000Y-124865000I-225000J0D01*
G01*
X208860000Y-124865000D01*
G75*
G02*
X208635000Y-124640000I0J225000D01*
G01*
X208635000Y-124190000D01*
G75*
G02*
X208860000Y-123965000I225000J0D01*
G01*
G37*
G36*
G01*
X208860000Y-125515000D02*
X209360000Y-125515000D01*
G75*
G02*
X209585000Y-125740000I0J-225000D01*
G01*
X209585000Y-126190000D01*
G75*
G02*
X209360000Y-126415000I-225000J0D01*
G01*
X208860000Y-126415000D01*
G75*
G02*
X208635000Y-126190000I0J225000D01*
G01*
X208635000Y-125740000D01*
G75*
G02*
X208860000Y-125515000I225000J0D01*
G01*
G37*
%TD*%
%TO.C,C5*%
G36*
G01*
X197340000Y-137600000D02*
X197340000Y-138100000D01*
G75*
G02*
X197115000Y-138325000I-225000J0D01*
G01*
X196665000Y-138325000D01*
G75*
G02*
X196440000Y-138100000I0J225000D01*
G01*
X196440000Y-137600000D01*
G75*
G02*
X196665000Y-137375000I225000J0D01*
G01*
X197115000Y-137375000D01*
G75*
G02*
X197340000Y-137600000I0J-225000D01*
G01*
G37*
G36*
G01*
X195790000Y-137600000D02*
X195790000Y-138100000D01*
G75*
G02*
X195565000Y-138325000I-225000J0D01*
G01*
X195115000Y-138325000D01*
G75*
G02*
X194890000Y-138100000I0J225000D01*
G01*
X194890000Y-137600000D01*
G75*
G02*
X195115000Y-137375000I225000J0D01*
G01*
X195565000Y-137375000D01*
G75*
G02*
X195790000Y-137600000I0J-225000D01*
G01*
G37*
%TD*%
%TO.C,C4*%
G36*
G01*
X197210000Y-131005000D02*
X196710000Y-131005000D01*
G75*
G02*
X196485000Y-130780000I0J225000D01*
G01*
X196485000Y-130330000D01*
G75*
G02*
X196710000Y-130105000I225000J0D01*
G01*
X197210000Y-130105000D01*
G75*
G02*
X197435000Y-130330000I0J-225000D01*
G01*
X197435000Y-130780000D01*
G75*
G02*
X197210000Y-131005000I-225000J0D01*
G01*
G37*
G36*
G01*
X197210000Y-129455000D02*
X196710000Y-129455000D01*
G75*
G02*
X196485000Y-129230000I0J225000D01*
G01*
X196485000Y-128780000D01*
G75*
G02*
X196710000Y-128555000I225000J0D01*
G01*
X197210000Y-128555000D01*
G75*
G02*
X197435000Y-128780000I0J-225000D01*
G01*
X197435000Y-129230000D01*
G75*
G02*
X197210000Y-129455000I-225000J0D01*
G01*
G37*
%TD*%
%TO.C,C3*%
G36*
G01*
X206580000Y-127235000D02*
X206080000Y-127235000D01*
G75*
G02*
X205855000Y-127010000I0J225000D01*
G01*
X205855000Y-126560000D01*
G75*
G02*
X206080000Y-126335000I225000J0D01*
G01*
X206580000Y-126335000D01*
G75*
G02*
X206805000Y-126560000I0J-225000D01*
G01*
X206805000Y-127010000D01*
G75*
G02*
X206580000Y-127235000I-225000J0D01*
G01*
G37*
G36*
G01*
X206580000Y-125685000D02*
X206080000Y-125685000D01*
G75*
G02*
X205855000Y-125460000I0J225000D01*
G01*
X205855000Y-125010000D01*
G75*
G02*
X206080000Y-124785000I225000J0D01*
G01*
X206580000Y-124785000D01*
G75*
G02*
X206805000Y-125010000I0J-225000D01*
G01*
X206805000Y-125460000D01*
G75*
G02*
X206580000Y-125685000I-225000J0D01*
G01*
G37*
%TD*%
%TO.C,C2*%
G36*
G01*
X222950000Y-131345000D02*
X223450000Y-131345000D01*
G75*
G02*
X223675000Y-131570000I0J-225000D01*
G01*
X223675000Y-132020000D01*
G75*
G02*
X223450000Y-132245000I-225000J0D01*
G01*
X222950000Y-132245000D01*
G75*
G02*
X222725000Y-132020000I0J225000D01*
G01*
X222725000Y-131570000D01*
G75*
G02*
X222950000Y-131345000I225000J0D01*
G01*
G37*
G36*
G01*
X222950000Y-132895000D02*
X223450000Y-132895000D01*
G75*
G02*
X223675000Y-133120000I0J-225000D01*
G01*
X223675000Y-133570000D01*
G75*
G02*
X223450000Y-133795000I-225000J0D01*
G01*
X222950000Y-133795000D01*
G75*
G02*
X222725000Y-133570000I0J225000D01*
G01*
X222725000Y-133120000D01*
G75*
G02*
X222950000Y-132895000I225000J0D01*
G01*
G37*
%TD*%
%TO.C,C1*%
G36*
G01*
X223440000Y-138295000D02*
X222940000Y-138295000D01*
G75*
G02*
X222715000Y-138070000I0J225000D01*
G01*
X222715000Y-137620000D01*
G75*
G02*
X222940000Y-137395000I225000J0D01*
G01*
X223440000Y-137395000D01*
G75*
G02*
X223665000Y-137620000I0J-225000D01*
G01*
X223665000Y-138070000D01*
G75*
G02*
X223440000Y-138295000I-225000J0D01*
G01*
G37*
G36*
G01*
X223440000Y-136745000D02*
X222940000Y-136745000D01*
G75*
G02*
X222715000Y-136520000I0J225000D01*
G01*
X222715000Y-136070000D01*
G75*
G02*
X222940000Y-135845000I225000J0D01*
G01*
X223440000Y-135845000D01*
G75*
G02*
X223665000Y-136070000I0J-225000D01*
G01*
X223665000Y-136520000D01*
G75*
G02*
X223440000Y-136745000I-225000J0D01*
G01*
G37*
%TD*%
M02*
