%TF.GenerationSoftware,KiCad,Pcbnew,(5.1.8)-1*%
%TF.CreationDate,2021-01-27T21:30:17-05:00*%
%TF.ProjectId,ergo_60_case,6572676f-5f36-4305-9f63-6173652e6b69,rev?*%
%TF.SameCoordinates,Original*%
%TF.FileFunction,Soldermask,Top*%
%TF.FilePolarity,Negative*%
%FSLAX46Y46*%
G04 Gerber Fmt 4.6, Leading zero omitted, Abs format (unit mm)*
G04 Created by KiCad (PCBNEW (5.1.8)-1) date 2021-01-27 21:30:17*
%MOMM*%
%LPD*%
G01*
G04 APERTURE LIST*
%ADD10C,0.750000*%
%ADD11O,1.100000X2.200000*%
%ADD12O,1.100000X1.700000*%
%ADD13C,4.100000*%
%ADD14C,4.087800*%
%ADD15O,4.100000X4.100000*%
%ADD16C,1.850000*%
%ADD17O,1.600000X2.900000*%
%ADD18C,2.100000*%
%ADD19O,2.100000X4.100000*%
%ADD20O,1.700000X2.100000*%
%ADD21C,1.408000*%
G04 APERTURE END LIST*
D10*
%TO.C,USB1*%
X84950000Y-81180000D03*
X79170000Y-81180000D03*
D11*
X77740000Y-81710000D03*
X86380000Y-81710000D03*
D12*
X77740000Y-77530000D03*
X86380000Y-77530000D03*
%TD*%
D13*
%TO.C,MX_ec11_7*%
X208560000Y-95480000D03*
D14*
X206020000Y-100560000D03*
D15*
X202210000Y-98020000D03*
D16*
X200940000Y-100560000D03*
X211100000Y-100560000D03*
D17*
X211630000Y-100700000D03*
D18*
X203530000Y-108200000D03*
X208530000Y-108200000D03*
D19*
X208530000Y-94700000D03*
D17*
X200430000Y-100700000D03*
D18*
X203530000Y-93700000D03*
G36*
G01*
X207030000Y-109250000D02*
X205030000Y-109250000D01*
G75*
G02*
X204980000Y-109200000I0J50000D01*
G01*
X204980000Y-107200000D01*
G75*
G02*
X205030000Y-107150000I50000J0D01*
G01*
X207030000Y-107150000D01*
G75*
G02*
X207080000Y-107200000I0J-50000D01*
G01*
X207080000Y-109200000D01*
G75*
G02*
X207030000Y-109250000I-50000J0D01*
G01*
G37*
%TD*%
D13*
%TO.C,MX_ec11_46*%
X208570000Y-156280000D03*
D14*
X206030000Y-161360000D03*
D15*
X202220000Y-158820000D03*
D16*
X200950000Y-161360000D03*
X211110000Y-161360000D03*
D17*
X211640000Y-161500000D03*
D18*
X203540000Y-169000000D03*
X208540000Y-169000000D03*
D19*
X208540000Y-155500000D03*
D17*
X200440000Y-161500000D03*
D18*
X203540000Y-154500000D03*
G36*
G01*
X207040000Y-170050000D02*
X205040000Y-170050000D01*
G75*
G02*
X204990000Y-170000000I0J50000D01*
G01*
X204990000Y-168000000D01*
G75*
G02*
X205040000Y-167950000I50000J0D01*
G01*
X207040000Y-167950000D01*
G75*
G02*
X207090000Y-168000000I0J-50000D01*
G01*
X207090000Y-170000000D01*
G75*
G02*
X207040000Y-170050000I-50000J0D01*
G01*
G37*
%TD*%
D20*
%TO.C,U2*%
X209810000Y-119570000D03*
X207270000Y-119570000D03*
G36*
G01*
X202990000Y-120620000D02*
X201390000Y-120620000D01*
G75*
G02*
X201340000Y-120570000I0J50000D01*
G01*
X201340000Y-118570000D01*
G75*
G02*
X201390000Y-118520000I50000J0D01*
G01*
X202990000Y-118520000D01*
G75*
G02*
X203040000Y-118570000I0J-50000D01*
G01*
X203040000Y-120570000D01*
G75*
G02*
X202990000Y-120620000I-50000J0D01*
G01*
G37*
X204730000Y-119570000D03*
%TD*%
D16*
%TO.C,MX52*%
X337669776Y-157211243D03*
X327548438Y-158096745D03*
D13*
X328592230Y-155455723D03*
D14*
X332609107Y-157653994D03*
D13*
X334696690Y-152371949D03*
%TD*%
D16*
%TO.C,MX51*%
X318277143Y-154126685D03*
X308155805Y-155012187D03*
D13*
X309199597Y-152371165D03*
D14*
X313216474Y-154569436D03*
D13*
X315304057Y-149287391D03*
%TD*%
D16*
%TO.C,MX50*%
X298469477Y-146298247D03*
X288348139Y-147183749D03*
D13*
X289391931Y-144542727D03*
D14*
X293408808Y-146740998D03*
D13*
X295496391Y-141458953D03*
%TD*%
D16*
%TO.C,MX49*%
X274081784Y-146904378D03*
X264267978Y-149533980D03*
D13*
X264837303Y-146751828D03*
D14*
X269174881Y-148219179D03*
D13*
X270313532Y-142654875D03*
%TD*%
D16*
%TO.C,MX48*%
X255680897Y-151834882D03*
X245867091Y-154464484D03*
D13*
X246436416Y-151682332D03*
D14*
X250773994Y-153149683D03*
D13*
X251912645Y-147585379D03*
%TD*%
D16*
%TO.C,MX47*%
X237280010Y-156765384D03*
X227466204Y-159394986D03*
D13*
X228035529Y-156612834D03*
D14*
X232373107Y-158080185D03*
D13*
X233511758Y-152515881D03*
%TD*%
D16*
%TO.C,MX45*%
X184560489Y-159329738D03*
X174746683Y-156700136D03*
D13*
X176630809Y-154575385D03*
D14*
X179653586Y-158014937D03*
D13*
X183421838Y-153765434D03*
%TD*%
D16*
%TO.C,MX44*%
X166159600Y-154399236D03*
X156345794Y-151769634D03*
D13*
X158229920Y-149644883D03*
D14*
X161252697Y-153084435D03*
D13*
X165020949Y-148834932D03*
%TD*%
D16*
%TO.C,MX43*%
X147758713Y-149468734D03*
X137944907Y-146839132D03*
D13*
X139829033Y-144714381D03*
D14*
X142851810Y-148153933D03*
D13*
X146620062Y-143904430D03*
%TD*%
D16*
%TO.C,MX42*%
X123790407Y-147193500D03*
X113669069Y-146307998D03*
D13*
X115155612Y-143888351D03*
D14*
X118729738Y-146750749D03*
D13*
X121702824Y-141911456D03*
%TD*%
D16*
%TO.C,MX41*%
X103985353Y-154992050D03*
X93864015Y-154106548D03*
D13*
X95350558Y-151686901D03*
D14*
X98924684Y-154549299D03*
D13*
X101897770Y-149710006D03*
%TD*%
D16*
%TO.C,MX40*%
X84592720Y-158076610D03*
X74471382Y-157191108D03*
D13*
X75957925Y-154771461D03*
D14*
X79532051Y-157633859D03*
D13*
X82505137Y-152794566D03*
%TD*%
D16*
%TO.C,MX39*%
X336009458Y-138233734D03*
X325888120Y-139119236D03*
D13*
X326931912Y-136478214D03*
D14*
X330948789Y-138676485D03*
D13*
X333036372Y-133394440D03*
%TD*%
D16*
%TO.C,MX38*%
X316616825Y-135149176D03*
X306495487Y-136034678D03*
D13*
X307539279Y-133393656D03*
D14*
X311556156Y-135591927D03*
D13*
X313643739Y-130309882D03*
%TD*%
D16*
%TO.C,MX37*%
X296809160Y-127320738D03*
X286687822Y-128206240D03*
D13*
X287731614Y-125565218D03*
D14*
X291748491Y-127763489D03*
D13*
X293836074Y-122481444D03*
%TD*%
D16*
%TO.C,MX36*%
X277549353Y-125754380D03*
X267428015Y-126639882D03*
D13*
X268471807Y-123998860D03*
D14*
X272488684Y-126197131D03*
D13*
X274576267Y-120915086D03*
%TD*%
D16*
%TO.C,MX35*%
X258854142Y-130641371D03*
X248732804Y-131526873D03*
D13*
X249776596Y-128885851D03*
D14*
X253793473Y-131084122D03*
D13*
X255881056Y-125802077D03*
%TD*%
D16*
%TO.C,MX34*%
X240075871Y-134578990D03*
X229954533Y-135464492D03*
D13*
X230998325Y-132823470D03*
D14*
X235015202Y-135021741D03*
D13*
X237102785Y-129739696D03*
%TD*%
D16*
%TO.C,MX32*%
X182186629Y-135444357D03*
X172065291Y-134558855D03*
D13*
X173551834Y-132139208D03*
D14*
X177125960Y-135001606D03*
D13*
X180099046Y-130162313D03*
%TD*%
D16*
%TO.C,MX31*%
X163408357Y-131506737D03*
X153287019Y-130621235D03*
D13*
X154773562Y-128201588D03*
D14*
X158347688Y-131063986D03*
D13*
X161320774Y-126224693D03*
%TD*%
D16*
%TO.C,MX30*%
X144713145Y-126619747D03*
X134591807Y-125734245D03*
D13*
X136078350Y-123314598D03*
D14*
X139652476Y-126176996D03*
D13*
X142625562Y-121337703D03*
%TD*%
D16*
%TO.C,MX29*%
X125453339Y-128186105D03*
X115332001Y-127300603D03*
D13*
X116818544Y-124880956D03*
D14*
X120392670Y-127743354D03*
D13*
X123365756Y-122904061D03*
%TD*%
D16*
%TO.C,MX28*%
X105645671Y-136014542D03*
X95524333Y-135129040D03*
D13*
X97010876Y-132709393D03*
D14*
X100585002Y-135571791D03*
D13*
X103558088Y-130732498D03*
%TD*%
D16*
%TO.C,MX27*%
X86253038Y-139099101D03*
X76131700Y-138213599D03*
D13*
X77618243Y-135793952D03*
D14*
X81192369Y-138656350D03*
D13*
X84165455Y-133817057D03*
%TD*%
D16*
%TO.C,MX26*%
X334349142Y-119256224D03*
X324227804Y-120141726D03*
D13*
X325271596Y-117500704D03*
D14*
X329288473Y-119698975D03*
D13*
X331376056Y-114416930D03*
%TD*%
D16*
%TO.C,MX25*%
X314956510Y-116171667D03*
X304835172Y-117057169D03*
D13*
X305878964Y-114416147D03*
D14*
X309895841Y-116614418D03*
D13*
X311983424Y-111332373D03*
%TD*%
D16*
%TO.C,MX24*%
X295148843Y-108343229D03*
X285027505Y-109228731D03*
D13*
X286071297Y-106587709D03*
D14*
X290088174Y-108785980D03*
D13*
X292175757Y-103503935D03*
%TD*%
D16*
%TO.C,MX23*%
X275889036Y-106776871D03*
X265767698Y-107662373D03*
D13*
X266811490Y-105021351D03*
D14*
X270828367Y-107219622D03*
D13*
X272915950Y-101937577D03*
%TD*%
D16*
%TO.C,MX22*%
X257193825Y-111663862D03*
X247072487Y-112549364D03*
D13*
X248116279Y-109908342D03*
D14*
X252133156Y-112106613D03*
D13*
X254220739Y-106824568D03*
%TD*%
D16*
%TO.C,MX21*%
X238415554Y-115601481D03*
X228294216Y-116486983D03*
D13*
X229338008Y-113845961D03*
D14*
X233354885Y-116044232D03*
D13*
X235442468Y-110762187D03*
%TD*%
D16*
%TO.C,MX19*%
X183846945Y-116466846D03*
X173725607Y-115581344D03*
D13*
X175212150Y-113161697D03*
D14*
X178786276Y-116024095D03*
D13*
X181759362Y-111184802D03*
%TD*%
D16*
%TO.C,MX18*%
X165068674Y-112529228D03*
X154947336Y-111643726D03*
D13*
X156433879Y-109224079D03*
D14*
X160008005Y-112086477D03*
D13*
X162981091Y-107247184D03*
%TD*%
D16*
%TO.C,MX17*%
X146373461Y-107642238D03*
X136252123Y-106756736D03*
D13*
X137738666Y-104337089D03*
D14*
X141312792Y-107199487D03*
D13*
X144285878Y-102360194D03*
%TD*%
D16*
%TO.C,MX16*%
X127113656Y-109208596D03*
X116992318Y-108323094D03*
D13*
X118478861Y-105903447D03*
D14*
X122052987Y-108765845D03*
D13*
X125026073Y-103926552D03*
%TD*%
D16*
%TO.C,MX15*%
X107305987Y-117037032D03*
X97184649Y-116151530D03*
D13*
X98671192Y-113731883D03*
D14*
X102245318Y-116594281D03*
D13*
X105218404Y-111754988D03*
%TD*%
D16*
%TO.C,MX14*%
X87913356Y-120121592D03*
X77792018Y-119236090D03*
D13*
X79278561Y-116816443D03*
D14*
X82852687Y-119678841D03*
D13*
X85825773Y-114839548D03*
%TD*%
D16*
%TO.C,MX13*%
X332688823Y-100278716D03*
X322567485Y-101164218D03*
D13*
X323611277Y-98523196D03*
D14*
X327628154Y-100721467D03*
D13*
X329715737Y-95439422D03*
%TD*%
D16*
%TO.C,MX12*%
X313296193Y-97194158D03*
X303174855Y-98079660D03*
D13*
X304218647Y-95438638D03*
D14*
X308235524Y-97636909D03*
D13*
X310323107Y-92354864D03*
%TD*%
D16*
%TO.C,MX11*%
X293488525Y-89365720D03*
X283367187Y-90251222D03*
D13*
X284410979Y-87610200D03*
D14*
X288427856Y-89808471D03*
D13*
X290515439Y-84526426D03*
%TD*%
D16*
%TO.C,MX10*%
X274228718Y-87799363D03*
X264107380Y-88684865D03*
D13*
X265151172Y-86043843D03*
D14*
X269168049Y-88242114D03*
D13*
X271255632Y-82960069D03*
%TD*%
D16*
%TO.C,MX9*%
X255533507Y-92686354D03*
X245412169Y-93571856D03*
D13*
X246455961Y-90930834D03*
D14*
X250472838Y-93129105D03*
D13*
X252560421Y-87847060D03*
%TD*%
D16*
%TO.C,MX8*%
X236755236Y-96623972D03*
X226633898Y-97509474D03*
D13*
X227677690Y-94868452D03*
D14*
X231694567Y-97066723D03*
D13*
X233782150Y-91784678D03*
%TD*%
D16*
%TO.C,MX6*%
X185507260Y-97489337D03*
X175385922Y-96603835D03*
D13*
X176872465Y-94184188D03*
D14*
X180446591Y-97046586D03*
D13*
X183419677Y-92207293D03*
%TD*%
D16*
%TO.C,MX5*%
X166728990Y-93551719D03*
X156607652Y-92666217D03*
D13*
X158094195Y-90246570D03*
D14*
X161668321Y-93108968D03*
D13*
X164641407Y-88269675D03*
%TD*%
D16*
%TO.C,MX4*%
X148033778Y-88664729D03*
X137912440Y-87779227D03*
D13*
X139398983Y-85359580D03*
D14*
X142973109Y-88221978D03*
D13*
X145946195Y-83382685D03*
%TD*%
D16*
%TO.C,MX3*%
X128773971Y-90231087D03*
X118652633Y-89345585D03*
D13*
X120139176Y-86925938D03*
D14*
X123713302Y-89788336D03*
D13*
X126686388Y-84949043D03*
%TD*%
D16*
%TO.C,MX2*%
X108966304Y-98059523D03*
X98844966Y-97174021D03*
D13*
X100331509Y-94754374D03*
D14*
X103905635Y-97616772D03*
D13*
X106878721Y-92777479D03*
%TD*%
D16*
%TO.C,MX1*%
X89573673Y-101144083D03*
X79452335Y-100258581D03*
D13*
X80938878Y-97838934D03*
D14*
X84513004Y-100701332D03*
D13*
X87486090Y-95862039D03*
%TD*%
%TO.C,U4*%
G36*
G01*
X217946000Y-110996000D02*
X219254000Y-110996000D01*
G75*
G02*
X219304000Y-111046000I0J-50000D01*
G01*
X219304000Y-112354000D01*
G75*
G02*
X219254000Y-112404000I-50000J0D01*
G01*
X217946000Y-112404000D01*
G75*
G02*
X217896000Y-112354000I0J50000D01*
G01*
X217896000Y-111046000D01*
G75*
G02*
X217946000Y-110996000I50000J0D01*
G01*
G37*
D21*
X221140000Y-111700000D03*
X221140000Y-106620000D03*
X218600000Y-106620000D03*
X221140000Y-109160000D03*
X218600000Y-109160000D03*
%TD*%
M02*
