M48
; DRILL file {KiCad (5.1.8)-1} date 02/22/21 23:32:30
; FORMAT={-:-/ absolute / metric / decimal}
; #@! TF.CreationDate,2021-02-22T23:32:30-05:00
; #@! TF.GenerationSoftware,Kicad,Pcbnew,(5.1.8)-1
; #@! TF.FileFunction,Plated,1,2,PTH
FMAT,2
METRIC
T1C0.400
T2C0.600
T3C0.800
T4C1.000
T5C3.000
%
G90
G05
T1
X71.18Y-127.58
X74.17Y-109.41
X74.27Y-108.49
X74.31Y-122.11
X74.33Y-107.54
X74.47Y-106.25
X76.71Y-88.0
X80.15Y-87.07
X80.645Y-147.225
X80.67Y-84.92
X84.51Y-85.95
X84.57Y-84.9
X87.2Y-86.4
X87.66Y-88.35
X88.66Y-123.61
X91.548Y-83.922
X91.724Y-118.06
X92.077Y-113.051
X93.256Y-104.297
X94.29Y-84.17
X97.59Y-124.35
X103.256Y-144.415
X110.937Y-114.848
X111.312Y-109.936
X123.59Y-136.648
X130.946Y-107.24
X131.38Y-102.115
X142.449Y-135.075
X150.083Y-105.819
X150.486Y-100.354
X160.46Y-139.863
X168.682Y-110.719
X169.174Y-104.98
X179.249Y-143.685
X184.867Y-143.339
X185.11Y-144.41
X185.272Y-141.904
X185.39Y-142.672
X187.494Y-114.613
X187.924Y-109.009
X188.9Y-111.13
X189.758Y-142.122
X189.76Y-158.58
X190.3Y-112.5
X190.46Y-104.33
X190.485Y-106.184
X192.35Y-132.225
X192.388Y-110.5
X192.388Y-126.16
X193.19Y-159.51
X193.77Y-163.56
X193.92Y-108.66
X194.27Y-130.46
X194.89Y-163.59
X195.05Y-102.35
X195.09Y-137.05
X195.11Y-126.43
X195.24Y-125.17
X196.12Y-137.05
X196.23Y-130.22
X196.79Y-124.83
X197.27Y-116.05
X197.98Y-148.23
X198.081Y-122.682
X198.685Y-121.93
X198.945Y-156.935
X198.96Y-144.02
X199.28Y-121.14
X199.326Y-114.796
X200.97Y-150.38
X201.37Y-167.28
X201.69Y-166.13
X203.53Y-110.36
X203.74Y-145.293
X203.77Y-165.38
X206.98Y-148.18
X209.95Y-151.92
X210.1Y-148.17
X210.2Y-166.765
X210.71Y-123.38
X211.78Y-113.42
X211.83Y-166.16
X212.07Y-118.9
X212.97Y-119.76
X213.23Y-122.47
X213.763Y-164.533
X215.504Y-114.796
X215.65Y-136.24
X215.692Y-137.138
X218.655Y-128.775
X220.99Y-151.93
X222.58Y-128.75
X225.34Y-138.23
X225.54Y-142.85
X225.62Y-143.64
X225.687Y-144.415
X238.196Y-143.346
X241.154Y-107.512
X241.796Y-114.563
X256.829Y-139.357
X259.919Y-103.542
X260.507Y-109.854
X271.463Y-134.865
X278.694Y-98.767
X279.246Y-105.123
X294.18Y-136.13
X297.99Y-100.402
X298.574Y-106.554
X313.903Y-144.031
X317.727Y-108.452
X318.272Y-113.956
X333.228Y-147.028
X337.442Y-111.315
X338.016Y-117.247
X241.329Y-90.614
X241.462Y-92.133
X257.555Y-86.645
X257.688Y-88.163
X300.752Y-114.1
X300.885Y-115.618
X316.978Y-110.131
X317.111Y-111.649
X304.073Y-152.055
X304.205Y-153.573
X320.298Y-148.086
X320.431Y-149.604
X70.831Y-155.088
X70.964Y-153.57
X87.499Y-153.996
X87.632Y-152.478
X171.527Y-153.997
X171.921Y-152.525
X188.132Y-155.816
X188.526Y-154.344
X171.745Y-94.501
X171.878Y-92.982
X188.414Y-93.409
X188.547Y-91.891
X260.024Y-85.727
X260.157Y-87.246
X276.25Y-81.758
X276.383Y-83.276
X74.151Y-117.133
X74.284Y-115.615
X90.82Y-116.041
X90.953Y-114.523
X224.211Y-113.53
X224.344Y-115.048
X240.437Y-109.56
X240.57Y-111.079
X280.944Y-106.271
X281.077Y-107.79
X297.17Y-102.302
X297.303Y-103.82
X222.931Y-157.192
X223.326Y-158.664
X238.221Y-150.465
X238.616Y-151.937
X318.484Y-98.207
X318.617Y-99.725
X334.71Y-94.238
X334.843Y-95.756
X279.284Y-87.294
X279.417Y-88.812
X295.51Y-83.325
X295.643Y-84.843
X299.092Y-95.122
X299.224Y-96.64
X315.317Y-91.153
X315.45Y-92.671
X242.989Y-109.592
X243.122Y-111.11
X259.215Y-105.623
X259.348Y-107.141
X261.684Y-104.705
X261.817Y-106.223
X277.91Y-100.736
X278.043Y-102.254
X90.223Y-152.003
X90.356Y-150.485
X106.892Y-150.912
X107.025Y-149.394
X72.491Y-136.11
X72.624Y-134.592
X89.16Y-135.019
X89.293Y-133.501
X259.733Y-147.331
X260.128Y-148.803
X275.023Y-140.604
X275.418Y-142.076
X320.145Y-117.184
X320.277Y-118.703
X336.37Y-113.215
X336.503Y-114.733
X263.345Y-123.683
X263.478Y-125.201
X279.571Y-119.713
X279.703Y-121.231
X93.544Y-114.048
X93.677Y-112.53
X110.213Y-112.957
X110.345Y-111.439
X113.352Y-106.22
X113.485Y-104.702
X130.02Y-105.128
X130.153Y-103.61
X323.465Y-155.139
X323.598Y-156.658
X339.691Y-151.17
X339.824Y-152.688
X91.884Y-133.026
X92.017Y-131.508
X108.552Y-131.934
X108.685Y-130.416
X110.029Y-144.205
X110.161Y-142.686
X126.697Y-143.113
X126.83Y-141.595
X321.805Y-136.162
X321.938Y-137.68
X338.031Y-132.193
X338.163Y-133.711
X241.332Y-152.261
X241.727Y-153.733
X256.622Y-145.535
X257.017Y-147.007
X282.605Y-125.249
X282.737Y-126.767
X298.83Y-121.28
X298.963Y-122.798
X244.65Y-128.57
X244.782Y-130.088
X260.875Y-124.6
X261.008Y-126.118
X132.612Y-104.653
X132.744Y-103.135
X149.28Y-103.562
X149.413Y-102.044
X111.691Y-125.197
X111.824Y-123.679
X128.36Y-124.106
X128.493Y-122.588
X153.126Y-149.066
X153.52Y-147.594
X169.731Y-150.886
X170.125Y-149.414
X149.646Y-128.518
X149.779Y-127.0
X166.315Y-127.427
X166.448Y-125.908
X95.204Y-95.071
X95.337Y-93.553
X111.873Y-93.979
X112.006Y-92.461
X134.272Y-85.676
X134.405Y-84.158
X150.94Y-84.585
X151.073Y-83.066
X168.425Y-132.456
X168.558Y-130.937
X185.093Y-131.364
X185.226Y-129.846
X197.13Y-97.258
X197.13Y-98.782
X213.64Y-94.718
X213.64Y-96.242
X225.871Y-132.507
X226.004Y-134.025
X242.097Y-128.538
X242.23Y-130.056
X130.951Y-123.631
X131.084Y-122.113
X147.62Y-122.54
X147.753Y-121.021
X197.14Y-158.058
X197.14Y-159.582
X213.65Y-155.518
X213.65Y-157.042
X115.012Y-87.242
X115.145Y-85.724
X131.681Y-86.151
X131.813Y-84.633
X222.551Y-94.552
X222.683Y-96.07
X238.776Y-90.583
X238.909Y-92.101
X151.307Y-109.54
X151.44Y-108.022
X167.975Y-108.449
X168.108Y-106.931
X302.412Y-133.077
X302.545Y-134.596
X318.638Y-129.108
X318.771Y-130.626
X134.725Y-144.136
X135.119Y-142.664
X151.33Y-145.955
X151.724Y-144.483
X152.967Y-90.563
X153.1Y-89.045
X169.636Y-89.472
X169.768Y-87.953
X284.265Y-144.226
X284.398Y-145.745
X300.491Y-140.257
X300.623Y-141.775
X75.812Y-98.155
X75.945Y-96.637
X92.48Y-97.064
X92.613Y-95.546
X170.085Y-113.478
X170.218Y-111.96
X186.754Y-112.387
X186.886Y-110.868
T3
X218.6Y-106.62
X218.6Y-109.16
X218.6Y-111.7
X221.14Y-106.62
X221.14Y-109.16
X221.14Y-111.7
T4
X203.53Y-93.7
X203.53Y-108.2
X206.03Y-108.2
X208.53Y-108.2
X203.54Y-154.5
X203.54Y-169.0
X206.04Y-169.0
X208.54Y-169.0
X202.19Y-119.57
X204.73Y-119.57
X207.27Y-119.57
X209.81Y-119.57
T5
X137.739Y-104.337
X144.286Y-102.36
X116.819Y-124.881
X123.366Y-122.904
X158.23Y-149.645
X165.021Y-148.835
X154.774Y-128.202
X161.321Y-126.225
X100.332Y-94.754
X106.879Y-92.777
X139.399Y-85.36
X145.946Y-83.383
X173.552Y-132.139
X180.099Y-130.162
X202.21Y-98.02
X208.56Y-95.48
X230.998Y-132.823
X237.103Y-129.74
X136.078Y-123.315
X142.626Y-121.338
X202.22Y-158.82
X208.57Y-156.28
X120.139Y-86.926
X126.686Y-84.949
X227.678Y-94.868
X233.782Y-91.785
X156.434Y-109.224
X162.981Y-107.247
X307.539Y-133.394
X313.644Y-130.31
X139.829Y-144.714
X146.62Y-143.904
X158.094Y-90.247
X164.641Y-88.27
X289.392Y-144.543
X295.496Y-141.459
X80.939Y-97.839
X87.486Y-95.862
X175.212Y-113.162
X181.759Y-111.185
X246.456Y-90.931
X252.56Y-87.847
X305.879Y-114.416
X311.983Y-111.332
X309.2Y-152.371
X315.304Y-149.287
X75.958Y-154.771
X82.505Y-152.795
X176.631Y-154.575
X183.422Y-153.765
X176.872Y-94.184
X183.42Y-92.207
X265.151Y-86.044
X271.256Y-82.96
X79.279Y-116.816
X85.826Y-114.84
X229.338Y-113.846
X235.442Y-110.762
X286.071Y-106.588
X292.176Y-103.504
X228.036Y-156.613
X233.512Y-152.516
X323.611Y-98.523
X329.716Y-95.439
X284.411Y-87.61
X290.515Y-84.526
X304.219Y-95.439
X310.323Y-92.355
X248.116Y-109.908
X254.221Y-106.825
X266.811Y-105.021
X272.916Y-101.938
X95.351Y-151.687
X101.898Y-149.71
X77.618Y-135.794
X84.165Y-133.817
X264.837Y-146.752
X270.314Y-142.655
X325.272Y-117.501
X331.376Y-114.417
X268.472Y-123.999
X274.576Y-120.915
X98.671Y-113.732
X105.218Y-111.755
X118.479Y-105.903
X125.026Y-103.927
X328.592Y-155.456
X334.697Y-152.372
X97.011Y-132.709
X103.558Y-130.732
X115.156Y-143.888
X121.703Y-141.911
X326.932Y-136.478
X333.036Y-133.394
X246.436Y-151.682
X251.913Y-147.585
X287.732Y-125.565
X293.836Y-122.481
X249.777Y-128.886
X255.881Y-125.802
T2
X77.74Y-77.23G85X77.74Y-77.83
G05
X77.74Y-81.16G85X77.74Y-82.26
G05
X86.38Y-77.23G85X86.38Y-77.83
G05
X86.38Y-81.16G85X86.38Y-82.26
G05
T4
X208.53Y-95.7G85X208.53Y-93.7
G05
X208.54Y-156.5G85X208.54Y-154.5
G05
T0
M30
