%TF.GenerationSoftware,KiCad,Pcbnew,(5.1.8)-1*%
%TF.CreationDate,2021-02-19T01:39:29-05:00*%
%TF.ProjectId,ergo_60_case,6572676f-5f36-4305-9f63-6173652e6b69,rev?*%
%TF.SameCoordinates,Original*%
%TF.FileFunction,Soldermask,Top*%
%TF.FilePolarity,Negative*%
%FSLAX46Y46*%
G04 Gerber Fmt 4.6, Leading zero omitted, Abs format (unit mm)*
G04 Created by KiCad (PCBNEW (5.1.8)-1) date 2021-02-19 01:39:29*
%MOMM*%
%LPD*%
G01*
G04 APERTURE LIST*
%ADD10C,0.300000*%
%ADD11C,0.010000*%
%ADD12O,4.100000X2.800000*%
%ADD13O,1.700000X2.100000*%
%ADD14C,0.750000*%
%ADD15O,1.100000X2.200000*%
%ADD16O,1.100000X1.700000*%
%ADD17C,4.100000*%
%ADD18C,4.087800*%
%ADD19O,4.100000X4.100000*%
%ADD20C,1.850000*%
%ADD21O,1.600000X2.900000*%
%ADD22C,2.100000*%
%ADD23O,2.100000X4.100000*%
%ADD24C,1.408000*%
G04 APERTURE END LIST*
D10*
X276165714Y-162088571D02*
X276165714Y-160588571D01*
X276308571Y-161517142D02*
X276737142Y-162088571D01*
X276737142Y-161088571D02*
X276165714Y-161660000D01*
X277594285Y-162088571D02*
X277451428Y-162017142D01*
X277380000Y-161874285D01*
X277380000Y-160588571D01*
X278808571Y-162088571D02*
X278808571Y-161302857D01*
X278737142Y-161160000D01*
X278594285Y-161088571D01*
X278308571Y-161088571D01*
X278165714Y-161160000D01*
X278808571Y-162017142D02*
X278665714Y-162088571D01*
X278308571Y-162088571D01*
X278165714Y-162017142D01*
X278094285Y-161874285D01*
X278094285Y-161731428D01*
X278165714Y-161588571D01*
X278308571Y-161517142D01*
X278665714Y-161517142D01*
X278808571Y-161445714D01*
X280165714Y-162017142D02*
X280022857Y-162088571D01*
X279737142Y-162088571D01*
X279594285Y-162017142D01*
X279522857Y-161945714D01*
X279451428Y-161802857D01*
X279451428Y-161374285D01*
X279522857Y-161231428D01*
X279594285Y-161160000D01*
X279737142Y-161088571D01*
X280022857Y-161088571D01*
X280165714Y-161160000D01*
X280808571Y-162088571D02*
X280808571Y-160588571D01*
X280951428Y-161517142D02*
X281380000Y-162088571D01*
X281380000Y-161088571D02*
X280808571Y-161660000D01*
X281880000Y-161088571D02*
X282237142Y-162088571D01*
X282594285Y-161088571D02*
X282237142Y-162088571D01*
X282094285Y-162445714D01*
X282022857Y-162517142D01*
X281880000Y-162588571D01*
X283808571Y-161088571D02*
X283808571Y-162302857D01*
X283737142Y-162445714D01*
X283665714Y-162517142D01*
X283522857Y-162588571D01*
X283308571Y-162588571D01*
X283165714Y-162517142D01*
X283808571Y-162017142D02*
X283665714Y-162088571D01*
X283380000Y-162088571D01*
X283237142Y-162017142D01*
X283165714Y-161945714D01*
X283094285Y-161802857D01*
X283094285Y-161374285D01*
X283165714Y-161231428D01*
X283237142Y-161160000D01*
X283380000Y-161088571D01*
X283665714Y-161088571D01*
X283808571Y-161160000D01*
X285094285Y-162017142D02*
X284951428Y-162088571D01*
X284665714Y-162088571D01*
X284522857Y-162017142D01*
X284451428Y-161874285D01*
X284451428Y-161302857D01*
X284522857Y-161160000D01*
X284665714Y-161088571D01*
X284951428Y-161088571D01*
X285094285Y-161160000D01*
X285165714Y-161302857D01*
X285165714Y-161445714D01*
X284451428Y-161588571D01*
X286451428Y-162088571D02*
X286451428Y-161302857D01*
X286380000Y-161160000D01*
X286237142Y-161088571D01*
X285951428Y-161088571D01*
X285808571Y-161160000D01*
X286451428Y-162017142D02*
X286308571Y-162088571D01*
X285951428Y-162088571D01*
X285808571Y-162017142D01*
X285737142Y-161874285D01*
X285737142Y-161731428D01*
X285808571Y-161588571D01*
X285951428Y-161517142D01*
X286308571Y-161517142D01*
X286451428Y-161445714D01*
X287165714Y-162088571D02*
X287165714Y-161088571D01*
X287165714Y-161374285D02*
X287237142Y-161231428D01*
X287308571Y-161160000D01*
X287451428Y-161088571D01*
X287594285Y-161088571D01*
X288022857Y-162017142D02*
X288165714Y-162088571D01*
X288451428Y-162088571D01*
X288594285Y-162017142D01*
X288665714Y-161874285D01*
X288665714Y-161802857D01*
X288594285Y-161660000D01*
X288451428Y-161588571D01*
X288237142Y-161588571D01*
X288094285Y-161517142D01*
X288022857Y-161374285D01*
X288022857Y-161302857D01*
X288094285Y-161160000D01*
X288237142Y-161088571D01*
X288451428Y-161088571D01*
X288594285Y-161160000D01*
X113584285Y-161182857D02*
X114084285Y-161182857D01*
X114298571Y-161968571D02*
X113584285Y-161968571D01*
X113584285Y-160468571D01*
X114298571Y-160468571D01*
X114941428Y-161968571D02*
X114941428Y-160468571D01*
X115655714Y-161968571D02*
X115655714Y-160468571D01*
X116512857Y-161968571D01*
X116512857Y-160468571D01*
X117870000Y-160468571D02*
X117584285Y-160468571D01*
X117441428Y-160540000D01*
X117370000Y-160611428D01*
X117227142Y-160825714D01*
X117155714Y-161111428D01*
X117155714Y-161682857D01*
X117227142Y-161825714D01*
X117298571Y-161897142D01*
X117441428Y-161968571D01*
X117727142Y-161968571D01*
X117870000Y-161897142D01*
X117941428Y-161825714D01*
X118012857Y-161682857D01*
X118012857Y-161325714D01*
X117941428Y-161182857D01*
X117870000Y-161111428D01*
X117727142Y-161040000D01*
X117441428Y-161040000D01*
X117298571Y-161111428D01*
X117227142Y-161182857D01*
X117155714Y-161325714D01*
X118941428Y-160468571D02*
X119084285Y-160468571D01*
X119227142Y-160540000D01*
X119298571Y-160611428D01*
X119370000Y-160754285D01*
X119441428Y-161040000D01*
X119441428Y-161397142D01*
X119370000Y-161682857D01*
X119298571Y-161825714D01*
X119227142Y-161897142D01*
X119084285Y-161968571D01*
X118941428Y-161968571D01*
X118798571Y-161897142D01*
X118727142Y-161825714D01*
X118655714Y-161682857D01*
X118584285Y-161397142D01*
X118584285Y-161040000D01*
X118655714Y-160754285D01*
X118727142Y-160611428D01*
X118798571Y-160540000D01*
X118941428Y-160468571D01*
X119727142Y-162111428D02*
X120870000Y-162111428D01*
X121227142Y-161968571D02*
X121227142Y-160468571D01*
X121798571Y-160468571D01*
X121941428Y-160540000D01*
X122012857Y-160611428D01*
X122084285Y-160754285D01*
X122084285Y-160968571D01*
X122012857Y-161111428D01*
X121941428Y-161182857D01*
X121798571Y-161254285D01*
X121227142Y-161254285D01*
X122727142Y-161968571D02*
X122727142Y-160968571D01*
X122727142Y-161254285D02*
X122798571Y-161111428D01*
X122870000Y-161040000D01*
X123012857Y-160968571D01*
X123155714Y-160968571D01*
X123870000Y-161968571D02*
X123727142Y-161897142D01*
X123655714Y-161825714D01*
X123584285Y-161682857D01*
X123584285Y-161254285D01*
X123655714Y-161111428D01*
X123727142Y-161040000D01*
X123870000Y-160968571D01*
X124084285Y-160968571D01*
X124227142Y-161040000D01*
X124298571Y-161111428D01*
X124370000Y-161254285D01*
X124370000Y-161682857D01*
X124298571Y-161825714D01*
X124227142Y-161897142D01*
X124084285Y-161968571D01*
X123870000Y-161968571D01*
X124798571Y-160968571D02*
X125370000Y-160968571D01*
X125012857Y-160468571D02*
X125012857Y-161754285D01*
X125084285Y-161897142D01*
X125227142Y-161968571D01*
X125370000Y-161968571D01*
X126084285Y-161968571D02*
X125941428Y-161897142D01*
X125870000Y-161825714D01*
X125798571Y-161682857D01*
X125798571Y-161254285D01*
X125870000Y-161111428D01*
X125941428Y-161040000D01*
X126084285Y-160968571D01*
X126298571Y-160968571D01*
X126441428Y-161040000D01*
X126512857Y-161111428D01*
X126584285Y-161254285D01*
X126584285Y-161682857D01*
X126512857Y-161825714D01*
X126441428Y-161897142D01*
X126298571Y-161968571D01*
X126084285Y-161968571D01*
X127012857Y-160968571D02*
X127584285Y-160968571D01*
X127227142Y-160468571D02*
X127227142Y-161754285D01*
X127298571Y-161897142D01*
X127441428Y-161968571D01*
X127584285Y-161968571D01*
X127941428Y-160968571D02*
X128298571Y-161968571D01*
X128655714Y-160968571D02*
X128298571Y-161968571D01*
X128155714Y-162325714D01*
X128084285Y-162397142D01*
X127941428Y-162468571D01*
X129227142Y-160968571D02*
X129227142Y-162468571D01*
X129227142Y-161040000D02*
X129370000Y-160968571D01*
X129655714Y-160968571D01*
X129798571Y-161040000D01*
X129870000Y-161111428D01*
X129941428Y-161254285D01*
X129941428Y-161682857D01*
X129870000Y-161825714D01*
X129798571Y-161897142D01*
X129655714Y-161968571D01*
X129370000Y-161968571D01*
X129227142Y-161897142D01*
X131155714Y-161897142D02*
X131012857Y-161968571D01*
X130727142Y-161968571D01*
X130584285Y-161897142D01*
X130512857Y-161754285D01*
X130512857Y-161182857D01*
X130584285Y-161040000D01*
X130727142Y-160968571D01*
X131012857Y-160968571D01*
X131155714Y-161040000D01*
X131227142Y-161182857D01*
X131227142Y-161325714D01*
X130512857Y-161468571D01*
D11*
%TO.C,G\u002A\u002A\u002A*%
G36*
X271346450Y-155913787D02*
G01*
X271452744Y-156312166D01*
X271559038Y-156710544D01*
X271602400Y-156731222D01*
X271635526Y-156744892D01*
X271660810Y-156751722D01*
X271663503Y-156751900D01*
X271678478Y-156745752D01*
X271712627Y-156728324D01*
X271763182Y-156701133D01*
X271827380Y-156665699D01*
X271902453Y-156623542D01*
X271985637Y-156576180D01*
X272034128Y-156548298D01*
X272387012Y-156344697D01*
X273525807Y-157483492D01*
X273321953Y-157836224D01*
X273272305Y-157922665D01*
X273227025Y-158002523D01*
X273187635Y-158073035D01*
X273155657Y-158131438D01*
X273132611Y-158174967D01*
X273120019Y-158200860D01*
X273118100Y-158206597D01*
X273123294Y-158229156D01*
X273136064Y-158261759D01*
X273138753Y-158267548D01*
X273159406Y-158310858D01*
X273956300Y-158522802D01*
X273956300Y-160136537D01*
X273159268Y-160349431D01*
X273138684Y-160392596D01*
X273125051Y-160425636D01*
X273118267Y-160450800D01*
X273118100Y-160453402D01*
X273124254Y-160468348D01*
X273141704Y-160502460D01*
X273168927Y-160552974D01*
X273204404Y-160617127D01*
X273246612Y-160692155D01*
X273294032Y-160775295D01*
X273321953Y-160823775D01*
X273525807Y-161176507D01*
X272387012Y-162315302D01*
X272034128Y-162111701D01*
X271947646Y-162062112D01*
X271867744Y-162016888D01*
X271797188Y-161977547D01*
X271738744Y-161945608D01*
X271695177Y-161922591D01*
X271669253Y-161910015D01*
X271663503Y-161908100D01*
X271640876Y-161913296D01*
X271608224Y-161926072D01*
X271602400Y-161928777D01*
X271559038Y-161949455D01*
X271452744Y-162347833D01*
X271346450Y-162746212D01*
X269733550Y-162746232D01*
X269520602Y-161949284D01*
X269477420Y-161928692D01*
X269444351Y-161915054D01*
X269419134Y-161908268D01*
X269416520Y-161908100D01*
X269401559Y-161914261D01*
X269367441Y-161931732D01*
X269316930Y-161958987D01*
X269252789Y-161994505D01*
X269177783Y-162036761D01*
X269094675Y-162084234D01*
X269046321Y-162112126D01*
X268693838Y-162316153D01*
X267554192Y-161176507D01*
X267758046Y-160823775D01*
X267807694Y-160737334D01*
X267852974Y-160657476D01*
X267892364Y-160586964D01*
X267924342Y-160528561D01*
X267947388Y-160485032D01*
X267959980Y-160459139D01*
X267961900Y-160453402D01*
X267956705Y-160430873D01*
X267943926Y-160398231D01*
X267941125Y-160392198D01*
X267936844Y-160382289D01*
X267933037Y-160373928D01*
X267927658Y-160366446D01*
X267918663Y-160359178D01*
X267904005Y-160351453D01*
X267881640Y-160342606D01*
X267849522Y-160331968D01*
X267805605Y-160318873D01*
X267747844Y-160302651D01*
X267674193Y-160282636D01*
X267582608Y-160258159D01*
X267471042Y-160228554D01*
X267337451Y-160193153D01*
X267304675Y-160184460D01*
X267123700Y-160136450D01*
X267123700Y-158661929D01*
X267301499Y-158661929D01*
X267301500Y-159329999D01*
X267301500Y-159998070D01*
X267653925Y-160091482D01*
X267745772Y-160115915D01*
X267830589Y-160138649D01*
X267904985Y-160158760D01*
X267965570Y-160175326D01*
X268008954Y-160187426D01*
X268031745Y-160194136D01*
X268033335Y-160194677D01*
X268056302Y-160214864D01*
X268081180Y-160258619D01*
X268092390Y-160284756D01*
X268112988Y-160336056D01*
X268133517Y-160386751D01*
X268146395Y-160418232D01*
X268168330Y-160471414D01*
X267986864Y-160786532D01*
X267939551Y-160868639D01*
X267895873Y-160944335D01*
X267857578Y-161010600D01*
X267826413Y-161064413D01*
X267804126Y-161102756D01*
X267792463Y-161122606D01*
X267791673Y-161123909D01*
X267790596Y-161130905D01*
X267794918Y-161142029D01*
X267805963Y-161158706D01*
X267825051Y-161182365D01*
X267853506Y-161214432D01*
X267892651Y-161256336D01*
X267943807Y-161309502D01*
X268008298Y-161375359D01*
X268087446Y-161455334D01*
X268182574Y-161550854D01*
X268247684Y-161616034D01*
X268337876Y-161706098D01*
X268422690Y-161790496D01*
X268500427Y-161867560D01*
X268569393Y-161935622D01*
X268627892Y-161993015D01*
X268674227Y-162038072D01*
X268706702Y-162069125D01*
X268723621Y-162084508D01*
X268725646Y-162085900D01*
X268738297Y-162079778D01*
X268770144Y-162062451D01*
X268818424Y-162035479D01*
X268880373Y-162000420D01*
X268953226Y-161958833D01*
X269034221Y-161912277D01*
X269065543Y-161894194D01*
X269160445Y-161839496D01*
X269235998Y-161796444D01*
X269294740Y-161763802D01*
X269339210Y-161740331D01*
X269371946Y-161724791D01*
X269395487Y-161715946D01*
X269412374Y-161712557D01*
X269425143Y-161713385D01*
X269432031Y-161715445D01*
X269459837Y-161726351D01*
X269502997Y-161743898D01*
X269553482Y-161764810D01*
X269568450Y-161771080D01*
X269670050Y-161813759D01*
X269770842Y-162191129D01*
X269871634Y-162568500D01*
X271208365Y-162568500D01*
X271309157Y-162191036D01*
X271409950Y-161813572D01*
X271546107Y-161757937D01*
X271682265Y-161702301D01*
X272009179Y-161890925D01*
X272092179Y-161938679D01*
X272168303Y-161982215D01*
X272234707Y-162019928D01*
X272288547Y-162050214D01*
X272326981Y-162071466D01*
X272347166Y-162082079D01*
X272349271Y-162082957D01*
X272360518Y-162074884D01*
X272387934Y-162050431D01*
X272429807Y-162011254D01*
X272484421Y-161959009D01*
X272550064Y-161895351D01*
X272625021Y-161821938D01*
X272707579Y-161740425D01*
X272796022Y-161652469D01*
X272832251Y-161616266D01*
X272937572Y-161510725D01*
X273026125Y-161421586D01*
X273099233Y-161347422D01*
X273158216Y-161286806D01*
X273204397Y-161238311D01*
X273239098Y-161200509D01*
X273263641Y-161171973D01*
X273279349Y-161151276D01*
X273287543Y-161136991D01*
X273289546Y-161127689D01*
X273288326Y-161123909D01*
X273278609Y-161107442D01*
X273257977Y-161071982D01*
X273228179Y-161020553D01*
X273190966Y-160956180D01*
X273148087Y-160881885D01*
X273101292Y-160800694D01*
X273093539Y-160787233D01*
X273040601Y-160695015D01*
X272999261Y-160622073D01*
X272968258Y-160565782D01*
X272946326Y-160523517D01*
X272932203Y-160492651D01*
X272924624Y-160470559D01*
X272922326Y-160454616D01*
X272924045Y-160442195D01*
X272925440Y-160437983D01*
X272936354Y-160410175D01*
X272953921Y-160367016D01*
X272974863Y-160316535D01*
X272981150Y-160301550D01*
X273023899Y-160199950D01*
X273401199Y-160099109D01*
X273778500Y-159998268D01*
X273778500Y-158661731D01*
X273401199Y-158560890D01*
X273023899Y-158460050D01*
X272981150Y-158358450D01*
X272959842Y-158307344D01*
X272940949Y-158261213D01*
X272927750Y-158228086D01*
X272925440Y-158222016D01*
X272922559Y-158210232D01*
X272923230Y-158195892D01*
X272928715Y-158176372D01*
X272940279Y-158149046D01*
X272959186Y-158111287D01*
X272986699Y-158060471D01*
X273024082Y-157993972D01*
X273072598Y-157909164D01*
X273093539Y-157872766D01*
X273140800Y-157790750D01*
X273184425Y-157715146D01*
X273222665Y-157648977D01*
X273253769Y-157595269D01*
X273275989Y-157557044D01*
X273287575Y-157537328D01*
X273288326Y-157536090D01*
X273289403Y-157529094D01*
X273285080Y-157517969D01*
X273274038Y-157501288D01*
X273254952Y-157477625D01*
X273226502Y-157445552D01*
X273187364Y-157403641D01*
X273136218Y-157350466D01*
X273071741Y-157284599D01*
X272992610Y-157204612D01*
X272897504Y-157109080D01*
X272832251Y-157043733D01*
X272741952Y-156953685D01*
X272656862Y-156869425D01*
X272578694Y-156792611D01*
X272509162Y-156724897D01*
X272449980Y-156667939D01*
X272402863Y-156623395D01*
X272369524Y-156592920D01*
X272351677Y-156578171D01*
X272349271Y-156577042D01*
X272335312Y-156584036D01*
X272302224Y-156602166D01*
X272252848Y-156629827D01*
X272190030Y-156665413D01*
X272116611Y-156707318D01*
X272035436Y-156753937D01*
X272009179Y-156769074D01*
X271682265Y-156957698D01*
X271546107Y-156902062D01*
X271409950Y-156846427D01*
X271309157Y-156468963D01*
X271208365Y-156091500D01*
X270539999Y-156091500D01*
X269871634Y-156091499D01*
X269770842Y-156468870D01*
X269670050Y-156846240D01*
X269568450Y-156888919D01*
X269517340Y-156910196D01*
X269471211Y-156929065D01*
X269438091Y-156942248D01*
X269432031Y-156944554D01*
X269420531Y-156947356D01*
X269406470Y-156946699D01*
X269387311Y-156941347D01*
X269360514Y-156930059D01*
X269323541Y-156911599D01*
X269273852Y-156884727D01*
X269208909Y-156848206D01*
X269126173Y-156800796D01*
X269065543Y-156765805D01*
X268982247Y-156717812D01*
X268906075Y-156674214D01*
X268839790Y-156636570D01*
X268786156Y-156606439D01*
X268747937Y-156585380D01*
X268727897Y-156574952D01*
X268725646Y-156574100D01*
X268715351Y-156582821D01*
X268688829Y-156607872D01*
X268647775Y-156647587D01*
X268593887Y-156700298D01*
X268528861Y-156764338D01*
X268454391Y-156838039D01*
X268372175Y-156919734D01*
X268283908Y-157007755D01*
X268247684Y-157043965D01*
X268142362Y-157149469D01*
X268053811Y-157238574D01*
X267980709Y-157312707D01*
X267921733Y-157373296D01*
X267875559Y-157421767D01*
X267840867Y-157459548D01*
X267816333Y-157488067D01*
X267800634Y-157508750D01*
X267792449Y-157523025D01*
X267790454Y-157532319D01*
X267791673Y-157536090D01*
X267801386Y-157552551D01*
X267822017Y-157588008D01*
X267851818Y-157639443D01*
X267889041Y-157703835D01*
X267931940Y-157778163D01*
X267978767Y-157859407D01*
X267986864Y-157873467D01*
X268168330Y-158188585D01*
X268146395Y-158241767D01*
X268129637Y-158282795D01*
X268108678Y-158334640D01*
X268092390Y-158375243D01*
X268067017Y-158428792D01*
X268043080Y-158459495D01*
X268033335Y-158465322D01*
X268014403Y-158471019D01*
X267974300Y-158482262D01*
X267916415Y-158498130D01*
X267844140Y-158517701D01*
X267760864Y-158540051D01*
X267669978Y-158564260D01*
X267653925Y-158568517D01*
X267301499Y-158661929D01*
X267123700Y-158661929D01*
X267123700Y-158523550D01*
X267304675Y-158475539D01*
X267443422Y-158438763D01*
X267559690Y-158407932D01*
X267655525Y-158382377D01*
X267732971Y-158361431D01*
X267794076Y-158344427D01*
X267840883Y-158330696D01*
X267875438Y-158319571D01*
X267899787Y-158310385D01*
X267915976Y-158302470D01*
X267926049Y-158295158D01*
X267932053Y-158287781D01*
X267936032Y-158279672D01*
X267940032Y-158270164D01*
X267941125Y-158267801D01*
X267954830Y-158234653D01*
X267961710Y-158209372D01*
X267961900Y-158206597D01*
X267955745Y-158191651D01*
X267938295Y-158157539D01*
X267911072Y-158107025D01*
X267875595Y-158042872D01*
X267833387Y-157967844D01*
X267785967Y-157884704D01*
X267758046Y-157836224D01*
X267554192Y-157483492D01*
X268693781Y-156343903D01*
X269046762Y-156547901D01*
X269133215Y-156597564D01*
X269213064Y-156642859D01*
X269283552Y-156682266D01*
X269341921Y-156714265D01*
X269385410Y-156737337D01*
X269411262Y-156749960D01*
X269416991Y-156751900D01*
X269439279Y-156746714D01*
X269471700Y-156733966D01*
X269477420Y-156731307D01*
X269520602Y-156710715D01*
X269733550Y-155913767D01*
X271346450Y-155913787D01*
G37*
X271346450Y-155913787D02*
X271452744Y-156312166D01*
X271559038Y-156710544D01*
X271602400Y-156731222D01*
X271635526Y-156744892D01*
X271660810Y-156751722D01*
X271663503Y-156751900D01*
X271678478Y-156745752D01*
X271712627Y-156728324D01*
X271763182Y-156701133D01*
X271827380Y-156665699D01*
X271902453Y-156623542D01*
X271985637Y-156576180D01*
X272034128Y-156548298D01*
X272387012Y-156344697D01*
X273525807Y-157483492D01*
X273321953Y-157836224D01*
X273272305Y-157922665D01*
X273227025Y-158002523D01*
X273187635Y-158073035D01*
X273155657Y-158131438D01*
X273132611Y-158174967D01*
X273120019Y-158200860D01*
X273118100Y-158206597D01*
X273123294Y-158229156D01*
X273136064Y-158261759D01*
X273138753Y-158267548D01*
X273159406Y-158310858D01*
X273956300Y-158522802D01*
X273956300Y-160136537D01*
X273159268Y-160349431D01*
X273138684Y-160392596D01*
X273125051Y-160425636D01*
X273118267Y-160450800D01*
X273118100Y-160453402D01*
X273124254Y-160468348D01*
X273141704Y-160502460D01*
X273168927Y-160552974D01*
X273204404Y-160617127D01*
X273246612Y-160692155D01*
X273294032Y-160775295D01*
X273321953Y-160823775D01*
X273525807Y-161176507D01*
X272387012Y-162315302D01*
X272034128Y-162111701D01*
X271947646Y-162062112D01*
X271867744Y-162016888D01*
X271797188Y-161977547D01*
X271738744Y-161945608D01*
X271695177Y-161922591D01*
X271669253Y-161910015D01*
X271663503Y-161908100D01*
X271640876Y-161913296D01*
X271608224Y-161926072D01*
X271602400Y-161928777D01*
X271559038Y-161949455D01*
X271452744Y-162347833D01*
X271346450Y-162746212D01*
X269733550Y-162746232D01*
X269520602Y-161949284D01*
X269477420Y-161928692D01*
X269444351Y-161915054D01*
X269419134Y-161908268D01*
X269416520Y-161908100D01*
X269401559Y-161914261D01*
X269367441Y-161931732D01*
X269316930Y-161958987D01*
X269252789Y-161994505D01*
X269177783Y-162036761D01*
X269094675Y-162084234D01*
X269046321Y-162112126D01*
X268693838Y-162316153D01*
X267554192Y-161176507D01*
X267758046Y-160823775D01*
X267807694Y-160737334D01*
X267852974Y-160657476D01*
X267892364Y-160586964D01*
X267924342Y-160528561D01*
X267947388Y-160485032D01*
X267959980Y-160459139D01*
X267961900Y-160453402D01*
X267956705Y-160430873D01*
X267943926Y-160398231D01*
X267941125Y-160392198D01*
X267936844Y-160382289D01*
X267933037Y-160373928D01*
X267927658Y-160366446D01*
X267918663Y-160359178D01*
X267904005Y-160351453D01*
X267881640Y-160342606D01*
X267849522Y-160331968D01*
X267805605Y-160318873D01*
X267747844Y-160302651D01*
X267674193Y-160282636D01*
X267582608Y-160258159D01*
X267471042Y-160228554D01*
X267337451Y-160193153D01*
X267304675Y-160184460D01*
X267123700Y-160136450D01*
X267123700Y-158661929D01*
X267301499Y-158661929D01*
X267301500Y-159329999D01*
X267301500Y-159998070D01*
X267653925Y-160091482D01*
X267745772Y-160115915D01*
X267830589Y-160138649D01*
X267904985Y-160158760D01*
X267965570Y-160175326D01*
X268008954Y-160187426D01*
X268031745Y-160194136D01*
X268033335Y-160194677D01*
X268056302Y-160214864D01*
X268081180Y-160258619D01*
X268092390Y-160284756D01*
X268112988Y-160336056D01*
X268133517Y-160386751D01*
X268146395Y-160418232D01*
X268168330Y-160471414D01*
X267986864Y-160786532D01*
X267939551Y-160868639D01*
X267895873Y-160944335D01*
X267857578Y-161010600D01*
X267826413Y-161064413D01*
X267804126Y-161102756D01*
X267792463Y-161122606D01*
X267791673Y-161123909D01*
X267790596Y-161130905D01*
X267794918Y-161142029D01*
X267805963Y-161158706D01*
X267825051Y-161182365D01*
X267853506Y-161214432D01*
X267892651Y-161256336D01*
X267943807Y-161309502D01*
X268008298Y-161375359D01*
X268087446Y-161455334D01*
X268182574Y-161550854D01*
X268247684Y-161616034D01*
X268337876Y-161706098D01*
X268422690Y-161790496D01*
X268500427Y-161867560D01*
X268569393Y-161935622D01*
X268627892Y-161993015D01*
X268674227Y-162038072D01*
X268706702Y-162069125D01*
X268723621Y-162084508D01*
X268725646Y-162085900D01*
X268738297Y-162079778D01*
X268770144Y-162062451D01*
X268818424Y-162035479D01*
X268880373Y-162000420D01*
X268953226Y-161958833D01*
X269034221Y-161912277D01*
X269065543Y-161894194D01*
X269160445Y-161839496D01*
X269235998Y-161796444D01*
X269294740Y-161763802D01*
X269339210Y-161740331D01*
X269371946Y-161724791D01*
X269395487Y-161715946D01*
X269412374Y-161712557D01*
X269425143Y-161713385D01*
X269432031Y-161715445D01*
X269459837Y-161726351D01*
X269502997Y-161743898D01*
X269553482Y-161764810D01*
X269568450Y-161771080D01*
X269670050Y-161813759D01*
X269770842Y-162191129D01*
X269871634Y-162568500D01*
X271208365Y-162568500D01*
X271309157Y-162191036D01*
X271409950Y-161813572D01*
X271546107Y-161757937D01*
X271682265Y-161702301D01*
X272009179Y-161890925D01*
X272092179Y-161938679D01*
X272168303Y-161982215D01*
X272234707Y-162019928D01*
X272288547Y-162050214D01*
X272326981Y-162071466D01*
X272347166Y-162082079D01*
X272349271Y-162082957D01*
X272360518Y-162074884D01*
X272387934Y-162050431D01*
X272429807Y-162011254D01*
X272484421Y-161959009D01*
X272550064Y-161895351D01*
X272625021Y-161821938D01*
X272707579Y-161740425D01*
X272796022Y-161652469D01*
X272832251Y-161616266D01*
X272937572Y-161510725D01*
X273026125Y-161421586D01*
X273099233Y-161347422D01*
X273158216Y-161286806D01*
X273204397Y-161238311D01*
X273239098Y-161200509D01*
X273263641Y-161171973D01*
X273279349Y-161151276D01*
X273287543Y-161136991D01*
X273289546Y-161127689D01*
X273288326Y-161123909D01*
X273278609Y-161107442D01*
X273257977Y-161071982D01*
X273228179Y-161020553D01*
X273190966Y-160956180D01*
X273148087Y-160881885D01*
X273101292Y-160800694D01*
X273093539Y-160787233D01*
X273040601Y-160695015D01*
X272999261Y-160622073D01*
X272968258Y-160565782D01*
X272946326Y-160523517D01*
X272932203Y-160492651D01*
X272924624Y-160470559D01*
X272922326Y-160454616D01*
X272924045Y-160442195D01*
X272925440Y-160437983D01*
X272936354Y-160410175D01*
X272953921Y-160367016D01*
X272974863Y-160316535D01*
X272981150Y-160301550D01*
X273023899Y-160199950D01*
X273401199Y-160099109D01*
X273778500Y-159998268D01*
X273778500Y-158661731D01*
X273401199Y-158560890D01*
X273023899Y-158460050D01*
X272981150Y-158358450D01*
X272959842Y-158307344D01*
X272940949Y-158261213D01*
X272927750Y-158228086D01*
X272925440Y-158222016D01*
X272922559Y-158210232D01*
X272923230Y-158195892D01*
X272928715Y-158176372D01*
X272940279Y-158149046D01*
X272959186Y-158111287D01*
X272986699Y-158060471D01*
X273024082Y-157993972D01*
X273072598Y-157909164D01*
X273093539Y-157872766D01*
X273140800Y-157790750D01*
X273184425Y-157715146D01*
X273222665Y-157648977D01*
X273253769Y-157595269D01*
X273275989Y-157557044D01*
X273287575Y-157537328D01*
X273288326Y-157536090D01*
X273289403Y-157529094D01*
X273285080Y-157517969D01*
X273274038Y-157501288D01*
X273254952Y-157477625D01*
X273226502Y-157445552D01*
X273187364Y-157403641D01*
X273136218Y-157350466D01*
X273071741Y-157284599D01*
X272992610Y-157204612D01*
X272897504Y-157109080D01*
X272832251Y-157043733D01*
X272741952Y-156953685D01*
X272656862Y-156869425D01*
X272578694Y-156792611D01*
X272509162Y-156724897D01*
X272449980Y-156667939D01*
X272402863Y-156623395D01*
X272369524Y-156592920D01*
X272351677Y-156578171D01*
X272349271Y-156577042D01*
X272335312Y-156584036D01*
X272302224Y-156602166D01*
X272252848Y-156629827D01*
X272190030Y-156665413D01*
X272116611Y-156707318D01*
X272035436Y-156753937D01*
X272009179Y-156769074D01*
X271682265Y-156957698D01*
X271546107Y-156902062D01*
X271409950Y-156846427D01*
X271309157Y-156468963D01*
X271208365Y-156091500D01*
X270539999Y-156091500D01*
X269871634Y-156091499D01*
X269770842Y-156468870D01*
X269670050Y-156846240D01*
X269568450Y-156888919D01*
X269517340Y-156910196D01*
X269471211Y-156929065D01*
X269438091Y-156942248D01*
X269432031Y-156944554D01*
X269420531Y-156947356D01*
X269406470Y-156946699D01*
X269387311Y-156941347D01*
X269360514Y-156930059D01*
X269323541Y-156911599D01*
X269273852Y-156884727D01*
X269208909Y-156848206D01*
X269126173Y-156800796D01*
X269065543Y-156765805D01*
X268982247Y-156717812D01*
X268906075Y-156674214D01*
X268839790Y-156636570D01*
X268786156Y-156606439D01*
X268747937Y-156585380D01*
X268727897Y-156574952D01*
X268725646Y-156574100D01*
X268715351Y-156582821D01*
X268688829Y-156607872D01*
X268647775Y-156647587D01*
X268593887Y-156700298D01*
X268528861Y-156764338D01*
X268454391Y-156838039D01*
X268372175Y-156919734D01*
X268283908Y-157007755D01*
X268247684Y-157043965D01*
X268142362Y-157149469D01*
X268053811Y-157238574D01*
X267980709Y-157312707D01*
X267921733Y-157373296D01*
X267875559Y-157421767D01*
X267840867Y-157459548D01*
X267816333Y-157488067D01*
X267800634Y-157508750D01*
X267792449Y-157523025D01*
X267790454Y-157532319D01*
X267791673Y-157536090D01*
X267801386Y-157552551D01*
X267822017Y-157588008D01*
X267851818Y-157639443D01*
X267889041Y-157703835D01*
X267931940Y-157778163D01*
X267978767Y-157859407D01*
X267986864Y-157873467D01*
X268168330Y-158188585D01*
X268146395Y-158241767D01*
X268129637Y-158282795D01*
X268108678Y-158334640D01*
X268092390Y-158375243D01*
X268067017Y-158428792D01*
X268043080Y-158459495D01*
X268033335Y-158465322D01*
X268014403Y-158471019D01*
X267974300Y-158482262D01*
X267916415Y-158498130D01*
X267844140Y-158517701D01*
X267760864Y-158540051D01*
X267669978Y-158564260D01*
X267653925Y-158568517D01*
X267301499Y-158661929D01*
X267123700Y-158661929D01*
X267123700Y-158523550D01*
X267304675Y-158475539D01*
X267443422Y-158438763D01*
X267559690Y-158407932D01*
X267655525Y-158382377D01*
X267732971Y-158361431D01*
X267794076Y-158344427D01*
X267840883Y-158330696D01*
X267875438Y-158319571D01*
X267899787Y-158310385D01*
X267915976Y-158302470D01*
X267926049Y-158295158D01*
X267932053Y-158287781D01*
X267936032Y-158279672D01*
X267940032Y-158270164D01*
X267941125Y-158267801D01*
X267954830Y-158234653D01*
X267961710Y-158209372D01*
X267961900Y-158206597D01*
X267955745Y-158191651D01*
X267938295Y-158157539D01*
X267911072Y-158107025D01*
X267875595Y-158042872D01*
X267833387Y-157967844D01*
X267785967Y-157884704D01*
X267758046Y-157836224D01*
X267554192Y-157483492D01*
X268693781Y-156343903D01*
X269046762Y-156547901D01*
X269133215Y-156597564D01*
X269213064Y-156642859D01*
X269283552Y-156682266D01*
X269341921Y-156714265D01*
X269385410Y-156737337D01*
X269411262Y-156749960D01*
X269416991Y-156751900D01*
X269439279Y-156746714D01*
X269471700Y-156733966D01*
X269477420Y-156731307D01*
X269520602Y-156710715D01*
X269733550Y-155913767D01*
X271346450Y-155913787D01*
G36*
X270405190Y-156284182D02*
G01*
X270528198Y-156284929D01*
X270543004Y-156285028D01*
X271039503Y-156288350D01*
X271074386Y-156415350D01*
X271089703Y-156471518D01*
X271109547Y-156544872D01*
X271131932Y-156628047D01*
X271154875Y-156713675D01*
X271169026Y-156766703D01*
X271228783Y-156991057D01*
X271344286Y-157031391D01*
X271411610Y-157056487D01*
X271487763Y-157087294D01*
X271558863Y-157118144D01*
X271575385Y-157125742D01*
X271690981Y-157179761D01*
X272007519Y-156997517D01*
X272324057Y-156815274D01*
X272675178Y-157166227D01*
X273026298Y-157517179D01*
X272867683Y-157791764D01*
X272822511Y-157869961D01*
X272780217Y-157943172D01*
X272742890Y-158007778D01*
X272712623Y-158060161D01*
X272691505Y-158096702D01*
X272683285Y-158110918D01*
X272657502Y-158155487D01*
X272705791Y-158250618D01*
X272731514Y-158305308D01*
X272760559Y-158373301D01*
X272788385Y-158443744D01*
X272801165Y-158478581D01*
X272848249Y-158611413D01*
X273205424Y-158706289D01*
X273562600Y-158801165D01*
X273562600Y-159795920D01*
X272846612Y-159986274D01*
X272810826Y-160093112D01*
X272788587Y-160153940D01*
X272759679Y-160225379D01*
X272729034Y-160295442D01*
X272716799Y-160321641D01*
X272658559Y-160443332D01*
X273026281Y-161076250D01*
X272674830Y-161429132D01*
X272323378Y-161782014D01*
X272007256Y-161599341D01*
X271691134Y-161416667D01*
X271575461Y-161470721D01*
X271508099Y-161500615D01*
X271431948Y-161531992D01*
X271360877Y-161559191D01*
X271344286Y-161565108D01*
X271228783Y-161605442D01*
X271168931Y-161829796D01*
X271146705Y-161913088D01*
X271123859Y-161998672D01*
X271102359Y-162079186D01*
X271084169Y-162147269D01*
X271075111Y-162181150D01*
X271041143Y-162308150D01*
X270543824Y-162311471D01*
X270418093Y-162312251D01*
X270315402Y-162312689D01*
X270233390Y-162312695D01*
X270169698Y-162312179D01*
X270121966Y-162311053D01*
X270087835Y-162309228D01*
X270064944Y-162306614D01*
X270050935Y-162303122D01*
X270043447Y-162298662D01*
X270040121Y-162293147D01*
X270039893Y-162292421D01*
X270034770Y-162273924D01*
X270024169Y-162234811D01*
X270009148Y-162179012D01*
X269990764Y-162110458D01*
X269970075Y-162033076D01*
X269962141Y-162003350D01*
X269939954Y-161920333D01*
X269918815Y-161841535D01*
X269900008Y-161771717D01*
X269884818Y-161715644D01*
X269874527Y-161678079D01*
X269872768Y-161671773D01*
X269854535Y-161606896D01*
X269740443Y-161566084D01*
X269673829Y-161540538D01*
X269598487Y-161509027D01*
X269528190Y-161477368D01*
X269512153Y-161469690D01*
X269397954Y-161414109D01*
X269078507Y-161599280D01*
X268759059Y-161784452D01*
X268408104Y-161433373D01*
X268057150Y-161082293D01*
X268077099Y-161047521D01*
X268088784Y-161027197D01*
X268111187Y-160988270D01*
X268142345Y-160934148D01*
X268180298Y-160868238D01*
X268223083Y-160793947D01*
X268259584Y-160730575D01*
X268422121Y-160448400D01*
X268363965Y-160317825D01*
X268335346Y-160251463D01*
X268306287Y-160180567D01*
X268281142Y-160115901D01*
X268270380Y-160086387D01*
X268234950Y-159985524D01*
X267895780Y-159894284D01*
X267806176Y-159870100D01*
X267724019Y-159847774D01*
X267652680Y-159828235D01*
X267595531Y-159812412D01*
X267555943Y-159801231D01*
X267537288Y-159795622D01*
X267536856Y-159795463D01*
X267531818Y-159791241D01*
X267527752Y-159781285D01*
X267524579Y-159763268D01*
X267522223Y-159734864D01*
X267520609Y-159693747D01*
X267520304Y-159675683D01*
X269174083Y-159675683D01*
X269174482Y-159690868D01*
X269183359Y-159723896D01*
X269198762Y-159769449D01*
X269218737Y-159822213D01*
X269241331Y-159876870D01*
X269264590Y-159928105D01*
X269273388Y-159945950D01*
X269365671Y-160100520D01*
X269478635Y-160243296D01*
X269609308Y-160371716D01*
X269754719Y-160483219D01*
X269911897Y-160575245D01*
X270077870Y-160645232D01*
X270089031Y-160649004D01*
X270128634Y-160661761D01*
X270156884Y-160670061D01*
X270167146Y-160672085D01*
X270170788Y-160659736D01*
X270180154Y-160625787D01*
X270194448Y-160573184D01*
X270212874Y-160504876D01*
X270234635Y-160423810D01*
X270258934Y-160332935D01*
X270272384Y-160282500D01*
X270297964Y-160186593D01*
X270321647Y-160097996D01*
X270342588Y-160019848D01*
X270359944Y-159955292D01*
X270372872Y-159907469D01*
X270380527Y-159879520D01*
X270382094Y-159874044D01*
X270381442Y-159869750D01*
X270705359Y-159869750D01*
X270708450Y-159884053D01*
X270717186Y-159919276D01*
X270730615Y-159971811D01*
X270747782Y-160038050D01*
X270767731Y-160114387D01*
X270789510Y-160197213D01*
X270812163Y-160282922D01*
X270834735Y-160367904D01*
X270856274Y-160448553D01*
X270875824Y-160521262D01*
X270892430Y-160582422D01*
X270905139Y-160628426D01*
X270912997Y-160655666D01*
X270914507Y-160660335D01*
X270928554Y-160664406D01*
X270960987Y-160658548D01*
X271007528Y-160644303D01*
X271063901Y-160623213D01*
X271125829Y-160596817D01*
X271189034Y-160566658D01*
X271221563Y-160549689D01*
X271381156Y-160449395D01*
X271524722Y-160329472D01*
X271651685Y-160190449D01*
X271731985Y-160079601D01*
X271771809Y-160014126D01*
X271811581Y-159940353D01*
X271848155Y-159864930D01*
X271878386Y-159794501D01*
X271899125Y-159735714D01*
X271904399Y-159715403D01*
X271907940Y-159687634D01*
X271898387Y-159672859D01*
X271871064Y-159661981D01*
X271842910Y-159653658D01*
X271796476Y-159640663D01*
X271735349Y-159623945D01*
X271663115Y-159604447D01*
X271583362Y-159583117D01*
X271499675Y-159560900D01*
X271415642Y-159538742D01*
X271334849Y-159517589D01*
X271260883Y-159498387D01*
X271197330Y-159482082D01*
X271147778Y-159469620D01*
X271115813Y-159461947D01*
X271105010Y-159459941D01*
X271098664Y-159472235D01*
X271084435Y-159501527D01*
X271065229Y-159541822D01*
X271062478Y-159547641D01*
X271003404Y-159644301D01*
X270925107Y-159728547D01*
X270832593Y-159795379D01*
X270794430Y-159815320D01*
X270752266Y-159836644D01*
X270720867Y-159855409D01*
X270705889Y-159868160D01*
X270705359Y-159869750D01*
X270381442Y-159869750D01*
X270379467Y-159856746D01*
X270355777Y-159845806D01*
X270350618Y-159844595D01*
X270308156Y-159828401D01*
X270255228Y-159798286D01*
X270198676Y-159758919D01*
X270145339Y-159714972D01*
X270110464Y-159680623D01*
X270078207Y-159640297D01*
X270046508Y-159592189D01*
X270019296Y-159543309D01*
X270000502Y-159500671D01*
X269994024Y-159472875D01*
X269987856Y-159458146D01*
X269984375Y-159457074D01*
X269969273Y-159460280D01*
X269933475Y-159469204D01*
X269880511Y-159482895D01*
X269813909Y-159500401D01*
X269737198Y-159520770D01*
X269653909Y-159543049D01*
X269567570Y-159566287D01*
X269481710Y-159589530D01*
X269399858Y-159611829D01*
X269325544Y-159632229D01*
X269262296Y-159649779D01*
X269213644Y-159663527D01*
X269183118Y-159672520D01*
X269174083Y-159675683D01*
X267520304Y-159675683D01*
X267519660Y-159637591D01*
X267519299Y-159564072D01*
X267519449Y-159470862D01*
X267520036Y-159355637D01*
X267520425Y-159295416D01*
X267522971Y-158918187D01*
X269173473Y-158918187D01*
X269174489Y-158921222D01*
X269187717Y-158925843D01*
X269221953Y-158935984D01*
X269273643Y-158950683D01*
X269339237Y-158968980D01*
X269415183Y-158989914D01*
X269497928Y-159012524D01*
X269583920Y-159035847D01*
X269669608Y-159058924D01*
X269751439Y-159080793D01*
X269825862Y-159100494D01*
X269889324Y-159117064D01*
X269938275Y-159129544D01*
X269969160Y-159136971D01*
X269978025Y-159138645D01*
X269992785Y-159129578D01*
X269994024Y-159123625D01*
X269999164Y-159104050D01*
X270012298Y-159070170D01*
X270025115Y-159041234D01*
X270073712Y-158961705D01*
X270140965Y-158886264D01*
X270220201Y-158820922D01*
X270304751Y-158771690D01*
X270340308Y-158757239D01*
X270369265Y-158743810D01*
X270383327Y-158730654D01*
X270383483Y-158727253D01*
X270383339Y-158726750D01*
X270705359Y-158726750D01*
X270716167Y-158737860D01*
X270744519Y-158755630D01*
X270784687Y-158776539D01*
X270792317Y-158780171D01*
X270888224Y-158838432D01*
X270972614Y-158915834D01*
X271040140Y-159007020D01*
X271064276Y-159052567D01*
X271084426Y-159094059D01*
X271100860Y-159124681D01*
X271110517Y-159138798D01*
X271111314Y-159139151D01*
X271124723Y-159135888D01*
X271159694Y-159126796D01*
X271213266Y-159112662D01*
X271282477Y-159094272D01*
X271364365Y-159072412D01*
X271455969Y-159047868D01*
X271511550Y-159032936D01*
X271905250Y-158927068D01*
X271902044Y-158887369D01*
X271892993Y-158846079D01*
X271872621Y-158788965D01*
X271843460Y-158721492D01*
X271808042Y-158649125D01*
X271768897Y-158577331D01*
X271728557Y-158511576D01*
X271726723Y-158508799D01*
X271614658Y-158362426D01*
X271483492Y-158231356D01*
X271335731Y-158117536D01*
X271173876Y-158022912D01*
X271012632Y-157953749D01*
X270962113Y-157936965D01*
X270931176Y-157930341D01*
X270916397Y-157933268D01*
X270914460Y-157936288D01*
X270908692Y-157955479D01*
X270897711Y-157994800D01*
X270882471Y-158050641D01*
X270863927Y-158119396D01*
X270843033Y-158197457D01*
X270820744Y-158281216D01*
X270798013Y-158367065D01*
X270775795Y-158451398D01*
X270755044Y-158530605D01*
X270736716Y-158601080D01*
X270721763Y-158659215D01*
X270711141Y-158701401D01*
X270705803Y-158724032D01*
X270705359Y-158726750D01*
X270383339Y-158726750D01*
X270379153Y-158712167D01*
X270369111Y-158675561D01*
X270354174Y-158620459D01*
X270335157Y-158549887D01*
X270312877Y-158466871D01*
X270288149Y-158374436D01*
X270273281Y-158318728D01*
X270167863Y-157923406D01*
X270126237Y-157934900D01*
X269977300Y-157988267D01*
X269830960Y-158064101D01*
X269690694Y-158159482D01*
X269559979Y-158271491D01*
X269442295Y-158397211D01*
X269341118Y-158533721D01*
X269273477Y-158650550D01*
X269250033Y-158699886D01*
X269226722Y-158754380D01*
X269205476Y-158808746D01*
X269188230Y-158857694D01*
X269176918Y-158895936D01*
X269173473Y-158918187D01*
X267522971Y-158918187D01*
X267523750Y-158802950D01*
X268234950Y-158611816D01*
X268270380Y-158510533D01*
X268291434Y-158453868D01*
X268318847Y-158384970D01*
X268348259Y-158314635D01*
X268363965Y-158278674D01*
X268422121Y-158148099D01*
X268259584Y-157865924D01*
X268214340Y-157787372D01*
X268172354Y-157714467D01*
X268135588Y-157650616D01*
X268106004Y-157599226D01*
X268085564Y-157563704D01*
X268077099Y-157548978D01*
X268057150Y-157514206D01*
X268758682Y-156812424D01*
X269077791Y-156997306D01*
X269396899Y-157182188D01*
X269527124Y-157120229D01*
X269591803Y-157090740D01*
X269659974Y-157061757D01*
X269721591Y-157037464D01*
X269751504Y-157026790D01*
X269797422Y-157009754D01*
X269833594Y-156993204D01*
X269853388Y-156980248D01*
X269854788Y-156978380D01*
X269860422Y-156961919D01*
X269871546Y-156924361D01*
X269887190Y-156869176D01*
X269906380Y-156799830D01*
X269928146Y-156719792D01*
X269948478Y-156643950D01*
X269971644Y-156557080D01*
X269992911Y-156477536D01*
X270011328Y-156408859D01*
X270025945Y-156354591D01*
X270035809Y-156318273D01*
X270039772Y-156304078D01*
X270042796Y-156298427D01*
X270049703Y-156293845D01*
X270062854Y-156290243D01*
X270084613Y-156287530D01*
X270117341Y-156285617D01*
X270163401Y-156284415D01*
X270225154Y-156283835D01*
X270304963Y-156283787D01*
X270405190Y-156284182D01*
G37*
X270405190Y-156284182D02*
X270528198Y-156284929D01*
X270543004Y-156285028D01*
X271039503Y-156288350D01*
X271074386Y-156415350D01*
X271089703Y-156471518D01*
X271109547Y-156544872D01*
X271131932Y-156628047D01*
X271154875Y-156713675D01*
X271169026Y-156766703D01*
X271228783Y-156991057D01*
X271344286Y-157031391D01*
X271411610Y-157056487D01*
X271487763Y-157087294D01*
X271558863Y-157118144D01*
X271575385Y-157125742D01*
X271690981Y-157179761D01*
X272007519Y-156997517D01*
X272324057Y-156815274D01*
X272675178Y-157166227D01*
X273026298Y-157517179D01*
X272867683Y-157791764D01*
X272822511Y-157869961D01*
X272780217Y-157943172D01*
X272742890Y-158007778D01*
X272712623Y-158060161D01*
X272691505Y-158096702D01*
X272683285Y-158110918D01*
X272657502Y-158155487D01*
X272705791Y-158250618D01*
X272731514Y-158305308D01*
X272760559Y-158373301D01*
X272788385Y-158443744D01*
X272801165Y-158478581D01*
X272848249Y-158611413D01*
X273205424Y-158706289D01*
X273562600Y-158801165D01*
X273562600Y-159795920D01*
X272846612Y-159986274D01*
X272810826Y-160093112D01*
X272788587Y-160153940D01*
X272759679Y-160225379D01*
X272729034Y-160295442D01*
X272716799Y-160321641D01*
X272658559Y-160443332D01*
X273026281Y-161076250D01*
X272674830Y-161429132D01*
X272323378Y-161782014D01*
X272007256Y-161599341D01*
X271691134Y-161416667D01*
X271575461Y-161470721D01*
X271508099Y-161500615D01*
X271431948Y-161531992D01*
X271360877Y-161559191D01*
X271344286Y-161565108D01*
X271228783Y-161605442D01*
X271168931Y-161829796D01*
X271146705Y-161913088D01*
X271123859Y-161998672D01*
X271102359Y-162079186D01*
X271084169Y-162147269D01*
X271075111Y-162181150D01*
X271041143Y-162308150D01*
X270543824Y-162311471D01*
X270418093Y-162312251D01*
X270315402Y-162312689D01*
X270233390Y-162312695D01*
X270169698Y-162312179D01*
X270121966Y-162311053D01*
X270087835Y-162309228D01*
X270064944Y-162306614D01*
X270050935Y-162303122D01*
X270043447Y-162298662D01*
X270040121Y-162293147D01*
X270039893Y-162292421D01*
X270034770Y-162273924D01*
X270024169Y-162234811D01*
X270009148Y-162179012D01*
X269990764Y-162110458D01*
X269970075Y-162033076D01*
X269962141Y-162003350D01*
X269939954Y-161920333D01*
X269918815Y-161841535D01*
X269900008Y-161771717D01*
X269884818Y-161715644D01*
X269874527Y-161678079D01*
X269872768Y-161671773D01*
X269854535Y-161606896D01*
X269740443Y-161566084D01*
X269673829Y-161540538D01*
X269598487Y-161509027D01*
X269528190Y-161477368D01*
X269512153Y-161469690D01*
X269397954Y-161414109D01*
X269078507Y-161599280D01*
X268759059Y-161784452D01*
X268408104Y-161433373D01*
X268057150Y-161082293D01*
X268077099Y-161047521D01*
X268088784Y-161027197D01*
X268111187Y-160988270D01*
X268142345Y-160934148D01*
X268180298Y-160868238D01*
X268223083Y-160793947D01*
X268259584Y-160730575D01*
X268422121Y-160448400D01*
X268363965Y-160317825D01*
X268335346Y-160251463D01*
X268306287Y-160180567D01*
X268281142Y-160115901D01*
X268270380Y-160086387D01*
X268234950Y-159985524D01*
X267895780Y-159894284D01*
X267806176Y-159870100D01*
X267724019Y-159847774D01*
X267652680Y-159828235D01*
X267595531Y-159812412D01*
X267555943Y-159801231D01*
X267537288Y-159795622D01*
X267536856Y-159795463D01*
X267531818Y-159791241D01*
X267527752Y-159781285D01*
X267524579Y-159763268D01*
X267522223Y-159734864D01*
X267520609Y-159693747D01*
X267520304Y-159675683D01*
X269174083Y-159675683D01*
X269174482Y-159690868D01*
X269183359Y-159723896D01*
X269198762Y-159769449D01*
X269218737Y-159822213D01*
X269241331Y-159876870D01*
X269264590Y-159928105D01*
X269273388Y-159945950D01*
X269365671Y-160100520D01*
X269478635Y-160243296D01*
X269609308Y-160371716D01*
X269754719Y-160483219D01*
X269911897Y-160575245D01*
X270077870Y-160645232D01*
X270089031Y-160649004D01*
X270128634Y-160661761D01*
X270156884Y-160670061D01*
X270167146Y-160672085D01*
X270170788Y-160659736D01*
X270180154Y-160625787D01*
X270194448Y-160573184D01*
X270212874Y-160504876D01*
X270234635Y-160423810D01*
X270258934Y-160332935D01*
X270272384Y-160282500D01*
X270297964Y-160186593D01*
X270321647Y-160097996D01*
X270342588Y-160019848D01*
X270359944Y-159955292D01*
X270372872Y-159907469D01*
X270380527Y-159879520D01*
X270382094Y-159874044D01*
X270381442Y-159869750D01*
X270705359Y-159869750D01*
X270708450Y-159884053D01*
X270717186Y-159919276D01*
X270730615Y-159971811D01*
X270747782Y-160038050D01*
X270767731Y-160114387D01*
X270789510Y-160197213D01*
X270812163Y-160282922D01*
X270834735Y-160367904D01*
X270856274Y-160448553D01*
X270875824Y-160521262D01*
X270892430Y-160582422D01*
X270905139Y-160628426D01*
X270912997Y-160655666D01*
X270914507Y-160660335D01*
X270928554Y-160664406D01*
X270960987Y-160658548D01*
X271007528Y-160644303D01*
X271063901Y-160623213D01*
X271125829Y-160596817D01*
X271189034Y-160566658D01*
X271221563Y-160549689D01*
X271381156Y-160449395D01*
X271524722Y-160329472D01*
X271651685Y-160190449D01*
X271731985Y-160079601D01*
X271771809Y-160014126D01*
X271811581Y-159940353D01*
X271848155Y-159864930D01*
X271878386Y-159794501D01*
X271899125Y-159735714D01*
X271904399Y-159715403D01*
X271907940Y-159687634D01*
X271898387Y-159672859D01*
X271871064Y-159661981D01*
X271842910Y-159653658D01*
X271796476Y-159640663D01*
X271735349Y-159623945D01*
X271663115Y-159604447D01*
X271583362Y-159583117D01*
X271499675Y-159560900D01*
X271415642Y-159538742D01*
X271334849Y-159517589D01*
X271260883Y-159498387D01*
X271197330Y-159482082D01*
X271147778Y-159469620D01*
X271115813Y-159461947D01*
X271105010Y-159459941D01*
X271098664Y-159472235D01*
X271084435Y-159501527D01*
X271065229Y-159541822D01*
X271062478Y-159547641D01*
X271003404Y-159644301D01*
X270925107Y-159728547D01*
X270832593Y-159795379D01*
X270794430Y-159815320D01*
X270752266Y-159836644D01*
X270720867Y-159855409D01*
X270705889Y-159868160D01*
X270705359Y-159869750D01*
X270381442Y-159869750D01*
X270379467Y-159856746D01*
X270355777Y-159845806D01*
X270350618Y-159844595D01*
X270308156Y-159828401D01*
X270255228Y-159798286D01*
X270198676Y-159758919D01*
X270145339Y-159714972D01*
X270110464Y-159680623D01*
X270078207Y-159640297D01*
X270046508Y-159592189D01*
X270019296Y-159543309D01*
X270000502Y-159500671D01*
X269994024Y-159472875D01*
X269987856Y-159458146D01*
X269984375Y-159457074D01*
X269969273Y-159460280D01*
X269933475Y-159469204D01*
X269880511Y-159482895D01*
X269813909Y-159500401D01*
X269737198Y-159520770D01*
X269653909Y-159543049D01*
X269567570Y-159566287D01*
X269481710Y-159589530D01*
X269399858Y-159611829D01*
X269325544Y-159632229D01*
X269262296Y-159649779D01*
X269213644Y-159663527D01*
X269183118Y-159672520D01*
X269174083Y-159675683D01*
X267520304Y-159675683D01*
X267519660Y-159637591D01*
X267519299Y-159564072D01*
X267519449Y-159470862D01*
X267520036Y-159355637D01*
X267520425Y-159295416D01*
X267522971Y-158918187D01*
X269173473Y-158918187D01*
X269174489Y-158921222D01*
X269187717Y-158925843D01*
X269221953Y-158935984D01*
X269273643Y-158950683D01*
X269339237Y-158968980D01*
X269415183Y-158989914D01*
X269497928Y-159012524D01*
X269583920Y-159035847D01*
X269669608Y-159058924D01*
X269751439Y-159080793D01*
X269825862Y-159100494D01*
X269889324Y-159117064D01*
X269938275Y-159129544D01*
X269969160Y-159136971D01*
X269978025Y-159138645D01*
X269992785Y-159129578D01*
X269994024Y-159123625D01*
X269999164Y-159104050D01*
X270012298Y-159070170D01*
X270025115Y-159041234D01*
X270073712Y-158961705D01*
X270140965Y-158886264D01*
X270220201Y-158820922D01*
X270304751Y-158771690D01*
X270340308Y-158757239D01*
X270369265Y-158743810D01*
X270383327Y-158730654D01*
X270383483Y-158727253D01*
X270383339Y-158726750D01*
X270705359Y-158726750D01*
X270716167Y-158737860D01*
X270744519Y-158755630D01*
X270784687Y-158776539D01*
X270792317Y-158780171D01*
X270888224Y-158838432D01*
X270972614Y-158915834D01*
X271040140Y-159007020D01*
X271064276Y-159052567D01*
X271084426Y-159094059D01*
X271100860Y-159124681D01*
X271110517Y-159138798D01*
X271111314Y-159139151D01*
X271124723Y-159135888D01*
X271159694Y-159126796D01*
X271213266Y-159112662D01*
X271282477Y-159094272D01*
X271364365Y-159072412D01*
X271455969Y-159047868D01*
X271511550Y-159032936D01*
X271905250Y-158927068D01*
X271902044Y-158887369D01*
X271892993Y-158846079D01*
X271872621Y-158788965D01*
X271843460Y-158721492D01*
X271808042Y-158649125D01*
X271768897Y-158577331D01*
X271728557Y-158511576D01*
X271726723Y-158508799D01*
X271614658Y-158362426D01*
X271483492Y-158231356D01*
X271335731Y-158117536D01*
X271173876Y-158022912D01*
X271012632Y-157953749D01*
X270962113Y-157936965D01*
X270931176Y-157930341D01*
X270916397Y-157933268D01*
X270914460Y-157936288D01*
X270908692Y-157955479D01*
X270897711Y-157994800D01*
X270882471Y-158050641D01*
X270863927Y-158119396D01*
X270843033Y-158197457D01*
X270820744Y-158281216D01*
X270798013Y-158367065D01*
X270775795Y-158451398D01*
X270755044Y-158530605D01*
X270736716Y-158601080D01*
X270721763Y-158659215D01*
X270711141Y-158701401D01*
X270705803Y-158724032D01*
X270705359Y-158726750D01*
X270383339Y-158726750D01*
X270379153Y-158712167D01*
X270369111Y-158675561D01*
X270354174Y-158620459D01*
X270335157Y-158549887D01*
X270312877Y-158466871D01*
X270288149Y-158374436D01*
X270273281Y-158318728D01*
X270167863Y-157923406D01*
X270126237Y-157934900D01*
X269977300Y-157988267D01*
X269830960Y-158064101D01*
X269690694Y-158159482D01*
X269559979Y-158271491D01*
X269442295Y-158397211D01*
X269341118Y-158533721D01*
X269273477Y-158650550D01*
X269250033Y-158699886D01*
X269226722Y-158754380D01*
X269205476Y-158808746D01*
X269188230Y-158857694D01*
X269176918Y-158895936D01*
X269173473Y-158918187D01*
X267522971Y-158918187D01*
X267523750Y-158802950D01*
X268234950Y-158611816D01*
X268270380Y-158510533D01*
X268291434Y-158453868D01*
X268318847Y-158384970D01*
X268348259Y-158314635D01*
X268363965Y-158278674D01*
X268422121Y-158148099D01*
X268259584Y-157865924D01*
X268214340Y-157787372D01*
X268172354Y-157714467D01*
X268135588Y-157650616D01*
X268106004Y-157599226D01*
X268085564Y-157563704D01*
X268077099Y-157548978D01*
X268057150Y-157514206D01*
X268758682Y-156812424D01*
X269077791Y-156997306D01*
X269396899Y-157182188D01*
X269527124Y-157120229D01*
X269591803Y-157090740D01*
X269659974Y-157061757D01*
X269721591Y-157037464D01*
X269751504Y-157026790D01*
X269797422Y-157009754D01*
X269833594Y-156993204D01*
X269853388Y-156980248D01*
X269854788Y-156978380D01*
X269860422Y-156961919D01*
X269871546Y-156924361D01*
X269887190Y-156869176D01*
X269906380Y-156799830D01*
X269928146Y-156719792D01*
X269948478Y-156643950D01*
X269971644Y-156557080D01*
X269992911Y-156477536D01*
X270011328Y-156408859D01*
X270025945Y-156354591D01*
X270035809Y-156318273D01*
X270039772Y-156304078D01*
X270042796Y-156298427D01*
X270049703Y-156293845D01*
X270062854Y-156290243D01*
X270084613Y-156287530D01*
X270117341Y-156285617D01*
X270163401Y-156284415D01*
X270225154Y-156283835D01*
X270304963Y-156283787D01*
X270405190Y-156284182D01*
%TD*%
%TO.C,LED3*%
G36*
G01*
X193808000Y-162842000D02*
X193808000Y-161318000D01*
G75*
G02*
X193858000Y-161268000I50000J0D01*
G01*
X195382000Y-161268000D01*
G75*
G02*
X195432000Y-161318000I0J-50000D01*
G01*
X195432000Y-162842000D01*
G75*
G02*
X195382000Y-162892000I-50000J0D01*
G01*
X193858000Y-162892000D01*
G75*
G02*
X193808000Y-162842000I0J50000D01*
G01*
G37*
G36*
G01*
X193808000Y-160302000D02*
X193808000Y-158778000D01*
G75*
G02*
X193858000Y-158728000I50000J0D01*
G01*
X195382000Y-158728000D01*
G75*
G02*
X195432000Y-158778000I0J-50000D01*
G01*
X195432000Y-160302000D01*
G75*
G02*
X195382000Y-160352000I-50000J0D01*
G01*
X193858000Y-160352000D01*
G75*
G02*
X193808000Y-160302000I0J50000D01*
G01*
G37*
G36*
G01*
X193808000Y-157762000D02*
X193808000Y-156238000D01*
G75*
G02*
X193858000Y-156188000I50000J0D01*
G01*
X195382000Y-156188000D01*
G75*
G02*
X195432000Y-156238000I0J-50000D01*
G01*
X195432000Y-157762000D01*
G75*
G02*
X195382000Y-157812000I-50000J0D01*
G01*
X193858000Y-157812000D01*
G75*
G02*
X193808000Y-157762000I0J50000D01*
G01*
G37*
%TD*%
%TO.C,LED1*%
G36*
G01*
X192158000Y-103642000D02*
X192158000Y-102118000D01*
G75*
G02*
X192208000Y-102068000I50000J0D01*
G01*
X193732000Y-102068000D01*
G75*
G02*
X193782000Y-102118000I0J-50000D01*
G01*
X193782000Y-103642000D01*
G75*
G02*
X193732000Y-103692000I-50000J0D01*
G01*
X192208000Y-103692000D01*
G75*
G02*
X192158000Y-103642000I0J50000D01*
G01*
G37*
G36*
G01*
X192158000Y-101102000D02*
X192158000Y-99578000D01*
G75*
G02*
X192208000Y-99528000I50000J0D01*
G01*
X193732000Y-99528000D01*
G75*
G02*
X193782000Y-99578000I0J-50000D01*
G01*
X193782000Y-101102000D01*
G75*
G02*
X193732000Y-101152000I-50000J0D01*
G01*
X192208000Y-101152000D01*
G75*
G02*
X192158000Y-101102000I0J50000D01*
G01*
G37*
G36*
G01*
X192158000Y-98562000D02*
X192158000Y-97038000D01*
G75*
G02*
X192208000Y-96988000I50000J0D01*
G01*
X193732000Y-96988000D01*
G75*
G02*
X193782000Y-97038000I0J-50000D01*
G01*
X193782000Y-98562000D01*
G75*
G02*
X193732000Y-98612000I-50000J0D01*
G01*
X192208000Y-98612000D01*
G75*
G02*
X192158000Y-98562000I0J50000D01*
G01*
G37*
%TD*%
D12*
%TO.C,U2*%
X195000000Y-143900000D03*
X217000000Y-143900000D03*
X217000000Y-120100000D03*
X195000000Y-120100000D03*
D13*
X209810000Y-119570000D03*
X207270000Y-119570000D03*
G36*
G01*
X202990000Y-120620000D02*
X201390000Y-120620000D01*
G75*
G02*
X201340000Y-120570000I0J50000D01*
G01*
X201340000Y-118570000D01*
G75*
G02*
X201390000Y-118520000I50000J0D01*
G01*
X202990000Y-118520000D01*
G75*
G02*
X203040000Y-118570000I0J-50000D01*
G01*
X203040000Y-120570000D01*
G75*
G02*
X202990000Y-120620000I-50000J0D01*
G01*
G37*
X204730000Y-119570000D03*
%TD*%
D14*
%TO.C,USB1*%
X84950000Y-81180000D03*
X79170000Y-81180000D03*
D15*
X77740000Y-81710000D03*
X86380000Y-81710000D03*
D16*
X77740000Y-77530000D03*
X86380000Y-77530000D03*
%TD*%
D17*
%TO.C,MX_ec11_7*%
X208560000Y-95480000D03*
D18*
X206020000Y-100560000D03*
D19*
X202210000Y-98020000D03*
D20*
X200940000Y-100560000D03*
X211100000Y-100560000D03*
D21*
X211630000Y-100700000D03*
D22*
X203530000Y-108200000D03*
X208530000Y-108200000D03*
D23*
X208530000Y-94700000D03*
D21*
X200430000Y-100700000D03*
D22*
X203530000Y-93700000D03*
G36*
G01*
X207030000Y-109250000D02*
X205030000Y-109250000D01*
G75*
G02*
X204980000Y-109200000I0J50000D01*
G01*
X204980000Y-107200000D01*
G75*
G02*
X205030000Y-107150000I50000J0D01*
G01*
X207030000Y-107150000D01*
G75*
G02*
X207080000Y-107200000I0J-50000D01*
G01*
X207080000Y-109200000D01*
G75*
G02*
X207030000Y-109250000I-50000J0D01*
G01*
G37*
%TD*%
D17*
%TO.C,MX_ec11_46*%
X208570000Y-156280000D03*
D18*
X206030000Y-161360000D03*
D19*
X202220000Y-158820000D03*
D20*
X200950000Y-161360000D03*
X211110000Y-161360000D03*
D21*
X211640000Y-161500000D03*
D22*
X203540000Y-169000000D03*
X208540000Y-169000000D03*
D23*
X208540000Y-155500000D03*
D21*
X200440000Y-161500000D03*
D22*
X203540000Y-154500000D03*
G36*
G01*
X207040000Y-170050000D02*
X205040000Y-170050000D01*
G75*
G02*
X204990000Y-170000000I0J50000D01*
G01*
X204990000Y-168000000D01*
G75*
G02*
X205040000Y-167950000I50000J0D01*
G01*
X207040000Y-167950000D01*
G75*
G02*
X207090000Y-168000000I0J-50000D01*
G01*
X207090000Y-170000000D01*
G75*
G02*
X207040000Y-170050000I-50000J0D01*
G01*
G37*
%TD*%
D20*
%TO.C,MX52*%
X337669776Y-157211243D03*
X327548438Y-158096745D03*
D17*
X328592230Y-155455723D03*
D18*
X332609107Y-157653994D03*
D17*
X334696690Y-152371949D03*
%TD*%
D20*
%TO.C,MX51*%
X318277143Y-154126685D03*
X308155805Y-155012187D03*
D17*
X309199597Y-152371165D03*
D18*
X313216474Y-154569436D03*
D17*
X315304057Y-149287391D03*
%TD*%
D20*
%TO.C,MX50*%
X298469477Y-146298247D03*
X288348139Y-147183749D03*
D17*
X289391931Y-144542727D03*
D18*
X293408808Y-146740998D03*
D17*
X295496391Y-141458953D03*
%TD*%
D20*
%TO.C,MX49*%
X274081784Y-146904378D03*
X264267978Y-149533980D03*
D17*
X264837303Y-146751828D03*
D18*
X269174881Y-148219179D03*
D17*
X270313532Y-142654875D03*
%TD*%
D20*
%TO.C,MX48*%
X255680897Y-151834882D03*
X245867091Y-154464484D03*
D17*
X246436416Y-151682332D03*
D18*
X250773994Y-153149683D03*
D17*
X251912645Y-147585379D03*
%TD*%
D20*
%TO.C,MX47*%
X237280010Y-156765384D03*
X227466204Y-159394986D03*
D17*
X228035529Y-156612834D03*
D18*
X232373107Y-158080185D03*
D17*
X233511758Y-152515881D03*
%TD*%
D20*
%TO.C,MX45*%
X184560489Y-159329738D03*
X174746683Y-156700136D03*
D17*
X176630809Y-154575385D03*
D18*
X179653586Y-158014937D03*
D17*
X183421838Y-153765434D03*
%TD*%
D20*
%TO.C,MX44*%
X166159600Y-154399236D03*
X156345794Y-151769634D03*
D17*
X158229920Y-149644883D03*
D18*
X161252697Y-153084435D03*
D17*
X165020949Y-148834932D03*
%TD*%
D20*
%TO.C,MX43*%
X147758713Y-149468734D03*
X137944907Y-146839132D03*
D17*
X139829033Y-144714381D03*
D18*
X142851810Y-148153933D03*
D17*
X146620062Y-143904430D03*
%TD*%
D20*
%TO.C,MX42*%
X123790407Y-147193500D03*
X113669069Y-146307998D03*
D17*
X115155612Y-143888351D03*
D18*
X118729738Y-146750749D03*
D17*
X121702824Y-141911456D03*
%TD*%
D20*
%TO.C,MX41*%
X103985353Y-154992050D03*
X93864015Y-154106548D03*
D17*
X95350558Y-151686901D03*
D18*
X98924684Y-154549299D03*
D17*
X101897770Y-149710006D03*
%TD*%
D20*
%TO.C,MX40*%
X84592720Y-158076610D03*
X74471382Y-157191108D03*
D17*
X75957925Y-154771461D03*
D18*
X79532051Y-157633859D03*
D17*
X82505137Y-152794566D03*
%TD*%
D20*
%TO.C,MX39*%
X336009458Y-138233734D03*
X325888120Y-139119236D03*
D17*
X326931912Y-136478214D03*
D18*
X330948789Y-138676485D03*
D17*
X333036372Y-133394440D03*
%TD*%
D20*
%TO.C,MX38*%
X316616825Y-135149176D03*
X306495487Y-136034678D03*
D17*
X307539279Y-133393656D03*
D18*
X311556156Y-135591927D03*
D17*
X313643739Y-130309882D03*
%TD*%
D20*
%TO.C,MX37*%
X296809160Y-127320738D03*
X286687822Y-128206240D03*
D17*
X287731614Y-125565218D03*
D18*
X291748491Y-127763489D03*
D17*
X293836074Y-122481444D03*
%TD*%
D20*
%TO.C,MX36*%
X277549353Y-125754380D03*
X267428015Y-126639882D03*
D17*
X268471807Y-123998860D03*
D18*
X272488684Y-126197131D03*
D17*
X274576267Y-120915086D03*
%TD*%
D20*
%TO.C,MX35*%
X258854142Y-130641371D03*
X248732804Y-131526873D03*
D17*
X249776596Y-128885851D03*
D18*
X253793473Y-131084122D03*
D17*
X255881056Y-125802077D03*
%TD*%
D20*
%TO.C,MX34*%
X240075871Y-134578990D03*
X229954533Y-135464492D03*
D17*
X230998325Y-132823470D03*
D18*
X235015202Y-135021741D03*
D17*
X237102785Y-129739696D03*
%TD*%
D20*
%TO.C,MX32*%
X182186629Y-135444357D03*
X172065291Y-134558855D03*
D17*
X173551834Y-132139208D03*
D18*
X177125960Y-135001606D03*
D17*
X180099046Y-130162313D03*
%TD*%
D20*
%TO.C,MX31*%
X163408357Y-131506737D03*
X153287019Y-130621235D03*
D17*
X154773562Y-128201588D03*
D18*
X158347688Y-131063986D03*
D17*
X161320774Y-126224693D03*
%TD*%
D20*
%TO.C,MX30*%
X144713145Y-126619747D03*
X134591807Y-125734245D03*
D17*
X136078350Y-123314598D03*
D18*
X139652476Y-126176996D03*
D17*
X142625562Y-121337703D03*
%TD*%
D20*
%TO.C,MX29*%
X125453339Y-128186105D03*
X115332001Y-127300603D03*
D17*
X116818544Y-124880956D03*
D18*
X120392670Y-127743354D03*
D17*
X123365756Y-122904061D03*
%TD*%
D20*
%TO.C,MX28*%
X105645671Y-136014542D03*
X95524333Y-135129040D03*
D17*
X97010876Y-132709393D03*
D18*
X100585002Y-135571791D03*
D17*
X103558088Y-130732498D03*
%TD*%
D20*
%TO.C,MX27*%
X86253038Y-139099101D03*
X76131700Y-138213599D03*
D17*
X77618243Y-135793952D03*
D18*
X81192369Y-138656350D03*
D17*
X84165455Y-133817057D03*
%TD*%
D20*
%TO.C,MX26*%
X334349142Y-119256224D03*
X324227804Y-120141726D03*
D17*
X325271596Y-117500704D03*
D18*
X329288473Y-119698975D03*
D17*
X331376056Y-114416930D03*
%TD*%
D20*
%TO.C,MX25*%
X314956510Y-116171667D03*
X304835172Y-117057169D03*
D17*
X305878964Y-114416147D03*
D18*
X309895841Y-116614418D03*
D17*
X311983424Y-111332373D03*
%TD*%
D20*
%TO.C,MX24*%
X295148843Y-108343229D03*
X285027505Y-109228731D03*
D17*
X286071297Y-106587709D03*
D18*
X290088174Y-108785980D03*
D17*
X292175757Y-103503935D03*
%TD*%
D20*
%TO.C,MX23*%
X275889036Y-106776871D03*
X265767698Y-107662373D03*
D17*
X266811490Y-105021351D03*
D18*
X270828367Y-107219622D03*
D17*
X272915950Y-101937577D03*
%TD*%
D20*
%TO.C,MX22*%
X257193825Y-111663862D03*
X247072487Y-112549364D03*
D17*
X248116279Y-109908342D03*
D18*
X252133156Y-112106613D03*
D17*
X254220739Y-106824568D03*
%TD*%
D20*
%TO.C,MX21*%
X238415554Y-115601481D03*
X228294216Y-116486983D03*
D17*
X229338008Y-113845961D03*
D18*
X233354885Y-116044232D03*
D17*
X235442468Y-110762187D03*
%TD*%
D20*
%TO.C,MX19*%
X183846945Y-116466846D03*
X173725607Y-115581344D03*
D17*
X175212150Y-113161697D03*
D18*
X178786276Y-116024095D03*
D17*
X181759362Y-111184802D03*
%TD*%
D20*
%TO.C,MX18*%
X165068674Y-112529228D03*
X154947336Y-111643726D03*
D17*
X156433879Y-109224079D03*
D18*
X160008005Y-112086477D03*
D17*
X162981091Y-107247184D03*
%TD*%
D20*
%TO.C,MX17*%
X146373461Y-107642238D03*
X136252123Y-106756736D03*
D17*
X137738666Y-104337089D03*
D18*
X141312792Y-107199487D03*
D17*
X144285878Y-102360194D03*
%TD*%
D20*
%TO.C,MX16*%
X127113656Y-109208596D03*
X116992318Y-108323094D03*
D17*
X118478861Y-105903447D03*
D18*
X122052987Y-108765845D03*
D17*
X125026073Y-103926552D03*
%TD*%
D20*
%TO.C,MX15*%
X107305987Y-117037032D03*
X97184649Y-116151530D03*
D17*
X98671192Y-113731883D03*
D18*
X102245318Y-116594281D03*
D17*
X105218404Y-111754988D03*
%TD*%
D20*
%TO.C,MX14*%
X87913356Y-120121592D03*
X77792018Y-119236090D03*
D17*
X79278561Y-116816443D03*
D18*
X82852687Y-119678841D03*
D17*
X85825773Y-114839548D03*
%TD*%
D20*
%TO.C,MX13*%
X332688823Y-100278716D03*
X322567485Y-101164218D03*
D17*
X323611277Y-98523196D03*
D18*
X327628154Y-100721467D03*
D17*
X329715737Y-95439422D03*
%TD*%
D20*
%TO.C,MX12*%
X313296193Y-97194158D03*
X303174855Y-98079660D03*
D17*
X304218647Y-95438638D03*
D18*
X308235524Y-97636909D03*
D17*
X310323107Y-92354864D03*
%TD*%
D20*
%TO.C,MX11*%
X293488525Y-89365720D03*
X283367187Y-90251222D03*
D17*
X284410979Y-87610200D03*
D18*
X288427856Y-89808471D03*
D17*
X290515439Y-84526426D03*
%TD*%
D20*
%TO.C,MX10*%
X274228718Y-87799363D03*
X264107380Y-88684865D03*
D17*
X265151172Y-86043843D03*
D18*
X269168049Y-88242114D03*
D17*
X271255632Y-82960069D03*
%TD*%
D20*
%TO.C,MX9*%
X255533507Y-92686354D03*
X245412169Y-93571856D03*
D17*
X246455961Y-90930834D03*
D18*
X250472838Y-93129105D03*
D17*
X252560421Y-87847060D03*
%TD*%
D20*
%TO.C,MX8*%
X236755236Y-96623972D03*
X226633898Y-97509474D03*
D17*
X227677690Y-94868452D03*
D18*
X231694567Y-97066723D03*
D17*
X233782150Y-91784678D03*
%TD*%
D20*
%TO.C,MX6*%
X185507260Y-97489337D03*
X175385922Y-96603835D03*
D17*
X176872465Y-94184188D03*
D18*
X180446591Y-97046586D03*
D17*
X183419677Y-92207293D03*
%TD*%
D20*
%TO.C,MX5*%
X166728990Y-93551719D03*
X156607652Y-92666217D03*
D17*
X158094195Y-90246570D03*
D18*
X161668321Y-93108968D03*
D17*
X164641407Y-88269675D03*
%TD*%
D20*
%TO.C,MX4*%
X148033778Y-88664729D03*
X137912440Y-87779227D03*
D17*
X139398983Y-85359580D03*
D18*
X142973109Y-88221978D03*
D17*
X145946195Y-83382685D03*
%TD*%
D20*
%TO.C,MX3*%
X128773971Y-90231087D03*
X118652633Y-89345585D03*
D17*
X120139176Y-86925938D03*
D18*
X123713302Y-89788336D03*
D17*
X126686388Y-84949043D03*
%TD*%
D20*
%TO.C,MX2*%
X108966304Y-98059523D03*
X98844966Y-97174021D03*
D17*
X100331509Y-94754374D03*
D18*
X103905635Y-97616772D03*
D17*
X106878721Y-92777479D03*
%TD*%
D20*
%TO.C,MX1*%
X89573673Y-101144083D03*
X79452335Y-100258581D03*
D17*
X80938878Y-97838934D03*
D18*
X84513004Y-100701332D03*
D17*
X87486090Y-95862039D03*
%TD*%
%TO.C,U4*%
G36*
G01*
X217946000Y-110996000D02*
X219254000Y-110996000D01*
G75*
G02*
X219304000Y-111046000I0J-50000D01*
G01*
X219304000Y-112354000D01*
G75*
G02*
X219254000Y-112404000I-50000J0D01*
G01*
X217946000Y-112404000D01*
G75*
G02*
X217896000Y-112354000I0J50000D01*
G01*
X217896000Y-111046000D01*
G75*
G02*
X217946000Y-110996000I50000J0D01*
G01*
G37*
D24*
X221140000Y-111700000D03*
X221140000Y-106620000D03*
X218600000Y-106620000D03*
X221140000Y-109160000D03*
X218600000Y-109160000D03*
%TD*%
M02*
