%TF.GenerationSoftware,KiCad,Pcbnew,(5.1.8)-1*%
%TF.CreationDate,2021-01-27T21:30:17-05:00*%
%TF.ProjectId,ergo_60_case,6572676f-5f36-4305-9f63-6173652e6b69,rev?*%
%TF.SameCoordinates,Original*%
%TF.FileFunction,Soldermask,Bot*%
%TF.FilePolarity,Negative*%
%FSLAX46Y46*%
G04 Gerber Fmt 4.6, Leading zero omitted, Abs format (unit mm)*
G04 Created by KiCad (PCBNEW (5.1.8)-1) date 2021-01-27 21:30:17*
%MOMM*%
%LPD*%
G01*
G04 APERTURE LIST*
%ADD10C,0.750000*%
%ADD11O,1.100000X2.200000*%
%ADD12O,1.100000X1.700000*%
%ADD13C,4.100000*%
%ADD14C,4.087800*%
%ADD15O,4.100000X4.100000*%
%ADD16C,1.850000*%
%ADD17R,2.550000X2.500000*%
%ADD18O,1.600000X2.900000*%
%ADD19C,2.100000*%
%ADD20O,2.100000X4.100000*%
%ADD21O,1.700000X2.100000*%
%ADD22C,0.100000*%
%ADD23C,1.408000*%
G04 APERTURE END LIST*
%TO.C,USB1*%
G36*
G01*
X84985000Y-83350000D02*
X84985000Y-81900000D01*
G75*
G02*
X85035000Y-81850000I50000J0D01*
G01*
X85585000Y-81850000D01*
G75*
G02*
X85635000Y-81900000I0J-50000D01*
G01*
X85635000Y-83350000D01*
G75*
G02*
X85585000Y-83400000I-50000J0D01*
G01*
X85035000Y-83400000D01*
G75*
G02*
X84985000Y-83350000I0J50000D01*
G01*
G37*
G36*
G01*
X78485000Y-83350000D02*
X78485000Y-81900000D01*
G75*
G02*
X78535000Y-81850000I50000J0D01*
G01*
X79085000Y-81850000D01*
G75*
G02*
X79135000Y-81900000I0J-50000D01*
G01*
X79135000Y-83350000D01*
G75*
G02*
X79085000Y-83400000I-50000J0D01*
G01*
X78535000Y-83400000D01*
G75*
G02*
X78485000Y-83350000I0J50000D01*
G01*
G37*
G36*
G01*
X84210000Y-83350000D02*
X84210000Y-81900000D01*
G75*
G02*
X84260000Y-81850000I50000J0D01*
G01*
X84760000Y-81850000D01*
G75*
G02*
X84810000Y-81900000I0J-50000D01*
G01*
X84810000Y-83350000D01*
G75*
G02*
X84760000Y-83400000I-50000J0D01*
G01*
X84260000Y-83400000D01*
G75*
G02*
X84210000Y-83350000I0J50000D01*
G01*
G37*
G36*
G01*
X79310000Y-83350000D02*
X79310000Y-81900000D01*
G75*
G02*
X79360000Y-81850000I50000J0D01*
G01*
X79860000Y-81850000D01*
G75*
G02*
X79910000Y-81900000I0J-50000D01*
G01*
X79910000Y-83350000D01*
G75*
G02*
X79860000Y-83400000I-50000J0D01*
G01*
X79360000Y-83400000D01*
G75*
G02*
X79310000Y-83350000I0J50000D01*
G01*
G37*
G36*
G01*
X80110000Y-83350000D02*
X80110000Y-81900000D01*
G75*
G02*
X80160000Y-81850000I50000J0D01*
G01*
X80460000Y-81850000D01*
G75*
G02*
X80510000Y-81900000I0J-50000D01*
G01*
X80510000Y-83350000D01*
G75*
G02*
X80460000Y-83400000I-50000J0D01*
G01*
X80160000Y-83400000D01*
G75*
G02*
X80110000Y-83350000I0J50000D01*
G01*
G37*
G36*
G01*
X83610000Y-83350000D02*
X83610000Y-81900000D01*
G75*
G02*
X83660000Y-81850000I50000J0D01*
G01*
X83960000Y-81850000D01*
G75*
G02*
X84010000Y-81900000I0J-50000D01*
G01*
X84010000Y-83350000D01*
G75*
G02*
X83960000Y-83400000I-50000J0D01*
G01*
X83660000Y-83400000D01*
G75*
G02*
X83610000Y-83350000I0J50000D01*
G01*
G37*
G36*
G01*
X80610000Y-83350000D02*
X80610000Y-81900000D01*
G75*
G02*
X80660000Y-81850000I50000J0D01*
G01*
X80960000Y-81850000D01*
G75*
G02*
X81010000Y-81900000I0J-50000D01*
G01*
X81010000Y-83350000D01*
G75*
G02*
X80960000Y-83400000I-50000J0D01*
G01*
X80660000Y-83400000D01*
G75*
G02*
X80610000Y-83350000I0J50000D01*
G01*
G37*
G36*
G01*
X83110000Y-83350000D02*
X83110000Y-81900000D01*
G75*
G02*
X83160000Y-81850000I50000J0D01*
G01*
X83460000Y-81850000D01*
G75*
G02*
X83510000Y-81900000I0J-50000D01*
G01*
X83510000Y-83350000D01*
G75*
G02*
X83460000Y-83400000I-50000J0D01*
G01*
X83160000Y-83400000D01*
G75*
G02*
X83110000Y-83350000I0J50000D01*
G01*
G37*
G36*
G01*
X81110000Y-83350000D02*
X81110000Y-81900000D01*
G75*
G02*
X81160000Y-81850000I50000J0D01*
G01*
X81460000Y-81850000D01*
G75*
G02*
X81510000Y-81900000I0J-50000D01*
G01*
X81510000Y-83350000D01*
G75*
G02*
X81460000Y-83400000I-50000J0D01*
G01*
X81160000Y-83400000D01*
G75*
G02*
X81110000Y-83350000I0J50000D01*
G01*
G37*
G36*
G01*
X82610000Y-83350000D02*
X82610000Y-81900000D01*
G75*
G02*
X82660000Y-81850000I50000J0D01*
G01*
X82960000Y-81850000D01*
G75*
G02*
X83010000Y-81900000I0J-50000D01*
G01*
X83010000Y-83350000D01*
G75*
G02*
X82960000Y-83400000I-50000J0D01*
G01*
X82660000Y-83400000D01*
G75*
G02*
X82610000Y-83350000I0J50000D01*
G01*
G37*
G36*
G01*
X82110000Y-83350000D02*
X82110000Y-81900000D01*
G75*
G02*
X82160000Y-81850000I50000J0D01*
G01*
X82460000Y-81850000D01*
G75*
G02*
X82510000Y-81900000I0J-50000D01*
G01*
X82510000Y-83350000D01*
G75*
G02*
X82460000Y-83400000I-50000J0D01*
G01*
X82160000Y-83400000D01*
G75*
G02*
X82110000Y-83350000I0J50000D01*
G01*
G37*
G36*
G01*
X81610000Y-83350000D02*
X81610000Y-81900000D01*
G75*
G02*
X81660000Y-81850000I50000J0D01*
G01*
X81960000Y-81850000D01*
G75*
G02*
X82010000Y-81900000I0J-50000D01*
G01*
X82010000Y-83350000D01*
G75*
G02*
X81960000Y-83400000I-50000J0D01*
G01*
X81660000Y-83400000D01*
G75*
G02*
X81610000Y-83350000I0J50000D01*
G01*
G37*
D10*
X84950000Y-81180000D03*
X79170000Y-81180000D03*
D11*
X77740000Y-81710000D03*
X86380000Y-81710000D03*
D12*
X77740000Y-77530000D03*
X86380000Y-77530000D03*
%TD*%
D13*
%TO.C,MX_ec11_7*%
X208560000Y-95480000D03*
D14*
X206020000Y-100560000D03*
D15*
X202210000Y-98020000D03*
D16*
X200940000Y-100560000D03*
X211100000Y-100560000D03*
D17*
X198935000Y-98020000D03*
X211835000Y-95480000D03*
D18*
X211630000Y-100700000D03*
D19*
X203530000Y-108200000D03*
X208530000Y-108200000D03*
D20*
X208530000Y-94700000D03*
D18*
X200430000Y-100700000D03*
D19*
X203530000Y-93700000D03*
G36*
G01*
X207030000Y-109250000D02*
X205030000Y-109250000D01*
G75*
G02*
X204980000Y-109200000I0J50000D01*
G01*
X204980000Y-107200000D01*
G75*
G02*
X205030000Y-107150000I50000J0D01*
G01*
X207030000Y-107150000D01*
G75*
G02*
X207080000Y-107200000I0J-50000D01*
G01*
X207080000Y-109200000D01*
G75*
G02*
X207030000Y-109250000I-50000J0D01*
G01*
G37*
%TD*%
D13*
%TO.C,MX_ec11_46*%
X208570000Y-156280000D03*
D14*
X206030000Y-161360000D03*
D15*
X202220000Y-158820000D03*
D16*
X200950000Y-161360000D03*
X211110000Y-161360000D03*
D17*
X198945000Y-158820000D03*
X211845000Y-156280000D03*
D18*
X211640000Y-161500000D03*
D19*
X203540000Y-169000000D03*
X208540000Y-169000000D03*
D20*
X208540000Y-155500000D03*
D18*
X200440000Y-161500000D03*
D19*
X203540000Y-154500000D03*
G36*
G01*
X207040000Y-170050000D02*
X205040000Y-170050000D01*
G75*
G02*
X204990000Y-170000000I0J50000D01*
G01*
X204990000Y-168000000D01*
G75*
G02*
X205040000Y-167950000I50000J0D01*
G01*
X207040000Y-167950000D01*
G75*
G02*
X207090000Y-168000000I0J-50000D01*
G01*
X207090000Y-170000000D01*
G75*
G02*
X207040000Y-170050000I-50000J0D01*
G01*
G37*
%TD*%
D21*
%TO.C,U2*%
X209810000Y-119570000D03*
X207270000Y-119570000D03*
G36*
G01*
X202990000Y-120620000D02*
X201390000Y-120620000D01*
G75*
G02*
X201340000Y-120570000I0J50000D01*
G01*
X201340000Y-118570000D01*
G75*
G02*
X201390000Y-118520000I50000J0D01*
G01*
X202990000Y-118520000D01*
G75*
G02*
X203040000Y-118570000I0J-50000D01*
G01*
X203040000Y-120570000D01*
G75*
G02*
X202990000Y-120620000I-50000J0D01*
G01*
G37*
X204730000Y-119570000D03*
%TD*%
D22*
%TO.C,MX52*%
G36*
X336798024Y-153442881D02*
G01*
X336580135Y-150952394D01*
X339120432Y-150730147D01*
X339338321Y-153220634D01*
X336798024Y-153442881D01*
G37*
G36*
X324168488Y-157097525D02*
G01*
X323950599Y-154607038D01*
X326490896Y-154384791D01*
X326708785Y-156875278D01*
X324168488Y-157097525D01*
G37*
D16*
X337669776Y-157211243D03*
X327548438Y-158096745D03*
D13*
X328592230Y-155455723D03*
D14*
X332609107Y-157653994D03*
D13*
X334696690Y-152371949D03*
%TD*%
D22*
%TO.C,MX51*%
G36*
X317405391Y-150358323D02*
G01*
X317187502Y-147867836D01*
X319727799Y-147645589D01*
X319945688Y-150136076D01*
X317405391Y-150358323D01*
G37*
G36*
X304775855Y-154012967D02*
G01*
X304557966Y-151522480D01*
X307098263Y-151300233D01*
X307316152Y-153790720D01*
X304775855Y-154012967D01*
G37*
D16*
X318277143Y-154126685D03*
X308155805Y-155012187D03*
D13*
X309199597Y-152371165D03*
D14*
X313216474Y-154569436D03*
D13*
X315304057Y-149287391D03*
%TD*%
D22*
%TO.C,MX50*%
G36*
X297597725Y-142529885D02*
G01*
X297379836Y-140039398D01*
X299920133Y-139817151D01*
X300138022Y-142307638D01*
X297597725Y-142529885D01*
G37*
G36*
X284968189Y-146184529D02*
G01*
X284750300Y-143694042D01*
X287290597Y-143471795D01*
X287508486Y-145962282D01*
X284968189Y-146184529D01*
G37*
D16*
X298469477Y-146298247D03*
X288348139Y-147183749D03*
D13*
X289391931Y-144542727D03*
D14*
X293408808Y-146740998D03*
D13*
X295496391Y-141458953D03*
%TD*%
D22*
%TO.C,MX49*%
G36*
X272568907Y-143344645D02*
G01*
X271921860Y-140929830D01*
X274384971Y-140269841D01*
X275032018Y-142684656D01*
X272568907Y-143344645D01*
G37*
G36*
X260765864Y-149136862D02*
G01*
X260118817Y-146722047D01*
X262581928Y-146062058D01*
X263228975Y-148476873D01*
X260765864Y-149136862D01*
G37*
D16*
X274081784Y-146904378D03*
X264267978Y-149533980D03*
D13*
X264837303Y-146751828D03*
D14*
X269174881Y-148219179D03*
D13*
X270313532Y-142654875D03*
%TD*%
D22*
%TO.C,MX48*%
G36*
X254168020Y-148275149D02*
G01*
X253520973Y-145860334D01*
X255984084Y-145200345D01*
X256631131Y-147615160D01*
X254168020Y-148275149D01*
G37*
G36*
X242364977Y-154067366D02*
G01*
X241717930Y-151652551D01*
X244181041Y-150992562D01*
X244828088Y-153407377D01*
X242364977Y-154067366D01*
G37*
D16*
X255680897Y-151834882D03*
X245867091Y-154464484D03*
D13*
X246436416Y-151682332D03*
D14*
X250773994Y-153149683D03*
D13*
X251912645Y-147585379D03*
%TD*%
D22*
%TO.C,MX47*%
G36*
X235767133Y-153205651D02*
G01*
X235120086Y-150790836D01*
X237583197Y-150130847D01*
X238230244Y-152545662D01*
X235767133Y-153205651D01*
G37*
G36*
X223964090Y-158997868D02*
G01*
X223317043Y-156583053D01*
X225780154Y-155923064D01*
X226427201Y-158337879D01*
X223964090Y-158997868D01*
G37*
D16*
X237280010Y-156765384D03*
X227466204Y-159394986D03*
D13*
X228035529Y-156612834D03*
D14*
X232373107Y-158080185D03*
D13*
X233511758Y-152515881D03*
%TD*%
D22*
%TO.C,MX45*%
G36*
X185030166Y-155490480D02*
G01*
X185677213Y-153075665D01*
X188140324Y-153735654D01*
X187493277Y-156150469D01*
X185030166Y-155490480D01*
G37*
G36*
X171912323Y-154605165D02*
G01*
X172559370Y-152190350D01*
X175022481Y-152850339D01*
X174375434Y-155265154D01*
X171912323Y-154605165D01*
G37*
D16*
X184560489Y-159329738D03*
X174746683Y-156700136D03*
D13*
X176630809Y-154575385D03*
D14*
X179653586Y-158014937D03*
D13*
X183421838Y-153765434D03*
%TD*%
D22*
%TO.C,MX44*%
G36*
X166629277Y-150559978D02*
G01*
X167276324Y-148145163D01*
X169739435Y-148805152D01*
X169092388Y-151219967D01*
X166629277Y-150559978D01*
G37*
G36*
X153511434Y-149674663D02*
G01*
X154158481Y-147259848D01*
X156621592Y-147919837D01*
X155974545Y-150334652D01*
X153511434Y-149674663D01*
G37*
D16*
X166159600Y-154399236D03*
X156345794Y-151769634D03*
D13*
X158229920Y-149644883D03*
D14*
X161252697Y-153084435D03*
D13*
X165020949Y-148834932D03*
%TD*%
D22*
%TO.C,MX43*%
G36*
X148228390Y-145629476D02*
G01*
X148875437Y-143214661D01*
X151338548Y-143874650D01*
X150691501Y-146289465D01*
X148228390Y-145629476D01*
G37*
G36*
X135110547Y-144744161D02*
G01*
X135757594Y-142329346D01*
X138220705Y-142989335D01*
X137573658Y-145404150D01*
X135110547Y-144744161D01*
G37*
D16*
X147758713Y-149468734D03*
X137944907Y-146839132D03*
D13*
X139829033Y-144714381D03*
D14*
X142851810Y-148153933D03*
D13*
X146620062Y-143904430D03*
%TD*%
D22*
%TO.C,MX42*%
G36*
X123586268Y-143331011D02*
G01*
X123804157Y-140840524D01*
X126344454Y-141062771D01*
X126126565Y-143553258D01*
X123586268Y-143331011D01*
G37*
G36*
X110513981Y-144737036D02*
G01*
X110731870Y-142246549D01*
X113272167Y-142468796D01*
X113054278Y-144959283D01*
X110513981Y-144737036D01*
G37*
D16*
X123790407Y-147193500D03*
X113669069Y-146307998D03*
D13*
X115155612Y-143888351D03*
D14*
X118729738Y-146750749D03*
D13*
X121702824Y-141911456D03*
%TD*%
D22*
%TO.C,MX41*%
G36*
X103781214Y-151129561D02*
G01*
X103999103Y-148639074D01*
X106539400Y-148861321D01*
X106321511Y-151351808D01*
X103781214Y-151129561D01*
G37*
G36*
X90708927Y-152535586D02*
G01*
X90926816Y-150045099D01*
X93467113Y-150267346D01*
X93249224Y-152757833D01*
X90708927Y-152535586D01*
G37*
D16*
X103985353Y-154992050D03*
X93864015Y-154106548D03*
D13*
X95350558Y-151686901D03*
D14*
X98924684Y-154549299D03*
D13*
X101897770Y-149710006D03*
%TD*%
D22*
%TO.C,MX40*%
G36*
X84388581Y-154214121D02*
G01*
X84606470Y-151723634D01*
X87146767Y-151945881D01*
X86928878Y-154436368D01*
X84388581Y-154214121D01*
G37*
G36*
X71316294Y-155620146D02*
G01*
X71534183Y-153129659D01*
X74074480Y-153351906D01*
X73856591Y-155842393D01*
X71316294Y-155620146D01*
G37*
D16*
X84592720Y-158076610D03*
X74471382Y-157191108D03*
D13*
X75957925Y-154771461D03*
D14*
X79532051Y-157633859D03*
D13*
X82505137Y-152794566D03*
%TD*%
D22*
%TO.C,MX39*%
G36*
X335137706Y-134465372D02*
G01*
X334919817Y-131974885D01*
X337460114Y-131752638D01*
X337678003Y-134243125D01*
X335137706Y-134465372D01*
G37*
G36*
X322508170Y-138120016D02*
G01*
X322290281Y-135629529D01*
X324830578Y-135407282D01*
X325048467Y-137897769D01*
X322508170Y-138120016D01*
G37*
D16*
X336009458Y-138233734D03*
X325888120Y-139119236D03*
D13*
X326931912Y-136478214D03*
D14*
X330948789Y-138676485D03*
D13*
X333036372Y-133394440D03*
%TD*%
D22*
%TO.C,MX38*%
G36*
X315745073Y-131380814D02*
G01*
X315527184Y-128890327D01*
X318067481Y-128668080D01*
X318285370Y-131158567D01*
X315745073Y-131380814D01*
G37*
G36*
X303115537Y-135035458D02*
G01*
X302897648Y-132544971D01*
X305437945Y-132322724D01*
X305655834Y-134813211D01*
X303115537Y-135035458D01*
G37*
D16*
X316616825Y-135149176D03*
X306495487Y-136034678D03*
D13*
X307539279Y-133393656D03*
D14*
X311556156Y-135591927D03*
D13*
X313643739Y-130309882D03*
%TD*%
D22*
%TO.C,MX37*%
G36*
X295937408Y-123552376D02*
G01*
X295719519Y-121061889D01*
X298259816Y-120839642D01*
X298477705Y-123330129D01*
X295937408Y-123552376D01*
G37*
G36*
X283307872Y-127207020D02*
G01*
X283089983Y-124716533D01*
X285630280Y-124494286D01*
X285848169Y-126984773D01*
X283307872Y-127207020D01*
G37*
D16*
X296809160Y-127320738D03*
X286687822Y-128206240D03*
D13*
X287731614Y-125565218D03*
D14*
X291748491Y-127763489D03*
D13*
X293836074Y-122481444D03*
%TD*%
D22*
%TO.C,MX36*%
G36*
X276677601Y-121986018D02*
G01*
X276459712Y-119495531D01*
X279000009Y-119273284D01*
X279217898Y-121763771D01*
X276677601Y-121986018D01*
G37*
G36*
X264048065Y-125640662D02*
G01*
X263830176Y-123150175D01*
X266370473Y-122927928D01*
X266588362Y-125418415D01*
X264048065Y-125640662D01*
G37*
D16*
X277549353Y-125754380D03*
X267428015Y-126639882D03*
D13*
X268471807Y-123998860D03*
D14*
X272488684Y-126197131D03*
D13*
X274576267Y-120915086D03*
%TD*%
D22*
%TO.C,MX35*%
G36*
X257982390Y-126873009D02*
G01*
X257764501Y-124382522D01*
X260304798Y-124160275D01*
X260522687Y-126650762D01*
X257982390Y-126873009D01*
G37*
G36*
X245352854Y-130527653D02*
G01*
X245134965Y-128037166D01*
X247675262Y-127814919D01*
X247893151Y-130305406D01*
X245352854Y-130527653D01*
G37*
D16*
X258854142Y-130641371D03*
X248732804Y-131526873D03*
D13*
X249776596Y-128885851D03*
D14*
X253793473Y-131084122D03*
D13*
X255881056Y-125802077D03*
%TD*%
D22*
%TO.C,MX34*%
G36*
X239204119Y-130810628D02*
G01*
X238986230Y-128320141D01*
X241526527Y-128097894D01*
X241744416Y-130588381D01*
X239204119Y-130810628D01*
G37*
G36*
X226574583Y-134465272D02*
G01*
X226356694Y-131974785D01*
X228896991Y-131752538D01*
X229114880Y-134243025D01*
X226574583Y-134465272D01*
G37*
D16*
X240075871Y-134578990D03*
X229954533Y-135464492D03*
D13*
X230998325Y-132823470D03*
D14*
X235015202Y-135021741D03*
D13*
X237102785Y-129739696D03*
%TD*%
D22*
%TO.C,MX32*%
G36*
X181982490Y-131581868D02*
G01*
X182200379Y-129091381D01*
X184740676Y-129313628D01*
X184522787Y-131804115D01*
X181982490Y-131581868D01*
G37*
G36*
X168910203Y-132987893D02*
G01*
X169128092Y-130497406D01*
X171668389Y-130719653D01*
X171450500Y-133210140D01*
X168910203Y-132987893D01*
G37*
D16*
X182186629Y-135444357D03*
X172065291Y-134558855D03*
D13*
X173551834Y-132139208D03*
D14*
X177125960Y-135001606D03*
D13*
X180099046Y-130162313D03*
%TD*%
D22*
%TO.C,MX31*%
G36*
X163204218Y-127644248D02*
G01*
X163422107Y-125153761D01*
X165962404Y-125376008D01*
X165744515Y-127866495D01*
X163204218Y-127644248D01*
G37*
G36*
X150131931Y-129050273D02*
G01*
X150349820Y-126559786D01*
X152890117Y-126782033D01*
X152672228Y-129272520D01*
X150131931Y-129050273D01*
G37*
D16*
X163408357Y-131506737D03*
X153287019Y-130621235D03*
D13*
X154773562Y-128201588D03*
D14*
X158347688Y-131063986D03*
D13*
X161320774Y-126224693D03*
%TD*%
D22*
%TO.C,MX30*%
G36*
X144509006Y-122757258D02*
G01*
X144726895Y-120266771D01*
X147267192Y-120489018D01*
X147049303Y-122979505D01*
X144509006Y-122757258D01*
G37*
G36*
X131436719Y-124163283D02*
G01*
X131654608Y-121672796D01*
X134194905Y-121895043D01*
X133977016Y-124385530D01*
X131436719Y-124163283D01*
G37*
D16*
X144713145Y-126619747D03*
X134591807Y-125734245D03*
D13*
X136078350Y-123314598D03*
D14*
X139652476Y-126176996D03*
D13*
X142625562Y-121337703D03*
%TD*%
D22*
%TO.C,MX29*%
G36*
X125249200Y-124323616D02*
G01*
X125467089Y-121833129D01*
X128007386Y-122055376D01*
X127789497Y-124545863D01*
X125249200Y-124323616D01*
G37*
G36*
X112176913Y-125729641D02*
G01*
X112394802Y-123239154D01*
X114935099Y-123461401D01*
X114717210Y-125951888D01*
X112176913Y-125729641D01*
G37*
D16*
X125453339Y-128186105D03*
X115332001Y-127300603D03*
D13*
X116818544Y-124880956D03*
D14*
X120392670Y-127743354D03*
D13*
X123365756Y-122904061D03*
%TD*%
D22*
%TO.C,MX28*%
G36*
X105441532Y-132152053D02*
G01*
X105659421Y-129661566D01*
X108199718Y-129883813D01*
X107981829Y-132374300D01*
X105441532Y-132152053D01*
G37*
G36*
X92369245Y-133558078D02*
G01*
X92587134Y-131067591D01*
X95127431Y-131289838D01*
X94909542Y-133780325D01*
X92369245Y-133558078D01*
G37*
D16*
X105645671Y-136014542D03*
X95524333Y-135129040D03*
D13*
X97010876Y-132709393D03*
D14*
X100585002Y-135571791D03*
D13*
X103558088Y-130732498D03*
%TD*%
D22*
%TO.C,MX27*%
G36*
X86048899Y-135236612D02*
G01*
X86266788Y-132746125D01*
X88807085Y-132968372D01*
X88589196Y-135458859D01*
X86048899Y-135236612D01*
G37*
G36*
X72976612Y-136642637D02*
G01*
X73194501Y-134152150D01*
X75734798Y-134374397D01*
X75516909Y-136864884D01*
X72976612Y-136642637D01*
G37*
D16*
X86253038Y-139099101D03*
X76131700Y-138213599D03*
D13*
X77618243Y-135793952D03*
D14*
X81192369Y-138656350D03*
D13*
X84165455Y-133817057D03*
%TD*%
D22*
%TO.C,MX26*%
G36*
X333477390Y-115487862D02*
G01*
X333259501Y-112997375D01*
X335799798Y-112775128D01*
X336017687Y-115265615D01*
X333477390Y-115487862D01*
G37*
G36*
X320847854Y-119142506D02*
G01*
X320629965Y-116652019D01*
X323170262Y-116429772D01*
X323388151Y-118920259D01*
X320847854Y-119142506D01*
G37*
D16*
X334349142Y-119256224D03*
X324227804Y-120141726D03*
D13*
X325271596Y-117500704D03*
D14*
X329288473Y-119698975D03*
D13*
X331376056Y-114416930D03*
%TD*%
D22*
%TO.C,MX25*%
G36*
X314084758Y-112403305D02*
G01*
X313866869Y-109912818D01*
X316407166Y-109690571D01*
X316625055Y-112181058D01*
X314084758Y-112403305D01*
G37*
G36*
X301455222Y-116057949D02*
G01*
X301237333Y-113567462D01*
X303777630Y-113345215D01*
X303995519Y-115835702D01*
X301455222Y-116057949D01*
G37*
D16*
X314956510Y-116171667D03*
X304835172Y-117057169D03*
D13*
X305878964Y-114416147D03*
D14*
X309895841Y-116614418D03*
D13*
X311983424Y-111332373D03*
%TD*%
D22*
%TO.C,MX24*%
G36*
X294277091Y-104574867D02*
G01*
X294059202Y-102084380D01*
X296599499Y-101862133D01*
X296817388Y-104352620D01*
X294277091Y-104574867D01*
G37*
G36*
X281647555Y-108229511D02*
G01*
X281429666Y-105739024D01*
X283969963Y-105516777D01*
X284187852Y-108007264D01*
X281647555Y-108229511D01*
G37*
D16*
X295148843Y-108343229D03*
X285027505Y-109228731D03*
D13*
X286071297Y-106587709D03*
D14*
X290088174Y-108785980D03*
D13*
X292175757Y-103503935D03*
%TD*%
D22*
%TO.C,MX23*%
G36*
X275017284Y-103008509D02*
G01*
X274799395Y-100518022D01*
X277339692Y-100295775D01*
X277557581Y-102786262D01*
X275017284Y-103008509D01*
G37*
G36*
X262387748Y-106663153D02*
G01*
X262169859Y-104172666D01*
X264710156Y-103950419D01*
X264928045Y-106440906D01*
X262387748Y-106663153D01*
G37*
D16*
X275889036Y-106776871D03*
X265767698Y-107662373D03*
D13*
X266811490Y-105021351D03*
D14*
X270828367Y-107219622D03*
D13*
X272915950Y-101937577D03*
%TD*%
D22*
%TO.C,MX22*%
G36*
X256322073Y-107895500D02*
G01*
X256104184Y-105405013D01*
X258644481Y-105182766D01*
X258862370Y-107673253D01*
X256322073Y-107895500D01*
G37*
G36*
X243692537Y-111550144D02*
G01*
X243474648Y-109059657D01*
X246014945Y-108837410D01*
X246232834Y-111327897D01*
X243692537Y-111550144D01*
G37*
D16*
X257193825Y-111663862D03*
X247072487Y-112549364D03*
D13*
X248116279Y-109908342D03*
D14*
X252133156Y-112106613D03*
D13*
X254220739Y-106824568D03*
%TD*%
D22*
%TO.C,MX21*%
G36*
X237543802Y-111833119D02*
G01*
X237325913Y-109342632D01*
X239866210Y-109120385D01*
X240084099Y-111610872D01*
X237543802Y-111833119D01*
G37*
G36*
X224914266Y-115487763D02*
G01*
X224696377Y-112997276D01*
X227236674Y-112775029D01*
X227454563Y-115265516D01*
X224914266Y-115487763D01*
G37*
D16*
X238415554Y-115601481D03*
X228294216Y-116486983D03*
D13*
X229338008Y-113845961D03*
D14*
X233354885Y-116044232D03*
D13*
X235442468Y-110762187D03*
%TD*%
D22*
%TO.C,MX19*%
G36*
X183642806Y-112604357D02*
G01*
X183860695Y-110113870D01*
X186400992Y-110336117D01*
X186183103Y-112826604D01*
X183642806Y-112604357D01*
G37*
G36*
X170570519Y-114010382D02*
G01*
X170788408Y-111519895D01*
X173328705Y-111742142D01*
X173110816Y-114232629D01*
X170570519Y-114010382D01*
G37*
D16*
X183846945Y-116466846D03*
X173725607Y-115581344D03*
D13*
X175212150Y-113161697D03*
D14*
X178786276Y-116024095D03*
D13*
X181759362Y-111184802D03*
%TD*%
D22*
%TO.C,MX18*%
G36*
X164864535Y-108666739D02*
G01*
X165082424Y-106176252D01*
X167622721Y-106398499D01*
X167404832Y-108888986D01*
X164864535Y-108666739D01*
G37*
G36*
X151792248Y-110072764D02*
G01*
X152010137Y-107582277D01*
X154550434Y-107804524D01*
X154332545Y-110295011D01*
X151792248Y-110072764D01*
G37*
D16*
X165068674Y-112529228D03*
X154947336Y-111643726D03*
D13*
X156433879Y-109224079D03*
D14*
X160008005Y-112086477D03*
D13*
X162981091Y-107247184D03*
%TD*%
D22*
%TO.C,MX17*%
G36*
X146169322Y-103779749D02*
G01*
X146387211Y-101289262D01*
X148927508Y-101511509D01*
X148709619Y-104001996D01*
X146169322Y-103779749D01*
G37*
G36*
X133097035Y-105185774D02*
G01*
X133314924Y-102695287D01*
X135855221Y-102917534D01*
X135637332Y-105408021D01*
X133097035Y-105185774D01*
G37*
D16*
X146373461Y-107642238D03*
X136252123Y-106756736D03*
D13*
X137738666Y-104337089D03*
D14*
X141312792Y-107199487D03*
D13*
X144285878Y-102360194D03*
%TD*%
D22*
%TO.C,MX16*%
G36*
X126909517Y-105346107D02*
G01*
X127127406Y-102855620D01*
X129667703Y-103077867D01*
X129449814Y-105568354D01*
X126909517Y-105346107D01*
G37*
G36*
X113837230Y-106752132D02*
G01*
X114055119Y-104261645D01*
X116595416Y-104483892D01*
X116377527Y-106974379D01*
X113837230Y-106752132D01*
G37*
D16*
X127113656Y-109208596D03*
X116992318Y-108323094D03*
D13*
X118478861Y-105903447D03*
D14*
X122052987Y-108765845D03*
D13*
X125026073Y-103926552D03*
%TD*%
D22*
%TO.C,MX15*%
G36*
X107101848Y-113174543D02*
G01*
X107319737Y-110684056D01*
X109860034Y-110906303D01*
X109642145Y-113396790D01*
X107101848Y-113174543D01*
G37*
G36*
X94029561Y-114580568D02*
G01*
X94247450Y-112090081D01*
X96787747Y-112312328D01*
X96569858Y-114802815D01*
X94029561Y-114580568D01*
G37*
D16*
X107305987Y-117037032D03*
X97184649Y-116151530D03*
D13*
X98671192Y-113731883D03*
D14*
X102245318Y-116594281D03*
D13*
X105218404Y-111754988D03*
%TD*%
D22*
%TO.C,MX14*%
G36*
X87709217Y-116259103D02*
G01*
X87927106Y-113768616D01*
X90467403Y-113990863D01*
X90249514Y-116481350D01*
X87709217Y-116259103D01*
G37*
G36*
X74636930Y-117665128D02*
G01*
X74854819Y-115174641D01*
X77395116Y-115396888D01*
X77177227Y-117887375D01*
X74636930Y-117665128D01*
G37*
D16*
X87913356Y-120121592D03*
X77792018Y-119236090D03*
D13*
X79278561Y-116816443D03*
D14*
X82852687Y-119678841D03*
D13*
X85825773Y-114839548D03*
%TD*%
D22*
%TO.C,MX13*%
G36*
X331817071Y-96510354D02*
G01*
X331599182Y-94019867D01*
X334139479Y-93797620D01*
X334357368Y-96288107D01*
X331817071Y-96510354D01*
G37*
G36*
X319187535Y-100164998D02*
G01*
X318969646Y-97674511D01*
X321509943Y-97452264D01*
X321727832Y-99942751D01*
X319187535Y-100164998D01*
G37*
D16*
X332688823Y-100278716D03*
X322567485Y-101164218D03*
D13*
X323611277Y-98523196D03*
D14*
X327628154Y-100721467D03*
D13*
X329715737Y-95439422D03*
%TD*%
D22*
%TO.C,MX12*%
G36*
X312424441Y-93425796D02*
G01*
X312206552Y-90935309D01*
X314746849Y-90713062D01*
X314964738Y-93203549D01*
X312424441Y-93425796D01*
G37*
G36*
X299794905Y-97080440D02*
G01*
X299577016Y-94589953D01*
X302117313Y-94367706D01*
X302335202Y-96858193D01*
X299794905Y-97080440D01*
G37*
D16*
X313296193Y-97194158D03*
X303174855Y-98079660D03*
D13*
X304218647Y-95438638D03*
D14*
X308235524Y-97636909D03*
D13*
X310323107Y-92354864D03*
%TD*%
D22*
%TO.C,MX11*%
G36*
X292616773Y-85597358D02*
G01*
X292398884Y-83106871D01*
X294939181Y-82884624D01*
X295157070Y-85375111D01*
X292616773Y-85597358D01*
G37*
G36*
X279987237Y-89252002D02*
G01*
X279769348Y-86761515D01*
X282309645Y-86539268D01*
X282527534Y-89029755D01*
X279987237Y-89252002D01*
G37*
D16*
X293488525Y-89365720D03*
X283367187Y-90251222D03*
D13*
X284410979Y-87610200D03*
D14*
X288427856Y-89808471D03*
D13*
X290515439Y-84526426D03*
%TD*%
D22*
%TO.C,MX10*%
G36*
X273356966Y-84031001D02*
G01*
X273139077Y-81540514D01*
X275679374Y-81318267D01*
X275897263Y-83808754D01*
X273356966Y-84031001D01*
G37*
G36*
X260727430Y-87685645D02*
G01*
X260509541Y-85195158D01*
X263049838Y-84972911D01*
X263267727Y-87463398D01*
X260727430Y-87685645D01*
G37*
D16*
X274228718Y-87799363D03*
X264107380Y-88684865D03*
D13*
X265151172Y-86043843D03*
D14*
X269168049Y-88242114D03*
D13*
X271255632Y-82960069D03*
%TD*%
D22*
%TO.C,MX9*%
G36*
X254661755Y-88917992D02*
G01*
X254443866Y-86427505D01*
X256984163Y-86205258D01*
X257202052Y-88695745D01*
X254661755Y-88917992D01*
G37*
G36*
X242032219Y-92572636D02*
G01*
X241814330Y-90082149D01*
X244354627Y-89859902D01*
X244572516Y-92350389D01*
X242032219Y-92572636D01*
G37*
D16*
X255533507Y-92686354D03*
X245412169Y-93571856D03*
D13*
X246455961Y-90930834D03*
D14*
X250472838Y-93129105D03*
D13*
X252560421Y-87847060D03*
%TD*%
D22*
%TO.C,MX8*%
G36*
X235883484Y-92855610D02*
G01*
X235665595Y-90365123D01*
X238205892Y-90142876D01*
X238423781Y-92633363D01*
X235883484Y-92855610D01*
G37*
G36*
X223253948Y-96510254D02*
G01*
X223036059Y-94019767D01*
X225576356Y-93797520D01*
X225794245Y-96288007D01*
X223253948Y-96510254D01*
G37*
D16*
X236755236Y-96623972D03*
X226633898Y-97509474D03*
D13*
X227677690Y-94868452D03*
D14*
X231694567Y-97066723D03*
D13*
X233782150Y-91784678D03*
%TD*%
D22*
%TO.C,MX6*%
G36*
X185303121Y-93626848D02*
G01*
X185521010Y-91136361D01*
X188061307Y-91358608D01*
X187843418Y-93849095D01*
X185303121Y-93626848D01*
G37*
G36*
X172230834Y-95032873D02*
G01*
X172448723Y-92542386D01*
X174989020Y-92764633D01*
X174771131Y-95255120D01*
X172230834Y-95032873D01*
G37*
D16*
X185507260Y-97489337D03*
X175385922Y-96603835D03*
D13*
X176872465Y-94184188D03*
D14*
X180446591Y-97046586D03*
D13*
X183419677Y-92207293D03*
%TD*%
D22*
%TO.C,MX5*%
G36*
X166524851Y-89689230D02*
G01*
X166742740Y-87198743D01*
X169283037Y-87420990D01*
X169065148Y-89911477D01*
X166524851Y-89689230D01*
G37*
G36*
X153452564Y-91095255D02*
G01*
X153670453Y-88604768D01*
X156210750Y-88827015D01*
X155992861Y-91317502D01*
X153452564Y-91095255D01*
G37*
D16*
X166728990Y-93551719D03*
X156607652Y-92666217D03*
D13*
X158094195Y-90246570D03*
D14*
X161668321Y-93108968D03*
D13*
X164641407Y-88269675D03*
%TD*%
D22*
%TO.C,MX4*%
G36*
X147829639Y-84802240D02*
G01*
X148047528Y-82311753D01*
X150587825Y-82534000D01*
X150369936Y-85024487D01*
X147829639Y-84802240D01*
G37*
G36*
X134757352Y-86208265D02*
G01*
X134975241Y-83717778D01*
X137515538Y-83940025D01*
X137297649Y-86430512D01*
X134757352Y-86208265D01*
G37*
D16*
X148033778Y-88664729D03*
X137912440Y-87779227D03*
D13*
X139398983Y-85359580D03*
D14*
X142973109Y-88221978D03*
D13*
X145946195Y-83382685D03*
%TD*%
D22*
%TO.C,MX3*%
G36*
X128569832Y-86368598D02*
G01*
X128787721Y-83878111D01*
X131328018Y-84100358D01*
X131110129Y-86590845D01*
X128569832Y-86368598D01*
G37*
G36*
X115497545Y-87774623D02*
G01*
X115715434Y-85284136D01*
X118255731Y-85506383D01*
X118037842Y-87996870D01*
X115497545Y-87774623D01*
G37*
D16*
X128773971Y-90231087D03*
X118652633Y-89345585D03*
D13*
X120139176Y-86925938D03*
D14*
X123713302Y-89788336D03*
D13*
X126686388Y-84949043D03*
%TD*%
D22*
%TO.C,MX2*%
G36*
X108762165Y-94197034D02*
G01*
X108980054Y-91706547D01*
X111520351Y-91928794D01*
X111302462Y-94419281D01*
X108762165Y-94197034D01*
G37*
G36*
X95689878Y-95603059D02*
G01*
X95907767Y-93112572D01*
X98448064Y-93334819D01*
X98230175Y-95825306D01*
X95689878Y-95603059D01*
G37*
D16*
X108966304Y-98059523D03*
X98844966Y-97174021D03*
D13*
X100331509Y-94754374D03*
D14*
X103905635Y-97616772D03*
D13*
X106878721Y-92777479D03*
%TD*%
D22*
%TO.C,MX1*%
G36*
X89369534Y-97281594D02*
G01*
X89587423Y-94791107D01*
X92127720Y-95013354D01*
X91909831Y-97503841D01*
X89369534Y-97281594D01*
G37*
G36*
X76297247Y-98687619D02*
G01*
X76515136Y-96197132D01*
X79055433Y-96419379D01*
X78837544Y-98909866D01*
X76297247Y-98687619D01*
G37*
D16*
X89573673Y-101144083D03*
X79452335Y-100258581D03*
D13*
X80938878Y-97838934D03*
D14*
X84513004Y-100701332D03*
D13*
X87486090Y-95862039D03*
%TD*%
%TO.C,D66*%
G36*
G01*
X343105000Y-82970000D02*
X344255000Y-82970000D01*
G75*
G02*
X344305000Y-83020000I0J-50000D01*
G01*
X344305000Y-84020000D01*
G75*
G02*
X344255000Y-84070000I-50000J0D01*
G01*
X343105000Y-84070000D01*
G75*
G02*
X343055000Y-84020000I0J50000D01*
G01*
X343055000Y-83020000D01*
G75*
G02*
X343105000Y-82970000I50000J0D01*
G01*
G37*
G36*
G01*
X343105000Y-86470000D02*
X344255000Y-86470000D01*
G75*
G02*
X344305000Y-86520000I0J-50000D01*
G01*
X344305000Y-87520000D01*
G75*
G02*
X344255000Y-87570000I-50000J0D01*
G01*
X343105000Y-87570000D01*
G75*
G02*
X343055000Y-87520000I0J50000D01*
G01*
X343055000Y-86520000D01*
G75*
G02*
X343105000Y-86470000I50000J0D01*
G01*
G37*
G36*
G01*
X343110000Y-86465000D02*
X344510000Y-86465000D01*
G75*
G02*
X344560000Y-86515000I0J-50000D01*
G01*
X344560000Y-87065000D01*
G75*
G02*
X344510000Y-87115000I-50000J0D01*
G01*
X343110000Y-87115000D01*
G75*
G02*
X343060000Y-87065000I0J50000D01*
G01*
X343060000Y-86515000D01*
G75*
G02*
X343110000Y-86465000I50000J0D01*
G01*
G37*
G36*
G01*
X343110000Y-85520000D02*
X344510000Y-85520000D01*
G75*
G02*
X344560000Y-85570000I0J-50000D01*
G01*
X344560000Y-86020000D01*
G75*
G02*
X344510000Y-86070000I-50000J0D01*
G01*
X343110000Y-86070000D01*
G75*
G02*
X343060000Y-86020000I0J50000D01*
G01*
X343060000Y-85570000D01*
G75*
G02*
X343110000Y-85520000I50000J0D01*
G01*
G37*
G36*
G01*
X343110000Y-84470000D02*
X344510000Y-84470000D01*
G75*
G02*
X344560000Y-84520000I0J-50000D01*
G01*
X344560000Y-85120000D01*
G75*
G02*
X344510000Y-85170000I-50000J0D01*
G01*
X343110000Y-85170000D01*
G75*
G02*
X343060000Y-85120000I0J50000D01*
G01*
X343060000Y-84520000D01*
G75*
G02*
X343110000Y-84470000I50000J0D01*
G01*
G37*
G36*
G01*
X343110000Y-83420000D02*
X344510000Y-83420000D01*
G75*
G02*
X344560000Y-83470000I0J-50000D01*
G01*
X344560000Y-84020000D01*
G75*
G02*
X344510000Y-84070000I-50000J0D01*
G01*
X343110000Y-84070000D01*
G75*
G02*
X343060000Y-84020000I0J50000D01*
G01*
X343060000Y-83470000D01*
G75*
G02*
X343110000Y-83420000I50000J0D01*
G01*
G37*
%TD*%
%TO.C,D68*%
G36*
G01*
X343105000Y-121590000D02*
X344255000Y-121590000D01*
G75*
G02*
X344305000Y-121640000I0J-50000D01*
G01*
X344305000Y-122640000D01*
G75*
G02*
X344255000Y-122690000I-50000J0D01*
G01*
X343105000Y-122690000D01*
G75*
G02*
X343055000Y-122640000I0J50000D01*
G01*
X343055000Y-121640000D01*
G75*
G02*
X343105000Y-121590000I50000J0D01*
G01*
G37*
G36*
G01*
X343105000Y-125090000D02*
X344255000Y-125090000D01*
G75*
G02*
X344305000Y-125140000I0J-50000D01*
G01*
X344305000Y-126140000D01*
G75*
G02*
X344255000Y-126190000I-50000J0D01*
G01*
X343105000Y-126190000D01*
G75*
G02*
X343055000Y-126140000I0J50000D01*
G01*
X343055000Y-125140000D01*
G75*
G02*
X343105000Y-125090000I50000J0D01*
G01*
G37*
G36*
G01*
X343110000Y-125085000D02*
X344510000Y-125085000D01*
G75*
G02*
X344560000Y-125135000I0J-50000D01*
G01*
X344560000Y-125685000D01*
G75*
G02*
X344510000Y-125735000I-50000J0D01*
G01*
X343110000Y-125735000D01*
G75*
G02*
X343060000Y-125685000I0J50000D01*
G01*
X343060000Y-125135000D01*
G75*
G02*
X343110000Y-125085000I50000J0D01*
G01*
G37*
G36*
G01*
X343110000Y-124140000D02*
X344510000Y-124140000D01*
G75*
G02*
X344560000Y-124190000I0J-50000D01*
G01*
X344560000Y-124640000D01*
G75*
G02*
X344510000Y-124690000I-50000J0D01*
G01*
X343110000Y-124690000D01*
G75*
G02*
X343060000Y-124640000I0J50000D01*
G01*
X343060000Y-124190000D01*
G75*
G02*
X343110000Y-124140000I50000J0D01*
G01*
G37*
G36*
G01*
X343110000Y-123090000D02*
X344510000Y-123090000D01*
G75*
G02*
X344560000Y-123140000I0J-50000D01*
G01*
X344560000Y-123740000D01*
G75*
G02*
X344510000Y-123790000I-50000J0D01*
G01*
X343110000Y-123790000D01*
G75*
G02*
X343060000Y-123740000I0J50000D01*
G01*
X343060000Y-123140000D01*
G75*
G02*
X343110000Y-123090000I50000J0D01*
G01*
G37*
G36*
G01*
X343110000Y-122040000D02*
X344510000Y-122040000D01*
G75*
G02*
X344560000Y-122090000I0J-50000D01*
G01*
X344560000Y-122640000D01*
G75*
G02*
X344510000Y-122690000I-50000J0D01*
G01*
X343110000Y-122690000D01*
G75*
G02*
X343060000Y-122640000I0J50000D01*
G01*
X343060000Y-122090000D01*
G75*
G02*
X343110000Y-122040000I50000J0D01*
G01*
G37*
%TD*%
%TO.C,D67*%
G36*
G01*
X343105000Y-102280000D02*
X344255000Y-102280000D01*
G75*
G02*
X344305000Y-102330000I0J-50000D01*
G01*
X344305000Y-103330000D01*
G75*
G02*
X344255000Y-103380000I-50000J0D01*
G01*
X343105000Y-103380000D01*
G75*
G02*
X343055000Y-103330000I0J50000D01*
G01*
X343055000Y-102330000D01*
G75*
G02*
X343105000Y-102280000I50000J0D01*
G01*
G37*
G36*
G01*
X343105000Y-105780000D02*
X344255000Y-105780000D01*
G75*
G02*
X344305000Y-105830000I0J-50000D01*
G01*
X344305000Y-106830000D01*
G75*
G02*
X344255000Y-106880000I-50000J0D01*
G01*
X343105000Y-106880000D01*
G75*
G02*
X343055000Y-106830000I0J50000D01*
G01*
X343055000Y-105830000D01*
G75*
G02*
X343105000Y-105780000I50000J0D01*
G01*
G37*
G36*
G01*
X343110000Y-105775000D02*
X344510000Y-105775000D01*
G75*
G02*
X344560000Y-105825000I0J-50000D01*
G01*
X344560000Y-106375000D01*
G75*
G02*
X344510000Y-106425000I-50000J0D01*
G01*
X343110000Y-106425000D01*
G75*
G02*
X343060000Y-106375000I0J50000D01*
G01*
X343060000Y-105825000D01*
G75*
G02*
X343110000Y-105775000I50000J0D01*
G01*
G37*
G36*
G01*
X343110000Y-104830000D02*
X344510000Y-104830000D01*
G75*
G02*
X344560000Y-104880000I0J-50000D01*
G01*
X344560000Y-105330000D01*
G75*
G02*
X344510000Y-105380000I-50000J0D01*
G01*
X343110000Y-105380000D01*
G75*
G02*
X343060000Y-105330000I0J50000D01*
G01*
X343060000Y-104880000D01*
G75*
G02*
X343110000Y-104830000I50000J0D01*
G01*
G37*
G36*
G01*
X343110000Y-103780000D02*
X344510000Y-103780000D01*
G75*
G02*
X344560000Y-103830000I0J-50000D01*
G01*
X344560000Y-104430000D01*
G75*
G02*
X344510000Y-104480000I-50000J0D01*
G01*
X343110000Y-104480000D01*
G75*
G02*
X343060000Y-104430000I0J50000D01*
G01*
X343060000Y-103830000D01*
G75*
G02*
X343110000Y-103780000I50000J0D01*
G01*
G37*
G36*
G01*
X343110000Y-102730000D02*
X344510000Y-102730000D01*
G75*
G02*
X344560000Y-102780000I0J-50000D01*
G01*
X344560000Y-103330000D01*
G75*
G02*
X344510000Y-103380000I-50000J0D01*
G01*
X343110000Y-103380000D01*
G75*
G02*
X343060000Y-103330000I0J50000D01*
G01*
X343060000Y-102780000D01*
G75*
G02*
X343110000Y-102730000I50000J0D01*
G01*
G37*
%TD*%
%TO.C,D90*%
G36*
G01*
X71030000Y-81195000D02*
X71030000Y-80045000D01*
G75*
G02*
X71080000Y-79995000I50000J0D01*
G01*
X72080000Y-79995000D01*
G75*
G02*
X72130000Y-80045000I0J-50000D01*
G01*
X72130000Y-81195000D01*
G75*
G02*
X72080000Y-81245000I-50000J0D01*
G01*
X71080000Y-81245000D01*
G75*
G02*
X71030000Y-81195000I0J50000D01*
G01*
G37*
G36*
G01*
X74530000Y-81195000D02*
X74530000Y-80045000D01*
G75*
G02*
X74580000Y-79995000I50000J0D01*
G01*
X75580000Y-79995000D01*
G75*
G02*
X75630000Y-80045000I0J-50000D01*
G01*
X75630000Y-81195000D01*
G75*
G02*
X75580000Y-81245000I-50000J0D01*
G01*
X74580000Y-81245000D01*
G75*
G02*
X74530000Y-81195000I0J50000D01*
G01*
G37*
G36*
G01*
X74525000Y-81190000D02*
X74525000Y-79790000D01*
G75*
G02*
X74575000Y-79740000I50000J0D01*
G01*
X75125000Y-79740000D01*
G75*
G02*
X75175000Y-79790000I0J-50000D01*
G01*
X75175000Y-81190000D01*
G75*
G02*
X75125000Y-81240000I-50000J0D01*
G01*
X74575000Y-81240000D01*
G75*
G02*
X74525000Y-81190000I0J50000D01*
G01*
G37*
G36*
G01*
X73580000Y-81190000D02*
X73580000Y-79790000D01*
G75*
G02*
X73630000Y-79740000I50000J0D01*
G01*
X74080000Y-79740000D01*
G75*
G02*
X74130000Y-79790000I0J-50000D01*
G01*
X74130000Y-81190000D01*
G75*
G02*
X74080000Y-81240000I-50000J0D01*
G01*
X73630000Y-81240000D01*
G75*
G02*
X73580000Y-81190000I0J50000D01*
G01*
G37*
G36*
G01*
X72530000Y-81190000D02*
X72530000Y-79790000D01*
G75*
G02*
X72580000Y-79740000I50000J0D01*
G01*
X73180000Y-79740000D01*
G75*
G02*
X73230000Y-79790000I0J-50000D01*
G01*
X73230000Y-81190000D01*
G75*
G02*
X73180000Y-81240000I-50000J0D01*
G01*
X72580000Y-81240000D01*
G75*
G02*
X72530000Y-81190000I0J50000D01*
G01*
G37*
G36*
G01*
X71480000Y-81190000D02*
X71480000Y-79790000D01*
G75*
G02*
X71530000Y-79740000I50000J0D01*
G01*
X72080000Y-79740000D01*
G75*
G02*
X72130000Y-79790000I0J-50000D01*
G01*
X72130000Y-81190000D01*
G75*
G02*
X72080000Y-81240000I-50000J0D01*
G01*
X71530000Y-81240000D01*
G75*
G02*
X71480000Y-81190000I0J50000D01*
G01*
G37*
%TD*%
%TO.C,D89*%
G36*
G01*
X69695000Y-87360000D02*
X68545000Y-87360000D01*
G75*
G02*
X68495000Y-87310000I0J50000D01*
G01*
X68495000Y-86310000D01*
G75*
G02*
X68545000Y-86260000I50000J0D01*
G01*
X69695000Y-86260000D01*
G75*
G02*
X69745000Y-86310000I0J-50000D01*
G01*
X69745000Y-87310000D01*
G75*
G02*
X69695000Y-87360000I-50000J0D01*
G01*
G37*
G36*
G01*
X69695000Y-83860000D02*
X68545000Y-83860000D01*
G75*
G02*
X68495000Y-83810000I0J50000D01*
G01*
X68495000Y-82810000D01*
G75*
G02*
X68545000Y-82760000I50000J0D01*
G01*
X69695000Y-82760000D01*
G75*
G02*
X69745000Y-82810000I0J-50000D01*
G01*
X69745000Y-83810000D01*
G75*
G02*
X69695000Y-83860000I-50000J0D01*
G01*
G37*
G36*
G01*
X69690000Y-83865000D02*
X68290000Y-83865000D01*
G75*
G02*
X68240000Y-83815000I0J50000D01*
G01*
X68240000Y-83265000D01*
G75*
G02*
X68290000Y-83215000I50000J0D01*
G01*
X69690000Y-83215000D01*
G75*
G02*
X69740000Y-83265000I0J-50000D01*
G01*
X69740000Y-83815000D01*
G75*
G02*
X69690000Y-83865000I-50000J0D01*
G01*
G37*
G36*
G01*
X69690000Y-84810000D02*
X68290000Y-84810000D01*
G75*
G02*
X68240000Y-84760000I0J50000D01*
G01*
X68240000Y-84310000D01*
G75*
G02*
X68290000Y-84260000I50000J0D01*
G01*
X69690000Y-84260000D01*
G75*
G02*
X69740000Y-84310000I0J-50000D01*
G01*
X69740000Y-84760000D01*
G75*
G02*
X69690000Y-84810000I-50000J0D01*
G01*
G37*
G36*
G01*
X69690000Y-85860000D02*
X68290000Y-85860000D01*
G75*
G02*
X68240000Y-85810000I0J50000D01*
G01*
X68240000Y-85210000D01*
G75*
G02*
X68290000Y-85160000I50000J0D01*
G01*
X69690000Y-85160000D01*
G75*
G02*
X69740000Y-85210000I0J-50000D01*
G01*
X69740000Y-85810000D01*
G75*
G02*
X69690000Y-85860000I-50000J0D01*
G01*
G37*
G36*
G01*
X69690000Y-86910000D02*
X68290000Y-86910000D01*
G75*
G02*
X68240000Y-86860000I0J50000D01*
G01*
X68240000Y-86310000D01*
G75*
G02*
X68290000Y-86260000I50000J0D01*
G01*
X69690000Y-86260000D01*
G75*
G02*
X69740000Y-86310000I0J-50000D01*
G01*
X69740000Y-86860000D01*
G75*
G02*
X69690000Y-86910000I-50000J0D01*
G01*
G37*
%TD*%
%TO.C,D88*%
G36*
G01*
X69695000Y-106697500D02*
X68545000Y-106697500D01*
G75*
G02*
X68495000Y-106647500I0J50000D01*
G01*
X68495000Y-105647500D01*
G75*
G02*
X68545000Y-105597500I50000J0D01*
G01*
X69695000Y-105597500D01*
G75*
G02*
X69745000Y-105647500I0J-50000D01*
G01*
X69745000Y-106647500D01*
G75*
G02*
X69695000Y-106697500I-50000J0D01*
G01*
G37*
G36*
G01*
X69695000Y-103197500D02*
X68545000Y-103197500D01*
G75*
G02*
X68495000Y-103147500I0J50000D01*
G01*
X68495000Y-102147500D01*
G75*
G02*
X68545000Y-102097500I50000J0D01*
G01*
X69695000Y-102097500D01*
G75*
G02*
X69745000Y-102147500I0J-50000D01*
G01*
X69745000Y-103147500D01*
G75*
G02*
X69695000Y-103197500I-50000J0D01*
G01*
G37*
G36*
G01*
X69690000Y-103202500D02*
X68290000Y-103202500D01*
G75*
G02*
X68240000Y-103152500I0J50000D01*
G01*
X68240000Y-102602500D01*
G75*
G02*
X68290000Y-102552500I50000J0D01*
G01*
X69690000Y-102552500D01*
G75*
G02*
X69740000Y-102602500I0J-50000D01*
G01*
X69740000Y-103152500D01*
G75*
G02*
X69690000Y-103202500I-50000J0D01*
G01*
G37*
G36*
G01*
X69690000Y-104147500D02*
X68290000Y-104147500D01*
G75*
G02*
X68240000Y-104097500I0J50000D01*
G01*
X68240000Y-103647500D01*
G75*
G02*
X68290000Y-103597500I50000J0D01*
G01*
X69690000Y-103597500D01*
G75*
G02*
X69740000Y-103647500I0J-50000D01*
G01*
X69740000Y-104097500D01*
G75*
G02*
X69690000Y-104147500I-50000J0D01*
G01*
G37*
G36*
G01*
X69690000Y-105197500D02*
X68290000Y-105197500D01*
G75*
G02*
X68240000Y-105147500I0J50000D01*
G01*
X68240000Y-104547500D01*
G75*
G02*
X68290000Y-104497500I50000J0D01*
G01*
X69690000Y-104497500D01*
G75*
G02*
X69740000Y-104547500I0J-50000D01*
G01*
X69740000Y-105147500D01*
G75*
G02*
X69690000Y-105197500I-50000J0D01*
G01*
G37*
G36*
G01*
X69690000Y-106247500D02*
X68290000Y-106247500D01*
G75*
G02*
X68240000Y-106197500I0J50000D01*
G01*
X68240000Y-105647500D01*
G75*
G02*
X68290000Y-105597500I50000J0D01*
G01*
X69690000Y-105597500D01*
G75*
G02*
X69740000Y-105647500I0J-50000D01*
G01*
X69740000Y-106197500D01*
G75*
G02*
X69690000Y-106247500I-50000J0D01*
G01*
G37*
%TD*%
%TO.C,D87*%
G36*
G01*
X69695000Y-126035000D02*
X68545000Y-126035000D01*
G75*
G02*
X68495000Y-125985000I0J50000D01*
G01*
X68495000Y-124985000D01*
G75*
G02*
X68545000Y-124935000I50000J0D01*
G01*
X69695000Y-124935000D01*
G75*
G02*
X69745000Y-124985000I0J-50000D01*
G01*
X69745000Y-125985000D01*
G75*
G02*
X69695000Y-126035000I-50000J0D01*
G01*
G37*
G36*
G01*
X69695000Y-122535000D02*
X68545000Y-122535000D01*
G75*
G02*
X68495000Y-122485000I0J50000D01*
G01*
X68495000Y-121485000D01*
G75*
G02*
X68545000Y-121435000I50000J0D01*
G01*
X69695000Y-121435000D01*
G75*
G02*
X69745000Y-121485000I0J-50000D01*
G01*
X69745000Y-122485000D01*
G75*
G02*
X69695000Y-122535000I-50000J0D01*
G01*
G37*
G36*
G01*
X69690000Y-122540000D02*
X68290000Y-122540000D01*
G75*
G02*
X68240000Y-122490000I0J50000D01*
G01*
X68240000Y-121940000D01*
G75*
G02*
X68290000Y-121890000I50000J0D01*
G01*
X69690000Y-121890000D01*
G75*
G02*
X69740000Y-121940000I0J-50000D01*
G01*
X69740000Y-122490000D01*
G75*
G02*
X69690000Y-122540000I-50000J0D01*
G01*
G37*
G36*
G01*
X69690000Y-123485000D02*
X68290000Y-123485000D01*
G75*
G02*
X68240000Y-123435000I0J50000D01*
G01*
X68240000Y-122985000D01*
G75*
G02*
X68290000Y-122935000I50000J0D01*
G01*
X69690000Y-122935000D01*
G75*
G02*
X69740000Y-122985000I0J-50000D01*
G01*
X69740000Y-123435000D01*
G75*
G02*
X69690000Y-123485000I-50000J0D01*
G01*
G37*
G36*
G01*
X69690000Y-124535000D02*
X68290000Y-124535000D01*
G75*
G02*
X68240000Y-124485000I0J50000D01*
G01*
X68240000Y-123885000D01*
G75*
G02*
X68290000Y-123835000I50000J0D01*
G01*
X69690000Y-123835000D01*
G75*
G02*
X69740000Y-123885000I0J-50000D01*
G01*
X69740000Y-124485000D01*
G75*
G02*
X69690000Y-124535000I-50000J0D01*
G01*
G37*
G36*
G01*
X69690000Y-125585000D02*
X68290000Y-125585000D01*
G75*
G02*
X68240000Y-125535000I0J50000D01*
G01*
X68240000Y-124985000D01*
G75*
G02*
X68290000Y-124935000I50000J0D01*
G01*
X69690000Y-124935000D01*
G75*
G02*
X69740000Y-124985000I0J-50000D01*
G01*
X69740000Y-125535000D01*
G75*
G02*
X69690000Y-125585000I-50000J0D01*
G01*
G37*
%TD*%
%TO.C,D86*%
G36*
G01*
X69695000Y-145372500D02*
X68545000Y-145372500D01*
G75*
G02*
X68495000Y-145322500I0J50000D01*
G01*
X68495000Y-144322500D01*
G75*
G02*
X68545000Y-144272500I50000J0D01*
G01*
X69695000Y-144272500D01*
G75*
G02*
X69745000Y-144322500I0J-50000D01*
G01*
X69745000Y-145322500D01*
G75*
G02*
X69695000Y-145372500I-50000J0D01*
G01*
G37*
G36*
G01*
X69695000Y-141872500D02*
X68545000Y-141872500D01*
G75*
G02*
X68495000Y-141822500I0J50000D01*
G01*
X68495000Y-140822500D01*
G75*
G02*
X68545000Y-140772500I50000J0D01*
G01*
X69695000Y-140772500D01*
G75*
G02*
X69745000Y-140822500I0J-50000D01*
G01*
X69745000Y-141822500D01*
G75*
G02*
X69695000Y-141872500I-50000J0D01*
G01*
G37*
G36*
G01*
X69690000Y-141877500D02*
X68290000Y-141877500D01*
G75*
G02*
X68240000Y-141827500I0J50000D01*
G01*
X68240000Y-141277500D01*
G75*
G02*
X68290000Y-141227500I50000J0D01*
G01*
X69690000Y-141227500D01*
G75*
G02*
X69740000Y-141277500I0J-50000D01*
G01*
X69740000Y-141827500D01*
G75*
G02*
X69690000Y-141877500I-50000J0D01*
G01*
G37*
G36*
G01*
X69690000Y-142822500D02*
X68290000Y-142822500D01*
G75*
G02*
X68240000Y-142772500I0J50000D01*
G01*
X68240000Y-142322500D01*
G75*
G02*
X68290000Y-142272500I50000J0D01*
G01*
X69690000Y-142272500D01*
G75*
G02*
X69740000Y-142322500I0J-50000D01*
G01*
X69740000Y-142772500D01*
G75*
G02*
X69690000Y-142822500I-50000J0D01*
G01*
G37*
G36*
G01*
X69690000Y-143872500D02*
X68290000Y-143872500D01*
G75*
G02*
X68240000Y-143822500I0J50000D01*
G01*
X68240000Y-143222500D01*
G75*
G02*
X68290000Y-143172500I50000J0D01*
G01*
X69690000Y-143172500D01*
G75*
G02*
X69740000Y-143222500I0J-50000D01*
G01*
X69740000Y-143822500D01*
G75*
G02*
X69690000Y-143872500I-50000J0D01*
G01*
G37*
G36*
G01*
X69690000Y-144922500D02*
X68290000Y-144922500D01*
G75*
G02*
X68240000Y-144872500I0J50000D01*
G01*
X68240000Y-144322500D01*
G75*
G02*
X68290000Y-144272500I50000J0D01*
G01*
X69690000Y-144272500D01*
G75*
G02*
X69740000Y-144322500I0J-50000D01*
G01*
X69740000Y-144872500D01*
G75*
G02*
X69690000Y-144922500I-50000J0D01*
G01*
G37*
%TD*%
%TO.C,D85*%
G36*
G01*
X69695000Y-164710000D02*
X68545000Y-164710000D01*
G75*
G02*
X68495000Y-164660000I0J50000D01*
G01*
X68495000Y-163660000D01*
G75*
G02*
X68545000Y-163610000I50000J0D01*
G01*
X69695000Y-163610000D01*
G75*
G02*
X69745000Y-163660000I0J-50000D01*
G01*
X69745000Y-164660000D01*
G75*
G02*
X69695000Y-164710000I-50000J0D01*
G01*
G37*
G36*
G01*
X69695000Y-161210000D02*
X68545000Y-161210000D01*
G75*
G02*
X68495000Y-161160000I0J50000D01*
G01*
X68495000Y-160160000D01*
G75*
G02*
X68545000Y-160110000I50000J0D01*
G01*
X69695000Y-160110000D01*
G75*
G02*
X69745000Y-160160000I0J-50000D01*
G01*
X69745000Y-161160000D01*
G75*
G02*
X69695000Y-161210000I-50000J0D01*
G01*
G37*
G36*
G01*
X69690000Y-161215000D02*
X68290000Y-161215000D01*
G75*
G02*
X68240000Y-161165000I0J50000D01*
G01*
X68240000Y-160615000D01*
G75*
G02*
X68290000Y-160565000I50000J0D01*
G01*
X69690000Y-160565000D01*
G75*
G02*
X69740000Y-160615000I0J-50000D01*
G01*
X69740000Y-161165000D01*
G75*
G02*
X69690000Y-161215000I-50000J0D01*
G01*
G37*
G36*
G01*
X69690000Y-162160000D02*
X68290000Y-162160000D01*
G75*
G02*
X68240000Y-162110000I0J50000D01*
G01*
X68240000Y-161660000D01*
G75*
G02*
X68290000Y-161610000I50000J0D01*
G01*
X69690000Y-161610000D01*
G75*
G02*
X69740000Y-161660000I0J-50000D01*
G01*
X69740000Y-162110000D01*
G75*
G02*
X69690000Y-162160000I-50000J0D01*
G01*
G37*
G36*
G01*
X69690000Y-163210000D02*
X68290000Y-163210000D01*
G75*
G02*
X68240000Y-163160000I0J50000D01*
G01*
X68240000Y-162560000D01*
G75*
G02*
X68290000Y-162510000I50000J0D01*
G01*
X69690000Y-162510000D01*
G75*
G02*
X69740000Y-162560000I0J-50000D01*
G01*
X69740000Y-163160000D01*
G75*
G02*
X69690000Y-163210000I-50000J0D01*
G01*
G37*
G36*
G01*
X69690000Y-164260000D02*
X68290000Y-164260000D01*
G75*
G02*
X68240000Y-164210000I0J50000D01*
G01*
X68240000Y-163660000D01*
G75*
G02*
X68290000Y-163610000I50000J0D01*
G01*
X69690000Y-163610000D01*
G75*
G02*
X69740000Y-163660000I0J-50000D01*
G01*
X69740000Y-164210000D01*
G75*
G02*
X69690000Y-164260000I-50000J0D01*
G01*
G37*
%TD*%
%TO.C,D84*%
G36*
G01*
X76320000Y-166255000D02*
X76320000Y-167405000D01*
G75*
G02*
X76270000Y-167455000I-50000J0D01*
G01*
X75270000Y-167455000D01*
G75*
G02*
X75220000Y-167405000I0J50000D01*
G01*
X75220000Y-166255000D01*
G75*
G02*
X75270000Y-166205000I50000J0D01*
G01*
X76270000Y-166205000D01*
G75*
G02*
X76320000Y-166255000I0J-50000D01*
G01*
G37*
G36*
G01*
X72820000Y-166255000D02*
X72820000Y-167405000D01*
G75*
G02*
X72770000Y-167455000I-50000J0D01*
G01*
X71770000Y-167455000D01*
G75*
G02*
X71720000Y-167405000I0J50000D01*
G01*
X71720000Y-166255000D01*
G75*
G02*
X71770000Y-166205000I50000J0D01*
G01*
X72770000Y-166205000D01*
G75*
G02*
X72820000Y-166255000I0J-50000D01*
G01*
G37*
G36*
G01*
X72825000Y-166260000D02*
X72825000Y-167660000D01*
G75*
G02*
X72775000Y-167710000I-50000J0D01*
G01*
X72225000Y-167710000D01*
G75*
G02*
X72175000Y-167660000I0J50000D01*
G01*
X72175000Y-166260000D01*
G75*
G02*
X72225000Y-166210000I50000J0D01*
G01*
X72775000Y-166210000D01*
G75*
G02*
X72825000Y-166260000I0J-50000D01*
G01*
G37*
G36*
G01*
X73770000Y-166260000D02*
X73770000Y-167660000D01*
G75*
G02*
X73720000Y-167710000I-50000J0D01*
G01*
X73270000Y-167710000D01*
G75*
G02*
X73220000Y-167660000I0J50000D01*
G01*
X73220000Y-166260000D01*
G75*
G02*
X73270000Y-166210000I50000J0D01*
G01*
X73720000Y-166210000D01*
G75*
G02*
X73770000Y-166260000I0J-50000D01*
G01*
G37*
G36*
G01*
X74820000Y-166260000D02*
X74820000Y-167660000D01*
G75*
G02*
X74770000Y-167710000I-50000J0D01*
G01*
X74170000Y-167710000D01*
G75*
G02*
X74120000Y-167660000I0J50000D01*
G01*
X74120000Y-166260000D01*
G75*
G02*
X74170000Y-166210000I50000J0D01*
G01*
X74770000Y-166210000D01*
G75*
G02*
X74820000Y-166260000I0J-50000D01*
G01*
G37*
G36*
G01*
X75870000Y-166260000D02*
X75870000Y-167660000D01*
G75*
G02*
X75820000Y-167710000I-50000J0D01*
G01*
X75270000Y-167710000D01*
G75*
G02*
X75220000Y-167660000I0J50000D01*
G01*
X75220000Y-166260000D01*
G75*
G02*
X75270000Y-166210000I50000J0D01*
G01*
X75820000Y-166210000D01*
G75*
G02*
X75870000Y-166260000I0J-50000D01*
G01*
G37*
%TD*%
%TO.C,D83*%
G36*
G01*
X96689230Y-166255000D02*
X96689230Y-167405000D01*
G75*
G02*
X96639230Y-167455000I-50000J0D01*
G01*
X95639230Y-167455000D01*
G75*
G02*
X95589230Y-167405000I0J50000D01*
G01*
X95589230Y-166255000D01*
G75*
G02*
X95639230Y-166205000I50000J0D01*
G01*
X96639230Y-166205000D01*
G75*
G02*
X96689230Y-166255000I0J-50000D01*
G01*
G37*
G36*
G01*
X93189230Y-166255000D02*
X93189230Y-167405000D01*
G75*
G02*
X93139230Y-167455000I-50000J0D01*
G01*
X92139230Y-167455000D01*
G75*
G02*
X92089230Y-167405000I0J50000D01*
G01*
X92089230Y-166255000D01*
G75*
G02*
X92139230Y-166205000I50000J0D01*
G01*
X93139230Y-166205000D01*
G75*
G02*
X93189230Y-166255000I0J-50000D01*
G01*
G37*
G36*
G01*
X93194230Y-166260000D02*
X93194230Y-167660000D01*
G75*
G02*
X93144230Y-167710000I-50000J0D01*
G01*
X92594230Y-167710000D01*
G75*
G02*
X92544230Y-167660000I0J50000D01*
G01*
X92544230Y-166260000D01*
G75*
G02*
X92594230Y-166210000I50000J0D01*
G01*
X93144230Y-166210000D01*
G75*
G02*
X93194230Y-166260000I0J-50000D01*
G01*
G37*
G36*
G01*
X94139230Y-166260000D02*
X94139230Y-167660000D01*
G75*
G02*
X94089230Y-167710000I-50000J0D01*
G01*
X93639230Y-167710000D01*
G75*
G02*
X93589230Y-167660000I0J50000D01*
G01*
X93589230Y-166260000D01*
G75*
G02*
X93639230Y-166210000I50000J0D01*
G01*
X94089230Y-166210000D01*
G75*
G02*
X94139230Y-166260000I0J-50000D01*
G01*
G37*
G36*
G01*
X95189230Y-166260000D02*
X95189230Y-167660000D01*
G75*
G02*
X95139230Y-167710000I-50000J0D01*
G01*
X94539230Y-167710000D01*
G75*
G02*
X94489230Y-167660000I0J50000D01*
G01*
X94489230Y-166260000D01*
G75*
G02*
X94539230Y-166210000I50000J0D01*
G01*
X95139230Y-166210000D01*
G75*
G02*
X95189230Y-166260000I0J-50000D01*
G01*
G37*
G36*
G01*
X96239230Y-166260000D02*
X96239230Y-167660000D01*
G75*
G02*
X96189230Y-167710000I-50000J0D01*
G01*
X95639230Y-167710000D01*
G75*
G02*
X95589230Y-167660000I0J50000D01*
G01*
X95589230Y-166260000D01*
G75*
G02*
X95639230Y-166210000I50000J0D01*
G01*
X96189230Y-166210000D01*
G75*
G02*
X96239230Y-166260000I0J-50000D01*
G01*
G37*
%TD*%
%TO.C,D82*%
G36*
G01*
X117058460Y-166255000D02*
X117058460Y-167405000D01*
G75*
G02*
X117008460Y-167455000I-50000J0D01*
G01*
X116008460Y-167455000D01*
G75*
G02*
X115958460Y-167405000I0J50000D01*
G01*
X115958460Y-166255000D01*
G75*
G02*
X116008460Y-166205000I50000J0D01*
G01*
X117008460Y-166205000D01*
G75*
G02*
X117058460Y-166255000I0J-50000D01*
G01*
G37*
G36*
G01*
X113558460Y-166255000D02*
X113558460Y-167405000D01*
G75*
G02*
X113508460Y-167455000I-50000J0D01*
G01*
X112508460Y-167455000D01*
G75*
G02*
X112458460Y-167405000I0J50000D01*
G01*
X112458460Y-166255000D01*
G75*
G02*
X112508460Y-166205000I50000J0D01*
G01*
X113508460Y-166205000D01*
G75*
G02*
X113558460Y-166255000I0J-50000D01*
G01*
G37*
G36*
G01*
X113563460Y-166260000D02*
X113563460Y-167660000D01*
G75*
G02*
X113513460Y-167710000I-50000J0D01*
G01*
X112963460Y-167710000D01*
G75*
G02*
X112913460Y-167660000I0J50000D01*
G01*
X112913460Y-166260000D01*
G75*
G02*
X112963460Y-166210000I50000J0D01*
G01*
X113513460Y-166210000D01*
G75*
G02*
X113563460Y-166260000I0J-50000D01*
G01*
G37*
G36*
G01*
X114508460Y-166260000D02*
X114508460Y-167660000D01*
G75*
G02*
X114458460Y-167710000I-50000J0D01*
G01*
X114008460Y-167710000D01*
G75*
G02*
X113958460Y-167660000I0J50000D01*
G01*
X113958460Y-166260000D01*
G75*
G02*
X114008460Y-166210000I50000J0D01*
G01*
X114458460Y-166210000D01*
G75*
G02*
X114508460Y-166260000I0J-50000D01*
G01*
G37*
G36*
G01*
X115558460Y-166260000D02*
X115558460Y-167660000D01*
G75*
G02*
X115508460Y-167710000I-50000J0D01*
G01*
X114908460Y-167710000D01*
G75*
G02*
X114858460Y-167660000I0J50000D01*
G01*
X114858460Y-166260000D01*
G75*
G02*
X114908460Y-166210000I50000J0D01*
G01*
X115508460Y-166210000D01*
G75*
G02*
X115558460Y-166260000I0J-50000D01*
G01*
G37*
G36*
G01*
X116608460Y-166260000D02*
X116608460Y-167660000D01*
G75*
G02*
X116558460Y-167710000I-50000J0D01*
G01*
X116008460Y-167710000D01*
G75*
G02*
X115958460Y-167660000I0J50000D01*
G01*
X115958460Y-166260000D01*
G75*
G02*
X116008460Y-166210000I50000J0D01*
G01*
X116558460Y-166210000D01*
G75*
G02*
X116608460Y-166260000I0J-50000D01*
G01*
G37*
%TD*%
%TO.C,D81*%
G36*
G01*
X137427690Y-166255000D02*
X137427690Y-167405000D01*
G75*
G02*
X137377690Y-167455000I-50000J0D01*
G01*
X136377690Y-167455000D01*
G75*
G02*
X136327690Y-167405000I0J50000D01*
G01*
X136327690Y-166255000D01*
G75*
G02*
X136377690Y-166205000I50000J0D01*
G01*
X137377690Y-166205000D01*
G75*
G02*
X137427690Y-166255000I0J-50000D01*
G01*
G37*
G36*
G01*
X133927690Y-166255000D02*
X133927690Y-167405000D01*
G75*
G02*
X133877690Y-167455000I-50000J0D01*
G01*
X132877690Y-167455000D01*
G75*
G02*
X132827690Y-167405000I0J50000D01*
G01*
X132827690Y-166255000D01*
G75*
G02*
X132877690Y-166205000I50000J0D01*
G01*
X133877690Y-166205000D01*
G75*
G02*
X133927690Y-166255000I0J-50000D01*
G01*
G37*
G36*
G01*
X133932690Y-166260000D02*
X133932690Y-167660000D01*
G75*
G02*
X133882690Y-167710000I-50000J0D01*
G01*
X133332690Y-167710000D01*
G75*
G02*
X133282690Y-167660000I0J50000D01*
G01*
X133282690Y-166260000D01*
G75*
G02*
X133332690Y-166210000I50000J0D01*
G01*
X133882690Y-166210000D01*
G75*
G02*
X133932690Y-166260000I0J-50000D01*
G01*
G37*
G36*
G01*
X134877690Y-166260000D02*
X134877690Y-167660000D01*
G75*
G02*
X134827690Y-167710000I-50000J0D01*
G01*
X134377690Y-167710000D01*
G75*
G02*
X134327690Y-167660000I0J50000D01*
G01*
X134327690Y-166260000D01*
G75*
G02*
X134377690Y-166210000I50000J0D01*
G01*
X134827690Y-166210000D01*
G75*
G02*
X134877690Y-166260000I0J-50000D01*
G01*
G37*
G36*
G01*
X135927690Y-166260000D02*
X135927690Y-167660000D01*
G75*
G02*
X135877690Y-167710000I-50000J0D01*
G01*
X135277690Y-167710000D01*
G75*
G02*
X135227690Y-167660000I0J50000D01*
G01*
X135227690Y-166260000D01*
G75*
G02*
X135277690Y-166210000I50000J0D01*
G01*
X135877690Y-166210000D01*
G75*
G02*
X135927690Y-166260000I0J-50000D01*
G01*
G37*
G36*
G01*
X136977690Y-166260000D02*
X136977690Y-167660000D01*
G75*
G02*
X136927690Y-167710000I-50000J0D01*
G01*
X136377690Y-167710000D01*
G75*
G02*
X136327690Y-167660000I0J50000D01*
G01*
X136327690Y-166260000D01*
G75*
G02*
X136377690Y-166210000I50000J0D01*
G01*
X136927690Y-166210000D01*
G75*
G02*
X136977690Y-166260000I0J-50000D01*
G01*
G37*
%TD*%
%TO.C,D80*%
G36*
G01*
X157796920Y-166255000D02*
X157796920Y-167405000D01*
G75*
G02*
X157746920Y-167455000I-50000J0D01*
G01*
X156746920Y-167455000D01*
G75*
G02*
X156696920Y-167405000I0J50000D01*
G01*
X156696920Y-166255000D01*
G75*
G02*
X156746920Y-166205000I50000J0D01*
G01*
X157746920Y-166205000D01*
G75*
G02*
X157796920Y-166255000I0J-50000D01*
G01*
G37*
G36*
G01*
X154296920Y-166255000D02*
X154296920Y-167405000D01*
G75*
G02*
X154246920Y-167455000I-50000J0D01*
G01*
X153246920Y-167455000D01*
G75*
G02*
X153196920Y-167405000I0J50000D01*
G01*
X153196920Y-166255000D01*
G75*
G02*
X153246920Y-166205000I50000J0D01*
G01*
X154246920Y-166205000D01*
G75*
G02*
X154296920Y-166255000I0J-50000D01*
G01*
G37*
G36*
G01*
X154301920Y-166260000D02*
X154301920Y-167660000D01*
G75*
G02*
X154251920Y-167710000I-50000J0D01*
G01*
X153701920Y-167710000D01*
G75*
G02*
X153651920Y-167660000I0J50000D01*
G01*
X153651920Y-166260000D01*
G75*
G02*
X153701920Y-166210000I50000J0D01*
G01*
X154251920Y-166210000D01*
G75*
G02*
X154301920Y-166260000I0J-50000D01*
G01*
G37*
G36*
G01*
X155246920Y-166260000D02*
X155246920Y-167660000D01*
G75*
G02*
X155196920Y-167710000I-50000J0D01*
G01*
X154746920Y-167710000D01*
G75*
G02*
X154696920Y-167660000I0J50000D01*
G01*
X154696920Y-166260000D01*
G75*
G02*
X154746920Y-166210000I50000J0D01*
G01*
X155196920Y-166210000D01*
G75*
G02*
X155246920Y-166260000I0J-50000D01*
G01*
G37*
G36*
G01*
X156296920Y-166260000D02*
X156296920Y-167660000D01*
G75*
G02*
X156246920Y-167710000I-50000J0D01*
G01*
X155646920Y-167710000D01*
G75*
G02*
X155596920Y-167660000I0J50000D01*
G01*
X155596920Y-166260000D01*
G75*
G02*
X155646920Y-166210000I50000J0D01*
G01*
X156246920Y-166210000D01*
G75*
G02*
X156296920Y-166260000I0J-50000D01*
G01*
G37*
G36*
G01*
X157346920Y-166260000D02*
X157346920Y-167660000D01*
G75*
G02*
X157296920Y-167710000I-50000J0D01*
G01*
X156746920Y-167710000D01*
G75*
G02*
X156696920Y-167660000I0J50000D01*
G01*
X156696920Y-166260000D01*
G75*
G02*
X156746920Y-166210000I50000J0D01*
G01*
X157296920Y-166210000D01*
G75*
G02*
X157346920Y-166260000I0J-50000D01*
G01*
G37*
%TD*%
%TO.C,D79*%
G36*
G01*
X178166150Y-166255000D02*
X178166150Y-167405000D01*
G75*
G02*
X178116150Y-167455000I-50000J0D01*
G01*
X177116150Y-167455000D01*
G75*
G02*
X177066150Y-167405000I0J50000D01*
G01*
X177066150Y-166255000D01*
G75*
G02*
X177116150Y-166205000I50000J0D01*
G01*
X178116150Y-166205000D01*
G75*
G02*
X178166150Y-166255000I0J-50000D01*
G01*
G37*
G36*
G01*
X174666150Y-166255000D02*
X174666150Y-167405000D01*
G75*
G02*
X174616150Y-167455000I-50000J0D01*
G01*
X173616150Y-167455000D01*
G75*
G02*
X173566150Y-167405000I0J50000D01*
G01*
X173566150Y-166255000D01*
G75*
G02*
X173616150Y-166205000I50000J0D01*
G01*
X174616150Y-166205000D01*
G75*
G02*
X174666150Y-166255000I0J-50000D01*
G01*
G37*
G36*
G01*
X174671150Y-166260000D02*
X174671150Y-167660000D01*
G75*
G02*
X174621150Y-167710000I-50000J0D01*
G01*
X174071150Y-167710000D01*
G75*
G02*
X174021150Y-167660000I0J50000D01*
G01*
X174021150Y-166260000D01*
G75*
G02*
X174071150Y-166210000I50000J0D01*
G01*
X174621150Y-166210000D01*
G75*
G02*
X174671150Y-166260000I0J-50000D01*
G01*
G37*
G36*
G01*
X175616150Y-166260000D02*
X175616150Y-167660000D01*
G75*
G02*
X175566150Y-167710000I-50000J0D01*
G01*
X175116150Y-167710000D01*
G75*
G02*
X175066150Y-167660000I0J50000D01*
G01*
X175066150Y-166260000D01*
G75*
G02*
X175116150Y-166210000I50000J0D01*
G01*
X175566150Y-166210000D01*
G75*
G02*
X175616150Y-166260000I0J-50000D01*
G01*
G37*
G36*
G01*
X176666150Y-166260000D02*
X176666150Y-167660000D01*
G75*
G02*
X176616150Y-167710000I-50000J0D01*
G01*
X176016150Y-167710000D01*
G75*
G02*
X175966150Y-167660000I0J50000D01*
G01*
X175966150Y-166260000D01*
G75*
G02*
X176016150Y-166210000I50000J0D01*
G01*
X176616150Y-166210000D01*
G75*
G02*
X176666150Y-166260000I0J-50000D01*
G01*
G37*
G36*
G01*
X177716150Y-166260000D02*
X177716150Y-167660000D01*
G75*
G02*
X177666150Y-167710000I-50000J0D01*
G01*
X177116150Y-167710000D01*
G75*
G02*
X177066150Y-167660000I0J50000D01*
G01*
X177066150Y-166260000D01*
G75*
G02*
X177116150Y-166210000I50000J0D01*
G01*
X177666150Y-166210000D01*
G75*
G02*
X177716150Y-166260000I0J-50000D01*
G01*
G37*
%TD*%
%TO.C,D78*%
G36*
G01*
X198535380Y-166255000D02*
X198535380Y-167405000D01*
G75*
G02*
X198485380Y-167455000I-50000J0D01*
G01*
X197485380Y-167455000D01*
G75*
G02*
X197435380Y-167405000I0J50000D01*
G01*
X197435380Y-166255000D01*
G75*
G02*
X197485380Y-166205000I50000J0D01*
G01*
X198485380Y-166205000D01*
G75*
G02*
X198535380Y-166255000I0J-50000D01*
G01*
G37*
G36*
G01*
X195035380Y-166255000D02*
X195035380Y-167405000D01*
G75*
G02*
X194985380Y-167455000I-50000J0D01*
G01*
X193985380Y-167455000D01*
G75*
G02*
X193935380Y-167405000I0J50000D01*
G01*
X193935380Y-166255000D01*
G75*
G02*
X193985380Y-166205000I50000J0D01*
G01*
X194985380Y-166205000D01*
G75*
G02*
X195035380Y-166255000I0J-50000D01*
G01*
G37*
G36*
G01*
X195040380Y-166260000D02*
X195040380Y-167660000D01*
G75*
G02*
X194990380Y-167710000I-50000J0D01*
G01*
X194440380Y-167710000D01*
G75*
G02*
X194390380Y-167660000I0J50000D01*
G01*
X194390380Y-166260000D01*
G75*
G02*
X194440380Y-166210000I50000J0D01*
G01*
X194990380Y-166210000D01*
G75*
G02*
X195040380Y-166260000I0J-50000D01*
G01*
G37*
G36*
G01*
X195985380Y-166260000D02*
X195985380Y-167660000D01*
G75*
G02*
X195935380Y-167710000I-50000J0D01*
G01*
X195485380Y-167710000D01*
G75*
G02*
X195435380Y-167660000I0J50000D01*
G01*
X195435380Y-166260000D01*
G75*
G02*
X195485380Y-166210000I50000J0D01*
G01*
X195935380Y-166210000D01*
G75*
G02*
X195985380Y-166260000I0J-50000D01*
G01*
G37*
G36*
G01*
X197035380Y-166260000D02*
X197035380Y-167660000D01*
G75*
G02*
X196985380Y-167710000I-50000J0D01*
G01*
X196385380Y-167710000D01*
G75*
G02*
X196335380Y-167660000I0J50000D01*
G01*
X196335380Y-166260000D01*
G75*
G02*
X196385380Y-166210000I50000J0D01*
G01*
X196985380Y-166210000D01*
G75*
G02*
X197035380Y-166260000I0J-50000D01*
G01*
G37*
G36*
G01*
X198085380Y-166260000D02*
X198085380Y-167660000D01*
G75*
G02*
X198035380Y-167710000I-50000J0D01*
G01*
X197485380Y-167710000D01*
G75*
G02*
X197435380Y-167660000I0J50000D01*
G01*
X197435380Y-166260000D01*
G75*
G02*
X197485380Y-166210000I50000J0D01*
G01*
X198035380Y-166210000D01*
G75*
G02*
X198085380Y-166260000I0J-50000D01*
G01*
G37*
%TD*%
%TO.C,D77*%
G36*
G01*
X218904610Y-166255000D02*
X218904610Y-167405000D01*
G75*
G02*
X218854610Y-167455000I-50000J0D01*
G01*
X217854610Y-167455000D01*
G75*
G02*
X217804610Y-167405000I0J50000D01*
G01*
X217804610Y-166255000D01*
G75*
G02*
X217854610Y-166205000I50000J0D01*
G01*
X218854610Y-166205000D01*
G75*
G02*
X218904610Y-166255000I0J-50000D01*
G01*
G37*
G36*
G01*
X215404610Y-166255000D02*
X215404610Y-167405000D01*
G75*
G02*
X215354610Y-167455000I-50000J0D01*
G01*
X214354610Y-167455000D01*
G75*
G02*
X214304610Y-167405000I0J50000D01*
G01*
X214304610Y-166255000D01*
G75*
G02*
X214354610Y-166205000I50000J0D01*
G01*
X215354610Y-166205000D01*
G75*
G02*
X215404610Y-166255000I0J-50000D01*
G01*
G37*
G36*
G01*
X215409610Y-166260000D02*
X215409610Y-167660000D01*
G75*
G02*
X215359610Y-167710000I-50000J0D01*
G01*
X214809610Y-167710000D01*
G75*
G02*
X214759610Y-167660000I0J50000D01*
G01*
X214759610Y-166260000D01*
G75*
G02*
X214809610Y-166210000I50000J0D01*
G01*
X215359610Y-166210000D01*
G75*
G02*
X215409610Y-166260000I0J-50000D01*
G01*
G37*
G36*
G01*
X216354610Y-166260000D02*
X216354610Y-167660000D01*
G75*
G02*
X216304610Y-167710000I-50000J0D01*
G01*
X215854610Y-167710000D01*
G75*
G02*
X215804610Y-167660000I0J50000D01*
G01*
X215804610Y-166260000D01*
G75*
G02*
X215854610Y-166210000I50000J0D01*
G01*
X216304610Y-166210000D01*
G75*
G02*
X216354610Y-166260000I0J-50000D01*
G01*
G37*
G36*
G01*
X217404610Y-166260000D02*
X217404610Y-167660000D01*
G75*
G02*
X217354610Y-167710000I-50000J0D01*
G01*
X216754610Y-167710000D01*
G75*
G02*
X216704610Y-167660000I0J50000D01*
G01*
X216704610Y-166260000D01*
G75*
G02*
X216754610Y-166210000I50000J0D01*
G01*
X217354610Y-166210000D01*
G75*
G02*
X217404610Y-166260000I0J-50000D01*
G01*
G37*
G36*
G01*
X218454610Y-166260000D02*
X218454610Y-167660000D01*
G75*
G02*
X218404610Y-167710000I-50000J0D01*
G01*
X217854610Y-167710000D01*
G75*
G02*
X217804610Y-167660000I0J50000D01*
G01*
X217804610Y-166260000D01*
G75*
G02*
X217854610Y-166210000I50000J0D01*
G01*
X218404610Y-166210000D01*
G75*
G02*
X218454610Y-166260000I0J-50000D01*
G01*
G37*
%TD*%
%TO.C,D76*%
G36*
G01*
X239273840Y-166255000D02*
X239273840Y-167405000D01*
G75*
G02*
X239223840Y-167455000I-50000J0D01*
G01*
X238223840Y-167455000D01*
G75*
G02*
X238173840Y-167405000I0J50000D01*
G01*
X238173840Y-166255000D01*
G75*
G02*
X238223840Y-166205000I50000J0D01*
G01*
X239223840Y-166205000D01*
G75*
G02*
X239273840Y-166255000I0J-50000D01*
G01*
G37*
G36*
G01*
X235773840Y-166255000D02*
X235773840Y-167405000D01*
G75*
G02*
X235723840Y-167455000I-50000J0D01*
G01*
X234723840Y-167455000D01*
G75*
G02*
X234673840Y-167405000I0J50000D01*
G01*
X234673840Y-166255000D01*
G75*
G02*
X234723840Y-166205000I50000J0D01*
G01*
X235723840Y-166205000D01*
G75*
G02*
X235773840Y-166255000I0J-50000D01*
G01*
G37*
G36*
G01*
X235778840Y-166260000D02*
X235778840Y-167660000D01*
G75*
G02*
X235728840Y-167710000I-50000J0D01*
G01*
X235178840Y-167710000D01*
G75*
G02*
X235128840Y-167660000I0J50000D01*
G01*
X235128840Y-166260000D01*
G75*
G02*
X235178840Y-166210000I50000J0D01*
G01*
X235728840Y-166210000D01*
G75*
G02*
X235778840Y-166260000I0J-50000D01*
G01*
G37*
G36*
G01*
X236723840Y-166260000D02*
X236723840Y-167660000D01*
G75*
G02*
X236673840Y-167710000I-50000J0D01*
G01*
X236223840Y-167710000D01*
G75*
G02*
X236173840Y-167660000I0J50000D01*
G01*
X236173840Y-166260000D01*
G75*
G02*
X236223840Y-166210000I50000J0D01*
G01*
X236673840Y-166210000D01*
G75*
G02*
X236723840Y-166260000I0J-50000D01*
G01*
G37*
G36*
G01*
X237773840Y-166260000D02*
X237773840Y-167660000D01*
G75*
G02*
X237723840Y-167710000I-50000J0D01*
G01*
X237123840Y-167710000D01*
G75*
G02*
X237073840Y-167660000I0J50000D01*
G01*
X237073840Y-166260000D01*
G75*
G02*
X237123840Y-166210000I50000J0D01*
G01*
X237723840Y-166210000D01*
G75*
G02*
X237773840Y-166260000I0J-50000D01*
G01*
G37*
G36*
G01*
X238823840Y-166260000D02*
X238823840Y-167660000D01*
G75*
G02*
X238773840Y-167710000I-50000J0D01*
G01*
X238223840Y-167710000D01*
G75*
G02*
X238173840Y-167660000I0J50000D01*
G01*
X238173840Y-166260000D01*
G75*
G02*
X238223840Y-166210000I50000J0D01*
G01*
X238773840Y-166210000D01*
G75*
G02*
X238823840Y-166260000I0J-50000D01*
G01*
G37*
%TD*%
%TO.C,D75*%
G36*
G01*
X259643070Y-166255000D02*
X259643070Y-167405000D01*
G75*
G02*
X259593070Y-167455000I-50000J0D01*
G01*
X258593070Y-167455000D01*
G75*
G02*
X258543070Y-167405000I0J50000D01*
G01*
X258543070Y-166255000D01*
G75*
G02*
X258593070Y-166205000I50000J0D01*
G01*
X259593070Y-166205000D01*
G75*
G02*
X259643070Y-166255000I0J-50000D01*
G01*
G37*
G36*
G01*
X256143070Y-166255000D02*
X256143070Y-167405000D01*
G75*
G02*
X256093070Y-167455000I-50000J0D01*
G01*
X255093070Y-167455000D01*
G75*
G02*
X255043070Y-167405000I0J50000D01*
G01*
X255043070Y-166255000D01*
G75*
G02*
X255093070Y-166205000I50000J0D01*
G01*
X256093070Y-166205000D01*
G75*
G02*
X256143070Y-166255000I0J-50000D01*
G01*
G37*
G36*
G01*
X256148070Y-166260000D02*
X256148070Y-167660000D01*
G75*
G02*
X256098070Y-167710000I-50000J0D01*
G01*
X255548070Y-167710000D01*
G75*
G02*
X255498070Y-167660000I0J50000D01*
G01*
X255498070Y-166260000D01*
G75*
G02*
X255548070Y-166210000I50000J0D01*
G01*
X256098070Y-166210000D01*
G75*
G02*
X256148070Y-166260000I0J-50000D01*
G01*
G37*
G36*
G01*
X257093070Y-166260000D02*
X257093070Y-167660000D01*
G75*
G02*
X257043070Y-167710000I-50000J0D01*
G01*
X256593070Y-167710000D01*
G75*
G02*
X256543070Y-167660000I0J50000D01*
G01*
X256543070Y-166260000D01*
G75*
G02*
X256593070Y-166210000I50000J0D01*
G01*
X257043070Y-166210000D01*
G75*
G02*
X257093070Y-166260000I0J-50000D01*
G01*
G37*
G36*
G01*
X258143070Y-166260000D02*
X258143070Y-167660000D01*
G75*
G02*
X258093070Y-167710000I-50000J0D01*
G01*
X257493070Y-167710000D01*
G75*
G02*
X257443070Y-167660000I0J50000D01*
G01*
X257443070Y-166260000D01*
G75*
G02*
X257493070Y-166210000I50000J0D01*
G01*
X258093070Y-166210000D01*
G75*
G02*
X258143070Y-166260000I0J-50000D01*
G01*
G37*
G36*
G01*
X259193070Y-166260000D02*
X259193070Y-167660000D01*
G75*
G02*
X259143070Y-167710000I-50000J0D01*
G01*
X258593070Y-167710000D01*
G75*
G02*
X258543070Y-167660000I0J50000D01*
G01*
X258543070Y-166260000D01*
G75*
G02*
X258593070Y-166210000I50000J0D01*
G01*
X259143070Y-166210000D01*
G75*
G02*
X259193070Y-166260000I0J-50000D01*
G01*
G37*
%TD*%
%TO.C,D74*%
G36*
G01*
X280012300Y-166255000D02*
X280012300Y-167405000D01*
G75*
G02*
X279962300Y-167455000I-50000J0D01*
G01*
X278962300Y-167455000D01*
G75*
G02*
X278912300Y-167405000I0J50000D01*
G01*
X278912300Y-166255000D01*
G75*
G02*
X278962300Y-166205000I50000J0D01*
G01*
X279962300Y-166205000D01*
G75*
G02*
X280012300Y-166255000I0J-50000D01*
G01*
G37*
G36*
G01*
X276512300Y-166255000D02*
X276512300Y-167405000D01*
G75*
G02*
X276462300Y-167455000I-50000J0D01*
G01*
X275462300Y-167455000D01*
G75*
G02*
X275412300Y-167405000I0J50000D01*
G01*
X275412300Y-166255000D01*
G75*
G02*
X275462300Y-166205000I50000J0D01*
G01*
X276462300Y-166205000D01*
G75*
G02*
X276512300Y-166255000I0J-50000D01*
G01*
G37*
G36*
G01*
X276517300Y-166260000D02*
X276517300Y-167660000D01*
G75*
G02*
X276467300Y-167710000I-50000J0D01*
G01*
X275917300Y-167710000D01*
G75*
G02*
X275867300Y-167660000I0J50000D01*
G01*
X275867300Y-166260000D01*
G75*
G02*
X275917300Y-166210000I50000J0D01*
G01*
X276467300Y-166210000D01*
G75*
G02*
X276517300Y-166260000I0J-50000D01*
G01*
G37*
G36*
G01*
X277462300Y-166260000D02*
X277462300Y-167660000D01*
G75*
G02*
X277412300Y-167710000I-50000J0D01*
G01*
X276962300Y-167710000D01*
G75*
G02*
X276912300Y-167660000I0J50000D01*
G01*
X276912300Y-166260000D01*
G75*
G02*
X276962300Y-166210000I50000J0D01*
G01*
X277412300Y-166210000D01*
G75*
G02*
X277462300Y-166260000I0J-50000D01*
G01*
G37*
G36*
G01*
X278512300Y-166260000D02*
X278512300Y-167660000D01*
G75*
G02*
X278462300Y-167710000I-50000J0D01*
G01*
X277862300Y-167710000D01*
G75*
G02*
X277812300Y-167660000I0J50000D01*
G01*
X277812300Y-166260000D01*
G75*
G02*
X277862300Y-166210000I50000J0D01*
G01*
X278462300Y-166210000D01*
G75*
G02*
X278512300Y-166260000I0J-50000D01*
G01*
G37*
G36*
G01*
X279562300Y-166260000D02*
X279562300Y-167660000D01*
G75*
G02*
X279512300Y-167710000I-50000J0D01*
G01*
X278962300Y-167710000D01*
G75*
G02*
X278912300Y-167660000I0J50000D01*
G01*
X278912300Y-166260000D01*
G75*
G02*
X278962300Y-166210000I50000J0D01*
G01*
X279512300Y-166210000D01*
G75*
G02*
X279562300Y-166260000I0J-50000D01*
G01*
G37*
%TD*%
%TO.C,D73*%
G36*
G01*
X300381530Y-166255000D02*
X300381530Y-167405000D01*
G75*
G02*
X300331530Y-167455000I-50000J0D01*
G01*
X299331530Y-167455000D01*
G75*
G02*
X299281530Y-167405000I0J50000D01*
G01*
X299281530Y-166255000D01*
G75*
G02*
X299331530Y-166205000I50000J0D01*
G01*
X300331530Y-166205000D01*
G75*
G02*
X300381530Y-166255000I0J-50000D01*
G01*
G37*
G36*
G01*
X296881530Y-166255000D02*
X296881530Y-167405000D01*
G75*
G02*
X296831530Y-167455000I-50000J0D01*
G01*
X295831530Y-167455000D01*
G75*
G02*
X295781530Y-167405000I0J50000D01*
G01*
X295781530Y-166255000D01*
G75*
G02*
X295831530Y-166205000I50000J0D01*
G01*
X296831530Y-166205000D01*
G75*
G02*
X296881530Y-166255000I0J-50000D01*
G01*
G37*
G36*
G01*
X296886530Y-166260000D02*
X296886530Y-167660000D01*
G75*
G02*
X296836530Y-167710000I-50000J0D01*
G01*
X296286530Y-167710000D01*
G75*
G02*
X296236530Y-167660000I0J50000D01*
G01*
X296236530Y-166260000D01*
G75*
G02*
X296286530Y-166210000I50000J0D01*
G01*
X296836530Y-166210000D01*
G75*
G02*
X296886530Y-166260000I0J-50000D01*
G01*
G37*
G36*
G01*
X297831530Y-166260000D02*
X297831530Y-167660000D01*
G75*
G02*
X297781530Y-167710000I-50000J0D01*
G01*
X297331530Y-167710000D01*
G75*
G02*
X297281530Y-167660000I0J50000D01*
G01*
X297281530Y-166260000D01*
G75*
G02*
X297331530Y-166210000I50000J0D01*
G01*
X297781530Y-166210000D01*
G75*
G02*
X297831530Y-166260000I0J-50000D01*
G01*
G37*
G36*
G01*
X298881530Y-166260000D02*
X298881530Y-167660000D01*
G75*
G02*
X298831530Y-167710000I-50000J0D01*
G01*
X298231530Y-167710000D01*
G75*
G02*
X298181530Y-167660000I0J50000D01*
G01*
X298181530Y-166260000D01*
G75*
G02*
X298231530Y-166210000I50000J0D01*
G01*
X298831530Y-166210000D01*
G75*
G02*
X298881530Y-166260000I0J-50000D01*
G01*
G37*
G36*
G01*
X299931530Y-166260000D02*
X299931530Y-167660000D01*
G75*
G02*
X299881530Y-167710000I-50000J0D01*
G01*
X299331530Y-167710000D01*
G75*
G02*
X299281530Y-167660000I0J50000D01*
G01*
X299281530Y-166260000D01*
G75*
G02*
X299331530Y-166210000I50000J0D01*
G01*
X299881530Y-166210000D01*
G75*
G02*
X299931530Y-166260000I0J-50000D01*
G01*
G37*
%TD*%
%TO.C,D72*%
G36*
G01*
X320750760Y-166255000D02*
X320750760Y-167405000D01*
G75*
G02*
X320700760Y-167455000I-50000J0D01*
G01*
X319700760Y-167455000D01*
G75*
G02*
X319650760Y-167405000I0J50000D01*
G01*
X319650760Y-166255000D01*
G75*
G02*
X319700760Y-166205000I50000J0D01*
G01*
X320700760Y-166205000D01*
G75*
G02*
X320750760Y-166255000I0J-50000D01*
G01*
G37*
G36*
G01*
X317250760Y-166255000D02*
X317250760Y-167405000D01*
G75*
G02*
X317200760Y-167455000I-50000J0D01*
G01*
X316200760Y-167455000D01*
G75*
G02*
X316150760Y-167405000I0J50000D01*
G01*
X316150760Y-166255000D01*
G75*
G02*
X316200760Y-166205000I50000J0D01*
G01*
X317200760Y-166205000D01*
G75*
G02*
X317250760Y-166255000I0J-50000D01*
G01*
G37*
G36*
G01*
X317255760Y-166260000D02*
X317255760Y-167660000D01*
G75*
G02*
X317205760Y-167710000I-50000J0D01*
G01*
X316655760Y-167710000D01*
G75*
G02*
X316605760Y-167660000I0J50000D01*
G01*
X316605760Y-166260000D01*
G75*
G02*
X316655760Y-166210000I50000J0D01*
G01*
X317205760Y-166210000D01*
G75*
G02*
X317255760Y-166260000I0J-50000D01*
G01*
G37*
G36*
G01*
X318200760Y-166260000D02*
X318200760Y-167660000D01*
G75*
G02*
X318150760Y-167710000I-50000J0D01*
G01*
X317700760Y-167710000D01*
G75*
G02*
X317650760Y-167660000I0J50000D01*
G01*
X317650760Y-166260000D01*
G75*
G02*
X317700760Y-166210000I50000J0D01*
G01*
X318150760Y-166210000D01*
G75*
G02*
X318200760Y-166260000I0J-50000D01*
G01*
G37*
G36*
G01*
X319250760Y-166260000D02*
X319250760Y-167660000D01*
G75*
G02*
X319200760Y-167710000I-50000J0D01*
G01*
X318600760Y-167710000D01*
G75*
G02*
X318550760Y-167660000I0J50000D01*
G01*
X318550760Y-166260000D01*
G75*
G02*
X318600760Y-166210000I50000J0D01*
G01*
X319200760Y-166210000D01*
G75*
G02*
X319250760Y-166260000I0J-50000D01*
G01*
G37*
G36*
G01*
X320300760Y-166260000D02*
X320300760Y-167660000D01*
G75*
G02*
X320250760Y-167710000I-50000J0D01*
G01*
X319700760Y-167710000D01*
G75*
G02*
X319650760Y-167660000I0J50000D01*
G01*
X319650760Y-166260000D01*
G75*
G02*
X319700760Y-166210000I50000J0D01*
G01*
X320250760Y-166210000D01*
G75*
G02*
X320300760Y-166260000I0J-50000D01*
G01*
G37*
%TD*%
%TO.C,D71*%
G36*
G01*
X341120000Y-166255000D02*
X341120000Y-167405000D01*
G75*
G02*
X341070000Y-167455000I-50000J0D01*
G01*
X340070000Y-167455000D01*
G75*
G02*
X340020000Y-167405000I0J50000D01*
G01*
X340020000Y-166255000D01*
G75*
G02*
X340070000Y-166205000I50000J0D01*
G01*
X341070000Y-166205000D01*
G75*
G02*
X341120000Y-166255000I0J-50000D01*
G01*
G37*
G36*
G01*
X337620000Y-166255000D02*
X337620000Y-167405000D01*
G75*
G02*
X337570000Y-167455000I-50000J0D01*
G01*
X336570000Y-167455000D01*
G75*
G02*
X336520000Y-167405000I0J50000D01*
G01*
X336520000Y-166255000D01*
G75*
G02*
X336570000Y-166205000I50000J0D01*
G01*
X337570000Y-166205000D01*
G75*
G02*
X337620000Y-166255000I0J-50000D01*
G01*
G37*
G36*
G01*
X337625000Y-166260000D02*
X337625000Y-167660000D01*
G75*
G02*
X337575000Y-167710000I-50000J0D01*
G01*
X337025000Y-167710000D01*
G75*
G02*
X336975000Y-167660000I0J50000D01*
G01*
X336975000Y-166260000D01*
G75*
G02*
X337025000Y-166210000I50000J0D01*
G01*
X337575000Y-166210000D01*
G75*
G02*
X337625000Y-166260000I0J-50000D01*
G01*
G37*
G36*
G01*
X338570000Y-166260000D02*
X338570000Y-167660000D01*
G75*
G02*
X338520000Y-167710000I-50000J0D01*
G01*
X338070000Y-167710000D01*
G75*
G02*
X338020000Y-167660000I0J50000D01*
G01*
X338020000Y-166260000D01*
G75*
G02*
X338070000Y-166210000I50000J0D01*
G01*
X338520000Y-166210000D01*
G75*
G02*
X338570000Y-166260000I0J-50000D01*
G01*
G37*
G36*
G01*
X339620000Y-166260000D02*
X339620000Y-167660000D01*
G75*
G02*
X339570000Y-167710000I-50000J0D01*
G01*
X338970000Y-167710000D01*
G75*
G02*
X338920000Y-167660000I0J50000D01*
G01*
X338920000Y-166260000D01*
G75*
G02*
X338970000Y-166210000I50000J0D01*
G01*
X339570000Y-166210000D01*
G75*
G02*
X339620000Y-166260000I0J-50000D01*
G01*
G37*
G36*
G01*
X340670000Y-166260000D02*
X340670000Y-167660000D01*
G75*
G02*
X340620000Y-167710000I-50000J0D01*
G01*
X340070000Y-167710000D01*
G75*
G02*
X340020000Y-167660000I0J50000D01*
G01*
X340020000Y-166260000D01*
G75*
G02*
X340070000Y-166210000I50000J0D01*
G01*
X340620000Y-166210000D01*
G75*
G02*
X340670000Y-166260000I0J-50000D01*
G01*
G37*
%TD*%
%TO.C,D70*%
G36*
G01*
X343105000Y-160210000D02*
X344255000Y-160210000D01*
G75*
G02*
X344305000Y-160260000I0J-50000D01*
G01*
X344305000Y-161260000D01*
G75*
G02*
X344255000Y-161310000I-50000J0D01*
G01*
X343105000Y-161310000D01*
G75*
G02*
X343055000Y-161260000I0J50000D01*
G01*
X343055000Y-160260000D01*
G75*
G02*
X343105000Y-160210000I50000J0D01*
G01*
G37*
G36*
G01*
X343105000Y-163710000D02*
X344255000Y-163710000D01*
G75*
G02*
X344305000Y-163760000I0J-50000D01*
G01*
X344305000Y-164760000D01*
G75*
G02*
X344255000Y-164810000I-50000J0D01*
G01*
X343105000Y-164810000D01*
G75*
G02*
X343055000Y-164760000I0J50000D01*
G01*
X343055000Y-163760000D01*
G75*
G02*
X343105000Y-163710000I50000J0D01*
G01*
G37*
G36*
G01*
X343110000Y-163705000D02*
X344510000Y-163705000D01*
G75*
G02*
X344560000Y-163755000I0J-50000D01*
G01*
X344560000Y-164305000D01*
G75*
G02*
X344510000Y-164355000I-50000J0D01*
G01*
X343110000Y-164355000D01*
G75*
G02*
X343060000Y-164305000I0J50000D01*
G01*
X343060000Y-163755000D01*
G75*
G02*
X343110000Y-163705000I50000J0D01*
G01*
G37*
G36*
G01*
X343110000Y-162760000D02*
X344510000Y-162760000D01*
G75*
G02*
X344560000Y-162810000I0J-50000D01*
G01*
X344560000Y-163260000D01*
G75*
G02*
X344510000Y-163310000I-50000J0D01*
G01*
X343110000Y-163310000D01*
G75*
G02*
X343060000Y-163260000I0J50000D01*
G01*
X343060000Y-162810000D01*
G75*
G02*
X343110000Y-162760000I50000J0D01*
G01*
G37*
G36*
G01*
X343110000Y-161710000D02*
X344510000Y-161710000D01*
G75*
G02*
X344560000Y-161760000I0J-50000D01*
G01*
X344560000Y-162360000D01*
G75*
G02*
X344510000Y-162410000I-50000J0D01*
G01*
X343110000Y-162410000D01*
G75*
G02*
X343060000Y-162360000I0J50000D01*
G01*
X343060000Y-161760000D01*
G75*
G02*
X343110000Y-161710000I50000J0D01*
G01*
G37*
G36*
G01*
X343110000Y-160660000D02*
X344510000Y-160660000D01*
G75*
G02*
X344560000Y-160710000I0J-50000D01*
G01*
X344560000Y-161260000D01*
G75*
G02*
X344510000Y-161310000I-50000J0D01*
G01*
X343110000Y-161310000D01*
G75*
G02*
X343060000Y-161260000I0J50000D01*
G01*
X343060000Y-160710000D01*
G75*
G02*
X343110000Y-160660000I50000J0D01*
G01*
G37*
%TD*%
%TO.C,D69*%
G36*
G01*
X343105000Y-140900000D02*
X344255000Y-140900000D01*
G75*
G02*
X344305000Y-140950000I0J-50000D01*
G01*
X344305000Y-141950000D01*
G75*
G02*
X344255000Y-142000000I-50000J0D01*
G01*
X343105000Y-142000000D01*
G75*
G02*
X343055000Y-141950000I0J50000D01*
G01*
X343055000Y-140950000D01*
G75*
G02*
X343105000Y-140900000I50000J0D01*
G01*
G37*
G36*
G01*
X343105000Y-144400000D02*
X344255000Y-144400000D01*
G75*
G02*
X344305000Y-144450000I0J-50000D01*
G01*
X344305000Y-145450000D01*
G75*
G02*
X344255000Y-145500000I-50000J0D01*
G01*
X343105000Y-145500000D01*
G75*
G02*
X343055000Y-145450000I0J50000D01*
G01*
X343055000Y-144450000D01*
G75*
G02*
X343105000Y-144400000I50000J0D01*
G01*
G37*
G36*
G01*
X343110000Y-144395000D02*
X344510000Y-144395000D01*
G75*
G02*
X344560000Y-144445000I0J-50000D01*
G01*
X344560000Y-144995000D01*
G75*
G02*
X344510000Y-145045000I-50000J0D01*
G01*
X343110000Y-145045000D01*
G75*
G02*
X343060000Y-144995000I0J50000D01*
G01*
X343060000Y-144445000D01*
G75*
G02*
X343110000Y-144395000I50000J0D01*
G01*
G37*
G36*
G01*
X343110000Y-143450000D02*
X344510000Y-143450000D01*
G75*
G02*
X344560000Y-143500000I0J-50000D01*
G01*
X344560000Y-143950000D01*
G75*
G02*
X344510000Y-144000000I-50000J0D01*
G01*
X343110000Y-144000000D01*
G75*
G02*
X343060000Y-143950000I0J50000D01*
G01*
X343060000Y-143500000D01*
G75*
G02*
X343110000Y-143450000I50000J0D01*
G01*
G37*
G36*
G01*
X343110000Y-142400000D02*
X344510000Y-142400000D01*
G75*
G02*
X344560000Y-142450000I0J-50000D01*
G01*
X344560000Y-143050000D01*
G75*
G02*
X344510000Y-143100000I-50000J0D01*
G01*
X343110000Y-143100000D01*
G75*
G02*
X343060000Y-143050000I0J50000D01*
G01*
X343060000Y-142450000D01*
G75*
G02*
X343110000Y-142400000I50000J0D01*
G01*
G37*
G36*
G01*
X343110000Y-141350000D02*
X344510000Y-141350000D01*
G75*
G02*
X344560000Y-141400000I0J-50000D01*
G01*
X344560000Y-141950000D01*
G75*
G02*
X344510000Y-142000000I-50000J0D01*
G01*
X343110000Y-142000000D01*
G75*
G02*
X343060000Y-141950000I0J50000D01*
G01*
X343060000Y-141400000D01*
G75*
G02*
X343110000Y-141350000I50000J0D01*
G01*
G37*
%TD*%
%TO.C,D65*%
G36*
G01*
X336590000Y-81195000D02*
X336590000Y-80045000D01*
G75*
G02*
X336640000Y-79995000I50000J0D01*
G01*
X337640000Y-79995000D01*
G75*
G02*
X337690000Y-80045000I0J-50000D01*
G01*
X337690000Y-81195000D01*
G75*
G02*
X337640000Y-81245000I-50000J0D01*
G01*
X336640000Y-81245000D01*
G75*
G02*
X336590000Y-81195000I0J50000D01*
G01*
G37*
G36*
G01*
X340090000Y-81195000D02*
X340090000Y-80045000D01*
G75*
G02*
X340140000Y-79995000I50000J0D01*
G01*
X341140000Y-79995000D01*
G75*
G02*
X341190000Y-80045000I0J-50000D01*
G01*
X341190000Y-81195000D01*
G75*
G02*
X341140000Y-81245000I-50000J0D01*
G01*
X340140000Y-81245000D01*
G75*
G02*
X340090000Y-81195000I0J50000D01*
G01*
G37*
G36*
G01*
X340085000Y-81190000D02*
X340085000Y-79790000D01*
G75*
G02*
X340135000Y-79740000I50000J0D01*
G01*
X340685000Y-79740000D01*
G75*
G02*
X340735000Y-79790000I0J-50000D01*
G01*
X340735000Y-81190000D01*
G75*
G02*
X340685000Y-81240000I-50000J0D01*
G01*
X340135000Y-81240000D01*
G75*
G02*
X340085000Y-81190000I0J50000D01*
G01*
G37*
G36*
G01*
X339140000Y-81190000D02*
X339140000Y-79790000D01*
G75*
G02*
X339190000Y-79740000I50000J0D01*
G01*
X339640000Y-79740000D01*
G75*
G02*
X339690000Y-79790000I0J-50000D01*
G01*
X339690000Y-81190000D01*
G75*
G02*
X339640000Y-81240000I-50000J0D01*
G01*
X339190000Y-81240000D01*
G75*
G02*
X339140000Y-81190000I0J50000D01*
G01*
G37*
G36*
G01*
X338090000Y-81190000D02*
X338090000Y-79790000D01*
G75*
G02*
X338140000Y-79740000I50000J0D01*
G01*
X338740000Y-79740000D01*
G75*
G02*
X338790000Y-79790000I0J-50000D01*
G01*
X338790000Y-81190000D01*
G75*
G02*
X338740000Y-81240000I-50000J0D01*
G01*
X338140000Y-81240000D01*
G75*
G02*
X338090000Y-81190000I0J50000D01*
G01*
G37*
G36*
G01*
X337040000Y-81190000D02*
X337040000Y-79790000D01*
G75*
G02*
X337090000Y-79740000I50000J0D01*
G01*
X337640000Y-79740000D01*
G75*
G02*
X337690000Y-79790000I0J-50000D01*
G01*
X337690000Y-81190000D01*
G75*
G02*
X337640000Y-81240000I-50000J0D01*
G01*
X337090000Y-81240000D01*
G75*
G02*
X337040000Y-81190000I0J50000D01*
G01*
G37*
%TD*%
%TO.C,D64*%
G36*
G01*
X317066666Y-81195000D02*
X317066666Y-80045000D01*
G75*
G02*
X317116666Y-79995000I50000J0D01*
G01*
X318116666Y-79995000D01*
G75*
G02*
X318166666Y-80045000I0J-50000D01*
G01*
X318166666Y-81195000D01*
G75*
G02*
X318116666Y-81245000I-50000J0D01*
G01*
X317116666Y-81245000D01*
G75*
G02*
X317066666Y-81195000I0J50000D01*
G01*
G37*
G36*
G01*
X320566666Y-81195000D02*
X320566666Y-80045000D01*
G75*
G02*
X320616666Y-79995000I50000J0D01*
G01*
X321616666Y-79995000D01*
G75*
G02*
X321666666Y-80045000I0J-50000D01*
G01*
X321666666Y-81195000D01*
G75*
G02*
X321616666Y-81245000I-50000J0D01*
G01*
X320616666Y-81245000D01*
G75*
G02*
X320566666Y-81195000I0J50000D01*
G01*
G37*
G36*
G01*
X320561666Y-81190000D02*
X320561666Y-79790000D01*
G75*
G02*
X320611666Y-79740000I50000J0D01*
G01*
X321161666Y-79740000D01*
G75*
G02*
X321211666Y-79790000I0J-50000D01*
G01*
X321211666Y-81190000D01*
G75*
G02*
X321161666Y-81240000I-50000J0D01*
G01*
X320611666Y-81240000D01*
G75*
G02*
X320561666Y-81190000I0J50000D01*
G01*
G37*
G36*
G01*
X319616666Y-81190000D02*
X319616666Y-79790000D01*
G75*
G02*
X319666666Y-79740000I50000J0D01*
G01*
X320116666Y-79740000D01*
G75*
G02*
X320166666Y-79790000I0J-50000D01*
G01*
X320166666Y-81190000D01*
G75*
G02*
X320116666Y-81240000I-50000J0D01*
G01*
X319666666Y-81240000D01*
G75*
G02*
X319616666Y-81190000I0J50000D01*
G01*
G37*
G36*
G01*
X318566666Y-81190000D02*
X318566666Y-79790000D01*
G75*
G02*
X318616666Y-79740000I50000J0D01*
G01*
X319216666Y-79740000D01*
G75*
G02*
X319266666Y-79790000I0J-50000D01*
G01*
X319266666Y-81190000D01*
G75*
G02*
X319216666Y-81240000I-50000J0D01*
G01*
X318616666Y-81240000D01*
G75*
G02*
X318566666Y-81190000I0J50000D01*
G01*
G37*
G36*
G01*
X317516666Y-81190000D02*
X317516666Y-79790000D01*
G75*
G02*
X317566666Y-79740000I50000J0D01*
G01*
X318116666Y-79740000D01*
G75*
G02*
X318166666Y-79790000I0J-50000D01*
G01*
X318166666Y-81190000D01*
G75*
G02*
X318116666Y-81240000I-50000J0D01*
G01*
X317566666Y-81240000D01*
G75*
G02*
X317516666Y-81190000I0J50000D01*
G01*
G37*
%TD*%
%TO.C,D63*%
G36*
G01*
X297543333Y-81195000D02*
X297543333Y-80045000D01*
G75*
G02*
X297593333Y-79995000I50000J0D01*
G01*
X298593333Y-79995000D01*
G75*
G02*
X298643333Y-80045000I0J-50000D01*
G01*
X298643333Y-81195000D01*
G75*
G02*
X298593333Y-81245000I-50000J0D01*
G01*
X297593333Y-81245000D01*
G75*
G02*
X297543333Y-81195000I0J50000D01*
G01*
G37*
G36*
G01*
X301043333Y-81195000D02*
X301043333Y-80045000D01*
G75*
G02*
X301093333Y-79995000I50000J0D01*
G01*
X302093333Y-79995000D01*
G75*
G02*
X302143333Y-80045000I0J-50000D01*
G01*
X302143333Y-81195000D01*
G75*
G02*
X302093333Y-81245000I-50000J0D01*
G01*
X301093333Y-81245000D01*
G75*
G02*
X301043333Y-81195000I0J50000D01*
G01*
G37*
G36*
G01*
X301038333Y-81190000D02*
X301038333Y-79790000D01*
G75*
G02*
X301088333Y-79740000I50000J0D01*
G01*
X301638333Y-79740000D01*
G75*
G02*
X301688333Y-79790000I0J-50000D01*
G01*
X301688333Y-81190000D01*
G75*
G02*
X301638333Y-81240000I-50000J0D01*
G01*
X301088333Y-81240000D01*
G75*
G02*
X301038333Y-81190000I0J50000D01*
G01*
G37*
G36*
G01*
X300093333Y-81190000D02*
X300093333Y-79790000D01*
G75*
G02*
X300143333Y-79740000I50000J0D01*
G01*
X300593333Y-79740000D01*
G75*
G02*
X300643333Y-79790000I0J-50000D01*
G01*
X300643333Y-81190000D01*
G75*
G02*
X300593333Y-81240000I-50000J0D01*
G01*
X300143333Y-81240000D01*
G75*
G02*
X300093333Y-81190000I0J50000D01*
G01*
G37*
G36*
G01*
X299043333Y-81190000D02*
X299043333Y-79790000D01*
G75*
G02*
X299093333Y-79740000I50000J0D01*
G01*
X299693333Y-79740000D01*
G75*
G02*
X299743333Y-79790000I0J-50000D01*
G01*
X299743333Y-81190000D01*
G75*
G02*
X299693333Y-81240000I-50000J0D01*
G01*
X299093333Y-81240000D01*
G75*
G02*
X299043333Y-81190000I0J50000D01*
G01*
G37*
G36*
G01*
X297993333Y-81190000D02*
X297993333Y-79790000D01*
G75*
G02*
X298043333Y-79740000I50000J0D01*
G01*
X298593333Y-79740000D01*
G75*
G02*
X298643333Y-79790000I0J-50000D01*
G01*
X298643333Y-81190000D01*
G75*
G02*
X298593333Y-81240000I-50000J0D01*
G01*
X298043333Y-81240000D01*
G75*
G02*
X297993333Y-81190000I0J50000D01*
G01*
G37*
%TD*%
%TO.C,D62*%
G36*
G01*
X278020000Y-81195000D02*
X278020000Y-80045000D01*
G75*
G02*
X278070000Y-79995000I50000J0D01*
G01*
X279070000Y-79995000D01*
G75*
G02*
X279120000Y-80045000I0J-50000D01*
G01*
X279120000Y-81195000D01*
G75*
G02*
X279070000Y-81245000I-50000J0D01*
G01*
X278070000Y-81245000D01*
G75*
G02*
X278020000Y-81195000I0J50000D01*
G01*
G37*
G36*
G01*
X281520000Y-81195000D02*
X281520000Y-80045000D01*
G75*
G02*
X281570000Y-79995000I50000J0D01*
G01*
X282570000Y-79995000D01*
G75*
G02*
X282620000Y-80045000I0J-50000D01*
G01*
X282620000Y-81195000D01*
G75*
G02*
X282570000Y-81245000I-50000J0D01*
G01*
X281570000Y-81245000D01*
G75*
G02*
X281520000Y-81195000I0J50000D01*
G01*
G37*
G36*
G01*
X281515000Y-81190000D02*
X281515000Y-79790000D01*
G75*
G02*
X281565000Y-79740000I50000J0D01*
G01*
X282115000Y-79740000D01*
G75*
G02*
X282165000Y-79790000I0J-50000D01*
G01*
X282165000Y-81190000D01*
G75*
G02*
X282115000Y-81240000I-50000J0D01*
G01*
X281565000Y-81240000D01*
G75*
G02*
X281515000Y-81190000I0J50000D01*
G01*
G37*
G36*
G01*
X280570000Y-81190000D02*
X280570000Y-79790000D01*
G75*
G02*
X280620000Y-79740000I50000J0D01*
G01*
X281070000Y-79740000D01*
G75*
G02*
X281120000Y-79790000I0J-50000D01*
G01*
X281120000Y-81190000D01*
G75*
G02*
X281070000Y-81240000I-50000J0D01*
G01*
X280620000Y-81240000D01*
G75*
G02*
X280570000Y-81190000I0J50000D01*
G01*
G37*
G36*
G01*
X279520000Y-81190000D02*
X279520000Y-79790000D01*
G75*
G02*
X279570000Y-79740000I50000J0D01*
G01*
X280170000Y-79740000D01*
G75*
G02*
X280220000Y-79790000I0J-50000D01*
G01*
X280220000Y-81190000D01*
G75*
G02*
X280170000Y-81240000I-50000J0D01*
G01*
X279570000Y-81240000D01*
G75*
G02*
X279520000Y-81190000I0J50000D01*
G01*
G37*
G36*
G01*
X278470000Y-81190000D02*
X278470000Y-79790000D01*
G75*
G02*
X278520000Y-79740000I50000J0D01*
G01*
X279070000Y-79740000D01*
G75*
G02*
X279120000Y-79790000I0J-50000D01*
G01*
X279120000Y-81190000D01*
G75*
G02*
X279070000Y-81240000I-50000J0D01*
G01*
X278520000Y-81240000D01*
G75*
G02*
X278470000Y-81190000I0J50000D01*
G01*
G37*
%TD*%
%TO.C,D61*%
G36*
G01*
X253990000Y-81195000D02*
X253990000Y-80045000D01*
G75*
G02*
X254040000Y-79995000I50000J0D01*
G01*
X255040000Y-79995000D01*
G75*
G02*
X255090000Y-80045000I0J-50000D01*
G01*
X255090000Y-81195000D01*
G75*
G02*
X255040000Y-81245000I-50000J0D01*
G01*
X254040000Y-81245000D01*
G75*
G02*
X253990000Y-81195000I0J50000D01*
G01*
G37*
G36*
G01*
X257490000Y-81195000D02*
X257490000Y-80045000D01*
G75*
G02*
X257540000Y-79995000I50000J0D01*
G01*
X258540000Y-79995000D01*
G75*
G02*
X258590000Y-80045000I0J-50000D01*
G01*
X258590000Y-81195000D01*
G75*
G02*
X258540000Y-81245000I-50000J0D01*
G01*
X257540000Y-81245000D01*
G75*
G02*
X257490000Y-81195000I0J50000D01*
G01*
G37*
G36*
G01*
X257485000Y-81190000D02*
X257485000Y-79790000D01*
G75*
G02*
X257535000Y-79740000I50000J0D01*
G01*
X258085000Y-79740000D01*
G75*
G02*
X258135000Y-79790000I0J-50000D01*
G01*
X258135000Y-81190000D01*
G75*
G02*
X258085000Y-81240000I-50000J0D01*
G01*
X257535000Y-81240000D01*
G75*
G02*
X257485000Y-81190000I0J50000D01*
G01*
G37*
G36*
G01*
X256540000Y-81190000D02*
X256540000Y-79790000D01*
G75*
G02*
X256590000Y-79740000I50000J0D01*
G01*
X257040000Y-79740000D01*
G75*
G02*
X257090000Y-79790000I0J-50000D01*
G01*
X257090000Y-81190000D01*
G75*
G02*
X257040000Y-81240000I-50000J0D01*
G01*
X256590000Y-81240000D01*
G75*
G02*
X256540000Y-81190000I0J50000D01*
G01*
G37*
G36*
G01*
X255490000Y-81190000D02*
X255490000Y-79790000D01*
G75*
G02*
X255540000Y-79740000I50000J0D01*
G01*
X256140000Y-79740000D01*
G75*
G02*
X256190000Y-79790000I0J-50000D01*
G01*
X256190000Y-81190000D01*
G75*
G02*
X256140000Y-81240000I-50000J0D01*
G01*
X255540000Y-81240000D01*
G75*
G02*
X255490000Y-81190000I0J50000D01*
G01*
G37*
G36*
G01*
X254440000Y-81190000D02*
X254440000Y-79790000D01*
G75*
G02*
X254490000Y-79740000I50000J0D01*
G01*
X255040000Y-79740000D01*
G75*
G02*
X255090000Y-79790000I0J-50000D01*
G01*
X255090000Y-81190000D01*
G75*
G02*
X255040000Y-81240000I-50000J0D01*
G01*
X254490000Y-81240000D01*
G75*
G02*
X254440000Y-81190000I0J50000D01*
G01*
G37*
%TD*%
%TO.C,D60*%
G36*
G01*
X235155000Y-81195000D02*
X235155000Y-80045000D01*
G75*
G02*
X235205000Y-79995000I50000J0D01*
G01*
X236205000Y-79995000D01*
G75*
G02*
X236255000Y-80045000I0J-50000D01*
G01*
X236255000Y-81195000D01*
G75*
G02*
X236205000Y-81245000I-50000J0D01*
G01*
X235205000Y-81245000D01*
G75*
G02*
X235155000Y-81195000I0J50000D01*
G01*
G37*
G36*
G01*
X238655000Y-81195000D02*
X238655000Y-80045000D01*
G75*
G02*
X238705000Y-79995000I50000J0D01*
G01*
X239705000Y-79995000D01*
G75*
G02*
X239755000Y-80045000I0J-50000D01*
G01*
X239755000Y-81195000D01*
G75*
G02*
X239705000Y-81245000I-50000J0D01*
G01*
X238705000Y-81245000D01*
G75*
G02*
X238655000Y-81195000I0J50000D01*
G01*
G37*
G36*
G01*
X238650000Y-81190000D02*
X238650000Y-79790000D01*
G75*
G02*
X238700000Y-79740000I50000J0D01*
G01*
X239250000Y-79740000D01*
G75*
G02*
X239300000Y-79790000I0J-50000D01*
G01*
X239300000Y-81190000D01*
G75*
G02*
X239250000Y-81240000I-50000J0D01*
G01*
X238700000Y-81240000D01*
G75*
G02*
X238650000Y-81190000I0J50000D01*
G01*
G37*
G36*
G01*
X237705000Y-81190000D02*
X237705000Y-79790000D01*
G75*
G02*
X237755000Y-79740000I50000J0D01*
G01*
X238205000Y-79740000D01*
G75*
G02*
X238255000Y-79790000I0J-50000D01*
G01*
X238255000Y-81190000D01*
G75*
G02*
X238205000Y-81240000I-50000J0D01*
G01*
X237755000Y-81240000D01*
G75*
G02*
X237705000Y-81190000I0J50000D01*
G01*
G37*
G36*
G01*
X236655000Y-81190000D02*
X236655000Y-79790000D01*
G75*
G02*
X236705000Y-79740000I50000J0D01*
G01*
X237305000Y-79740000D01*
G75*
G02*
X237355000Y-79790000I0J-50000D01*
G01*
X237355000Y-81190000D01*
G75*
G02*
X237305000Y-81240000I-50000J0D01*
G01*
X236705000Y-81240000D01*
G75*
G02*
X236655000Y-81190000I0J50000D01*
G01*
G37*
G36*
G01*
X235605000Y-81190000D02*
X235605000Y-79790000D01*
G75*
G02*
X235655000Y-79740000I50000J0D01*
G01*
X236205000Y-79740000D01*
G75*
G02*
X236255000Y-79790000I0J-50000D01*
G01*
X236255000Y-81190000D01*
G75*
G02*
X236205000Y-81240000I-50000J0D01*
G01*
X235655000Y-81240000D01*
G75*
G02*
X235605000Y-81190000I0J50000D01*
G01*
G37*
%TD*%
%TO.C,D59*%
G36*
G01*
X216320000Y-81195000D02*
X216320000Y-80045000D01*
G75*
G02*
X216370000Y-79995000I50000J0D01*
G01*
X217370000Y-79995000D01*
G75*
G02*
X217420000Y-80045000I0J-50000D01*
G01*
X217420000Y-81195000D01*
G75*
G02*
X217370000Y-81245000I-50000J0D01*
G01*
X216370000Y-81245000D01*
G75*
G02*
X216320000Y-81195000I0J50000D01*
G01*
G37*
G36*
G01*
X219820000Y-81195000D02*
X219820000Y-80045000D01*
G75*
G02*
X219870000Y-79995000I50000J0D01*
G01*
X220870000Y-79995000D01*
G75*
G02*
X220920000Y-80045000I0J-50000D01*
G01*
X220920000Y-81195000D01*
G75*
G02*
X220870000Y-81245000I-50000J0D01*
G01*
X219870000Y-81245000D01*
G75*
G02*
X219820000Y-81195000I0J50000D01*
G01*
G37*
G36*
G01*
X219815000Y-81190000D02*
X219815000Y-79790000D01*
G75*
G02*
X219865000Y-79740000I50000J0D01*
G01*
X220415000Y-79740000D01*
G75*
G02*
X220465000Y-79790000I0J-50000D01*
G01*
X220465000Y-81190000D01*
G75*
G02*
X220415000Y-81240000I-50000J0D01*
G01*
X219865000Y-81240000D01*
G75*
G02*
X219815000Y-81190000I0J50000D01*
G01*
G37*
G36*
G01*
X218870000Y-81190000D02*
X218870000Y-79790000D01*
G75*
G02*
X218920000Y-79740000I50000J0D01*
G01*
X219370000Y-79740000D01*
G75*
G02*
X219420000Y-79790000I0J-50000D01*
G01*
X219420000Y-81190000D01*
G75*
G02*
X219370000Y-81240000I-50000J0D01*
G01*
X218920000Y-81240000D01*
G75*
G02*
X218870000Y-81190000I0J50000D01*
G01*
G37*
G36*
G01*
X217820000Y-81190000D02*
X217820000Y-79790000D01*
G75*
G02*
X217870000Y-79740000I50000J0D01*
G01*
X218470000Y-79740000D01*
G75*
G02*
X218520000Y-79790000I0J-50000D01*
G01*
X218520000Y-81190000D01*
G75*
G02*
X218470000Y-81240000I-50000J0D01*
G01*
X217870000Y-81240000D01*
G75*
G02*
X217820000Y-81190000I0J50000D01*
G01*
G37*
G36*
G01*
X216770000Y-81190000D02*
X216770000Y-79790000D01*
G75*
G02*
X216820000Y-79740000I50000J0D01*
G01*
X217370000Y-79740000D01*
G75*
G02*
X217420000Y-79790000I0J-50000D01*
G01*
X217420000Y-81190000D01*
G75*
G02*
X217370000Y-81240000I-50000J0D01*
G01*
X216820000Y-81240000D01*
G75*
G02*
X216770000Y-81190000I0J50000D01*
G01*
G37*
%TD*%
%TO.C,D58*%
G36*
G01*
X191080000Y-81195000D02*
X191080000Y-80045000D01*
G75*
G02*
X191130000Y-79995000I50000J0D01*
G01*
X192130000Y-79995000D01*
G75*
G02*
X192180000Y-80045000I0J-50000D01*
G01*
X192180000Y-81195000D01*
G75*
G02*
X192130000Y-81245000I-50000J0D01*
G01*
X191130000Y-81245000D01*
G75*
G02*
X191080000Y-81195000I0J50000D01*
G01*
G37*
G36*
G01*
X194580000Y-81195000D02*
X194580000Y-80045000D01*
G75*
G02*
X194630000Y-79995000I50000J0D01*
G01*
X195630000Y-79995000D01*
G75*
G02*
X195680000Y-80045000I0J-50000D01*
G01*
X195680000Y-81195000D01*
G75*
G02*
X195630000Y-81245000I-50000J0D01*
G01*
X194630000Y-81245000D01*
G75*
G02*
X194580000Y-81195000I0J50000D01*
G01*
G37*
G36*
G01*
X194575000Y-81190000D02*
X194575000Y-79790000D01*
G75*
G02*
X194625000Y-79740000I50000J0D01*
G01*
X195175000Y-79740000D01*
G75*
G02*
X195225000Y-79790000I0J-50000D01*
G01*
X195225000Y-81190000D01*
G75*
G02*
X195175000Y-81240000I-50000J0D01*
G01*
X194625000Y-81240000D01*
G75*
G02*
X194575000Y-81190000I0J50000D01*
G01*
G37*
G36*
G01*
X193630000Y-81190000D02*
X193630000Y-79790000D01*
G75*
G02*
X193680000Y-79740000I50000J0D01*
G01*
X194130000Y-79740000D01*
G75*
G02*
X194180000Y-79790000I0J-50000D01*
G01*
X194180000Y-81190000D01*
G75*
G02*
X194130000Y-81240000I-50000J0D01*
G01*
X193680000Y-81240000D01*
G75*
G02*
X193630000Y-81190000I0J50000D01*
G01*
G37*
G36*
G01*
X192580000Y-81190000D02*
X192580000Y-79790000D01*
G75*
G02*
X192630000Y-79740000I50000J0D01*
G01*
X193230000Y-79740000D01*
G75*
G02*
X193280000Y-79790000I0J-50000D01*
G01*
X193280000Y-81190000D01*
G75*
G02*
X193230000Y-81240000I-50000J0D01*
G01*
X192630000Y-81240000D01*
G75*
G02*
X192580000Y-81190000I0J50000D01*
G01*
G37*
G36*
G01*
X191530000Y-81190000D02*
X191530000Y-79790000D01*
G75*
G02*
X191580000Y-79740000I50000J0D01*
G01*
X192130000Y-79740000D01*
G75*
G02*
X192180000Y-79790000I0J-50000D01*
G01*
X192180000Y-81190000D01*
G75*
G02*
X192130000Y-81240000I-50000J0D01*
G01*
X191580000Y-81240000D01*
G75*
G02*
X191530000Y-81190000I0J50000D01*
G01*
G37*
%TD*%
%TO.C,D57*%
G36*
G01*
X172330000Y-81195000D02*
X172330000Y-80045000D01*
G75*
G02*
X172380000Y-79995000I50000J0D01*
G01*
X173380000Y-79995000D01*
G75*
G02*
X173430000Y-80045000I0J-50000D01*
G01*
X173430000Y-81195000D01*
G75*
G02*
X173380000Y-81245000I-50000J0D01*
G01*
X172380000Y-81245000D01*
G75*
G02*
X172330000Y-81195000I0J50000D01*
G01*
G37*
G36*
G01*
X175830000Y-81195000D02*
X175830000Y-80045000D01*
G75*
G02*
X175880000Y-79995000I50000J0D01*
G01*
X176880000Y-79995000D01*
G75*
G02*
X176930000Y-80045000I0J-50000D01*
G01*
X176930000Y-81195000D01*
G75*
G02*
X176880000Y-81245000I-50000J0D01*
G01*
X175880000Y-81245000D01*
G75*
G02*
X175830000Y-81195000I0J50000D01*
G01*
G37*
G36*
G01*
X175825000Y-81190000D02*
X175825000Y-79790000D01*
G75*
G02*
X175875000Y-79740000I50000J0D01*
G01*
X176425000Y-79740000D01*
G75*
G02*
X176475000Y-79790000I0J-50000D01*
G01*
X176475000Y-81190000D01*
G75*
G02*
X176425000Y-81240000I-50000J0D01*
G01*
X175875000Y-81240000D01*
G75*
G02*
X175825000Y-81190000I0J50000D01*
G01*
G37*
G36*
G01*
X174880000Y-81190000D02*
X174880000Y-79790000D01*
G75*
G02*
X174930000Y-79740000I50000J0D01*
G01*
X175380000Y-79740000D01*
G75*
G02*
X175430000Y-79790000I0J-50000D01*
G01*
X175430000Y-81190000D01*
G75*
G02*
X175380000Y-81240000I-50000J0D01*
G01*
X174930000Y-81240000D01*
G75*
G02*
X174880000Y-81190000I0J50000D01*
G01*
G37*
G36*
G01*
X173830000Y-81190000D02*
X173830000Y-79790000D01*
G75*
G02*
X173880000Y-79740000I50000J0D01*
G01*
X174480000Y-79740000D01*
G75*
G02*
X174530000Y-79790000I0J-50000D01*
G01*
X174530000Y-81190000D01*
G75*
G02*
X174480000Y-81240000I-50000J0D01*
G01*
X173880000Y-81240000D01*
G75*
G02*
X173830000Y-81190000I0J50000D01*
G01*
G37*
G36*
G01*
X172780000Y-81190000D02*
X172780000Y-79790000D01*
G75*
G02*
X172830000Y-79740000I50000J0D01*
G01*
X173380000Y-79740000D01*
G75*
G02*
X173430000Y-79790000I0J-50000D01*
G01*
X173430000Y-81190000D01*
G75*
G02*
X173380000Y-81240000I-50000J0D01*
G01*
X172830000Y-81240000D01*
G75*
G02*
X172780000Y-81190000I0J50000D01*
G01*
G37*
%TD*%
%TO.C,D56*%
G36*
G01*
X153580000Y-81195000D02*
X153580000Y-80045000D01*
G75*
G02*
X153630000Y-79995000I50000J0D01*
G01*
X154630000Y-79995000D01*
G75*
G02*
X154680000Y-80045000I0J-50000D01*
G01*
X154680000Y-81195000D01*
G75*
G02*
X154630000Y-81245000I-50000J0D01*
G01*
X153630000Y-81245000D01*
G75*
G02*
X153580000Y-81195000I0J50000D01*
G01*
G37*
G36*
G01*
X157080000Y-81195000D02*
X157080000Y-80045000D01*
G75*
G02*
X157130000Y-79995000I50000J0D01*
G01*
X158130000Y-79995000D01*
G75*
G02*
X158180000Y-80045000I0J-50000D01*
G01*
X158180000Y-81195000D01*
G75*
G02*
X158130000Y-81245000I-50000J0D01*
G01*
X157130000Y-81245000D01*
G75*
G02*
X157080000Y-81195000I0J50000D01*
G01*
G37*
G36*
G01*
X157075000Y-81190000D02*
X157075000Y-79790000D01*
G75*
G02*
X157125000Y-79740000I50000J0D01*
G01*
X157675000Y-79740000D01*
G75*
G02*
X157725000Y-79790000I0J-50000D01*
G01*
X157725000Y-81190000D01*
G75*
G02*
X157675000Y-81240000I-50000J0D01*
G01*
X157125000Y-81240000D01*
G75*
G02*
X157075000Y-81190000I0J50000D01*
G01*
G37*
G36*
G01*
X156130000Y-81190000D02*
X156130000Y-79790000D01*
G75*
G02*
X156180000Y-79740000I50000J0D01*
G01*
X156630000Y-79740000D01*
G75*
G02*
X156680000Y-79790000I0J-50000D01*
G01*
X156680000Y-81190000D01*
G75*
G02*
X156630000Y-81240000I-50000J0D01*
G01*
X156180000Y-81240000D01*
G75*
G02*
X156130000Y-81190000I0J50000D01*
G01*
G37*
G36*
G01*
X155080000Y-81190000D02*
X155080000Y-79790000D01*
G75*
G02*
X155130000Y-79740000I50000J0D01*
G01*
X155730000Y-79740000D01*
G75*
G02*
X155780000Y-79790000I0J-50000D01*
G01*
X155780000Y-81190000D01*
G75*
G02*
X155730000Y-81240000I-50000J0D01*
G01*
X155130000Y-81240000D01*
G75*
G02*
X155080000Y-81190000I0J50000D01*
G01*
G37*
G36*
G01*
X154030000Y-81190000D02*
X154030000Y-79790000D01*
G75*
G02*
X154080000Y-79740000I50000J0D01*
G01*
X154630000Y-79740000D01*
G75*
G02*
X154680000Y-79790000I0J-50000D01*
G01*
X154680000Y-81190000D01*
G75*
G02*
X154630000Y-81240000I-50000J0D01*
G01*
X154080000Y-81240000D01*
G75*
G02*
X154030000Y-81190000I0J50000D01*
G01*
G37*
%TD*%
%TO.C,D55*%
G36*
G01*
X129120000Y-81195000D02*
X129120000Y-80045000D01*
G75*
G02*
X129170000Y-79995000I50000J0D01*
G01*
X130170000Y-79995000D01*
G75*
G02*
X130220000Y-80045000I0J-50000D01*
G01*
X130220000Y-81195000D01*
G75*
G02*
X130170000Y-81245000I-50000J0D01*
G01*
X129170000Y-81245000D01*
G75*
G02*
X129120000Y-81195000I0J50000D01*
G01*
G37*
G36*
G01*
X132620000Y-81195000D02*
X132620000Y-80045000D01*
G75*
G02*
X132670000Y-79995000I50000J0D01*
G01*
X133670000Y-79995000D01*
G75*
G02*
X133720000Y-80045000I0J-50000D01*
G01*
X133720000Y-81195000D01*
G75*
G02*
X133670000Y-81245000I-50000J0D01*
G01*
X132670000Y-81245000D01*
G75*
G02*
X132620000Y-81195000I0J50000D01*
G01*
G37*
G36*
G01*
X132615000Y-81190000D02*
X132615000Y-79790000D01*
G75*
G02*
X132665000Y-79740000I50000J0D01*
G01*
X133215000Y-79740000D01*
G75*
G02*
X133265000Y-79790000I0J-50000D01*
G01*
X133265000Y-81190000D01*
G75*
G02*
X133215000Y-81240000I-50000J0D01*
G01*
X132665000Y-81240000D01*
G75*
G02*
X132615000Y-81190000I0J50000D01*
G01*
G37*
G36*
G01*
X131670000Y-81190000D02*
X131670000Y-79790000D01*
G75*
G02*
X131720000Y-79740000I50000J0D01*
G01*
X132170000Y-79740000D01*
G75*
G02*
X132220000Y-79790000I0J-50000D01*
G01*
X132220000Y-81190000D01*
G75*
G02*
X132170000Y-81240000I-50000J0D01*
G01*
X131720000Y-81240000D01*
G75*
G02*
X131670000Y-81190000I0J50000D01*
G01*
G37*
G36*
G01*
X130620000Y-81190000D02*
X130620000Y-79790000D01*
G75*
G02*
X130670000Y-79740000I50000J0D01*
G01*
X131270000Y-79740000D01*
G75*
G02*
X131320000Y-79790000I0J-50000D01*
G01*
X131320000Y-81190000D01*
G75*
G02*
X131270000Y-81240000I-50000J0D01*
G01*
X130670000Y-81240000D01*
G75*
G02*
X130620000Y-81190000I0J50000D01*
G01*
G37*
G36*
G01*
X129570000Y-81190000D02*
X129570000Y-79790000D01*
G75*
G02*
X129620000Y-79740000I50000J0D01*
G01*
X130170000Y-79740000D01*
G75*
G02*
X130220000Y-79790000I0J-50000D01*
G01*
X130220000Y-81190000D01*
G75*
G02*
X130170000Y-81240000I-50000J0D01*
G01*
X129620000Y-81240000D01*
G75*
G02*
X129570000Y-81190000I0J50000D01*
G01*
G37*
%TD*%
%TO.C,D54*%
G36*
G01*
X109756666Y-81195000D02*
X109756666Y-80045000D01*
G75*
G02*
X109806666Y-79995000I50000J0D01*
G01*
X110806666Y-79995000D01*
G75*
G02*
X110856666Y-80045000I0J-50000D01*
G01*
X110856666Y-81195000D01*
G75*
G02*
X110806666Y-81245000I-50000J0D01*
G01*
X109806666Y-81245000D01*
G75*
G02*
X109756666Y-81195000I0J50000D01*
G01*
G37*
G36*
G01*
X113256666Y-81195000D02*
X113256666Y-80045000D01*
G75*
G02*
X113306666Y-79995000I50000J0D01*
G01*
X114306666Y-79995000D01*
G75*
G02*
X114356666Y-80045000I0J-50000D01*
G01*
X114356666Y-81195000D01*
G75*
G02*
X114306666Y-81245000I-50000J0D01*
G01*
X113306666Y-81245000D01*
G75*
G02*
X113256666Y-81195000I0J50000D01*
G01*
G37*
G36*
G01*
X113251666Y-81190000D02*
X113251666Y-79790000D01*
G75*
G02*
X113301666Y-79740000I50000J0D01*
G01*
X113851666Y-79740000D01*
G75*
G02*
X113901666Y-79790000I0J-50000D01*
G01*
X113901666Y-81190000D01*
G75*
G02*
X113851666Y-81240000I-50000J0D01*
G01*
X113301666Y-81240000D01*
G75*
G02*
X113251666Y-81190000I0J50000D01*
G01*
G37*
G36*
G01*
X112306666Y-81190000D02*
X112306666Y-79790000D01*
G75*
G02*
X112356666Y-79740000I50000J0D01*
G01*
X112806666Y-79740000D01*
G75*
G02*
X112856666Y-79790000I0J-50000D01*
G01*
X112856666Y-81190000D01*
G75*
G02*
X112806666Y-81240000I-50000J0D01*
G01*
X112356666Y-81240000D01*
G75*
G02*
X112306666Y-81190000I0J50000D01*
G01*
G37*
G36*
G01*
X111256666Y-81190000D02*
X111256666Y-79790000D01*
G75*
G02*
X111306666Y-79740000I50000J0D01*
G01*
X111906666Y-79740000D01*
G75*
G02*
X111956666Y-79790000I0J-50000D01*
G01*
X111956666Y-81190000D01*
G75*
G02*
X111906666Y-81240000I-50000J0D01*
G01*
X111306666Y-81240000D01*
G75*
G02*
X111256666Y-81190000I0J50000D01*
G01*
G37*
G36*
G01*
X110206666Y-81190000D02*
X110206666Y-79790000D01*
G75*
G02*
X110256666Y-79740000I50000J0D01*
G01*
X110806666Y-79740000D01*
G75*
G02*
X110856666Y-79790000I0J-50000D01*
G01*
X110856666Y-81190000D01*
G75*
G02*
X110806666Y-81240000I-50000J0D01*
G01*
X110256666Y-81240000D01*
G75*
G02*
X110206666Y-81190000I0J50000D01*
G01*
G37*
%TD*%
%TO.C,D53*%
G36*
G01*
X90393333Y-81195000D02*
X90393333Y-80045000D01*
G75*
G02*
X90443333Y-79995000I50000J0D01*
G01*
X91443333Y-79995000D01*
G75*
G02*
X91493333Y-80045000I0J-50000D01*
G01*
X91493333Y-81195000D01*
G75*
G02*
X91443333Y-81245000I-50000J0D01*
G01*
X90443333Y-81245000D01*
G75*
G02*
X90393333Y-81195000I0J50000D01*
G01*
G37*
G36*
G01*
X93893333Y-81195000D02*
X93893333Y-80045000D01*
G75*
G02*
X93943333Y-79995000I50000J0D01*
G01*
X94943333Y-79995000D01*
G75*
G02*
X94993333Y-80045000I0J-50000D01*
G01*
X94993333Y-81195000D01*
G75*
G02*
X94943333Y-81245000I-50000J0D01*
G01*
X93943333Y-81245000D01*
G75*
G02*
X93893333Y-81195000I0J50000D01*
G01*
G37*
G36*
G01*
X93888333Y-81190000D02*
X93888333Y-79790000D01*
G75*
G02*
X93938333Y-79740000I50000J0D01*
G01*
X94488333Y-79740000D01*
G75*
G02*
X94538333Y-79790000I0J-50000D01*
G01*
X94538333Y-81190000D01*
G75*
G02*
X94488333Y-81240000I-50000J0D01*
G01*
X93938333Y-81240000D01*
G75*
G02*
X93888333Y-81190000I0J50000D01*
G01*
G37*
G36*
G01*
X92943333Y-81190000D02*
X92943333Y-79790000D01*
G75*
G02*
X92993333Y-79740000I50000J0D01*
G01*
X93443333Y-79740000D01*
G75*
G02*
X93493333Y-79790000I0J-50000D01*
G01*
X93493333Y-81190000D01*
G75*
G02*
X93443333Y-81240000I-50000J0D01*
G01*
X92993333Y-81240000D01*
G75*
G02*
X92943333Y-81190000I0J50000D01*
G01*
G37*
G36*
G01*
X91893333Y-81190000D02*
X91893333Y-79790000D01*
G75*
G02*
X91943333Y-79740000I50000J0D01*
G01*
X92543333Y-79740000D01*
G75*
G02*
X92593333Y-79790000I0J-50000D01*
G01*
X92593333Y-81190000D01*
G75*
G02*
X92543333Y-81240000I-50000J0D01*
G01*
X91943333Y-81240000D01*
G75*
G02*
X91893333Y-81190000I0J50000D01*
G01*
G37*
G36*
G01*
X90843333Y-81190000D02*
X90843333Y-79790000D01*
G75*
G02*
X90893333Y-79740000I50000J0D01*
G01*
X91443333Y-79740000D01*
G75*
G02*
X91493333Y-79790000I0J-50000D01*
G01*
X91493333Y-81190000D01*
G75*
G02*
X91443333Y-81240000I-50000J0D01*
G01*
X90893333Y-81240000D01*
G75*
G02*
X90843333Y-81190000I0J50000D01*
G01*
G37*
%TD*%
%TO.C,C11*%
G36*
G01*
X213770000Y-151195000D02*
X213770000Y-150645000D01*
G75*
G02*
X214020000Y-150395000I250000J0D01*
G01*
X214520000Y-150395000D01*
G75*
G02*
X214770000Y-150645000I0J-250000D01*
G01*
X214770000Y-151195000D01*
G75*
G02*
X214520000Y-151445000I-250000J0D01*
G01*
X214020000Y-151445000D01*
G75*
G02*
X213770000Y-151195000I0J250000D01*
G01*
G37*
G36*
G01*
X212220000Y-151195000D02*
X212220000Y-150645000D01*
G75*
G02*
X212470000Y-150395000I250000J0D01*
G01*
X212970000Y-150395000D01*
G75*
G02*
X213220000Y-150645000I0J-250000D01*
G01*
X213220000Y-151195000D01*
G75*
G02*
X212970000Y-151445000I-250000J0D01*
G01*
X212470000Y-151445000D01*
G75*
G02*
X212220000Y-151195000I0J250000D01*
G01*
G37*
%TD*%
%TO.C,C10*%
G36*
G01*
X211005000Y-149665000D02*
X211005000Y-149115000D01*
G75*
G02*
X211255000Y-148865000I250000J0D01*
G01*
X211755000Y-148865000D01*
G75*
G02*
X212005000Y-149115000I0J-250000D01*
G01*
X212005000Y-149665000D01*
G75*
G02*
X211755000Y-149915000I-250000J0D01*
G01*
X211255000Y-149915000D01*
G75*
G02*
X211005000Y-149665000I0J250000D01*
G01*
G37*
G36*
G01*
X209455000Y-149665000D02*
X209455000Y-149115000D01*
G75*
G02*
X209705000Y-148865000I250000J0D01*
G01*
X210205000Y-148865000D01*
G75*
G02*
X210455000Y-149115000I0J-250000D01*
G01*
X210455000Y-149665000D01*
G75*
G02*
X210205000Y-149915000I-250000J0D01*
G01*
X209705000Y-149915000D01*
G75*
G02*
X209455000Y-149665000I0J250000D01*
G01*
G37*
%TD*%
%TO.C,C9*%
G36*
G01*
X203085000Y-113085000D02*
X203085000Y-113635000D01*
G75*
G02*
X202835000Y-113885000I-250000J0D01*
G01*
X202335000Y-113885000D01*
G75*
G02*
X202085000Y-113635000I0J250000D01*
G01*
X202085000Y-113085000D01*
G75*
G02*
X202335000Y-112835000I250000J0D01*
G01*
X202835000Y-112835000D01*
G75*
G02*
X203085000Y-113085000I0J-250000D01*
G01*
G37*
G36*
G01*
X201535000Y-113085000D02*
X201535000Y-113635000D01*
G75*
G02*
X201285000Y-113885000I-250000J0D01*
G01*
X200785000Y-113885000D01*
G75*
G02*
X200535000Y-113635000I0J250000D01*
G01*
X200535000Y-113085000D01*
G75*
G02*
X200785000Y-112835000I250000J0D01*
G01*
X201285000Y-112835000D01*
G75*
G02*
X201535000Y-113085000I0J-250000D01*
G01*
G37*
%TD*%
%TO.C,C8*%
G36*
G01*
X208095000Y-113695000D02*
X208095000Y-113145000D01*
G75*
G02*
X208345000Y-112895000I250000J0D01*
G01*
X208845000Y-112895000D01*
G75*
G02*
X209095000Y-113145000I0J-250000D01*
G01*
X209095000Y-113695000D01*
G75*
G02*
X208845000Y-113945000I-250000J0D01*
G01*
X208345000Y-113945000D01*
G75*
G02*
X208095000Y-113695000I0J250000D01*
G01*
G37*
G36*
G01*
X209645000Y-113695000D02*
X209645000Y-113145000D01*
G75*
G02*
X209895000Y-112895000I250000J0D01*
G01*
X210395000Y-112895000D01*
G75*
G02*
X210645000Y-113145000I0J-250000D01*
G01*
X210645000Y-113695000D01*
G75*
G02*
X210395000Y-113945000I-250000J0D01*
G01*
X209895000Y-113945000D01*
G75*
G02*
X209645000Y-113695000I0J250000D01*
G01*
G37*
%TD*%
%TO.C,U3*%
G36*
G01*
X202230000Y-140515000D02*
X202510000Y-140515000D01*
G75*
G02*
X202560000Y-140565000I0J-50000D01*
G01*
X202560000Y-142035000D01*
G75*
G02*
X202510000Y-142085000I-50000J0D01*
G01*
X202230000Y-142085000D01*
G75*
G02*
X202180000Y-142035000I0J50000D01*
G01*
X202180000Y-140565000D01*
G75*
G02*
X202230000Y-140515000I50000J0D01*
G01*
G37*
G36*
G01*
X202730000Y-140515000D02*
X203010000Y-140515000D01*
G75*
G02*
X203060000Y-140565000I0J-50000D01*
G01*
X203060000Y-142035000D01*
G75*
G02*
X203010000Y-142085000I-50000J0D01*
G01*
X202730000Y-142085000D01*
G75*
G02*
X202680000Y-142035000I0J50000D01*
G01*
X202680000Y-140565000D01*
G75*
G02*
X202730000Y-140515000I50000J0D01*
G01*
G37*
G36*
G01*
X203230000Y-140515000D02*
X203510000Y-140515000D01*
G75*
G02*
X203560000Y-140565000I0J-50000D01*
G01*
X203560000Y-142035000D01*
G75*
G02*
X203510000Y-142085000I-50000J0D01*
G01*
X203230000Y-142085000D01*
G75*
G02*
X203180000Y-142035000I0J50000D01*
G01*
X203180000Y-140565000D01*
G75*
G02*
X203230000Y-140515000I50000J0D01*
G01*
G37*
G36*
G01*
X203730000Y-140515000D02*
X204010000Y-140515000D01*
G75*
G02*
X204060000Y-140565000I0J-50000D01*
G01*
X204060000Y-142035000D01*
G75*
G02*
X204010000Y-142085000I-50000J0D01*
G01*
X203730000Y-142085000D01*
G75*
G02*
X203680000Y-142035000I0J50000D01*
G01*
X203680000Y-140565000D01*
G75*
G02*
X203730000Y-140515000I50000J0D01*
G01*
G37*
G36*
G01*
X204230000Y-140515000D02*
X204510000Y-140515000D01*
G75*
G02*
X204560000Y-140565000I0J-50000D01*
G01*
X204560000Y-142035000D01*
G75*
G02*
X204510000Y-142085000I-50000J0D01*
G01*
X204230000Y-142085000D01*
G75*
G02*
X204180000Y-142035000I0J50000D01*
G01*
X204180000Y-140565000D01*
G75*
G02*
X204230000Y-140515000I50000J0D01*
G01*
G37*
G36*
G01*
X204730000Y-140515000D02*
X205010000Y-140515000D01*
G75*
G02*
X205060000Y-140565000I0J-50000D01*
G01*
X205060000Y-142035000D01*
G75*
G02*
X205010000Y-142085000I-50000J0D01*
G01*
X204730000Y-142085000D01*
G75*
G02*
X204680000Y-142035000I0J50000D01*
G01*
X204680000Y-140565000D01*
G75*
G02*
X204730000Y-140515000I50000J0D01*
G01*
G37*
G36*
G01*
X205230000Y-140515000D02*
X205510000Y-140515000D01*
G75*
G02*
X205560000Y-140565000I0J-50000D01*
G01*
X205560000Y-142035000D01*
G75*
G02*
X205510000Y-142085000I-50000J0D01*
G01*
X205230000Y-142085000D01*
G75*
G02*
X205180000Y-142035000I0J50000D01*
G01*
X205180000Y-140565000D01*
G75*
G02*
X205230000Y-140515000I50000J0D01*
G01*
G37*
G36*
G01*
X205730000Y-140515000D02*
X206010000Y-140515000D01*
G75*
G02*
X206060000Y-140565000I0J-50000D01*
G01*
X206060000Y-142035000D01*
G75*
G02*
X206010000Y-142085000I-50000J0D01*
G01*
X205730000Y-142085000D01*
G75*
G02*
X205680000Y-142035000I0J50000D01*
G01*
X205680000Y-140565000D01*
G75*
G02*
X205730000Y-140515000I50000J0D01*
G01*
G37*
G36*
G01*
X206230000Y-140515000D02*
X206510000Y-140515000D01*
G75*
G02*
X206560000Y-140565000I0J-50000D01*
G01*
X206560000Y-142035000D01*
G75*
G02*
X206510000Y-142085000I-50000J0D01*
G01*
X206230000Y-142085000D01*
G75*
G02*
X206180000Y-142035000I0J50000D01*
G01*
X206180000Y-140565000D01*
G75*
G02*
X206230000Y-140515000I50000J0D01*
G01*
G37*
G36*
G01*
X206730000Y-140515000D02*
X207010000Y-140515000D01*
G75*
G02*
X207060000Y-140565000I0J-50000D01*
G01*
X207060000Y-142035000D01*
G75*
G02*
X207010000Y-142085000I-50000J0D01*
G01*
X206730000Y-142085000D01*
G75*
G02*
X206680000Y-142035000I0J50000D01*
G01*
X206680000Y-140565000D01*
G75*
G02*
X206730000Y-140515000I50000J0D01*
G01*
G37*
G36*
G01*
X207230000Y-140515000D02*
X207510000Y-140515000D01*
G75*
G02*
X207560000Y-140565000I0J-50000D01*
G01*
X207560000Y-142035000D01*
G75*
G02*
X207510000Y-142085000I-50000J0D01*
G01*
X207230000Y-142085000D01*
G75*
G02*
X207180000Y-142035000I0J50000D01*
G01*
X207180000Y-140565000D01*
G75*
G02*
X207230000Y-140515000I50000J0D01*
G01*
G37*
G36*
G01*
X207730000Y-140515000D02*
X208010000Y-140515000D01*
G75*
G02*
X208060000Y-140565000I0J-50000D01*
G01*
X208060000Y-142035000D01*
G75*
G02*
X208010000Y-142085000I-50000J0D01*
G01*
X207730000Y-142085000D01*
G75*
G02*
X207680000Y-142035000I0J50000D01*
G01*
X207680000Y-140565000D01*
G75*
G02*
X207730000Y-140515000I50000J0D01*
G01*
G37*
G36*
G01*
X208230000Y-140515000D02*
X208510000Y-140515000D01*
G75*
G02*
X208560000Y-140565000I0J-50000D01*
G01*
X208560000Y-142035000D01*
G75*
G02*
X208510000Y-142085000I-50000J0D01*
G01*
X208230000Y-142085000D01*
G75*
G02*
X208180000Y-142035000I0J50000D01*
G01*
X208180000Y-140565000D01*
G75*
G02*
X208230000Y-140515000I50000J0D01*
G01*
G37*
G36*
G01*
X208730000Y-140515000D02*
X209010000Y-140515000D01*
G75*
G02*
X209060000Y-140565000I0J-50000D01*
G01*
X209060000Y-142035000D01*
G75*
G02*
X209010000Y-142085000I-50000J0D01*
G01*
X208730000Y-142085000D01*
G75*
G02*
X208680000Y-142035000I0J50000D01*
G01*
X208680000Y-140565000D01*
G75*
G02*
X208730000Y-140515000I50000J0D01*
G01*
G37*
G36*
G01*
X209230000Y-140515000D02*
X209510000Y-140515000D01*
G75*
G02*
X209560000Y-140565000I0J-50000D01*
G01*
X209560000Y-142035000D01*
G75*
G02*
X209510000Y-142085000I-50000J0D01*
G01*
X209230000Y-142085000D01*
G75*
G02*
X209180000Y-142035000I0J50000D01*
G01*
X209180000Y-140565000D01*
G75*
G02*
X209230000Y-140515000I50000J0D01*
G01*
G37*
G36*
G01*
X209730000Y-140515000D02*
X210010000Y-140515000D01*
G75*
G02*
X210060000Y-140565000I0J-50000D01*
G01*
X210060000Y-142035000D01*
G75*
G02*
X210010000Y-142085000I-50000J0D01*
G01*
X209730000Y-142085000D01*
G75*
G02*
X209680000Y-142035000I0J50000D01*
G01*
X209680000Y-140565000D01*
G75*
G02*
X209730000Y-140515000I50000J0D01*
G01*
G37*
G36*
G01*
X209730000Y-129175000D02*
X210010000Y-129175000D01*
G75*
G02*
X210060000Y-129225000I0J-50000D01*
G01*
X210060000Y-130695000D01*
G75*
G02*
X210010000Y-130745000I-50000J0D01*
G01*
X209730000Y-130745000D01*
G75*
G02*
X209680000Y-130695000I0J50000D01*
G01*
X209680000Y-129225000D01*
G75*
G02*
X209730000Y-129175000I50000J0D01*
G01*
G37*
G36*
G01*
X209230000Y-129175000D02*
X209510000Y-129175000D01*
G75*
G02*
X209560000Y-129225000I0J-50000D01*
G01*
X209560000Y-130695000D01*
G75*
G02*
X209510000Y-130745000I-50000J0D01*
G01*
X209230000Y-130745000D01*
G75*
G02*
X209180000Y-130695000I0J50000D01*
G01*
X209180000Y-129225000D01*
G75*
G02*
X209230000Y-129175000I50000J0D01*
G01*
G37*
G36*
G01*
X208730000Y-129175000D02*
X209010000Y-129175000D01*
G75*
G02*
X209060000Y-129225000I0J-50000D01*
G01*
X209060000Y-130695000D01*
G75*
G02*
X209010000Y-130745000I-50000J0D01*
G01*
X208730000Y-130745000D01*
G75*
G02*
X208680000Y-130695000I0J50000D01*
G01*
X208680000Y-129225000D01*
G75*
G02*
X208730000Y-129175000I50000J0D01*
G01*
G37*
G36*
G01*
X208230000Y-129175000D02*
X208510000Y-129175000D01*
G75*
G02*
X208560000Y-129225000I0J-50000D01*
G01*
X208560000Y-130695000D01*
G75*
G02*
X208510000Y-130745000I-50000J0D01*
G01*
X208230000Y-130745000D01*
G75*
G02*
X208180000Y-130695000I0J50000D01*
G01*
X208180000Y-129225000D01*
G75*
G02*
X208230000Y-129175000I50000J0D01*
G01*
G37*
G36*
G01*
X207730000Y-129175000D02*
X208010000Y-129175000D01*
G75*
G02*
X208060000Y-129225000I0J-50000D01*
G01*
X208060000Y-130695000D01*
G75*
G02*
X208010000Y-130745000I-50000J0D01*
G01*
X207730000Y-130745000D01*
G75*
G02*
X207680000Y-130695000I0J50000D01*
G01*
X207680000Y-129225000D01*
G75*
G02*
X207730000Y-129175000I50000J0D01*
G01*
G37*
G36*
G01*
X207230000Y-129175000D02*
X207510000Y-129175000D01*
G75*
G02*
X207560000Y-129225000I0J-50000D01*
G01*
X207560000Y-130695000D01*
G75*
G02*
X207510000Y-130745000I-50000J0D01*
G01*
X207230000Y-130745000D01*
G75*
G02*
X207180000Y-130695000I0J50000D01*
G01*
X207180000Y-129225000D01*
G75*
G02*
X207230000Y-129175000I50000J0D01*
G01*
G37*
G36*
G01*
X206730000Y-129175000D02*
X207010000Y-129175000D01*
G75*
G02*
X207060000Y-129225000I0J-50000D01*
G01*
X207060000Y-130695000D01*
G75*
G02*
X207010000Y-130745000I-50000J0D01*
G01*
X206730000Y-130745000D01*
G75*
G02*
X206680000Y-130695000I0J50000D01*
G01*
X206680000Y-129225000D01*
G75*
G02*
X206730000Y-129175000I50000J0D01*
G01*
G37*
G36*
G01*
X206230000Y-129175000D02*
X206510000Y-129175000D01*
G75*
G02*
X206560000Y-129225000I0J-50000D01*
G01*
X206560000Y-130695000D01*
G75*
G02*
X206510000Y-130745000I-50000J0D01*
G01*
X206230000Y-130745000D01*
G75*
G02*
X206180000Y-130695000I0J50000D01*
G01*
X206180000Y-129225000D01*
G75*
G02*
X206230000Y-129175000I50000J0D01*
G01*
G37*
G36*
G01*
X205730000Y-129175000D02*
X206010000Y-129175000D01*
G75*
G02*
X206060000Y-129225000I0J-50000D01*
G01*
X206060000Y-130695000D01*
G75*
G02*
X206010000Y-130745000I-50000J0D01*
G01*
X205730000Y-130745000D01*
G75*
G02*
X205680000Y-130695000I0J50000D01*
G01*
X205680000Y-129225000D01*
G75*
G02*
X205730000Y-129175000I50000J0D01*
G01*
G37*
G36*
G01*
X205230000Y-129175000D02*
X205510000Y-129175000D01*
G75*
G02*
X205560000Y-129225000I0J-50000D01*
G01*
X205560000Y-130695000D01*
G75*
G02*
X205510000Y-130745000I-50000J0D01*
G01*
X205230000Y-130745000D01*
G75*
G02*
X205180000Y-130695000I0J50000D01*
G01*
X205180000Y-129225000D01*
G75*
G02*
X205230000Y-129175000I50000J0D01*
G01*
G37*
G36*
G01*
X204730000Y-129175000D02*
X205010000Y-129175000D01*
G75*
G02*
X205060000Y-129225000I0J-50000D01*
G01*
X205060000Y-130695000D01*
G75*
G02*
X205010000Y-130745000I-50000J0D01*
G01*
X204730000Y-130745000D01*
G75*
G02*
X204680000Y-130695000I0J50000D01*
G01*
X204680000Y-129225000D01*
G75*
G02*
X204730000Y-129175000I50000J0D01*
G01*
G37*
G36*
G01*
X204230000Y-129175000D02*
X204510000Y-129175000D01*
G75*
G02*
X204560000Y-129225000I0J-50000D01*
G01*
X204560000Y-130695000D01*
G75*
G02*
X204510000Y-130745000I-50000J0D01*
G01*
X204230000Y-130745000D01*
G75*
G02*
X204180000Y-130695000I0J50000D01*
G01*
X204180000Y-129225000D01*
G75*
G02*
X204230000Y-129175000I50000J0D01*
G01*
G37*
G36*
G01*
X203730000Y-129175000D02*
X204010000Y-129175000D01*
G75*
G02*
X204060000Y-129225000I0J-50000D01*
G01*
X204060000Y-130695000D01*
G75*
G02*
X204010000Y-130745000I-50000J0D01*
G01*
X203730000Y-130745000D01*
G75*
G02*
X203680000Y-130695000I0J50000D01*
G01*
X203680000Y-129225000D01*
G75*
G02*
X203730000Y-129175000I50000J0D01*
G01*
G37*
G36*
G01*
X203230000Y-129175000D02*
X203510000Y-129175000D01*
G75*
G02*
X203560000Y-129225000I0J-50000D01*
G01*
X203560000Y-130695000D01*
G75*
G02*
X203510000Y-130745000I-50000J0D01*
G01*
X203230000Y-130745000D01*
G75*
G02*
X203180000Y-130695000I0J50000D01*
G01*
X203180000Y-129225000D01*
G75*
G02*
X203230000Y-129175000I50000J0D01*
G01*
G37*
G36*
G01*
X202730000Y-129175000D02*
X203010000Y-129175000D01*
G75*
G02*
X203060000Y-129225000I0J-50000D01*
G01*
X203060000Y-130695000D01*
G75*
G02*
X203010000Y-130745000I-50000J0D01*
G01*
X202730000Y-130745000D01*
G75*
G02*
X202680000Y-130695000I0J50000D01*
G01*
X202680000Y-129225000D01*
G75*
G02*
X202730000Y-129175000I50000J0D01*
G01*
G37*
G36*
G01*
X202230000Y-129175000D02*
X202510000Y-129175000D01*
G75*
G02*
X202560000Y-129225000I0J-50000D01*
G01*
X202560000Y-130695000D01*
G75*
G02*
X202510000Y-130745000I-50000J0D01*
G01*
X202230000Y-130745000D01*
G75*
G02*
X202180000Y-130695000I0J50000D01*
G01*
X202180000Y-129225000D01*
G75*
G02*
X202230000Y-129175000I50000J0D01*
G01*
G37*
G36*
G01*
X199715000Y-131690000D02*
X201185000Y-131690000D01*
G75*
G02*
X201235000Y-131740000I0J-50000D01*
G01*
X201235000Y-132020000D01*
G75*
G02*
X201185000Y-132070000I-50000J0D01*
G01*
X199715000Y-132070000D01*
G75*
G02*
X199665000Y-132020000I0J50000D01*
G01*
X199665000Y-131740000D01*
G75*
G02*
X199715000Y-131690000I50000J0D01*
G01*
G37*
G36*
G01*
X199715000Y-132190000D02*
X201185000Y-132190000D01*
G75*
G02*
X201235000Y-132240000I0J-50000D01*
G01*
X201235000Y-132520000D01*
G75*
G02*
X201185000Y-132570000I-50000J0D01*
G01*
X199715000Y-132570000D01*
G75*
G02*
X199665000Y-132520000I0J50000D01*
G01*
X199665000Y-132240000D01*
G75*
G02*
X199715000Y-132190000I50000J0D01*
G01*
G37*
G36*
G01*
X199715000Y-132690000D02*
X201185000Y-132690000D01*
G75*
G02*
X201235000Y-132740000I0J-50000D01*
G01*
X201235000Y-133020000D01*
G75*
G02*
X201185000Y-133070000I-50000J0D01*
G01*
X199715000Y-133070000D01*
G75*
G02*
X199665000Y-133020000I0J50000D01*
G01*
X199665000Y-132740000D01*
G75*
G02*
X199715000Y-132690000I50000J0D01*
G01*
G37*
G36*
G01*
X199715000Y-133190000D02*
X201185000Y-133190000D01*
G75*
G02*
X201235000Y-133240000I0J-50000D01*
G01*
X201235000Y-133520000D01*
G75*
G02*
X201185000Y-133570000I-50000J0D01*
G01*
X199715000Y-133570000D01*
G75*
G02*
X199665000Y-133520000I0J50000D01*
G01*
X199665000Y-133240000D01*
G75*
G02*
X199715000Y-133190000I50000J0D01*
G01*
G37*
G36*
G01*
X199715000Y-133690000D02*
X201185000Y-133690000D01*
G75*
G02*
X201235000Y-133740000I0J-50000D01*
G01*
X201235000Y-134020000D01*
G75*
G02*
X201185000Y-134070000I-50000J0D01*
G01*
X199715000Y-134070000D01*
G75*
G02*
X199665000Y-134020000I0J50000D01*
G01*
X199665000Y-133740000D01*
G75*
G02*
X199715000Y-133690000I50000J0D01*
G01*
G37*
G36*
G01*
X199715000Y-134190000D02*
X201185000Y-134190000D01*
G75*
G02*
X201235000Y-134240000I0J-50000D01*
G01*
X201235000Y-134520000D01*
G75*
G02*
X201185000Y-134570000I-50000J0D01*
G01*
X199715000Y-134570000D01*
G75*
G02*
X199665000Y-134520000I0J50000D01*
G01*
X199665000Y-134240000D01*
G75*
G02*
X199715000Y-134190000I50000J0D01*
G01*
G37*
G36*
G01*
X199715000Y-134690000D02*
X201185000Y-134690000D01*
G75*
G02*
X201235000Y-134740000I0J-50000D01*
G01*
X201235000Y-135020000D01*
G75*
G02*
X201185000Y-135070000I-50000J0D01*
G01*
X199715000Y-135070000D01*
G75*
G02*
X199665000Y-135020000I0J50000D01*
G01*
X199665000Y-134740000D01*
G75*
G02*
X199715000Y-134690000I50000J0D01*
G01*
G37*
G36*
G01*
X199715000Y-135190000D02*
X201185000Y-135190000D01*
G75*
G02*
X201235000Y-135240000I0J-50000D01*
G01*
X201235000Y-135520000D01*
G75*
G02*
X201185000Y-135570000I-50000J0D01*
G01*
X199715000Y-135570000D01*
G75*
G02*
X199665000Y-135520000I0J50000D01*
G01*
X199665000Y-135240000D01*
G75*
G02*
X199715000Y-135190000I50000J0D01*
G01*
G37*
G36*
G01*
X199715000Y-135690000D02*
X201185000Y-135690000D01*
G75*
G02*
X201235000Y-135740000I0J-50000D01*
G01*
X201235000Y-136020000D01*
G75*
G02*
X201185000Y-136070000I-50000J0D01*
G01*
X199715000Y-136070000D01*
G75*
G02*
X199665000Y-136020000I0J50000D01*
G01*
X199665000Y-135740000D01*
G75*
G02*
X199715000Y-135690000I50000J0D01*
G01*
G37*
G36*
G01*
X199715000Y-136190000D02*
X201185000Y-136190000D01*
G75*
G02*
X201235000Y-136240000I0J-50000D01*
G01*
X201235000Y-136520000D01*
G75*
G02*
X201185000Y-136570000I-50000J0D01*
G01*
X199715000Y-136570000D01*
G75*
G02*
X199665000Y-136520000I0J50000D01*
G01*
X199665000Y-136240000D01*
G75*
G02*
X199715000Y-136190000I50000J0D01*
G01*
G37*
G36*
G01*
X199715000Y-136690000D02*
X201185000Y-136690000D01*
G75*
G02*
X201235000Y-136740000I0J-50000D01*
G01*
X201235000Y-137020000D01*
G75*
G02*
X201185000Y-137070000I-50000J0D01*
G01*
X199715000Y-137070000D01*
G75*
G02*
X199665000Y-137020000I0J50000D01*
G01*
X199665000Y-136740000D01*
G75*
G02*
X199715000Y-136690000I50000J0D01*
G01*
G37*
G36*
G01*
X199715000Y-137190000D02*
X201185000Y-137190000D01*
G75*
G02*
X201235000Y-137240000I0J-50000D01*
G01*
X201235000Y-137520000D01*
G75*
G02*
X201185000Y-137570000I-50000J0D01*
G01*
X199715000Y-137570000D01*
G75*
G02*
X199665000Y-137520000I0J50000D01*
G01*
X199665000Y-137240000D01*
G75*
G02*
X199715000Y-137190000I50000J0D01*
G01*
G37*
G36*
G01*
X199715000Y-137690000D02*
X201185000Y-137690000D01*
G75*
G02*
X201235000Y-137740000I0J-50000D01*
G01*
X201235000Y-138020000D01*
G75*
G02*
X201185000Y-138070000I-50000J0D01*
G01*
X199715000Y-138070000D01*
G75*
G02*
X199665000Y-138020000I0J50000D01*
G01*
X199665000Y-137740000D01*
G75*
G02*
X199715000Y-137690000I50000J0D01*
G01*
G37*
G36*
G01*
X199715000Y-138190000D02*
X201185000Y-138190000D01*
G75*
G02*
X201235000Y-138240000I0J-50000D01*
G01*
X201235000Y-138520000D01*
G75*
G02*
X201185000Y-138570000I-50000J0D01*
G01*
X199715000Y-138570000D01*
G75*
G02*
X199665000Y-138520000I0J50000D01*
G01*
X199665000Y-138240000D01*
G75*
G02*
X199715000Y-138190000I50000J0D01*
G01*
G37*
G36*
G01*
X199715000Y-138690000D02*
X201185000Y-138690000D01*
G75*
G02*
X201235000Y-138740000I0J-50000D01*
G01*
X201235000Y-139020000D01*
G75*
G02*
X201185000Y-139070000I-50000J0D01*
G01*
X199715000Y-139070000D01*
G75*
G02*
X199665000Y-139020000I0J50000D01*
G01*
X199665000Y-138740000D01*
G75*
G02*
X199715000Y-138690000I50000J0D01*
G01*
G37*
G36*
G01*
X199715000Y-139190000D02*
X201185000Y-139190000D01*
G75*
G02*
X201235000Y-139240000I0J-50000D01*
G01*
X201235000Y-139520000D01*
G75*
G02*
X201185000Y-139570000I-50000J0D01*
G01*
X199715000Y-139570000D01*
G75*
G02*
X199665000Y-139520000I0J50000D01*
G01*
X199665000Y-139240000D01*
G75*
G02*
X199715000Y-139190000I50000J0D01*
G01*
G37*
G36*
G01*
X211055000Y-139190000D02*
X212525000Y-139190000D01*
G75*
G02*
X212575000Y-139240000I0J-50000D01*
G01*
X212575000Y-139520000D01*
G75*
G02*
X212525000Y-139570000I-50000J0D01*
G01*
X211055000Y-139570000D01*
G75*
G02*
X211005000Y-139520000I0J50000D01*
G01*
X211005000Y-139240000D01*
G75*
G02*
X211055000Y-139190000I50000J0D01*
G01*
G37*
G36*
G01*
X211055000Y-138690000D02*
X212525000Y-138690000D01*
G75*
G02*
X212575000Y-138740000I0J-50000D01*
G01*
X212575000Y-139020000D01*
G75*
G02*
X212525000Y-139070000I-50000J0D01*
G01*
X211055000Y-139070000D01*
G75*
G02*
X211005000Y-139020000I0J50000D01*
G01*
X211005000Y-138740000D01*
G75*
G02*
X211055000Y-138690000I50000J0D01*
G01*
G37*
G36*
G01*
X211055000Y-138190000D02*
X212525000Y-138190000D01*
G75*
G02*
X212575000Y-138240000I0J-50000D01*
G01*
X212575000Y-138520000D01*
G75*
G02*
X212525000Y-138570000I-50000J0D01*
G01*
X211055000Y-138570000D01*
G75*
G02*
X211005000Y-138520000I0J50000D01*
G01*
X211005000Y-138240000D01*
G75*
G02*
X211055000Y-138190000I50000J0D01*
G01*
G37*
G36*
G01*
X211055000Y-137690000D02*
X212525000Y-137690000D01*
G75*
G02*
X212575000Y-137740000I0J-50000D01*
G01*
X212575000Y-138020000D01*
G75*
G02*
X212525000Y-138070000I-50000J0D01*
G01*
X211055000Y-138070000D01*
G75*
G02*
X211005000Y-138020000I0J50000D01*
G01*
X211005000Y-137740000D01*
G75*
G02*
X211055000Y-137690000I50000J0D01*
G01*
G37*
G36*
G01*
X211055000Y-137190000D02*
X212525000Y-137190000D01*
G75*
G02*
X212575000Y-137240000I0J-50000D01*
G01*
X212575000Y-137520000D01*
G75*
G02*
X212525000Y-137570000I-50000J0D01*
G01*
X211055000Y-137570000D01*
G75*
G02*
X211005000Y-137520000I0J50000D01*
G01*
X211005000Y-137240000D01*
G75*
G02*
X211055000Y-137190000I50000J0D01*
G01*
G37*
G36*
G01*
X211055000Y-136690000D02*
X212525000Y-136690000D01*
G75*
G02*
X212575000Y-136740000I0J-50000D01*
G01*
X212575000Y-137020000D01*
G75*
G02*
X212525000Y-137070000I-50000J0D01*
G01*
X211055000Y-137070000D01*
G75*
G02*
X211005000Y-137020000I0J50000D01*
G01*
X211005000Y-136740000D01*
G75*
G02*
X211055000Y-136690000I50000J0D01*
G01*
G37*
G36*
G01*
X211055000Y-136190000D02*
X212525000Y-136190000D01*
G75*
G02*
X212575000Y-136240000I0J-50000D01*
G01*
X212575000Y-136520000D01*
G75*
G02*
X212525000Y-136570000I-50000J0D01*
G01*
X211055000Y-136570000D01*
G75*
G02*
X211005000Y-136520000I0J50000D01*
G01*
X211005000Y-136240000D01*
G75*
G02*
X211055000Y-136190000I50000J0D01*
G01*
G37*
G36*
G01*
X211055000Y-135690000D02*
X212525000Y-135690000D01*
G75*
G02*
X212575000Y-135740000I0J-50000D01*
G01*
X212575000Y-136020000D01*
G75*
G02*
X212525000Y-136070000I-50000J0D01*
G01*
X211055000Y-136070000D01*
G75*
G02*
X211005000Y-136020000I0J50000D01*
G01*
X211005000Y-135740000D01*
G75*
G02*
X211055000Y-135690000I50000J0D01*
G01*
G37*
G36*
G01*
X211055000Y-135190000D02*
X212525000Y-135190000D01*
G75*
G02*
X212575000Y-135240000I0J-50000D01*
G01*
X212575000Y-135520000D01*
G75*
G02*
X212525000Y-135570000I-50000J0D01*
G01*
X211055000Y-135570000D01*
G75*
G02*
X211005000Y-135520000I0J50000D01*
G01*
X211005000Y-135240000D01*
G75*
G02*
X211055000Y-135190000I50000J0D01*
G01*
G37*
G36*
G01*
X211055000Y-134690000D02*
X212525000Y-134690000D01*
G75*
G02*
X212575000Y-134740000I0J-50000D01*
G01*
X212575000Y-135020000D01*
G75*
G02*
X212525000Y-135070000I-50000J0D01*
G01*
X211055000Y-135070000D01*
G75*
G02*
X211005000Y-135020000I0J50000D01*
G01*
X211005000Y-134740000D01*
G75*
G02*
X211055000Y-134690000I50000J0D01*
G01*
G37*
G36*
G01*
X211055000Y-134190000D02*
X212525000Y-134190000D01*
G75*
G02*
X212575000Y-134240000I0J-50000D01*
G01*
X212575000Y-134520000D01*
G75*
G02*
X212525000Y-134570000I-50000J0D01*
G01*
X211055000Y-134570000D01*
G75*
G02*
X211005000Y-134520000I0J50000D01*
G01*
X211005000Y-134240000D01*
G75*
G02*
X211055000Y-134190000I50000J0D01*
G01*
G37*
G36*
G01*
X211055000Y-133690000D02*
X212525000Y-133690000D01*
G75*
G02*
X212575000Y-133740000I0J-50000D01*
G01*
X212575000Y-134020000D01*
G75*
G02*
X212525000Y-134070000I-50000J0D01*
G01*
X211055000Y-134070000D01*
G75*
G02*
X211005000Y-134020000I0J50000D01*
G01*
X211005000Y-133740000D01*
G75*
G02*
X211055000Y-133690000I50000J0D01*
G01*
G37*
G36*
G01*
X211055000Y-133190000D02*
X212525000Y-133190000D01*
G75*
G02*
X212575000Y-133240000I0J-50000D01*
G01*
X212575000Y-133520000D01*
G75*
G02*
X212525000Y-133570000I-50000J0D01*
G01*
X211055000Y-133570000D01*
G75*
G02*
X211005000Y-133520000I0J50000D01*
G01*
X211005000Y-133240000D01*
G75*
G02*
X211055000Y-133190000I50000J0D01*
G01*
G37*
G36*
G01*
X211055000Y-132690000D02*
X212525000Y-132690000D01*
G75*
G02*
X212575000Y-132740000I0J-50000D01*
G01*
X212575000Y-133020000D01*
G75*
G02*
X212525000Y-133070000I-50000J0D01*
G01*
X211055000Y-133070000D01*
G75*
G02*
X211005000Y-133020000I0J50000D01*
G01*
X211005000Y-132740000D01*
G75*
G02*
X211055000Y-132690000I50000J0D01*
G01*
G37*
G36*
G01*
X211055000Y-132190000D02*
X212525000Y-132190000D01*
G75*
G02*
X212575000Y-132240000I0J-50000D01*
G01*
X212575000Y-132520000D01*
G75*
G02*
X212525000Y-132570000I-50000J0D01*
G01*
X211055000Y-132570000D01*
G75*
G02*
X211005000Y-132520000I0J50000D01*
G01*
X211005000Y-132240000D01*
G75*
G02*
X211055000Y-132190000I50000J0D01*
G01*
G37*
G36*
G01*
X211055000Y-131690000D02*
X212525000Y-131690000D01*
G75*
G02*
X212575000Y-131740000I0J-50000D01*
G01*
X212575000Y-132020000D01*
G75*
G02*
X212525000Y-132070000I-50000J0D01*
G01*
X211055000Y-132070000D01*
G75*
G02*
X211005000Y-132020000I0J50000D01*
G01*
X211005000Y-131740000D01*
G75*
G02*
X211055000Y-131690000I50000J0D01*
G01*
G37*
%TD*%
%TO.C,D10*%
G36*
G01*
X265573879Y-130376026D02*
X265469292Y-129180592D01*
G75*
G02*
X265514744Y-129126424I49810J4358D01*
G01*
X266411319Y-129047984D01*
G75*
G02*
X266465487Y-129093436I4358J-49810D01*
G01*
X266570074Y-130288870D01*
G75*
G02*
X266524622Y-130343038I-49810J-4358D01*
G01*
X265628047Y-130421478D01*
G75*
G02*
X265573879Y-130376026I-4358J49810D01*
G01*
G37*
G36*
G01*
X268861321Y-130088412D02*
X268756734Y-128892978D01*
G75*
G02*
X268802186Y-128838810I49810J4358D01*
G01*
X269698761Y-128760370D01*
G75*
G02*
X269752929Y-128805822I4358J-49810D01*
G01*
X269857516Y-130001256D01*
G75*
G02*
X269812064Y-130055424I-49810J-4358D01*
G01*
X268915489Y-130133864D01*
G75*
G02*
X268861321Y-130088412I-4358J49810D01*
G01*
G37*
%TD*%
%TO.C,D49*%
G36*
G01*
X261281799Y-142430153D02*
X260971216Y-141271042D01*
G75*
G02*
X261006571Y-141209805I48296J12941D01*
G01*
X261875904Y-140976868D01*
G75*
G02*
X261937141Y-141012223I12941J-48296D01*
G01*
X262247724Y-142171334D01*
G75*
G02*
X262212369Y-142232571I-48296J-12941D01*
G01*
X261343036Y-142465508D01*
G75*
G02*
X261281799Y-142430153I-12941J48296D01*
G01*
G37*
G36*
G01*
X264469355Y-141576051D02*
X264158772Y-140416940D01*
G75*
G02*
X264194127Y-140355703I48296J12941D01*
G01*
X265063460Y-140122766D01*
G75*
G02*
X265124697Y-140158121I12941J-48296D01*
G01*
X265435280Y-141317232D01*
G75*
G02*
X265399925Y-141378469I-48296J-12941D01*
G01*
X264530592Y-141611406D01*
G75*
G02*
X264469355Y-141576051I-12941J48296D01*
G01*
G37*
%TD*%
%TO.C,D36*%
G36*
G01*
X266061952Y-135954716D02*
X265957365Y-134759282D01*
G75*
G02*
X266002817Y-134705114I49810J4358D01*
G01*
X266899392Y-134626674D01*
G75*
G02*
X266953560Y-134672126I4358J-49810D01*
G01*
X267058147Y-135867560D01*
G75*
G02*
X267012695Y-135921728I-49810J-4358D01*
G01*
X266116120Y-136000168D01*
G75*
G02*
X266061952Y-135954716I-4358J49810D01*
G01*
G37*
G36*
G01*
X269349394Y-135667102D02*
X269244807Y-134471668D01*
G75*
G02*
X269290259Y-134417500I49810J4358D01*
G01*
X270186834Y-134339060D01*
G75*
G02*
X270241002Y-134384512I4358J-49810D01*
G01*
X270345589Y-135579946D01*
G75*
G02*
X270300137Y-135634114I-49810J-4358D01*
G01*
X269403562Y-135712554D01*
G75*
G02*
X269349394Y-135667102I-4358J49810D01*
G01*
G37*
%TD*%
%TO.C,D23*%
G36*
G01*
X265780475Y-132695102D02*
X265675888Y-131499668D01*
G75*
G02*
X265721340Y-131445500I49810J4358D01*
G01*
X266617915Y-131367060D01*
G75*
G02*
X266672083Y-131412512I4358J-49810D01*
G01*
X266776670Y-132607946D01*
G75*
G02*
X266731218Y-132662114I-49810J-4358D01*
G01*
X265834643Y-132740554D01*
G75*
G02*
X265780475Y-132695102I-4358J49810D01*
G01*
G37*
G36*
G01*
X269067917Y-132407488D02*
X268963330Y-131212054D01*
G75*
G02*
X269008782Y-131157886I49810J4358D01*
G01*
X269905357Y-131079446D01*
G75*
G02*
X269959525Y-131124898I4358J-49810D01*
G01*
X270064112Y-132320332D01*
G75*
G02*
X270018660Y-132374500I-49810J-4358D01*
G01*
X269122085Y-132452940D01*
G75*
G02*
X269067917Y-132407488I-4358J49810D01*
G01*
G37*
%TD*%
%TO.C,SW1*%
G36*
G01*
X89433260Y-124330502D02*
X89555278Y-122935830D01*
G75*
G02*
X89609446Y-122890378I49810J-4358D01*
G01*
X90506022Y-122968818D01*
G75*
G02*
X90551474Y-123022986I-4358J-49810D01*
G01*
X90429456Y-124417658D01*
G75*
G02*
X90375288Y-124463110I-49810J4358D01*
G01*
X89478712Y-124384670D01*
G75*
G02*
X89433260Y-124330502I4358J49810D01*
G01*
G37*
G36*
G01*
X95908526Y-124897014D02*
X96030544Y-123502342D01*
G75*
G02*
X96084712Y-123456890I49810J-4358D01*
G01*
X96981288Y-123535330D01*
G75*
G02*
X97026740Y-123589498I-4358J-49810D01*
G01*
X96904722Y-124984170D01*
G75*
G02*
X96850554Y-125029622I-49810J4358D01*
G01*
X95953978Y-124951182D01*
G75*
G02*
X95908526Y-124897014I4358J49810D01*
G01*
G37*
%TD*%
%TO.C,U4*%
G36*
G01*
X217946000Y-110996000D02*
X219254000Y-110996000D01*
G75*
G02*
X219304000Y-111046000I0J-50000D01*
G01*
X219304000Y-112354000D01*
G75*
G02*
X219254000Y-112404000I-50000J0D01*
G01*
X217946000Y-112404000D01*
G75*
G02*
X217896000Y-112354000I0J50000D01*
G01*
X217896000Y-111046000D01*
G75*
G02*
X217946000Y-110996000I50000J0D01*
G01*
G37*
D23*
X221140000Y-111700000D03*
X221140000Y-106620000D03*
X218600000Y-106620000D03*
X221140000Y-109160000D03*
X218600000Y-109160000D03*
%TD*%
%TO.C,Y1*%
G36*
G01*
X219160000Y-136960000D02*
X217960000Y-136960000D01*
G75*
G02*
X217910000Y-136910000I0J50000D01*
G01*
X217910000Y-135510000D01*
G75*
G02*
X217960000Y-135460000I50000J0D01*
G01*
X219160000Y-135460000D01*
G75*
G02*
X219210000Y-135510000I0J-50000D01*
G01*
X219210000Y-136910000D01*
G75*
G02*
X219160000Y-136960000I-50000J0D01*
G01*
G37*
G36*
G01*
X219160000Y-134760000D02*
X217960000Y-134760000D01*
G75*
G02*
X217910000Y-134710000I0J50000D01*
G01*
X217910000Y-133310000D01*
G75*
G02*
X217960000Y-133260000I50000J0D01*
G01*
X219160000Y-133260000D01*
G75*
G02*
X219210000Y-133310000I0J-50000D01*
G01*
X219210000Y-134710000D01*
G75*
G02*
X219160000Y-134760000I-50000J0D01*
G01*
G37*
G36*
G01*
X220860000Y-134760000D02*
X219660000Y-134760000D01*
G75*
G02*
X219610000Y-134710000I0J50000D01*
G01*
X219610000Y-133310000D01*
G75*
G02*
X219660000Y-133260000I50000J0D01*
G01*
X220860000Y-133260000D01*
G75*
G02*
X220910000Y-133310000I0J-50000D01*
G01*
X220910000Y-134710000D01*
G75*
G02*
X220860000Y-134760000I-50000J0D01*
G01*
G37*
G36*
G01*
X220860000Y-136960000D02*
X219660000Y-136960000D01*
G75*
G02*
X219610000Y-136910000I0J50000D01*
G01*
X219610000Y-135510000D01*
G75*
G02*
X219660000Y-135460000I50000J0D01*
G01*
X220860000Y-135460000D01*
G75*
G02*
X220910000Y-135510000I0J-50000D01*
G01*
X220910000Y-136910000D01*
G75*
G02*
X220860000Y-136960000I-50000J0D01*
G01*
G37*
%TD*%
%TO.C,U1*%
G36*
G01*
X83448626Y-86751263D02*
X83448626Y-87751263D01*
G75*
G02*
X83398626Y-87801263I-50000J0D01*
G01*
X82698626Y-87801263D01*
G75*
G02*
X82648626Y-87751263I0J50000D01*
G01*
X82648626Y-86751263D01*
G75*
G02*
X82698626Y-86701263I50000J0D01*
G01*
X83398626Y-86701263D01*
G75*
G02*
X83448626Y-86751263I0J-50000D01*
G01*
G37*
G36*
G01*
X83448626Y-88651263D02*
X83448626Y-89251263D01*
G75*
G02*
X83398626Y-89301263I-50000J0D01*
G01*
X82698626Y-89301263D01*
G75*
G02*
X82648626Y-89251263I0J50000D01*
G01*
X82648626Y-88651263D01*
G75*
G02*
X82698626Y-88601263I50000J0D01*
G01*
X83398626Y-88601263D01*
G75*
G02*
X83448626Y-88651263I0J-50000D01*
G01*
G37*
G36*
G01*
X81448626Y-88651263D02*
X81448626Y-89251263D01*
G75*
G02*
X81398626Y-89301263I-50000J0D01*
G01*
X80698626Y-89301263D01*
G75*
G02*
X80648626Y-89251263I0J50000D01*
G01*
X80648626Y-88651263D01*
G75*
G02*
X80698626Y-88601263I50000J0D01*
G01*
X81398626Y-88601263D01*
G75*
G02*
X81448626Y-88651263I0J-50000D01*
G01*
G37*
G36*
G01*
X81448626Y-86751263D02*
X81448626Y-87351263D01*
G75*
G02*
X81398626Y-87401263I-50000J0D01*
G01*
X80698626Y-87401263D01*
G75*
G02*
X80648626Y-87351263I0J50000D01*
G01*
X80648626Y-86751263D01*
G75*
G02*
X80698626Y-86701263I50000J0D01*
G01*
X81398626Y-86701263D01*
G75*
G02*
X81448626Y-86751263I0J-50000D01*
G01*
G37*
%TD*%
%TO.C,RC7*%
G36*
G01*
X204520000Y-143880000D02*
X204520000Y-144480000D01*
G75*
G02*
X204295000Y-144705000I-225000J0D01*
G01*
X203845000Y-144705000D01*
G75*
G02*
X203620000Y-144480000I0J225000D01*
G01*
X203620000Y-143880000D01*
G75*
G02*
X203845000Y-143655000I225000J0D01*
G01*
X204295000Y-143655000D01*
G75*
G02*
X204520000Y-143880000I0J-225000D01*
G01*
G37*
G36*
G01*
X202870000Y-143880000D02*
X202870000Y-144480000D01*
G75*
G02*
X202645000Y-144705000I-225000J0D01*
G01*
X202195000Y-144705000D01*
G75*
G02*
X201970000Y-144480000I0J225000D01*
G01*
X201970000Y-143880000D01*
G75*
G02*
X202195000Y-143655000I225000J0D01*
G01*
X202645000Y-143655000D01*
G75*
G02*
X202870000Y-143880000I0J-225000D01*
G01*
G37*
%TD*%
%TO.C,RC5*%
G36*
G01*
X217835000Y-129050000D02*
X217835000Y-128450000D01*
G75*
G02*
X218060000Y-128225000I225000J0D01*
G01*
X218510000Y-128225000D01*
G75*
G02*
X218735000Y-128450000I0J-225000D01*
G01*
X218735000Y-129050000D01*
G75*
G02*
X218510000Y-129275000I-225000J0D01*
G01*
X218060000Y-129275000D01*
G75*
G02*
X217835000Y-129050000I0J225000D01*
G01*
G37*
G36*
G01*
X219485000Y-129050000D02*
X219485000Y-128450000D01*
G75*
G02*
X219710000Y-128225000I225000J0D01*
G01*
X220160000Y-128225000D01*
G75*
G02*
X220385000Y-128450000I0J-225000D01*
G01*
X220385000Y-129050000D01*
G75*
G02*
X220160000Y-129275000I-225000J0D01*
G01*
X219710000Y-129275000D01*
G75*
G02*
X219485000Y-129050000I0J225000D01*
G01*
G37*
%TD*%
%TO.C,RC4*%
G36*
G01*
X85638626Y-88356263D02*
X86238626Y-88356263D01*
G75*
G02*
X86463626Y-88581263I0J-225000D01*
G01*
X86463626Y-89031263D01*
G75*
G02*
X86238626Y-89256263I-225000J0D01*
G01*
X85638626Y-89256263D01*
G75*
G02*
X85413626Y-89031263I0J225000D01*
G01*
X85413626Y-88581263D01*
G75*
G02*
X85638626Y-88356263I225000J0D01*
G01*
G37*
G36*
G01*
X85638626Y-86706263D02*
X86238626Y-86706263D01*
G75*
G02*
X86463626Y-86931263I0J-225000D01*
G01*
X86463626Y-87381263D01*
G75*
G02*
X86238626Y-87606263I-225000J0D01*
G01*
X85638626Y-87606263D01*
G75*
G02*
X85413626Y-87381263I0J225000D01*
G01*
X85413626Y-86931263D01*
G75*
G02*
X85638626Y-86706263I225000J0D01*
G01*
G37*
%TD*%
%TO.C,RC3*%
G36*
G01*
X77928626Y-88316264D02*
X78528626Y-88316264D01*
G75*
G02*
X78753626Y-88541264I0J-225000D01*
G01*
X78753626Y-88991264D01*
G75*
G02*
X78528626Y-89216264I-225000J0D01*
G01*
X77928626Y-89216264D01*
G75*
G02*
X77703626Y-88991264I0J225000D01*
G01*
X77703626Y-88541264D01*
G75*
G02*
X77928626Y-88316264I225000J0D01*
G01*
G37*
G36*
G01*
X77928626Y-86666264D02*
X78528626Y-86666264D01*
G75*
G02*
X78753626Y-86891264I0J-225000D01*
G01*
X78753626Y-87341264D01*
G75*
G02*
X78528626Y-87566264I-225000J0D01*
G01*
X77928626Y-87566264D01*
G75*
G02*
X77703626Y-87341264I0J225000D01*
G01*
X77703626Y-86891264D01*
G75*
G02*
X77928626Y-86666264I225000J0D01*
G01*
G37*
%TD*%
%TO.C,RC2*%
G36*
G01*
X75409286Y-93610234D02*
X76009286Y-93610234D01*
G75*
G02*
X76234286Y-93835234I0J-225000D01*
G01*
X76234286Y-94285234D01*
G75*
G02*
X76009286Y-94510234I-225000J0D01*
G01*
X75409286Y-94510234D01*
G75*
G02*
X75184286Y-94285234I0J225000D01*
G01*
X75184286Y-93835234D01*
G75*
G02*
X75409286Y-93610234I225000J0D01*
G01*
G37*
G36*
G01*
X75409286Y-91960234D02*
X76009286Y-91960234D01*
G75*
G02*
X76234286Y-92185234I0J-225000D01*
G01*
X76234286Y-92635234D01*
G75*
G02*
X76009286Y-92860234I-225000J0D01*
G01*
X75409286Y-92860234D01*
G75*
G02*
X75184286Y-92635234I0J225000D01*
G01*
X75184286Y-92185234D01*
G75*
G02*
X75409286Y-91960234I225000J0D01*
G01*
G37*
%TD*%
%TO.C,RC1*%
G36*
G01*
X74069286Y-92890234D02*
X73469286Y-92890234D01*
G75*
G02*
X73244286Y-92665234I0J225000D01*
G01*
X73244286Y-92215234D01*
G75*
G02*
X73469286Y-91990234I225000J0D01*
G01*
X74069286Y-91990234D01*
G75*
G02*
X74294286Y-92215234I0J-225000D01*
G01*
X74294286Y-92665234D01*
G75*
G02*
X74069286Y-92890234I-225000J0D01*
G01*
G37*
G36*
G01*
X74069286Y-94540234D02*
X73469286Y-94540234D01*
G75*
G02*
X73244286Y-94315234I0J225000D01*
G01*
X73244286Y-93865234D01*
G75*
G02*
X73469286Y-93640234I225000J0D01*
G01*
X74069286Y-93640234D01*
G75*
G02*
X74294286Y-93865234I0J-225000D01*
G01*
X74294286Y-94315234D01*
G75*
G02*
X74069286Y-94540234I-225000J0D01*
G01*
G37*
%TD*%
%TO.C,F1*%
G36*
G01*
X71725000Y-92255000D02*
X70415000Y-92255000D01*
G75*
G02*
X70145000Y-91985000I0J270000D01*
G01*
X70145000Y-91175000D01*
G75*
G02*
X70415000Y-90905000I270000J0D01*
G01*
X71725000Y-90905000D01*
G75*
G02*
X71995000Y-91175000I0J-270000D01*
G01*
X71995000Y-91985000D01*
G75*
G02*
X71725000Y-92255000I-270000J0D01*
G01*
G37*
G36*
G01*
X71725000Y-95055000D02*
X70415000Y-95055000D01*
G75*
G02*
X70145000Y-94785000I0J270000D01*
G01*
X70145000Y-93975000D01*
G75*
G02*
X70415000Y-93705000I270000J0D01*
G01*
X71725000Y-93705000D01*
G75*
G02*
X71995000Y-93975000I0J-270000D01*
G01*
X71995000Y-94785000D01*
G75*
G02*
X71725000Y-95055000I-270000J0D01*
G01*
G37*
%TD*%
%TO.C,D52*%
G36*
G01*
X324722514Y-150725317D02*
X324617927Y-149529883D01*
G75*
G02*
X324663379Y-149475715I49810J4358D01*
G01*
X325559954Y-149397275D01*
G75*
G02*
X325614122Y-149442727I4358J-49810D01*
G01*
X325718709Y-150638161D01*
G75*
G02*
X325673257Y-150692329I-49810J-4358D01*
G01*
X324776682Y-150770769D01*
G75*
G02*
X324722514Y-150725317I-4358J49810D01*
G01*
G37*
G36*
G01*
X328009956Y-150437703D02*
X327905369Y-149242269D01*
G75*
G02*
X327950821Y-149188101I49810J4358D01*
G01*
X328847396Y-149109661D01*
G75*
G02*
X328901564Y-149155113I4358J-49810D01*
G01*
X329006151Y-150350547D01*
G75*
G02*
X328960699Y-150404715I-49810J-4358D01*
G01*
X328064124Y-150483155D01*
G75*
G02*
X328009956Y-150437703I-4358J49810D01*
G01*
G37*
%TD*%
%TO.C,D51*%
G36*
G01*
X305329884Y-147640759D02*
X305225297Y-146445325D01*
G75*
G02*
X305270749Y-146391157I49810J4358D01*
G01*
X306167324Y-146312717D01*
G75*
G02*
X306221492Y-146358169I4358J-49810D01*
G01*
X306326079Y-147553603D01*
G75*
G02*
X306280627Y-147607771I-49810J-4358D01*
G01*
X305384052Y-147686211D01*
G75*
G02*
X305329884Y-147640759I-4358J49810D01*
G01*
G37*
G36*
G01*
X308617326Y-147353145D02*
X308512739Y-146157711D01*
G75*
G02*
X308558191Y-146103543I49810J4358D01*
G01*
X309454766Y-146025103D01*
G75*
G02*
X309508934Y-146070555I4358J-49810D01*
G01*
X309613521Y-147265989D01*
G75*
G02*
X309568069Y-147320157I-49810J-4358D01*
G01*
X308671494Y-147398597D01*
G75*
G02*
X308617326Y-147353145I-4358J49810D01*
G01*
G37*
%TD*%
%TO.C,D50*%
G36*
G01*
X285522215Y-139812321D02*
X285417628Y-138616887D01*
G75*
G02*
X285463080Y-138562719I49810J4358D01*
G01*
X286359655Y-138484279D01*
G75*
G02*
X286413823Y-138529731I4358J-49810D01*
G01*
X286518410Y-139725165D01*
G75*
G02*
X286472958Y-139779333I-49810J-4358D01*
G01*
X285576383Y-139857773D01*
G75*
G02*
X285522215Y-139812321I-4358J49810D01*
G01*
G37*
G36*
G01*
X288809657Y-139524707D02*
X288705070Y-138329273D01*
G75*
G02*
X288750522Y-138275105I49810J4358D01*
G01*
X289647097Y-138196665D01*
G75*
G02*
X289701265Y-138242117I4358J-49810D01*
G01*
X289805852Y-139437551D01*
G75*
G02*
X289760400Y-139491719I-49810J-4358D01*
G01*
X288863825Y-139570159D01*
G75*
G02*
X288809657Y-139524707I-4358J49810D01*
G01*
G37*
%TD*%
%TO.C,D48*%
G36*
G01*
X242880912Y-147360655D02*
X242570329Y-146201544D01*
G75*
G02*
X242605684Y-146140307I48296J12941D01*
G01*
X243475017Y-145907370D01*
G75*
G02*
X243536254Y-145942725I12941J-48296D01*
G01*
X243846837Y-147101836D01*
G75*
G02*
X243811482Y-147163073I-48296J-12941D01*
G01*
X242942149Y-147396010D01*
G75*
G02*
X242880912Y-147360655I-12941J48296D01*
G01*
G37*
G36*
G01*
X246068468Y-146506553D02*
X245757885Y-145347442D01*
G75*
G02*
X245793240Y-145286205I48296J12941D01*
G01*
X246662573Y-145053268D01*
G75*
G02*
X246723810Y-145088623I12941J-48296D01*
G01*
X247034393Y-146247734D01*
G75*
G02*
X246999038Y-146308971I-48296J-12941D01*
G01*
X246129705Y-146541908D01*
G75*
G02*
X246068468Y-146506553I-12941J48296D01*
G01*
G37*
%TD*%
%TO.C,D47*%
G36*
G01*
X224480026Y-152291157D02*
X224169443Y-151132046D01*
G75*
G02*
X224204798Y-151070809I48296J12941D01*
G01*
X225074131Y-150837872D01*
G75*
G02*
X225135368Y-150873227I12941J-48296D01*
G01*
X225445951Y-152032338D01*
G75*
G02*
X225410596Y-152093575I-48296J-12941D01*
G01*
X224541263Y-152326512D01*
G75*
G02*
X224480026Y-152291157I-12941J48296D01*
G01*
G37*
G36*
G01*
X227667582Y-151437055D02*
X227356999Y-150277944D01*
G75*
G02*
X227392354Y-150216707I48296J12941D01*
G01*
X228261687Y-149983770D01*
G75*
G02*
X228322924Y-150019125I12941J-48296D01*
G01*
X228633507Y-151178236D01*
G75*
G02*
X228598152Y-151239473I-48296J-12941D01*
G01*
X227728819Y-151472410D01*
G75*
G02*
X227667582Y-151437055I-12941J48296D01*
G01*
G37*
%TD*%
%TO.C,D46*%
G36*
G01*
X204770000Y-151020000D02*
X204770000Y-149820000D01*
G75*
G02*
X204820000Y-149770000I50000J0D01*
G01*
X205720000Y-149770000D01*
G75*
G02*
X205770000Y-149820000I0J-50000D01*
G01*
X205770000Y-151020000D01*
G75*
G02*
X205720000Y-151070000I-50000J0D01*
G01*
X204820000Y-151070000D01*
G75*
G02*
X204770000Y-151020000I0J50000D01*
G01*
G37*
G36*
G01*
X201470000Y-151020000D02*
X201470000Y-149820000D01*
G75*
G02*
X201520000Y-149770000I50000J0D01*
G01*
X202420000Y-149770000D01*
G75*
G02*
X202470000Y-149820000I0J-50000D01*
G01*
X202470000Y-151020000D01*
G75*
G02*
X202420000Y-151070000I-50000J0D01*
G01*
X201520000Y-151070000D01*
G75*
G02*
X201470000Y-151020000I0J50000D01*
G01*
G37*
%TD*%
%TO.C,D45*%
G36*
G01*
X175880079Y-149099369D02*
X176190662Y-147940258D01*
G75*
G02*
X176251899Y-147904903I48296J-12941D01*
G01*
X177121232Y-148137840D01*
G75*
G02*
X177156587Y-148199077I-12941J-48296D01*
G01*
X176846004Y-149358188D01*
G75*
G02*
X176784767Y-149393543I-48296J12941D01*
G01*
X175915434Y-149160606D01*
G75*
G02*
X175880079Y-149099369I12941J48296D01*
G01*
G37*
G36*
G01*
X179067635Y-149953471D02*
X179378218Y-148794360D01*
G75*
G02*
X179439455Y-148759005I48296J-12941D01*
G01*
X180308788Y-148991942D01*
G75*
G02*
X180344143Y-149053179I-12941J-48296D01*
G01*
X180033560Y-150212290D01*
G75*
G02*
X179972323Y-150247645I-48296J12941D01*
G01*
X179102990Y-150014708D01*
G75*
G02*
X179067635Y-149953471I12941J48296D01*
G01*
G37*
%TD*%
%TO.C,D44*%
G36*
G01*
X157479190Y-144168863D02*
X157789773Y-143009752D01*
G75*
G02*
X157851010Y-142974397I48296J-12941D01*
G01*
X158720343Y-143207334D01*
G75*
G02*
X158755698Y-143268571I-12941J-48296D01*
G01*
X158445115Y-144427682D01*
G75*
G02*
X158383878Y-144463037I-48296J12941D01*
G01*
X157514545Y-144230100D01*
G75*
G02*
X157479190Y-144168863I12941J48296D01*
G01*
G37*
G36*
G01*
X160666746Y-145022965D02*
X160977329Y-143863854D01*
G75*
G02*
X161038566Y-143828499I48296J-12941D01*
G01*
X161907899Y-144061436D01*
G75*
G02*
X161943254Y-144122673I-12941J-48296D01*
G01*
X161632671Y-145281784D01*
G75*
G02*
X161571434Y-145317139I-48296J12941D01*
G01*
X160702101Y-145084202D01*
G75*
G02*
X160666746Y-145022965I12941J48296D01*
G01*
G37*
%TD*%
%TO.C,D43*%
G36*
G01*
X139078303Y-139238360D02*
X139388886Y-138079249D01*
G75*
G02*
X139450123Y-138043894I48296J-12941D01*
G01*
X140319456Y-138276831D01*
G75*
G02*
X140354811Y-138338068I-12941J-48296D01*
G01*
X140044228Y-139497179D01*
G75*
G02*
X139982991Y-139532534I-48296J12941D01*
G01*
X139113658Y-139299597D01*
G75*
G02*
X139078303Y-139238360I12941J48296D01*
G01*
G37*
G36*
G01*
X142265859Y-140092462D02*
X142576442Y-138933351D01*
G75*
G02*
X142637679Y-138897996I48296J-12941D01*
G01*
X143507012Y-139130933D01*
G75*
G02*
X143542367Y-139192170I-12941J-48296D01*
G01*
X143231784Y-140351281D01*
G75*
G02*
X143170547Y-140386636I-48296J12941D01*
G01*
X142301214Y-140153699D01*
G75*
G02*
X142265859Y-140092462I12941J48296D01*
G01*
G37*
%TD*%
%TO.C,D42*%
G36*
G01*
X111674760Y-138550332D02*
X111779347Y-137354898D01*
G75*
G02*
X111833515Y-137309446I49810J-4358D01*
G01*
X112730090Y-137387886D01*
G75*
G02*
X112775542Y-137442054I-4358J-49810D01*
G01*
X112670955Y-138637488D01*
G75*
G02*
X112616787Y-138682940I-49810J4358D01*
G01*
X111720212Y-138604500D01*
G75*
G02*
X111674760Y-138550332I4358J49810D01*
G01*
G37*
G36*
G01*
X114962202Y-138837946D02*
X115066789Y-137642512D01*
G75*
G02*
X115120957Y-137597060I49810J-4358D01*
G01*
X116017532Y-137675500D01*
G75*
G02*
X116062984Y-137729668I-4358J-49810D01*
G01*
X115958397Y-138925102D01*
G75*
G02*
X115904229Y-138970554I-49810J4358D01*
G01*
X115007654Y-138892114D01*
G75*
G02*
X114962202Y-138837946I4358J49810D01*
G01*
G37*
%TD*%
%TO.C,D41*%
G36*
G01*
X91867093Y-146357431D02*
X91971680Y-145161997D01*
G75*
G02*
X92025848Y-145116545I49810J-4358D01*
G01*
X92922423Y-145194985D01*
G75*
G02*
X92967875Y-145249153I-4358J-49810D01*
G01*
X92863288Y-146444587D01*
G75*
G02*
X92809120Y-146490039I-49810J4358D01*
G01*
X91912545Y-146411599D01*
G75*
G02*
X91867093Y-146357431I4358J49810D01*
G01*
G37*
G36*
G01*
X95154535Y-146645045D02*
X95259122Y-145449611D01*
G75*
G02*
X95313290Y-145404159I49810J-4358D01*
G01*
X96209865Y-145482599D01*
G75*
G02*
X96255317Y-145536767I-4358J-49810D01*
G01*
X96150730Y-146732201D01*
G75*
G02*
X96096562Y-146777653I-49810J4358D01*
G01*
X95199987Y-146699213D01*
G75*
G02*
X95154535Y-146645045I4358J49810D01*
G01*
G37*
%TD*%
%TO.C,D40*%
G36*
G01*
X72465888Y-149500332D02*
X72570475Y-148304898D01*
G75*
G02*
X72624643Y-148259446I49810J-4358D01*
G01*
X73521218Y-148337886D01*
G75*
G02*
X73566670Y-148392054I-4358J-49810D01*
G01*
X73462083Y-149587488D01*
G75*
G02*
X73407915Y-149632940I-49810J4358D01*
G01*
X72511340Y-149554500D01*
G75*
G02*
X72465888Y-149500332I4358J49810D01*
G01*
G37*
G36*
G01*
X75753330Y-149787946D02*
X75857917Y-148592512D01*
G75*
G02*
X75912085Y-148547060I49810J-4358D01*
G01*
X76808660Y-148625500D01*
G75*
G02*
X76854112Y-148679668I-4358J-49810D01*
G01*
X76749525Y-149875102D01*
G75*
G02*
X76695357Y-149920554I-49810J4358D01*
G01*
X75798782Y-149842114D01*
G75*
G02*
X75753330Y-149787946I4358J49810D01*
G01*
G37*
%TD*%
%TO.C,D39*%
G36*
G01*
X324522055Y-148434069D02*
X324417468Y-147238635D01*
G75*
G02*
X324462920Y-147184467I49810J4358D01*
G01*
X325359495Y-147106027D01*
G75*
G02*
X325413663Y-147151479I4358J-49810D01*
G01*
X325518250Y-148346913D01*
G75*
G02*
X325472798Y-148401081I-49810J-4358D01*
G01*
X324576223Y-148479521D01*
G75*
G02*
X324522055Y-148434069I-4358J49810D01*
G01*
G37*
G36*
G01*
X327809497Y-148146455D02*
X327704910Y-146951021D01*
G75*
G02*
X327750362Y-146896853I49810J4358D01*
G01*
X328646937Y-146818413D01*
G75*
G02*
X328701105Y-146863865I4358J-49810D01*
G01*
X328805692Y-148059299D01*
G75*
G02*
X328760240Y-148113467I-49810J-4358D01*
G01*
X327863665Y-148191907D01*
G75*
G02*
X327809497Y-148146455I-4358J49810D01*
G01*
G37*
%TD*%
%TO.C,D38*%
G36*
G01*
X305129425Y-145349511D02*
X305024838Y-144154077D01*
G75*
G02*
X305070290Y-144099909I49810J4358D01*
G01*
X305966865Y-144021469D01*
G75*
G02*
X306021033Y-144066921I4358J-49810D01*
G01*
X306125620Y-145262355D01*
G75*
G02*
X306080168Y-145316523I-49810J-4358D01*
G01*
X305183593Y-145394963D01*
G75*
G02*
X305129425Y-145349511I-4358J49810D01*
G01*
G37*
G36*
G01*
X308416867Y-145061897D02*
X308312280Y-143866463D01*
G75*
G02*
X308357732Y-143812295I49810J4358D01*
G01*
X309254307Y-143733855D01*
G75*
G02*
X309308475Y-143779307I4358J-49810D01*
G01*
X309413062Y-144974741D01*
G75*
G02*
X309367610Y-145028909I-49810J-4358D01*
G01*
X308471035Y-145107349D01*
G75*
G02*
X308416867Y-145061897I-4358J49810D01*
G01*
G37*
%TD*%
%TO.C,D37*%
G36*
G01*
X285321756Y-137521073D02*
X285217169Y-136325639D01*
G75*
G02*
X285262621Y-136271471I49810J4358D01*
G01*
X286159196Y-136193031D01*
G75*
G02*
X286213364Y-136238483I4358J-49810D01*
G01*
X286317951Y-137433917D01*
G75*
G02*
X286272499Y-137488085I-49810J-4358D01*
G01*
X285375924Y-137566525D01*
G75*
G02*
X285321756Y-137521073I-4358J49810D01*
G01*
G37*
G36*
G01*
X288609198Y-137233459D02*
X288504611Y-136038025D01*
G75*
G02*
X288550063Y-135983857I49810J4358D01*
G01*
X289446638Y-135905417D01*
G75*
G02*
X289500806Y-135950869I4358J-49810D01*
G01*
X289605393Y-137146303D01*
G75*
G02*
X289559941Y-137200471I-49810J-4358D01*
G01*
X288663366Y-137278911D01*
G75*
G02*
X288609198Y-137233459I-4358J49810D01*
G01*
G37*
%TD*%
%TO.C,D35*%
G36*
G01*
X247366739Y-140841707D02*
X247262152Y-139646273D01*
G75*
G02*
X247307604Y-139592105I49810J4358D01*
G01*
X248204179Y-139513665D01*
G75*
G02*
X248258347Y-139559117I4358J-49810D01*
G01*
X248362934Y-140754551D01*
G75*
G02*
X248317482Y-140808719I-49810J-4358D01*
G01*
X247420907Y-140887159D01*
G75*
G02*
X247366739Y-140841707I-4358J49810D01*
G01*
G37*
G36*
G01*
X250654181Y-140554093D02*
X250549594Y-139358659D01*
G75*
G02*
X250595046Y-139304491I49810J4358D01*
G01*
X251491621Y-139226051D01*
G75*
G02*
X251545789Y-139271503I4358J-49810D01*
G01*
X251650376Y-140466937D01*
G75*
G02*
X251604924Y-140521105I-49810J-4358D01*
G01*
X250708349Y-140599545D01*
G75*
G02*
X250654181Y-140554093I-4358J49810D01*
G01*
G37*
%TD*%
%TO.C,D34*%
G36*
G01*
X228588468Y-144779324D02*
X228483881Y-143583890D01*
G75*
G02*
X228529333Y-143529722I49810J4358D01*
G01*
X229425908Y-143451282D01*
G75*
G02*
X229480076Y-143496734I4358J-49810D01*
G01*
X229584663Y-144692168D01*
G75*
G02*
X229539211Y-144746336I-49810J-4358D01*
G01*
X228642636Y-144824776D01*
G75*
G02*
X228588468Y-144779324I-4358J49810D01*
G01*
G37*
G36*
G01*
X231875910Y-144491710D02*
X231771323Y-143296276D01*
G75*
G02*
X231816775Y-143242108I49810J4358D01*
G01*
X232713350Y-143163668D01*
G75*
G02*
X232767518Y-143209120I4358J-49810D01*
G01*
X232872105Y-144404554D01*
G75*
G02*
X232826653Y-144458722I-49810J-4358D01*
G01*
X231930078Y-144537162D01*
G75*
G02*
X231875910Y-144491710I-4358J49810D01*
G01*
G37*
%TD*%
%TO.C,D32*%
G36*
G01*
X168608506Y-143495995D02*
X168713093Y-142300561D01*
G75*
G02*
X168767261Y-142255109I49810J-4358D01*
G01*
X169663836Y-142333549D01*
G75*
G02*
X169709288Y-142387717I-4358J-49810D01*
G01*
X169604701Y-143583151D01*
G75*
G02*
X169550533Y-143628603I-49810J4358D01*
G01*
X168653958Y-143550163D01*
G75*
G02*
X168608506Y-143495995I4358J49810D01*
G01*
G37*
G36*
G01*
X171895948Y-143783609D02*
X172000535Y-142588175D01*
G75*
G02*
X172054703Y-142542723I49810J-4358D01*
G01*
X172951278Y-142621163D01*
G75*
G02*
X172996730Y-142675331I-4358J-49810D01*
G01*
X172892143Y-143870765D01*
G75*
G02*
X172837975Y-143916217I-49810J4358D01*
G01*
X171941400Y-143837777D01*
G75*
G02*
X171895948Y-143783609I4358J49810D01*
G01*
G37*
%TD*%
%TO.C,D31*%
G36*
G01*
X149830235Y-139558378D02*
X149934822Y-138362944D01*
G75*
G02*
X149988990Y-138317492I49810J-4358D01*
G01*
X150885565Y-138395932D01*
G75*
G02*
X150931017Y-138450100I-4358J-49810D01*
G01*
X150826430Y-139645534D01*
G75*
G02*
X150772262Y-139690986I-49810J4358D01*
G01*
X149875687Y-139612546D01*
G75*
G02*
X149830235Y-139558378I4358J49810D01*
G01*
G37*
G36*
G01*
X153117677Y-139845992D02*
X153222264Y-138650558D01*
G75*
G02*
X153276432Y-138605106I49810J-4358D01*
G01*
X154173007Y-138683546D01*
G75*
G02*
X154218459Y-138737714I-4358J-49810D01*
G01*
X154113872Y-139933148D01*
G75*
G02*
X154059704Y-139978600I-49810J4358D01*
G01*
X153163129Y-139900160D01*
G75*
G02*
X153117677Y-139845992I4358J49810D01*
G01*
G37*
%TD*%
%TO.C,D30*%
G36*
G01*
X131135025Y-134671388D02*
X131239612Y-133475954D01*
G75*
G02*
X131293780Y-133430502I49810J-4358D01*
G01*
X132190355Y-133508942D01*
G75*
G02*
X132235807Y-133563110I-4358J-49810D01*
G01*
X132131220Y-134758544D01*
G75*
G02*
X132077052Y-134803996I-49810J4358D01*
G01*
X131180477Y-134725556D01*
G75*
G02*
X131135025Y-134671388I4358J49810D01*
G01*
G37*
G36*
G01*
X134422467Y-134959002D02*
X134527054Y-133763568D01*
G75*
G02*
X134581222Y-133718116I49810J-4358D01*
G01*
X135477797Y-133796556D01*
G75*
G02*
X135523249Y-133850724I-4358J-49810D01*
G01*
X135418662Y-135046158D01*
G75*
G02*
X135364494Y-135091610I-49810J4358D01*
G01*
X134467919Y-135013170D01*
G75*
G02*
X134422467Y-134959002I4358J49810D01*
G01*
G37*
%TD*%
%TO.C,D29*%
G36*
G01*
X111875218Y-136237745D02*
X111979805Y-135042311D01*
G75*
G02*
X112033973Y-134996859I49810J-4358D01*
G01*
X112930548Y-135075299D01*
G75*
G02*
X112976000Y-135129467I-4358J-49810D01*
G01*
X112871413Y-136324901D01*
G75*
G02*
X112817245Y-136370353I-49810J4358D01*
G01*
X111920670Y-136291913D01*
G75*
G02*
X111875218Y-136237745I4358J49810D01*
G01*
G37*
G36*
G01*
X115162660Y-136525359D02*
X115267247Y-135329925D01*
G75*
G02*
X115321415Y-135284473I49810J-4358D01*
G01*
X116217990Y-135362913D01*
G75*
G02*
X116263442Y-135417081I-4358J-49810D01*
G01*
X116158855Y-136612515D01*
G75*
G02*
X116104687Y-136657967I-49810J4358D01*
G01*
X115208112Y-136579527D01*
G75*
G02*
X115162660Y-136525359I4358J49810D01*
G01*
G37*
%TD*%
%TO.C,D28*%
G36*
G01*
X92067551Y-144066182D02*
X92172138Y-142870748D01*
G75*
G02*
X92226306Y-142825296I49810J-4358D01*
G01*
X93122881Y-142903736D01*
G75*
G02*
X93168333Y-142957904I-4358J-49810D01*
G01*
X93063746Y-144153338D01*
G75*
G02*
X93009578Y-144198790I-49810J4358D01*
G01*
X92113003Y-144120350D01*
G75*
G02*
X92067551Y-144066182I4358J49810D01*
G01*
G37*
G36*
G01*
X95354993Y-144353796D02*
X95459580Y-143158362D01*
G75*
G02*
X95513748Y-143112910I49810J-4358D01*
G01*
X96410323Y-143191350D01*
G75*
G02*
X96455775Y-143245518I-4358J-49810D01*
G01*
X96351188Y-144440952D01*
G75*
G02*
X96297020Y-144486404I-49810J4358D01*
G01*
X95400445Y-144407964D01*
G75*
G02*
X95354993Y-144353796I4358J49810D01*
G01*
G37*
%TD*%
%TO.C,D27*%
G36*
G01*
X72674919Y-147150742D02*
X72779506Y-145955308D01*
G75*
G02*
X72833674Y-145909856I49810J-4358D01*
G01*
X73730249Y-145988296D01*
G75*
G02*
X73775701Y-146042464I-4358J-49810D01*
G01*
X73671114Y-147237898D01*
G75*
G02*
X73616946Y-147283350I-49810J4358D01*
G01*
X72720371Y-147204910D01*
G75*
G02*
X72674919Y-147150742I4358J49810D01*
G01*
G37*
G36*
G01*
X75962361Y-147438356D02*
X76066948Y-146242922D01*
G75*
G02*
X76121116Y-146197470I49810J-4358D01*
G01*
X77017691Y-146275910D01*
G75*
G02*
X77063143Y-146330078I-4358J-49810D01*
G01*
X76958556Y-147525512D01*
G75*
G02*
X76904388Y-147570964I-49810J4358D01*
G01*
X76007813Y-147492524D01*
G75*
G02*
X75962361Y-147438356I4358J49810D01*
G01*
G37*
%TD*%
%TO.C,D26*%
G36*
G01*
X324234443Y-145146626D02*
X324129856Y-143951192D01*
G75*
G02*
X324175308Y-143897024I49810J4358D01*
G01*
X325071883Y-143818584D01*
G75*
G02*
X325126051Y-143864036I4358J-49810D01*
G01*
X325230638Y-145059470D01*
G75*
G02*
X325185186Y-145113638I-49810J-4358D01*
G01*
X324288611Y-145192078D01*
G75*
G02*
X324234443Y-145146626I-4358J49810D01*
G01*
G37*
G36*
G01*
X327521885Y-144859012D02*
X327417298Y-143663578D01*
G75*
G02*
X327462750Y-143609410I49810J4358D01*
G01*
X328359325Y-143530970D01*
G75*
G02*
X328413493Y-143576422I4358J-49810D01*
G01*
X328518080Y-144771856D01*
G75*
G02*
X328472628Y-144826024I-49810J-4358D01*
G01*
X327576053Y-144904464D01*
G75*
G02*
X327521885Y-144859012I-4358J49810D01*
G01*
G37*
%TD*%
%TO.C,D25*%
G36*
G01*
X304841811Y-142062069D02*
X304737224Y-140866635D01*
G75*
G02*
X304782676Y-140812467I49810J4358D01*
G01*
X305679251Y-140734027D01*
G75*
G02*
X305733419Y-140779479I4358J-49810D01*
G01*
X305838006Y-141974913D01*
G75*
G02*
X305792554Y-142029081I-49810J-4358D01*
G01*
X304895979Y-142107521D01*
G75*
G02*
X304841811Y-142062069I-4358J49810D01*
G01*
G37*
G36*
G01*
X308129253Y-141774455D02*
X308024666Y-140579021D01*
G75*
G02*
X308070118Y-140524853I49810J4358D01*
G01*
X308966693Y-140446413D01*
G75*
G02*
X309020861Y-140491865I4358J-49810D01*
G01*
X309125448Y-141687299D01*
G75*
G02*
X309079996Y-141741467I-49810J-4358D01*
G01*
X308183421Y-141819907D01*
G75*
G02*
X308129253Y-141774455I-4358J49810D01*
G01*
G37*
%TD*%
%TO.C,D24*%
G36*
G01*
X285034143Y-134233630D02*
X284929556Y-133038196D01*
G75*
G02*
X284975008Y-132984028I49810J4358D01*
G01*
X285871583Y-132905588D01*
G75*
G02*
X285925751Y-132951040I4358J-49810D01*
G01*
X286030338Y-134146474D01*
G75*
G02*
X285984886Y-134200642I-49810J-4358D01*
G01*
X285088311Y-134279082D01*
G75*
G02*
X285034143Y-134233630I-4358J49810D01*
G01*
G37*
G36*
G01*
X288321585Y-133946016D02*
X288216998Y-132750582D01*
G75*
G02*
X288262450Y-132696414I49810J4358D01*
G01*
X289159025Y-132617974D01*
G75*
G02*
X289213193Y-132663426I4358J-49810D01*
G01*
X289317780Y-133858860D01*
G75*
G02*
X289272328Y-133913028I-49810J-4358D01*
G01*
X288375753Y-133991468D01*
G75*
G02*
X288321585Y-133946016I-4358J49810D01*
G01*
G37*
%TD*%
%TO.C,D22*%
G36*
G01*
X247079125Y-137554264D02*
X246974538Y-136358830D01*
G75*
G02*
X247019990Y-136304662I49810J4358D01*
G01*
X247916565Y-136226222D01*
G75*
G02*
X247970733Y-136271674I4358J-49810D01*
G01*
X248075320Y-137467108D01*
G75*
G02*
X248029868Y-137521276I-49810J-4358D01*
G01*
X247133293Y-137599716D01*
G75*
G02*
X247079125Y-137554264I-4358J49810D01*
G01*
G37*
G36*
G01*
X250366567Y-137266650D02*
X250261980Y-136071216D01*
G75*
G02*
X250307432Y-136017048I49810J4358D01*
G01*
X251204007Y-135938608D01*
G75*
G02*
X251258175Y-135984060I4358J-49810D01*
G01*
X251362762Y-137179494D01*
G75*
G02*
X251317310Y-137233662I-49810J-4358D01*
G01*
X250420735Y-137312102D01*
G75*
G02*
X250366567Y-137266650I-4358J49810D01*
G01*
G37*
%TD*%
%TO.C,D21*%
G36*
G01*
X228300854Y-141491882D02*
X228196267Y-140296448D01*
G75*
G02*
X228241719Y-140242280I49810J4358D01*
G01*
X229138294Y-140163840D01*
G75*
G02*
X229192462Y-140209292I4358J-49810D01*
G01*
X229297049Y-141404726D01*
G75*
G02*
X229251597Y-141458894I-49810J-4358D01*
G01*
X228355022Y-141537334D01*
G75*
G02*
X228300854Y-141491882I-4358J49810D01*
G01*
G37*
G36*
G01*
X231588296Y-141204268D02*
X231483709Y-140008834D01*
G75*
G02*
X231529161Y-139954666I49810J4358D01*
G01*
X232425736Y-139876226D01*
G75*
G02*
X232479904Y-139921678I4358J-49810D01*
G01*
X232584491Y-141117112D01*
G75*
G02*
X232539039Y-141171280I-49810J-4358D01*
G01*
X231642464Y-141249720D01*
G75*
G02*
X231588296Y-141204268I-4358J49810D01*
G01*
G37*
%TD*%
%TO.C,D19*%
G36*
G01*
X172183563Y-140496168D02*
X172288150Y-139300734D01*
G75*
G02*
X172342318Y-139255282I49810J-4358D01*
G01*
X173238893Y-139333722D01*
G75*
G02*
X173284345Y-139387890I-4358J-49810D01*
G01*
X173179758Y-140583324D01*
G75*
G02*
X173125590Y-140628776I-49810J4358D01*
G01*
X172229015Y-140550336D01*
G75*
G02*
X172183563Y-140496168I4358J49810D01*
G01*
G37*
G36*
G01*
X168896121Y-140208554D02*
X169000708Y-139013120D01*
G75*
G02*
X169054876Y-138967668I49810J-4358D01*
G01*
X169951451Y-139046108D01*
G75*
G02*
X169996903Y-139100276I-4358J-49810D01*
G01*
X169892316Y-140295710D01*
G75*
G02*
X169838148Y-140341162I-49810J4358D01*
G01*
X168941573Y-140262722D01*
G75*
G02*
X168896121Y-140208554I4358J49810D01*
G01*
G37*
%TD*%
%TO.C,D18*%
G36*
G01*
X153405291Y-136558550D02*
X153509878Y-135363116D01*
G75*
G02*
X153564046Y-135317664I49810J-4358D01*
G01*
X154460621Y-135396104D01*
G75*
G02*
X154506073Y-135450272I-4358J-49810D01*
G01*
X154401486Y-136645706D01*
G75*
G02*
X154347318Y-136691158I-49810J4358D01*
G01*
X153450743Y-136612718D01*
G75*
G02*
X153405291Y-136558550I4358J49810D01*
G01*
G37*
G36*
G01*
X150117849Y-136270936D02*
X150222436Y-135075502D01*
G75*
G02*
X150276604Y-135030050I49810J-4358D01*
G01*
X151173179Y-135108490D01*
G75*
G02*
X151218631Y-135162658I-4358J-49810D01*
G01*
X151114044Y-136358092D01*
G75*
G02*
X151059876Y-136403544I-49810J4358D01*
G01*
X150163301Y-136325104D01*
G75*
G02*
X150117849Y-136270936I4358J49810D01*
G01*
G37*
%TD*%
%TO.C,D17*%
G36*
G01*
X134710081Y-131671557D02*
X134814668Y-130476123D01*
G75*
G02*
X134868836Y-130430671I49810J-4358D01*
G01*
X135765411Y-130509111D01*
G75*
G02*
X135810863Y-130563279I-4358J-49810D01*
G01*
X135706276Y-131758713D01*
G75*
G02*
X135652108Y-131804165I-49810J4358D01*
G01*
X134755533Y-131725725D01*
G75*
G02*
X134710081Y-131671557I4358J49810D01*
G01*
G37*
G36*
G01*
X131422639Y-131383943D02*
X131527226Y-130188509D01*
G75*
G02*
X131581394Y-130143057I49810J-4358D01*
G01*
X132477969Y-130221497D01*
G75*
G02*
X132523421Y-130275665I-4358J-49810D01*
G01*
X132418834Y-131471099D01*
G75*
G02*
X132364666Y-131516551I-49810J4358D01*
G01*
X131468091Y-131438111D01*
G75*
G02*
X131422639Y-131383943I4358J49810D01*
G01*
G37*
%TD*%
%TO.C,D16*%
G36*
G01*
X115443330Y-133287946D02*
X115547917Y-132092512D01*
G75*
G02*
X115602085Y-132047060I49810J-4358D01*
G01*
X116498660Y-132125500D01*
G75*
G02*
X116544112Y-132179668I-4358J-49810D01*
G01*
X116439525Y-133375102D01*
G75*
G02*
X116385357Y-133420554I-49810J4358D01*
G01*
X115488782Y-133342114D01*
G75*
G02*
X115443330Y-133287946I4358J49810D01*
G01*
G37*
G36*
G01*
X112155888Y-133000332D02*
X112260475Y-131804898D01*
G75*
G02*
X112314643Y-131759446I49810J-4358D01*
G01*
X113211218Y-131837886D01*
G75*
G02*
X113256670Y-131892054I-4358J-49810D01*
G01*
X113152083Y-133087488D01*
G75*
G02*
X113097915Y-133132940I-49810J4358D01*
G01*
X112201340Y-133054500D01*
G75*
G02*
X112155888Y-133000332I4358J49810D01*
G01*
G37*
%TD*%
%TO.C,D15*%
G36*
G01*
X95642607Y-141066354D02*
X95747194Y-139870920D01*
G75*
G02*
X95801362Y-139825468I49810J-4358D01*
G01*
X96697937Y-139903908D01*
G75*
G02*
X96743389Y-139958076I-4358J-49810D01*
G01*
X96638802Y-141153510D01*
G75*
G02*
X96584634Y-141198962I-49810J4358D01*
G01*
X95688059Y-141120522D01*
G75*
G02*
X95642607Y-141066354I4358J49810D01*
G01*
G37*
G36*
G01*
X92355165Y-140778740D02*
X92459752Y-139583306D01*
G75*
G02*
X92513920Y-139537854I49810J-4358D01*
G01*
X93410495Y-139616294D01*
G75*
G02*
X93455947Y-139670462I-4358J-49810D01*
G01*
X93351360Y-140865896D01*
G75*
G02*
X93297192Y-140911348I-49810J4358D01*
G01*
X92400617Y-140832908D01*
G75*
G02*
X92355165Y-140778740I4358J49810D01*
G01*
G37*
%TD*%
%TO.C,D14*%
G36*
G01*
X76249975Y-144150912D02*
X76354562Y-142955478D01*
G75*
G02*
X76408730Y-142910026I49810J-4358D01*
G01*
X77305305Y-142988466D01*
G75*
G02*
X77350757Y-143042634I-4358J-49810D01*
G01*
X77246170Y-144238068D01*
G75*
G02*
X77192002Y-144283520I-49810J4358D01*
G01*
X76295427Y-144205080D01*
G75*
G02*
X76249975Y-144150912I4358J49810D01*
G01*
G37*
G36*
G01*
X72962533Y-143863298D02*
X73067120Y-142667864D01*
G75*
G02*
X73121288Y-142622412I49810J-4358D01*
G01*
X74017863Y-142700852D01*
G75*
G02*
X74063315Y-142755020I-4358J-49810D01*
G01*
X73958728Y-143950454D01*
G75*
G02*
X73904560Y-143995906I-49810J4358D01*
G01*
X73007985Y-143917466D01*
G75*
G02*
X72962533Y-143863298I4358J49810D01*
G01*
G37*
%TD*%
%TO.C,D13*%
G36*
G01*
X324033985Y-142855378D02*
X323929398Y-141659944D01*
G75*
G02*
X323974850Y-141605776I49810J4358D01*
G01*
X324871425Y-141527336D01*
G75*
G02*
X324925593Y-141572788I4358J-49810D01*
G01*
X325030180Y-142768222D01*
G75*
G02*
X324984728Y-142822390I-49810J-4358D01*
G01*
X324088153Y-142900830D01*
G75*
G02*
X324033985Y-142855378I-4358J49810D01*
G01*
G37*
G36*
G01*
X327321427Y-142567764D02*
X327216840Y-141372330D01*
G75*
G02*
X327262292Y-141318162I49810J4358D01*
G01*
X328158867Y-141239722D01*
G75*
G02*
X328213035Y-141285174I4358J-49810D01*
G01*
X328317622Y-142480608D01*
G75*
G02*
X328272170Y-142534776I-49810J-4358D01*
G01*
X327375595Y-142613216D01*
G75*
G02*
X327321427Y-142567764I-4358J49810D01*
G01*
G37*
%TD*%
%TO.C,D12*%
G36*
G01*
X304641352Y-139770821D02*
X304536765Y-138575387D01*
G75*
G02*
X304582217Y-138521219I49810J4358D01*
G01*
X305478792Y-138442779D01*
G75*
G02*
X305532960Y-138488231I4358J-49810D01*
G01*
X305637547Y-139683665D01*
G75*
G02*
X305592095Y-139737833I-49810J-4358D01*
G01*
X304695520Y-139816273D01*
G75*
G02*
X304641352Y-139770821I-4358J49810D01*
G01*
G37*
G36*
G01*
X307928794Y-139483207D02*
X307824207Y-138287773D01*
G75*
G02*
X307869659Y-138233605I49810J4358D01*
G01*
X308766234Y-138155165D01*
G75*
G02*
X308820402Y-138200617I4358J-49810D01*
G01*
X308924989Y-139396051D01*
G75*
G02*
X308879537Y-139450219I-49810J-4358D01*
G01*
X307982962Y-139528659D01*
G75*
G02*
X307928794Y-139483207I-4358J49810D01*
G01*
G37*
%TD*%
%TO.C,D11*%
G36*
G01*
X284833685Y-131942382D02*
X284729098Y-130746948D01*
G75*
G02*
X284774550Y-130692780I49810J4358D01*
G01*
X285671125Y-130614340D01*
G75*
G02*
X285725293Y-130659792I4358J-49810D01*
G01*
X285829880Y-131855226D01*
G75*
G02*
X285784428Y-131909394I-49810J-4358D01*
G01*
X284887853Y-131987834D01*
G75*
G02*
X284833685Y-131942382I-4358J49810D01*
G01*
G37*
G36*
G01*
X288121127Y-131654768D02*
X288016540Y-130459334D01*
G75*
G02*
X288061992Y-130405166I49810J4358D01*
G01*
X288958567Y-130326726D01*
G75*
G02*
X289012735Y-130372178I4358J-49810D01*
G01*
X289117322Y-131567612D01*
G75*
G02*
X289071870Y-131621780I-49810J-4358D01*
G01*
X288175295Y-131700220D01*
G75*
G02*
X288121127Y-131654768I-4358J49810D01*
G01*
G37*
%TD*%
%TO.C,D9*%
G36*
G01*
X246878666Y-135263016D02*
X246774079Y-134067582D01*
G75*
G02*
X246819531Y-134013414I49810J4358D01*
G01*
X247716106Y-133934974D01*
G75*
G02*
X247770274Y-133980426I4358J-49810D01*
G01*
X247874861Y-135175860D01*
G75*
G02*
X247829409Y-135230028I-49810J-4358D01*
G01*
X246932834Y-135308468D01*
G75*
G02*
X246878666Y-135263016I-4358J49810D01*
G01*
G37*
G36*
G01*
X250166108Y-134975402D02*
X250061521Y-133779968D01*
G75*
G02*
X250106973Y-133725800I49810J4358D01*
G01*
X251003548Y-133647360D01*
G75*
G02*
X251057716Y-133692812I4358J-49810D01*
G01*
X251162303Y-134888246D01*
G75*
G02*
X251116851Y-134942414I-49810J-4358D01*
G01*
X250220276Y-135020854D01*
G75*
G02*
X250166108Y-134975402I-4358J49810D01*
G01*
G37*
%TD*%
%TO.C,D8*%
G36*
G01*
X228100395Y-139200634D02*
X227995808Y-138005200D01*
G75*
G02*
X228041260Y-137951032I49810J4358D01*
G01*
X228937835Y-137872592D01*
G75*
G02*
X228992003Y-137918044I4358J-49810D01*
G01*
X229096590Y-139113478D01*
G75*
G02*
X229051138Y-139167646I-49810J-4358D01*
G01*
X228154563Y-139246086D01*
G75*
G02*
X228100395Y-139200634I-4358J49810D01*
G01*
G37*
G36*
G01*
X231387837Y-138913020D02*
X231283250Y-137717586D01*
G75*
G02*
X231328702Y-137663418I49810J4358D01*
G01*
X232225277Y-137584978D01*
G75*
G02*
X232279445Y-137630430I4358J-49810D01*
G01*
X232384032Y-138825864D01*
G75*
G02*
X232338580Y-138880032I-49810J-4358D01*
G01*
X231442005Y-138958472D01*
G75*
G02*
X231387837Y-138913020I-4358J49810D01*
G01*
G37*
%TD*%
%TO.C,D7*%
G36*
G01*
X204840000Y-90330000D02*
X204840000Y-89130000D01*
G75*
G02*
X204890000Y-89080000I50000J0D01*
G01*
X205790000Y-89080000D01*
G75*
G02*
X205840000Y-89130000I0J-50000D01*
G01*
X205840000Y-90330000D01*
G75*
G02*
X205790000Y-90380000I-50000J0D01*
G01*
X204890000Y-90380000D01*
G75*
G02*
X204840000Y-90330000I0J50000D01*
G01*
G37*
G36*
G01*
X201540000Y-90330000D02*
X201540000Y-89130000D01*
G75*
G02*
X201590000Y-89080000I50000J0D01*
G01*
X202490000Y-89080000D01*
G75*
G02*
X202540000Y-89130000I0J-50000D01*
G01*
X202540000Y-90330000D01*
G75*
G02*
X202490000Y-90380000I-50000J0D01*
G01*
X201590000Y-90380000D01*
G75*
G02*
X201540000Y-90330000I0J50000D01*
G01*
G37*
%TD*%
%TO.C,D6*%
G36*
G01*
X172384018Y-138204920D02*
X172488605Y-137009486D01*
G75*
G02*
X172542773Y-136964034I49810J-4358D01*
G01*
X173439348Y-137042474D01*
G75*
G02*
X173484800Y-137096642I-4358J-49810D01*
G01*
X173380213Y-138292076D01*
G75*
G02*
X173326045Y-138337528I-49810J4358D01*
G01*
X172429470Y-138259088D01*
G75*
G02*
X172384018Y-138204920I4358J49810D01*
G01*
G37*
G36*
G01*
X169096576Y-137917306D02*
X169201163Y-136721872D01*
G75*
G02*
X169255331Y-136676420I49810J-4358D01*
G01*
X170151906Y-136754860D01*
G75*
G02*
X170197358Y-136809028I-4358J-49810D01*
G01*
X170092771Y-138004462D01*
G75*
G02*
X170038603Y-138049914I-49810J4358D01*
G01*
X169142028Y-137971474D01*
G75*
G02*
X169096576Y-137917306I4358J49810D01*
G01*
G37*
%TD*%
%TO.C,D5*%
G36*
G01*
X153605748Y-134267302D02*
X153710335Y-133071868D01*
G75*
G02*
X153764503Y-133026416I49810J-4358D01*
G01*
X154661078Y-133104856D01*
G75*
G02*
X154706530Y-133159024I-4358J-49810D01*
G01*
X154601943Y-134354458D01*
G75*
G02*
X154547775Y-134399910I-49810J4358D01*
G01*
X153651200Y-134321470D01*
G75*
G02*
X153605748Y-134267302I4358J49810D01*
G01*
G37*
G36*
G01*
X150318306Y-133979688D02*
X150422893Y-132784254D01*
G75*
G02*
X150477061Y-132738802I49810J-4358D01*
G01*
X151373636Y-132817242D01*
G75*
G02*
X151419088Y-132871410I-4358J-49810D01*
G01*
X151314501Y-134066844D01*
G75*
G02*
X151260333Y-134112296I-49810J4358D01*
G01*
X150363758Y-134033856D01*
G75*
G02*
X150318306Y-133979688I4358J49810D01*
G01*
G37*
%TD*%
%TO.C,D4*%
G36*
G01*
X134910538Y-129380309D02*
X135015125Y-128184875D01*
G75*
G02*
X135069293Y-128139423I49810J-4358D01*
G01*
X135965868Y-128217863D01*
G75*
G02*
X136011320Y-128272031I-4358J-49810D01*
G01*
X135906733Y-129467465D01*
G75*
G02*
X135852565Y-129512917I-49810J4358D01*
G01*
X134955990Y-129434477D01*
G75*
G02*
X134910538Y-129380309I4358J49810D01*
G01*
G37*
G36*
G01*
X131623096Y-129092695D02*
X131727683Y-127897261D01*
G75*
G02*
X131781851Y-127851809I49810J-4358D01*
G01*
X132678426Y-127930249D01*
G75*
G02*
X132723878Y-127984417I-4358J-49810D01*
G01*
X132619291Y-129179851D01*
G75*
G02*
X132565123Y-129225303I-49810J4358D01*
G01*
X131668548Y-129146863D01*
G75*
G02*
X131623096Y-129092695I4358J49810D01*
G01*
G37*
%TD*%
%TO.C,D3*%
G36*
G01*
X115650730Y-130946669D02*
X115755317Y-129751235D01*
G75*
G02*
X115809485Y-129705783I49810J-4358D01*
G01*
X116706060Y-129784223D01*
G75*
G02*
X116751512Y-129838391I-4358J-49810D01*
G01*
X116646925Y-131033825D01*
G75*
G02*
X116592757Y-131079277I-49810J4358D01*
G01*
X115696182Y-131000837D01*
G75*
G02*
X115650730Y-130946669I4358J49810D01*
G01*
G37*
G36*
G01*
X112363288Y-130659055D02*
X112467875Y-129463621D01*
G75*
G02*
X112522043Y-129418169I49810J-4358D01*
G01*
X113418618Y-129496609D01*
G75*
G02*
X113464070Y-129550777I-4358J-49810D01*
G01*
X113359483Y-130746211D01*
G75*
G02*
X113305315Y-130791663I-49810J4358D01*
G01*
X112408740Y-130713223D01*
G75*
G02*
X112363288Y-130659055I4358J49810D01*
G01*
G37*
%TD*%
%TO.C,D2*%
G36*
G01*
X95843065Y-138775106D02*
X95947652Y-137579672D01*
G75*
G02*
X96001820Y-137534220I49810J-4358D01*
G01*
X96898395Y-137612660D01*
G75*
G02*
X96943847Y-137666828I-4358J-49810D01*
G01*
X96839260Y-138862262D01*
G75*
G02*
X96785092Y-138907714I-49810J4358D01*
G01*
X95888517Y-138829274D01*
G75*
G02*
X95843065Y-138775106I4358J49810D01*
G01*
G37*
G36*
G01*
X92555623Y-138487492D02*
X92660210Y-137292058D01*
G75*
G02*
X92714378Y-137246606I49810J-4358D01*
G01*
X93610953Y-137325046D01*
G75*
G02*
X93656405Y-137379214I-4358J-49810D01*
G01*
X93551818Y-138574648D01*
G75*
G02*
X93497650Y-138620100I-49810J4358D01*
G01*
X92601075Y-138541660D01*
G75*
G02*
X92555623Y-138487492I4358J49810D01*
G01*
G37*
%TD*%
%TO.C,D1*%
G36*
G01*
X76450433Y-141859664D02*
X76555020Y-140664230D01*
G75*
G02*
X76609188Y-140618778I49810J-4358D01*
G01*
X77505763Y-140697218D01*
G75*
G02*
X77551215Y-140751386I-4358J-49810D01*
G01*
X77446628Y-141946820D01*
G75*
G02*
X77392460Y-141992272I-49810J4358D01*
G01*
X76495885Y-141913832D01*
G75*
G02*
X76450433Y-141859664I4358J49810D01*
G01*
G37*
G36*
G01*
X73162991Y-141572050D02*
X73267578Y-140376616D01*
G75*
G02*
X73321746Y-140331164I49810J-4358D01*
G01*
X74218321Y-140409604D01*
G75*
G02*
X74263773Y-140463772I-4358J-49810D01*
G01*
X74159186Y-141659206D01*
G75*
G02*
X74105018Y-141704658I-49810J4358D01*
G01*
X73208443Y-141626218D01*
G75*
G02*
X73162991Y-141572050I4358J49810D01*
G01*
G37*
%TD*%
%TO.C,C7*%
G36*
G01*
X215575000Y-131185000D02*
X215025000Y-131185000D01*
G75*
G02*
X214775000Y-130935000I0J250000D01*
G01*
X214775000Y-130435000D01*
G75*
G02*
X215025000Y-130185000I250000J0D01*
G01*
X215575000Y-130185000D01*
G75*
G02*
X215825000Y-130435000I0J-250000D01*
G01*
X215825000Y-130935000D01*
G75*
G02*
X215575000Y-131185000I-250000J0D01*
G01*
G37*
G36*
G01*
X215575000Y-129635000D02*
X215025000Y-129635000D01*
G75*
G02*
X214775000Y-129385000I0J250000D01*
G01*
X214775000Y-128885000D01*
G75*
G02*
X215025000Y-128635000I250000J0D01*
G01*
X215575000Y-128635000D01*
G75*
G02*
X215825000Y-128885000I0J-250000D01*
G01*
X215825000Y-129385000D01*
G75*
G02*
X215575000Y-129635000I-250000J0D01*
G01*
G37*
%TD*%
%TO.C,C6*%
G36*
G01*
X208835000Y-123915000D02*
X209385000Y-123915000D01*
G75*
G02*
X209635000Y-124165000I0J-250000D01*
G01*
X209635000Y-124665000D01*
G75*
G02*
X209385000Y-124915000I-250000J0D01*
G01*
X208835000Y-124915000D01*
G75*
G02*
X208585000Y-124665000I0J250000D01*
G01*
X208585000Y-124165000D01*
G75*
G02*
X208835000Y-123915000I250000J0D01*
G01*
G37*
G36*
G01*
X208835000Y-125465000D02*
X209385000Y-125465000D01*
G75*
G02*
X209635000Y-125715000I0J-250000D01*
G01*
X209635000Y-126215000D01*
G75*
G02*
X209385000Y-126465000I-250000J0D01*
G01*
X208835000Y-126465000D01*
G75*
G02*
X208585000Y-126215000I0J250000D01*
G01*
X208585000Y-125715000D01*
G75*
G02*
X208835000Y-125465000I250000J0D01*
G01*
G37*
%TD*%
%TO.C,C5*%
G36*
G01*
X197390000Y-137575000D02*
X197390000Y-138125000D01*
G75*
G02*
X197140000Y-138375000I-250000J0D01*
G01*
X196640000Y-138375000D01*
G75*
G02*
X196390000Y-138125000I0J250000D01*
G01*
X196390000Y-137575000D01*
G75*
G02*
X196640000Y-137325000I250000J0D01*
G01*
X197140000Y-137325000D01*
G75*
G02*
X197390000Y-137575000I0J-250000D01*
G01*
G37*
G36*
G01*
X195840000Y-137575000D02*
X195840000Y-138125000D01*
G75*
G02*
X195590000Y-138375000I-250000J0D01*
G01*
X195090000Y-138375000D01*
G75*
G02*
X194840000Y-138125000I0J250000D01*
G01*
X194840000Y-137575000D01*
G75*
G02*
X195090000Y-137325000I250000J0D01*
G01*
X195590000Y-137325000D01*
G75*
G02*
X195840000Y-137575000I0J-250000D01*
G01*
G37*
%TD*%
%TO.C,C4*%
G36*
G01*
X197235000Y-131055000D02*
X196685000Y-131055000D01*
G75*
G02*
X196435000Y-130805000I0J250000D01*
G01*
X196435000Y-130305000D01*
G75*
G02*
X196685000Y-130055000I250000J0D01*
G01*
X197235000Y-130055000D01*
G75*
G02*
X197485000Y-130305000I0J-250000D01*
G01*
X197485000Y-130805000D01*
G75*
G02*
X197235000Y-131055000I-250000J0D01*
G01*
G37*
G36*
G01*
X197235000Y-129505000D02*
X196685000Y-129505000D01*
G75*
G02*
X196435000Y-129255000I0J250000D01*
G01*
X196435000Y-128755000D01*
G75*
G02*
X196685000Y-128505000I250000J0D01*
G01*
X197235000Y-128505000D01*
G75*
G02*
X197485000Y-128755000I0J-250000D01*
G01*
X197485000Y-129255000D01*
G75*
G02*
X197235000Y-129505000I-250000J0D01*
G01*
G37*
%TD*%
%TO.C,C3*%
G36*
G01*
X206605000Y-127285000D02*
X206055000Y-127285000D01*
G75*
G02*
X205805000Y-127035000I0J250000D01*
G01*
X205805000Y-126535000D01*
G75*
G02*
X206055000Y-126285000I250000J0D01*
G01*
X206605000Y-126285000D01*
G75*
G02*
X206855000Y-126535000I0J-250000D01*
G01*
X206855000Y-127035000D01*
G75*
G02*
X206605000Y-127285000I-250000J0D01*
G01*
G37*
G36*
G01*
X206605000Y-125735000D02*
X206055000Y-125735000D01*
G75*
G02*
X205805000Y-125485000I0J250000D01*
G01*
X205805000Y-124985000D01*
G75*
G02*
X206055000Y-124735000I250000J0D01*
G01*
X206605000Y-124735000D01*
G75*
G02*
X206855000Y-124985000I0J-250000D01*
G01*
X206855000Y-125485000D01*
G75*
G02*
X206605000Y-125735000I-250000J0D01*
G01*
G37*
%TD*%
%TO.C,C2*%
G36*
G01*
X222925000Y-131295000D02*
X223475000Y-131295000D01*
G75*
G02*
X223725000Y-131545000I0J-250000D01*
G01*
X223725000Y-132045000D01*
G75*
G02*
X223475000Y-132295000I-250000J0D01*
G01*
X222925000Y-132295000D01*
G75*
G02*
X222675000Y-132045000I0J250000D01*
G01*
X222675000Y-131545000D01*
G75*
G02*
X222925000Y-131295000I250000J0D01*
G01*
G37*
G36*
G01*
X222925000Y-132845000D02*
X223475000Y-132845000D01*
G75*
G02*
X223725000Y-133095000I0J-250000D01*
G01*
X223725000Y-133595000D01*
G75*
G02*
X223475000Y-133845000I-250000J0D01*
G01*
X222925000Y-133845000D01*
G75*
G02*
X222675000Y-133595000I0J250000D01*
G01*
X222675000Y-133095000D01*
G75*
G02*
X222925000Y-132845000I250000J0D01*
G01*
G37*
%TD*%
%TO.C,C1*%
G36*
G01*
X223465000Y-138345000D02*
X222915000Y-138345000D01*
G75*
G02*
X222665000Y-138095000I0J250000D01*
G01*
X222665000Y-137595000D01*
G75*
G02*
X222915000Y-137345000I250000J0D01*
G01*
X223465000Y-137345000D01*
G75*
G02*
X223715000Y-137595000I0J-250000D01*
G01*
X223715000Y-138095000D01*
G75*
G02*
X223465000Y-138345000I-250000J0D01*
G01*
G37*
G36*
G01*
X223465000Y-136795000D02*
X222915000Y-136795000D01*
G75*
G02*
X222665000Y-136545000I0J250000D01*
G01*
X222665000Y-136045000D01*
G75*
G02*
X222915000Y-135795000I250000J0D01*
G01*
X223465000Y-135795000D01*
G75*
G02*
X223715000Y-136045000I0J-250000D01*
G01*
X223715000Y-136545000D01*
G75*
G02*
X223465000Y-136795000I-250000J0D01*
G01*
G37*
%TD*%
M02*
