%TF.GenerationSoftware,KiCad,Pcbnew,(5.1.8)-1*%
%TF.CreationDate,2021-02-22T23:32:27-05:00*%
%TF.ProjectId,ergo_60_case,6572676f-5f36-4305-9f63-6173652e6b69,rev?*%
%TF.SameCoordinates,Original*%
%TF.FileFunction,Paste,Bot*%
%TF.FilePolarity,Positive*%
%FSLAX46Y46*%
G04 Gerber Fmt 4.6, Leading zero omitted, Abs format (unit mm)*
G04 Created by KiCad (PCBNEW (5.1.8)-1) date 2021-02-22 23:32:27*
%MOMM*%
%LPD*%
G01*
G04 APERTURE LIST*
%ADD10R,1.024000X1.024000*%
%ADD11R,2.550000X2.500000*%
%ADD12C,0.100000*%
%ADD13R,0.650000X0.500000*%
%ADD14R,0.900000X0.050000*%
%ADD15R,0.900000X0.100000*%
%ADD16R,0.500000X0.650000*%
%ADD17R,0.050000X0.900000*%
%ADD18R,0.100000X0.900000*%
%ADD19R,0.700000X0.900000*%
%ADD20R,0.600000X0.500000*%
%ADD21R,0.600000X0.900000*%
%ADD22R,0.400000X0.700000*%
G04 APERTURE END LIST*
D10*
%TO.C,LED3*%
X194620000Y-162080000D03*
X194620000Y-159540000D03*
X194620000Y-157000000D03*
%TD*%
%TO.C,LED2*%
X72770000Y-130580000D03*
X72770000Y-128040000D03*
X72770000Y-125500000D03*
%TD*%
%TO.C,LED1*%
X192970000Y-102880000D03*
X192970000Y-100340000D03*
X192970000Y-97800000D03*
%TD*%
D11*
%TO.C,MX_ec11_7*%
X211835000Y-95480000D03*
X198935000Y-98020000D03*
%TD*%
%TO.C,MX_ec11_46*%
X211845000Y-156280000D03*
X198945000Y-158820000D03*
%TD*%
D12*
%TO.C,MX52*%
G36*
X324168488Y-157097525D02*
G01*
X323950599Y-154607038D01*
X326490896Y-154384791D01*
X326708785Y-156875278D01*
X324168488Y-157097525D01*
G37*
G36*
X336798024Y-153442881D02*
G01*
X336580135Y-150952394D01*
X339120432Y-150730147D01*
X339338321Y-153220634D01*
X336798024Y-153442881D01*
G37*
%TD*%
%TO.C,MX51*%
G36*
X304775855Y-154012967D02*
G01*
X304557966Y-151522480D01*
X307098263Y-151300233D01*
X307316152Y-153790720D01*
X304775855Y-154012967D01*
G37*
G36*
X317405391Y-150358323D02*
G01*
X317187502Y-147867836D01*
X319727799Y-147645589D01*
X319945688Y-150136076D01*
X317405391Y-150358323D01*
G37*
%TD*%
%TO.C,MX50*%
G36*
X284968189Y-146184529D02*
G01*
X284750300Y-143694042D01*
X287290597Y-143471795D01*
X287508486Y-145962282D01*
X284968189Y-146184529D01*
G37*
G36*
X297597725Y-142529885D02*
G01*
X297379836Y-140039398D01*
X299920133Y-139817151D01*
X300138022Y-142307638D01*
X297597725Y-142529885D01*
G37*
%TD*%
%TO.C,MX49*%
G36*
X260765864Y-149136862D02*
G01*
X260118817Y-146722047D01*
X262581928Y-146062058D01*
X263228975Y-148476873D01*
X260765864Y-149136862D01*
G37*
G36*
X272568907Y-143344645D02*
G01*
X271921860Y-140929830D01*
X274384971Y-140269841D01*
X275032018Y-142684656D01*
X272568907Y-143344645D01*
G37*
%TD*%
%TO.C,MX48*%
G36*
X242364977Y-154067366D02*
G01*
X241717930Y-151652551D01*
X244181041Y-150992562D01*
X244828088Y-153407377D01*
X242364977Y-154067366D01*
G37*
G36*
X254168020Y-148275149D02*
G01*
X253520973Y-145860334D01*
X255984084Y-145200345D01*
X256631131Y-147615160D01*
X254168020Y-148275149D01*
G37*
%TD*%
%TO.C,MX47*%
G36*
X223964090Y-158997868D02*
G01*
X223317043Y-156583053D01*
X225780154Y-155923064D01*
X226427201Y-158337879D01*
X223964090Y-158997868D01*
G37*
G36*
X235767133Y-153205651D02*
G01*
X235120086Y-150790836D01*
X237583197Y-150130847D01*
X238230244Y-152545662D01*
X235767133Y-153205651D01*
G37*
%TD*%
%TO.C,MX45*%
G36*
X171912323Y-154605165D02*
G01*
X172559370Y-152190350D01*
X175022481Y-152850339D01*
X174375434Y-155265154D01*
X171912323Y-154605165D01*
G37*
G36*
X185030166Y-155490480D02*
G01*
X185677213Y-153075665D01*
X188140324Y-153735654D01*
X187493277Y-156150469D01*
X185030166Y-155490480D01*
G37*
%TD*%
%TO.C,MX44*%
G36*
X153511434Y-149674663D02*
G01*
X154158481Y-147259848D01*
X156621592Y-147919837D01*
X155974545Y-150334652D01*
X153511434Y-149674663D01*
G37*
G36*
X166629277Y-150559978D02*
G01*
X167276324Y-148145163D01*
X169739435Y-148805152D01*
X169092388Y-151219967D01*
X166629277Y-150559978D01*
G37*
%TD*%
%TO.C,MX43*%
G36*
X135110547Y-144744161D02*
G01*
X135757594Y-142329346D01*
X138220705Y-142989335D01*
X137573658Y-145404150D01*
X135110547Y-144744161D01*
G37*
G36*
X148228390Y-145629476D02*
G01*
X148875437Y-143214661D01*
X151338548Y-143874650D01*
X150691501Y-146289465D01*
X148228390Y-145629476D01*
G37*
%TD*%
%TO.C,MX42*%
G36*
X110513981Y-144737036D02*
G01*
X110731870Y-142246549D01*
X113272167Y-142468796D01*
X113054278Y-144959283D01*
X110513981Y-144737036D01*
G37*
G36*
X123586268Y-143331011D02*
G01*
X123804157Y-140840524D01*
X126344454Y-141062771D01*
X126126565Y-143553258D01*
X123586268Y-143331011D01*
G37*
%TD*%
%TO.C,MX41*%
G36*
X90708927Y-152535586D02*
G01*
X90926816Y-150045099D01*
X93467113Y-150267346D01*
X93249224Y-152757833D01*
X90708927Y-152535586D01*
G37*
G36*
X103781214Y-151129561D02*
G01*
X103999103Y-148639074D01*
X106539400Y-148861321D01*
X106321511Y-151351808D01*
X103781214Y-151129561D01*
G37*
%TD*%
%TO.C,MX40*%
G36*
X71316294Y-155620146D02*
G01*
X71534183Y-153129659D01*
X74074480Y-153351906D01*
X73856591Y-155842393D01*
X71316294Y-155620146D01*
G37*
G36*
X84388581Y-154214121D02*
G01*
X84606470Y-151723634D01*
X87146767Y-151945881D01*
X86928878Y-154436368D01*
X84388581Y-154214121D01*
G37*
%TD*%
%TO.C,MX39*%
G36*
X322508170Y-138120016D02*
G01*
X322290281Y-135629529D01*
X324830578Y-135407282D01*
X325048467Y-137897769D01*
X322508170Y-138120016D01*
G37*
G36*
X335137706Y-134465372D02*
G01*
X334919817Y-131974885D01*
X337460114Y-131752638D01*
X337678003Y-134243125D01*
X335137706Y-134465372D01*
G37*
%TD*%
%TO.C,MX38*%
G36*
X303115537Y-135035458D02*
G01*
X302897648Y-132544971D01*
X305437945Y-132322724D01*
X305655834Y-134813211D01*
X303115537Y-135035458D01*
G37*
G36*
X315745073Y-131380814D02*
G01*
X315527184Y-128890327D01*
X318067481Y-128668080D01*
X318285370Y-131158567D01*
X315745073Y-131380814D01*
G37*
%TD*%
%TO.C,MX37*%
G36*
X283307872Y-127207020D02*
G01*
X283089983Y-124716533D01*
X285630280Y-124494286D01*
X285848169Y-126984773D01*
X283307872Y-127207020D01*
G37*
G36*
X295937408Y-123552376D02*
G01*
X295719519Y-121061889D01*
X298259816Y-120839642D01*
X298477705Y-123330129D01*
X295937408Y-123552376D01*
G37*
%TD*%
%TO.C,MX36*%
G36*
X264048065Y-125640662D02*
G01*
X263830176Y-123150175D01*
X266370473Y-122927928D01*
X266588362Y-125418415D01*
X264048065Y-125640662D01*
G37*
G36*
X276677601Y-121986018D02*
G01*
X276459712Y-119495531D01*
X279000009Y-119273284D01*
X279217898Y-121763771D01*
X276677601Y-121986018D01*
G37*
%TD*%
%TO.C,MX35*%
G36*
X245352854Y-130527653D02*
G01*
X245134965Y-128037166D01*
X247675262Y-127814919D01*
X247893151Y-130305406D01*
X245352854Y-130527653D01*
G37*
G36*
X257982390Y-126873009D02*
G01*
X257764501Y-124382522D01*
X260304798Y-124160275D01*
X260522687Y-126650762D01*
X257982390Y-126873009D01*
G37*
%TD*%
%TO.C,MX34*%
G36*
X226574583Y-134465272D02*
G01*
X226356694Y-131974785D01*
X228896991Y-131752538D01*
X229114880Y-134243025D01*
X226574583Y-134465272D01*
G37*
G36*
X239204119Y-130810628D02*
G01*
X238986230Y-128320141D01*
X241526527Y-128097894D01*
X241744416Y-130588381D01*
X239204119Y-130810628D01*
G37*
%TD*%
%TO.C,MX32*%
G36*
X168910203Y-132987893D02*
G01*
X169128092Y-130497406D01*
X171668389Y-130719653D01*
X171450500Y-133210140D01*
X168910203Y-132987893D01*
G37*
G36*
X181982490Y-131581868D02*
G01*
X182200379Y-129091381D01*
X184740676Y-129313628D01*
X184522787Y-131804115D01*
X181982490Y-131581868D01*
G37*
%TD*%
%TO.C,MX31*%
G36*
X150131931Y-129050273D02*
G01*
X150349820Y-126559786D01*
X152890117Y-126782033D01*
X152672228Y-129272520D01*
X150131931Y-129050273D01*
G37*
G36*
X163204218Y-127644248D02*
G01*
X163422107Y-125153761D01*
X165962404Y-125376008D01*
X165744515Y-127866495D01*
X163204218Y-127644248D01*
G37*
%TD*%
%TO.C,MX30*%
G36*
X131436719Y-124163283D02*
G01*
X131654608Y-121672796D01*
X134194905Y-121895043D01*
X133977016Y-124385530D01*
X131436719Y-124163283D01*
G37*
G36*
X144509006Y-122757258D02*
G01*
X144726895Y-120266771D01*
X147267192Y-120489018D01*
X147049303Y-122979505D01*
X144509006Y-122757258D01*
G37*
%TD*%
%TO.C,MX29*%
G36*
X112176913Y-125729641D02*
G01*
X112394802Y-123239154D01*
X114935099Y-123461401D01*
X114717210Y-125951888D01*
X112176913Y-125729641D01*
G37*
G36*
X125249200Y-124323616D02*
G01*
X125467089Y-121833129D01*
X128007386Y-122055376D01*
X127789497Y-124545863D01*
X125249200Y-124323616D01*
G37*
%TD*%
%TO.C,MX28*%
G36*
X92369245Y-133558078D02*
G01*
X92587134Y-131067591D01*
X95127431Y-131289838D01*
X94909542Y-133780325D01*
X92369245Y-133558078D01*
G37*
G36*
X105441532Y-132152053D02*
G01*
X105659421Y-129661566D01*
X108199718Y-129883813D01*
X107981829Y-132374300D01*
X105441532Y-132152053D01*
G37*
%TD*%
%TO.C,MX27*%
G36*
X72976612Y-136642637D02*
G01*
X73194501Y-134152150D01*
X75734798Y-134374397D01*
X75516909Y-136864884D01*
X72976612Y-136642637D01*
G37*
G36*
X86048899Y-135236612D02*
G01*
X86266788Y-132746125D01*
X88807085Y-132968372D01*
X88589196Y-135458859D01*
X86048899Y-135236612D01*
G37*
%TD*%
%TO.C,MX26*%
G36*
X320847854Y-119142506D02*
G01*
X320629965Y-116652019D01*
X323170262Y-116429772D01*
X323388151Y-118920259D01*
X320847854Y-119142506D01*
G37*
G36*
X333477390Y-115487862D02*
G01*
X333259501Y-112997375D01*
X335799798Y-112775128D01*
X336017687Y-115265615D01*
X333477390Y-115487862D01*
G37*
%TD*%
%TO.C,MX25*%
G36*
X301455222Y-116057949D02*
G01*
X301237333Y-113567462D01*
X303777630Y-113345215D01*
X303995519Y-115835702D01*
X301455222Y-116057949D01*
G37*
G36*
X314084758Y-112403305D02*
G01*
X313866869Y-109912818D01*
X316407166Y-109690571D01*
X316625055Y-112181058D01*
X314084758Y-112403305D01*
G37*
%TD*%
%TO.C,MX24*%
G36*
X281647555Y-108229511D02*
G01*
X281429666Y-105739024D01*
X283969963Y-105516777D01*
X284187852Y-108007264D01*
X281647555Y-108229511D01*
G37*
G36*
X294277091Y-104574867D02*
G01*
X294059202Y-102084380D01*
X296599499Y-101862133D01*
X296817388Y-104352620D01*
X294277091Y-104574867D01*
G37*
%TD*%
%TO.C,MX23*%
G36*
X262387748Y-106663153D02*
G01*
X262169859Y-104172666D01*
X264710156Y-103950419D01*
X264928045Y-106440906D01*
X262387748Y-106663153D01*
G37*
G36*
X275017284Y-103008509D02*
G01*
X274799395Y-100518022D01*
X277339692Y-100295775D01*
X277557581Y-102786262D01*
X275017284Y-103008509D01*
G37*
%TD*%
%TO.C,MX22*%
G36*
X243692537Y-111550144D02*
G01*
X243474648Y-109059657D01*
X246014945Y-108837410D01*
X246232834Y-111327897D01*
X243692537Y-111550144D01*
G37*
G36*
X256322073Y-107895500D02*
G01*
X256104184Y-105405013D01*
X258644481Y-105182766D01*
X258862370Y-107673253D01*
X256322073Y-107895500D01*
G37*
%TD*%
%TO.C,MX21*%
G36*
X224914266Y-115487763D02*
G01*
X224696377Y-112997276D01*
X227236674Y-112775029D01*
X227454563Y-115265516D01*
X224914266Y-115487763D01*
G37*
G36*
X237543802Y-111833119D02*
G01*
X237325913Y-109342632D01*
X239866210Y-109120385D01*
X240084099Y-111610872D01*
X237543802Y-111833119D01*
G37*
%TD*%
%TO.C,MX19*%
G36*
X170570519Y-114010382D02*
G01*
X170788408Y-111519895D01*
X173328705Y-111742142D01*
X173110816Y-114232629D01*
X170570519Y-114010382D01*
G37*
G36*
X183642806Y-112604357D02*
G01*
X183860695Y-110113870D01*
X186400992Y-110336117D01*
X186183103Y-112826604D01*
X183642806Y-112604357D01*
G37*
%TD*%
%TO.C,MX18*%
G36*
X151792248Y-110072764D02*
G01*
X152010137Y-107582277D01*
X154550434Y-107804524D01*
X154332545Y-110295011D01*
X151792248Y-110072764D01*
G37*
G36*
X164864535Y-108666739D02*
G01*
X165082424Y-106176252D01*
X167622721Y-106398499D01*
X167404832Y-108888986D01*
X164864535Y-108666739D01*
G37*
%TD*%
%TO.C,MX17*%
G36*
X133097035Y-105185774D02*
G01*
X133314924Y-102695287D01*
X135855221Y-102917534D01*
X135637332Y-105408021D01*
X133097035Y-105185774D01*
G37*
G36*
X146169322Y-103779749D02*
G01*
X146387211Y-101289262D01*
X148927508Y-101511509D01*
X148709619Y-104001996D01*
X146169322Y-103779749D01*
G37*
%TD*%
%TO.C,MX16*%
G36*
X113837230Y-106752132D02*
G01*
X114055119Y-104261645D01*
X116595416Y-104483892D01*
X116377527Y-106974379D01*
X113837230Y-106752132D01*
G37*
G36*
X126909517Y-105346107D02*
G01*
X127127406Y-102855620D01*
X129667703Y-103077867D01*
X129449814Y-105568354D01*
X126909517Y-105346107D01*
G37*
%TD*%
%TO.C,MX15*%
G36*
X94029561Y-114580568D02*
G01*
X94247450Y-112090081D01*
X96787747Y-112312328D01*
X96569858Y-114802815D01*
X94029561Y-114580568D01*
G37*
G36*
X107101848Y-113174543D02*
G01*
X107319737Y-110684056D01*
X109860034Y-110906303D01*
X109642145Y-113396790D01*
X107101848Y-113174543D01*
G37*
%TD*%
%TO.C,MX14*%
G36*
X74636930Y-117665128D02*
G01*
X74854819Y-115174641D01*
X77395116Y-115396888D01*
X77177227Y-117887375D01*
X74636930Y-117665128D01*
G37*
G36*
X87709217Y-116259103D02*
G01*
X87927106Y-113768616D01*
X90467403Y-113990863D01*
X90249514Y-116481350D01*
X87709217Y-116259103D01*
G37*
%TD*%
%TO.C,MX13*%
G36*
X319187535Y-100164998D02*
G01*
X318969646Y-97674511D01*
X321509943Y-97452264D01*
X321727832Y-99942751D01*
X319187535Y-100164998D01*
G37*
G36*
X331817071Y-96510354D02*
G01*
X331599182Y-94019867D01*
X334139479Y-93797620D01*
X334357368Y-96288107D01*
X331817071Y-96510354D01*
G37*
%TD*%
%TO.C,MX12*%
G36*
X299794905Y-97080440D02*
G01*
X299577016Y-94589953D01*
X302117313Y-94367706D01*
X302335202Y-96858193D01*
X299794905Y-97080440D01*
G37*
G36*
X312424441Y-93425796D02*
G01*
X312206552Y-90935309D01*
X314746849Y-90713062D01*
X314964738Y-93203549D01*
X312424441Y-93425796D01*
G37*
%TD*%
%TO.C,MX11*%
G36*
X279987237Y-89252002D02*
G01*
X279769348Y-86761515D01*
X282309645Y-86539268D01*
X282527534Y-89029755D01*
X279987237Y-89252002D01*
G37*
G36*
X292616773Y-85597358D02*
G01*
X292398884Y-83106871D01*
X294939181Y-82884624D01*
X295157070Y-85375111D01*
X292616773Y-85597358D01*
G37*
%TD*%
%TO.C,MX10*%
G36*
X260727430Y-87685645D02*
G01*
X260509541Y-85195158D01*
X263049838Y-84972911D01*
X263267727Y-87463398D01*
X260727430Y-87685645D01*
G37*
G36*
X273356966Y-84031001D02*
G01*
X273139077Y-81540514D01*
X275679374Y-81318267D01*
X275897263Y-83808754D01*
X273356966Y-84031001D01*
G37*
%TD*%
%TO.C,MX9*%
G36*
X242032219Y-92572636D02*
G01*
X241814330Y-90082149D01*
X244354627Y-89859902D01*
X244572516Y-92350389D01*
X242032219Y-92572636D01*
G37*
G36*
X254661755Y-88917992D02*
G01*
X254443866Y-86427505D01*
X256984163Y-86205258D01*
X257202052Y-88695745D01*
X254661755Y-88917992D01*
G37*
%TD*%
%TO.C,MX8*%
G36*
X223253948Y-96510254D02*
G01*
X223036059Y-94019767D01*
X225576356Y-93797520D01*
X225794245Y-96288007D01*
X223253948Y-96510254D01*
G37*
G36*
X235883484Y-92855610D02*
G01*
X235665595Y-90365123D01*
X238205892Y-90142876D01*
X238423781Y-92633363D01*
X235883484Y-92855610D01*
G37*
%TD*%
%TO.C,MX6*%
G36*
X172230834Y-95032873D02*
G01*
X172448723Y-92542386D01*
X174989020Y-92764633D01*
X174771131Y-95255120D01*
X172230834Y-95032873D01*
G37*
G36*
X185303121Y-93626848D02*
G01*
X185521010Y-91136361D01*
X188061307Y-91358608D01*
X187843418Y-93849095D01*
X185303121Y-93626848D01*
G37*
%TD*%
%TO.C,MX5*%
G36*
X153452564Y-91095255D02*
G01*
X153670453Y-88604768D01*
X156210750Y-88827015D01*
X155992861Y-91317502D01*
X153452564Y-91095255D01*
G37*
G36*
X166524851Y-89689230D02*
G01*
X166742740Y-87198743D01*
X169283037Y-87420990D01*
X169065148Y-89911477D01*
X166524851Y-89689230D01*
G37*
%TD*%
%TO.C,MX4*%
G36*
X134757352Y-86208265D02*
G01*
X134975241Y-83717778D01*
X137515538Y-83940025D01*
X137297649Y-86430512D01*
X134757352Y-86208265D01*
G37*
G36*
X147829639Y-84802240D02*
G01*
X148047528Y-82311753D01*
X150587825Y-82534000D01*
X150369936Y-85024487D01*
X147829639Y-84802240D01*
G37*
%TD*%
%TO.C,MX3*%
G36*
X115497545Y-87774623D02*
G01*
X115715434Y-85284136D01*
X118255731Y-85506383D01*
X118037842Y-87996870D01*
X115497545Y-87774623D01*
G37*
G36*
X128569832Y-86368598D02*
G01*
X128787721Y-83878111D01*
X131328018Y-84100358D01*
X131110129Y-86590845D01*
X128569832Y-86368598D01*
G37*
%TD*%
%TO.C,MX2*%
G36*
X95689878Y-95603059D02*
G01*
X95907767Y-93112572D01*
X98448064Y-93334819D01*
X98230175Y-95825306D01*
X95689878Y-95603059D01*
G37*
G36*
X108762165Y-94197034D02*
G01*
X108980054Y-91706547D01*
X111520351Y-91928794D01*
X111302462Y-94419281D01*
X108762165Y-94197034D01*
G37*
%TD*%
%TO.C,MX1*%
G36*
X76297247Y-98687619D02*
G01*
X76515136Y-96197132D01*
X79055433Y-96419379D01*
X78837544Y-98909866D01*
X76297247Y-98687619D01*
G37*
G36*
X89369534Y-97281594D02*
G01*
X89587423Y-94791107D01*
X92127720Y-95013354D01*
X91909831Y-97503841D01*
X89369534Y-97281594D01*
G37*
%TD*%
D13*
%TO.C,D66*%
X343680000Y-83520000D03*
X343680000Y-87020000D03*
D14*
X343810000Y-86790000D03*
D15*
X343810000Y-84820000D03*
D14*
X343810000Y-83745000D03*
%TD*%
D13*
%TO.C,D68*%
X343680000Y-122140000D03*
X343680000Y-125640000D03*
D14*
X343810000Y-125410000D03*
D15*
X343810000Y-123440000D03*
D14*
X343810000Y-122365000D03*
%TD*%
D13*
%TO.C,D67*%
X343680000Y-102830000D03*
X343680000Y-106330000D03*
D14*
X343810000Y-106100000D03*
D15*
X343810000Y-104130000D03*
D14*
X343810000Y-103055000D03*
%TD*%
D16*
%TO.C,D90*%
X71580000Y-80620000D03*
X75080000Y-80620000D03*
D17*
X74850000Y-80490000D03*
D18*
X72880000Y-80490000D03*
D17*
X71805000Y-80490000D03*
%TD*%
D13*
%TO.C,D89*%
X69120000Y-86810000D03*
X69120000Y-83310000D03*
D14*
X68990000Y-83540000D03*
D15*
X68990000Y-85510000D03*
D14*
X68990000Y-86585000D03*
%TD*%
D13*
%TO.C,D88*%
X69120000Y-106147500D03*
X69120000Y-102647500D03*
D14*
X68990000Y-102877500D03*
D15*
X68990000Y-104847500D03*
D14*
X68990000Y-105922500D03*
%TD*%
D13*
%TO.C,D87*%
X69120000Y-125485000D03*
X69120000Y-121985000D03*
D14*
X68990000Y-122215000D03*
D15*
X68990000Y-124185000D03*
D14*
X68990000Y-125260000D03*
%TD*%
D13*
%TO.C,D86*%
X69120000Y-144822500D03*
X69120000Y-141322500D03*
D14*
X68990000Y-141552500D03*
D15*
X68990000Y-143522500D03*
D14*
X68990000Y-144597500D03*
%TD*%
D13*
%TO.C,D85*%
X69120000Y-164160000D03*
X69120000Y-160660000D03*
D14*
X68990000Y-160890000D03*
D15*
X68990000Y-162860000D03*
D14*
X68990000Y-163935000D03*
%TD*%
D16*
%TO.C,D84*%
X75770000Y-166830000D03*
X72270000Y-166830000D03*
D17*
X72500000Y-166960000D03*
D18*
X74470000Y-166960000D03*
D17*
X75545000Y-166960000D03*
%TD*%
D16*
%TO.C,D83*%
X96139230Y-166830000D03*
X92639230Y-166830000D03*
D17*
X92869230Y-166960000D03*
D18*
X94839230Y-166960000D03*
D17*
X95914230Y-166960000D03*
%TD*%
D16*
%TO.C,D82*%
X116508460Y-166830000D03*
X113008460Y-166830000D03*
D17*
X113238460Y-166960000D03*
D18*
X115208460Y-166960000D03*
D17*
X116283460Y-166960000D03*
%TD*%
D16*
%TO.C,D81*%
X136877690Y-166830000D03*
X133377690Y-166830000D03*
D17*
X133607690Y-166960000D03*
D18*
X135577690Y-166960000D03*
D17*
X136652690Y-166960000D03*
%TD*%
D16*
%TO.C,D80*%
X157246920Y-166830000D03*
X153746920Y-166830000D03*
D17*
X153976920Y-166960000D03*
D18*
X155946920Y-166960000D03*
D17*
X157021920Y-166960000D03*
%TD*%
D16*
%TO.C,D79*%
X177616150Y-166830000D03*
X174116150Y-166830000D03*
D17*
X174346150Y-166960000D03*
D18*
X176316150Y-166960000D03*
D17*
X177391150Y-166960000D03*
%TD*%
D16*
%TO.C,D78*%
X197985380Y-166830000D03*
X194485380Y-166830000D03*
D17*
X194715380Y-166960000D03*
D18*
X196685380Y-166960000D03*
D17*
X197760380Y-166960000D03*
%TD*%
D16*
%TO.C,D77*%
X218354610Y-166830000D03*
X214854610Y-166830000D03*
D17*
X215084610Y-166960000D03*
D18*
X217054610Y-166960000D03*
D17*
X218129610Y-166960000D03*
%TD*%
D16*
%TO.C,D76*%
X238723840Y-166830000D03*
X235223840Y-166830000D03*
D17*
X235453840Y-166960000D03*
D18*
X237423840Y-166960000D03*
D17*
X238498840Y-166960000D03*
%TD*%
D16*
%TO.C,D75*%
X259093070Y-166830000D03*
X255593070Y-166830000D03*
D17*
X255823070Y-166960000D03*
D18*
X257793070Y-166960000D03*
D17*
X258868070Y-166960000D03*
%TD*%
D16*
%TO.C,D74*%
X279462300Y-166830000D03*
X275962300Y-166830000D03*
D17*
X276192300Y-166960000D03*
D18*
X278162300Y-166960000D03*
D17*
X279237300Y-166960000D03*
%TD*%
D16*
%TO.C,D73*%
X299831530Y-166830000D03*
X296331530Y-166830000D03*
D17*
X296561530Y-166960000D03*
D18*
X298531530Y-166960000D03*
D17*
X299606530Y-166960000D03*
%TD*%
D16*
%TO.C,D72*%
X320200760Y-166830000D03*
X316700760Y-166830000D03*
D17*
X316930760Y-166960000D03*
D18*
X318900760Y-166960000D03*
D17*
X319975760Y-166960000D03*
%TD*%
D16*
%TO.C,D71*%
X340570000Y-166830000D03*
X337070000Y-166830000D03*
D17*
X337300000Y-166960000D03*
D18*
X339270000Y-166960000D03*
D17*
X340345000Y-166960000D03*
%TD*%
D13*
%TO.C,D70*%
X343680000Y-160760000D03*
X343680000Y-164260000D03*
D14*
X343810000Y-164030000D03*
D15*
X343810000Y-162060000D03*
D14*
X343810000Y-160985000D03*
%TD*%
D13*
%TO.C,D69*%
X343680000Y-141450000D03*
X343680000Y-144950000D03*
D14*
X343810000Y-144720000D03*
D15*
X343810000Y-142750000D03*
D14*
X343810000Y-141675000D03*
%TD*%
D16*
%TO.C,D65*%
X337140000Y-80620000D03*
X340640000Y-80620000D03*
D17*
X340410000Y-80490000D03*
D18*
X338440000Y-80490000D03*
D17*
X337365000Y-80490000D03*
%TD*%
D16*
%TO.C,D64*%
X317616666Y-80620000D03*
X321116666Y-80620000D03*
D17*
X320886666Y-80490000D03*
D18*
X318916666Y-80490000D03*
D17*
X317841666Y-80490000D03*
%TD*%
D16*
%TO.C,D63*%
X298093333Y-80620000D03*
X301593333Y-80620000D03*
D17*
X301363333Y-80490000D03*
D18*
X299393333Y-80490000D03*
D17*
X298318333Y-80490000D03*
%TD*%
D16*
%TO.C,D62*%
X278570000Y-80620000D03*
X282070000Y-80620000D03*
D17*
X281840000Y-80490000D03*
D18*
X279870000Y-80490000D03*
D17*
X278795000Y-80490000D03*
%TD*%
D16*
%TO.C,D61*%
X254540000Y-80620000D03*
X258040000Y-80620000D03*
D17*
X257810000Y-80490000D03*
D18*
X255840000Y-80490000D03*
D17*
X254765000Y-80490000D03*
%TD*%
D16*
%TO.C,D60*%
X235705000Y-80620000D03*
X239205000Y-80620000D03*
D17*
X238975000Y-80490000D03*
D18*
X237005000Y-80490000D03*
D17*
X235930000Y-80490000D03*
%TD*%
D16*
%TO.C,D59*%
X216870000Y-80620000D03*
X220370000Y-80620000D03*
D17*
X220140000Y-80490000D03*
D18*
X218170000Y-80490000D03*
D17*
X217095000Y-80490000D03*
%TD*%
D16*
%TO.C,D58*%
X191630000Y-80620000D03*
X195130000Y-80620000D03*
D17*
X194900000Y-80490000D03*
D18*
X192930000Y-80490000D03*
D17*
X191855000Y-80490000D03*
%TD*%
D16*
%TO.C,D57*%
X172880000Y-80620000D03*
X176380000Y-80620000D03*
D17*
X176150000Y-80490000D03*
D18*
X174180000Y-80490000D03*
D17*
X173105000Y-80490000D03*
%TD*%
D16*
%TO.C,D56*%
X154130000Y-80620000D03*
X157630000Y-80620000D03*
D17*
X157400000Y-80490000D03*
D18*
X155430000Y-80490000D03*
D17*
X154355000Y-80490000D03*
%TD*%
D16*
%TO.C,D55*%
X129670000Y-80620000D03*
X133170000Y-80620000D03*
D17*
X132940000Y-80490000D03*
D18*
X130970000Y-80490000D03*
D17*
X129895000Y-80490000D03*
%TD*%
D16*
%TO.C,D54*%
X110306666Y-80620000D03*
X113806666Y-80620000D03*
D17*
X113576666Y-80490000D03*
D18*
X111606666Y-80490000D03*
D17*
X110531666Y-80490000D03*
%TD*%
D16*
%TO.C,D53*%
X90943333Y-80620000D03*
X94443333Y-80620000D03*
D17*
X94213333Y-80490000D03*
D18*
X92243333Y-80490000D03*
D17*
X91168333Y-80490000D03*
%TD*%
%TO.C,C11*%
G36*
G01*
X213325000Y-151475000D02*
X213325000Y-151225000D01*
G75*
G02*
X213425000Y-151125000I100000J0D01*
G01*
X213625000Y-151125000D01*
G75*
G02*
X213725000Y-151225000I0J-100000D01*
G01*
X213725000Y-151475000D01*
G75*
G02*
X213625000Y-151575000I-100000J0D01*
G01*
X213425000Y-151575000D01*
G75*
G02*
X213325000Y-151475000I0J100000D01*
G01*
G37*
G36*
G01*
X211775000Y-151475000D02*
X211775000Y-151225000D01*
G75*
G02*
X211875000Y-151125000I100000J0D01*
G01*
X212075000Y-151125000D01*
G75*
G02*
X212175000Y-151225000I0J-100000D01*
G01*
X212175000Y-151475000D01*
G75*
G02*
X212075000Y-151575000I-100000J0D01*
G01*
X211875000Y-151575000D01*
G75*
G02*
X211775000Y-151475000I0J100000D01*
G01*
G37*
%TD*%
%TO.C,C10*%
G36*
G01*
X210375000Y-149305000D02*
X210375000Y-149055000D01*
G75*
G02*
X210475000Y-148955000I100000J0D01*
G01*
X210675000Y-148955000D01*
G75*
G02*
X210775000Y-149055000I0J-100000D01*
G01*
X210775000Y-149305000D01*
G75*
G02*
X210675000Y-149405000I-100000J0D01*
G01*
X210475000Y-149405000D01*
G75*
G02*
X210375000Y-149305000I0J100000D01*
G01*
G37*
G36*
G01*
X208825000Y-149305000D02*
X208825000Y-149055000D01*
G75*
G02*
X208925000Y-148955000I100000J0D01*
G01*
X209125000Y-148955000D01*
G75*
G02*
X209225000Y-149055000I0J-100000D01*
G01*
X209225000Y-149305000D01*
G75*
G02*
X209125000Y-149405000I-100000J0D01*
G01*
X208925000Y-149405000D01*
G75*
G02*
X208825000Y-149305000I0J100000D01*
G01*
G37*
%TD*%
%TO.C,C9*%
G36*
G01*
X202785000Y-113235000D02*
X202785000Y-113485000D01*
G75*
G02*
X202685000Y-113585000I-100000J0D01*
G01*
X202485000Y-113585000D01*
G75*
G02*
X202385000Y-113485000I0J100000D01*
G01*
X202385000Y-113235000D01*
G75*
G02*
X202485000Y-113135000I100000J0D01*
G01*
X202685000Y-113135000D01*
G75*
G02*
X202785000Y-113235000I0J-100000D01*
G01*
G37*
G36*
G01*
X201235000Y-113235000D02*
X201235000Y-113485000D01*
G75*
G02*
X201135000Y-113585000I-100000J0D01*
G01*
X200935000Y-113585000D01*
G75*
G02*
X200835000Y-113485000I0J100000D01*
G01*
X200835000Y-113235000D01*
G75*
G02*
X200935000Y-113135000I100000J0D01*
G01*
X201135000Y-113135000D01*
G75*
G02*
X201235000Y-113235000I0J-100000D01*
G01*
G37*
%TD*%
%TO.C,C8*%
G36*
G01*
X208395000Y-113545000D02*
X208395000Y-113295000D01*
G75*
G02*
X208495000Y-113195000I100000J0D01*
G01*
X208695000Y-113195000D01*
G75*
G02*
X208795000Y-113295000I0J-100000D01*
G01*
X208795000Y-113545000D01*
G75*
G02*
X208695000Y-113645000I-100000J0D01*
G01*
X208495000Y-113645000D01*
G75*
G02*
X208395000Y-113545000I0J100000D01*
G01*
G37*
G36*
G01*
X209945000Y-113545000D02*
X209945000Y-113295000D01*
G75*
G02*
X210045000Y-113195000I100000J0D01*
G01*
X210245000Y-113195000D01*
G75*
G02*
X210345000Y-113295000I0J-100000D01*
G01*
X210345000Y-113545000D01*
G75*
G02*
X210245000Y-113645000I-100000J0D01*
G01*
X210045000Y-113645000D01*
G75*
G02*
X209945000Y-113545000I0J100000D01*
G01*
G37*
%TD*%
D12*
%TO.C,D10*%
G36*
X265850949Y-130009906D02*
G01*
X265789940Y-129312570D01*
X266188417Y-129277708D01*
X266249426Y-129975044D01*
X265850949Y-130009906D01*
G37*
G36*
X269138391Y-129722292D02*
G01*
X269077382Y-129024956D01*
X269475859Y-128990094D01*
X269536868Y-129687430D01*
X269138391Y-129722292D01*
G37*
%TD*%
%TO.C,D49*%
G36*
X261506872Y-142111026D02*
G01*
X261325698Y-141434878D01*
X261712068Y-141331350D01*
X261893242Y-142007498D01*
X261506872Y-142111026D01*
G37*
G36*
X264694428Y-141256924D02*
G01*
X264513254Y-140580776D01*
X264899624Y-140477248D01*
X265080798Y-141153396D01*
X264694428Y-141256924D01*
G37*
%TD*%
%TO.C,D36*%
G36*
X266339022Y-135679520D02*
G01*
X266278013Y-134982184D01*
X266676490Y-134947322D01*
X266737499Y-135644658D01*
X266339022Y-135679520D01*
G37*
G36*
X269626464Y-135391906D02*
G01*
X269565455Y-134694570D01*
X269963932Y-134659708D01*
X270024941Y-135357044D01*
X269626464Y-135391906D01*
G37*
%TD*%
%TO.C,D23*%
G36*
X266057545Y-132419906D02*
G01*
X265996536Y-131722570D01*
X266395013Y-131687708D01*
X266456022Y-132385044D01*
X266057545Y-132419906D01*
G37*
G36*
X269344987Y-132132292D02*
G01*
X269283978Y-131434956D01*
X269682455Y-131400094D01*
X269743464Y-132097430D01*
X269344987Y-132132292D01*
G37*
%TD*%
%TO.C,SW1*%
G36*
X89753908Y-124107600D02*
G01*
X89832348Y-123211025D01*
X90230826Y-123245888D01*
X90152386Y-124142463D01*
X89753908Y-124107600D01*
G37*
G36*
X96229174Y-124674112D02*
G01*
X96307614Y-123777537D01*
X96706092Y-123812400D01*
X96627652Y-124708975D01*
X96229174Y-124674112D01*
G37*
%TD*%
D19*
%TO.C,Y1*%
X218560000Y-136210000D03*
X218560000Y-134010000D03*
X220260000Y-134010000D03*
X220260000Y-136210000D03*
%TD*%
D20*
%TO.C,U1*%
X81048626Y-87051263D03*
X81048626Y-88951263D03*
X83048626Y-88951263D03*
D21*
X83048626Y-87251263D03*
%TD*%
%TO.C,RC7*%
G36*
G01*
X205945000Y-146250000D02*
X205945000Y-146550000D01*
G75*
G02*
X205870000Y-146625000I-75000J0D01*
G01*
X205720000Y-146625000D01*
G75*
G02*
X205645000Y-146550000I0J75000D01*
G01*
X205645000Y-146250000D01*
G75*
G02*
X205720000Y-146175000I75000J0D01*
G01*
X205870000Y-146175000D01*
G75*
G02*
X205945000Y-146250000I0J-75000D01*
G01*
G37*
G36*
G01*
X204295000Y-146250000D02*
X204295000Y-146550000D01*
G75*
G02*
X204220000Y-146625000I-75000J0D01*
G01*
X204070000Y-146625000D01*
G75*
G02*
X203995000Y-146550000I0J75000D01*
G01*
X203995000Y-146250000D01*
G75*
G02*
X204070000Y-146175000I75000J0D01*
G01*
X204220000Y-146175000D01*
G75*
G02*
X204295000Y-146250000I0J-75000D01*
G01*
G37*
%TD*%
%TO.C,RC5*%
G36*
G01*
X219765000Y-128900000D02*
X219765000Y-128600000D01*
G75*
G02*
X219840000Y-128525000I75000J0D01*
G01*
X219990000Y-128525000D01*
G75*
G02*
X220065000Y-128600000I0J-75000D01*
G01*
X220065000Y-128900000D01*
G75*
G02*
X219990000Y-128975000I-75000J0D01*
G01*
X219840000Y-128975000D01*
G75*
G02*
X219765000Y-128900000I0J75000D01*
G01*
G37*
G36*
G01*
X221415000Y-128900000D02*
X221415000Y-128600000D01*
G75*
G02*
X221490000Y-128525000I75000J0D01*
G01*
X221640000Y-128525000D01*
G75*
G02*
X221715000Y-128600000I0J-75000D01*
G01*
X221715000Y-128900000D01*
G75*
G02*
X221640000Y-128975000I-75000J0D01*
G01*
X221490000Y-128975000D01*
G75*
G02*
X221415000Y-128900000I0J75000D01*
G01*
G37*
%TD*%
%TO.C,RC4*%
G36*
G01*
X85788626Y-88656263D02*
X86088626Y-88656263D01*
G75*
G02*
X86163626Y-88731263I0J-75000D01*
G01*
X86163626Y-88881263D01*
G75*
G02*
X86088626Y-88956263I-75000J0D01*
G01*
X85788626Y-88956263D01*
G75*
G02*
X85713626Y-88881263I0J75000D01*
G01*
X85713626Y-88731263D01*
G75*
G02*
X85788626Y-88656263I75000J0D01*
G01*
G37*
G36*
G01*
X85788626Y-87006263D02*
X86088626Y-87006263D01*
G75*
G02*
X86163626Y-87081263I0J-75000D01*
G01*
X86163626Y-87231263D01*
G75*
G02*
X86088626Y-87306263I-75000J0D01*
G01*
X85788626Y-87306263D01*
G75*
G02*
X85713626Y-87231263I0J75000D01*
G01*
X85713626Y-87081263D01*
G75*
G02*
X85788626Y-87006263I75000J0D01*
G01*
G37*
%TD*%
%TO.C,RC3*%
G36*
G01*
X78078626Y-88616264D02*
X78378626Y-88616264D01*
G75*
G02*
X78453626Y-88691264I0J-75000D01*
G01*
X78453626Y-88841264D01*
G75*
G02*
X78378626Y-88916264I-75000J0D01*
G01*
X78078626Y-88916264D01*
G75*
G02*
X78003626Y-88841264I0J75000D01*
G01*
X78003626Y-88691264D01*
G75*
G02*
X78078626Y-88616264I75000J0D01*
G01*
G37*
G36*
G01*
X78078626Y-86966264D02*
X78378626Y-86966264D01*
G75*
G02*
X78453626Y-87041264I0J-75000D01*
G01*
X78453626Y-87191264D01*
G75*
G02*
X78378626Y-87266264I-75000J0D01*
G01*
X78078626Y-87266264D01*
G75*
G02*
X78003626Y-87191264I0J75000D01*
G01*
X78003626Y-87041264D01*
G75*
G02*
X78078626Y-86966264I75000J0D01*
G01*
G37*
%TD*%
%TO.C,RC2*%
G36*
G01*
X75559286Y-93910234D02*
X75859286Y-93910234D01*
G75*
G02*
X75934286Y-93985234I0J-75000D01*
G01*
X75934286Y-94135234D01*
G75*
G02*
X75859286Y-94210234I-75000J0D01*
G01*
X75559286Y-94210234D01*
G75*
G02*
X75484286Y-94135234I0J75000D01*
G01*
X75484286Y-93985234D01*
G75*
G02*
X75559286Y-93910234I75000J0D01*
G01*
G37*
G36*
G01*
X75559286Y-92260234D02*
X75859286Y-92260234D01*
G75*
G02*
X75934286Y-92335234I0J-75000D01*
G01*
X75934286Y-92485234D01*
G75*
G02*
X75859286Y-92560234I-75000J0D01*
G01*
X75559286Y-92560234D01*
G75*
G02*
X75484286Y-92485234I0J75000D01*
G01*
X75484286Y-92335234D01*
G75*
G02*
X75559286Y-92260234I75000J0D01*
G01*
G37*
%TD*%
%TO.C,RC1*%
G36*
G01*
X73919286Y-92590234D02*
X73619286Y-92590234D01*
G75*
G02*
X73544286Y-92515234I0J75000D01*
G01*
X73544286Y-92365234D01*
G75*
G02*
X73619286Y-92290234I75000J0D01*
G01*
X73919286Y-92290234D01*
G75*
G02*
X73994286Y-92365234I0J-75000D01*
G01*
X73994286Y-92515234D01*
G75*
G02*
X73919286Y-92590234I-75000J0D01*
G01*
G37*
G36*
G01*
X73919286Y-94240234D02*
X73619286Y-94240234D01*
G75*
G02*
X73544286Y-94165234I0J75000D01*
G01*
X73544286Y-94015234D01*
G75*
G02*
X73619286Y-93940234I75000J0D01*
G01*
X73919286Y-93940234D01*
G75*
G02*
X73994286Y-94015234I0J-75000D01*
G01*
X73994286Y-94165234D01*
G75*
G02*
X73919286Y-94240234I-75000J0D01*
G01*
G37*
%TD*%
%TO.C,F1*%
G36*
G01*
X71545000Y-91955000D02*
X70595000Y-91955000D01*
G75*
G02*
X70445000Y-91805000I0J150000D01*
G01*
X70445000Y-91355000D01*
G75*
G02*
X70595000Y-91205000I150000J0D01*
G01*
X71545000Y-91205000D01*
G75*
G02*
X71695000Y-91355000I0J-150000D01*
G01*
X71695000Y-91805000D01*
G75*
G02*
X71545000Y-91955000I-150000J0D01*
G01*
G37*
G36*
G01*
X71545000Y-94755000D02*
X70595000Y-94755000D01*
G75*
G02*
X70445000Y-94605000I0J150000D01*
G01*
X70445000Y-94155000D01*
G75*
G02*
X70595000Y-94005000I150000J0D01*
G01*
X71545000Y-94005000D01*
G75*
G02*
X71695000Y-94155000I0J-150000D01*
G01*
X71695000Y-94605000D01*
G75*
G02*
X71545000Y-94755000I-150000J0D01*
G01*
G37*
%TD*%
D12*
%TO.C,D52*%
G36*
X325017545Y-150569906D02*
G01*
X324956536Y-149872570D01*
X325355013Y-149837708D01*
X325416022Y-150535044D01*
X325017545Y-150569906D01*
G37*
G36*
X328304987Y-150282292D02*
G01*
X328243978Y-149584956D01*
X328642455Y-149550094D01*
X328703464Y-150247430D01*
X328304987Y-150282292D01*
G37*
%TD*%
%TO.C,D51*%
G36*
X305617545Y-147499906D02*
G01*
X305556536Y-146802570D01*
X305955013Y-146767708D01*
X306016022Y-147465044D01*
X305617545Y-147499906D01*
G37*
G36*
X308904987Y-147212292D02*
G01*
X308843978Y-146514956D01*
X309242455Y-146480094D01*
X309303464Y-147177430D01*
X308904987Y-147212292D01*
G37*
%TD*%
%TO.C,D50*%
G36*
X285807545Y-139629906D02*
G01*
X285746536Y-138932570D01*
X286145013Y-138897708D01*
X286206022Y-139595044D01*
X285807545Y-139629906D01*
G37*
G36*
X289094987Y-139342292D02*
G01*
X289033978Y-138644956D01*
X289432455Y-138610094D01*
X289493464Y-139307430D01*
X289094987Y-139342292D01*
G37*
%TD*%
%TO.C,D48*%
G36*
X243105985Y-147041528D02*
G01*
X242924811Y-146365380D01*
X243311181Y-146261852D01*
X243492355Y-146938000D01*
X243105985Y-147041528D01*
G37*
G36*
X246293541Y-146187426D02*
G01*
X246112367Y-145511278D01*
X246498737Y-145407750D01*
X246679911Y-146083898D01*
X246293541Y-146187426D01*
G37*
%TD*%
%TO.C,D47*%
G36*
X224705099Y-151972030D02*
G01*
X224523925Y-151295882D01*
X224910295Y-151192354D01*
X225091469Y-151868502D01*
X224705099Y-151972030D01*
G37*
G36*
X227892655Y-151117928D02*
G01*
X227711481Y-150441780D01*
X228097851Y-150338252D01*
X228279025Y-151014400D01*
X227892655Y-151117928D01*
G37*
%TD*%
D22*
%TO.C,D46*%
X205270000Y-150420000D03*
X201970000Y-150420000D03*
%TD*%
D12*
%TO.C,D45*%
G36*
X176234561Y-148935533D02*
G01*
X176415735Y-148259385D01*
X176802105Y-148362913D01*
X176620931Y-149039061D01*
X176234561Y-148935533D01*
G37*
G36*
X179422117Y-149789635D02*
G01*
X179603291Y-149113487D01*
X179989661Y-149217015D01*
X179808487Y-149893163D01*
X179422117Y-149789635D01*
G37*
%TD*%
%TO.C,D44*%
G36*
X157833672Y-144005027D02*
G01*
X158014846Y-143328879D01*
X158401216Y-143432407D01*
X158220042Y-144108555D01*
X157833672Y-144005027D01*
G37*
G36*
X161021228Y-144859129D02*
G01*
X161202402Y-144182981D01*
X161588772Y-144286509D01*
X161407598Y-144962657D01*
X161021228Y-144859129D01*
G37*
%TD*%
%TO.C,D43*%
G36*
X139432785Y-139074524D02*
G01*
X139613959Y-138398376D01*
X140000329Y-138501904D01*
X139819155Y-139178052D01*
X139432785Y-139074524D01*
G37*
G36*
X142620341Y-139928626D02*
G01*
X142801515Y-139252478D01*
X143187885Y-139356006D01*
X143006711Y-140032154D01*
X142620341Y-139928626D01*
G37*
%TD*%
%TO.C,D42*%
G36*
X111986536Y-138377430D02*
G01*
X112047545Y-137680094D01*
X112446022Y-137714956D01*
X112385013Y-138412292D01*
X111986536Y-138377430D01*
G37*
G36*
X115273978Y-138665044D02*
G01*
X115334987Y-137967708D01*
X115733464Y-138002570D01*
X115672455Y-138699906D01*
X115273978Y-138665044D01*
G37*
%TD*%
%TO.C,D41*%
G36*
X92176536Y-146237430D02*
G01*
X92237545Y-145540094D01*
X92636022Y-145574956D01*
X92575013Y-146272292D01*
X92176536Y-146237430D01*
G37*
G36*
X95463978Y-146525044D02*
G01*
X95524987Y-145827708D01*
X95923464Y-145862570D01*
X95862455Y-146559906D01*
X95463978Y-146525044D01*
G37*
%TD*%
%TO.C,D40*%
G36*
X72786536Y-149357430D02*
G01*
X72847545Y-148660094D01*
X73246022Y-148694956D01*
X73185013Y-149392292D01*
X72786536Y-149357430D01*
G37*
G36*
X76073978Y-149645044D02*
G01*
X76134987Y-148947708D01*
X76533464Y-148982570D01*
X76472455Y-149679906D01*
X76073978Y-149645044D01*
G37*
%TD*%
%TO.C,D39*%
G36*
X324799125Y-148158873D02*
G01*
X324738116Y-147461537D01*
X325136593Y-147426675D01*
X325197602Y-148124011D01*
X324799125Y-148158873D01*
G37*
G36*
X328086567Y-147871259D02*
G01*
X328025558Y-147173923D01*
X328424035Y-147139061D01*
X328485044Y-147836397D01*
X328086567Y-147871259D01*
G37*
%TD*%
%TO.C,D38*%
G36*
X305406495Y-145074315D02*
G01*
X305345486Y-144376979D01*
X305743963Y-144342117D01*
X305804972Y-145039453D01*
X305406495Y-145074315D01*
G37*
G36*
X308693937Y-144786701D02*
G01*
X308632928Y-144089365D01*
X309031405Y-144054503D01*
X309092414Y-144751839D01*
X308693937Y-144786701D01*
G37*
%TD*%
%TO.C,D37*%
G36*
X285598826Y-137245877D02*
G01*
X285537817Y-136548541D01*
X285936294Y-136513679D01*
X285997303Y-137211015D01*
X285598826Y-137245877D01*
G37*
G36*
X288886268Y-136958263D02*
G01*
X288825259Y-136260927D01*
X289223736Y-136226065D01*
X289284745Y-136923401D01*
X288886268Y-136958263D01*
G37*
%TD*%
%TO.C,D35*%
G36*
X247643809Y-140566511D02*
G01*
X247582800Y-139869175D01*
X247981277Y-139834313D01*
X248042286Y-140531649D01*
X247643809Y-140566511D01*
G37*
G36*
X250931251Y-140278897D02*
G01*
X250870242Y-139581561D01*
X251268719Y-139546699D01*
X251329728Y-140244035D01*
X250931251Y-140278897D01*
G37*
%TD*%
%TO.C,D34*%
G36*
X228865538Y-144504128D02*
G01*
X228804529Y-143806792D01*
X229203006Y-143771930D01*
X229264015Y-144469266D01*
X228865538Y-144504128D01*
G37*
G36*
X232152980Y-144216514D02*
G01*
X232091971Y-143519178D01*
X232490448Y-143484316D01*
X232551457Y-144181652D01*
X232152980Y-144216514D01*
G37*
%TD*%
%TO.C,D32*%
G36*
X168929154Y-143273093D02*
G01*
X168990163Y-142575757D01*
X169388640Y-142610619D01*
X169327631Y-143307955D01*
X168929154Y-143273093D01*
G37*
G36*
X172216596Y-143560707D02*
G01*
X172277605Y-142863371D01*
X172676082Y-142898233D01*
X172615073Y-143595569D01*
X172216596Y-143560707D01*
G37*
%TD*%
%TO.C,D31*%
G36*
X150150883Y-139335476D02*
G01*
X150211892Y-138638140D01*
X150610369Y-138673002D01*
X150549360Y-139370338D01*
X150150883Y-139335476D01*
G37*
G36*
X153438325Y-139623090D02*
G01*
X153499334Y-138925754D01*
X153897811Y-138960616D01*
X153836802Y-139657952D01*
X153438325Y-139623090D01*
G37*
%TD*%
%TO.C,D30*%
G36*
X131455673Y-134448486D02*
G01*
X131516682Y-133751150D01*
X131915159Y-133786012D01*
X131854150Y-134483348D01*
X131455673Y-134448486D01*
G37*
G36*
X134743115Y-134736100D02*
G01*
X134804124Y-134038764D01*
X135202601Y-134073626D01*
X135141592Y-134770962D01*
X134743115Y-134736100D01*
G37*
%TD*%
%TO.C,D29*%
G36*
X112195866Y-136014843D02*
G01*
X112256875Y-135317507D01*
X112655352Y-135352369D01*
X112594343Y-136049705D01*
X112195866Y-136014843D01*
G37*
G36*
X115483308Y-136302457D02*
G01*
X115544317Y-135605121D01*
X115942794Y-135639983D01*
X115881785Y-136337319D01*
X115483308Y-136302457D01*
G37*
%TD*%
%TO.C,D28*%
G36*
X92388199Y-143843280D02*
G01*
X92449208Y-143145944D01*
X92847685Y-143180806D01*
X92786676Y-143878142D01*
X92388199Y-143843280D01*
G37*
G36*
X95675641Y-144130894D02*
G01*
X95736650Y-143433558D01*
X96135127Y-143468420D01*
X96074118Y-144165756D01*
X95675641Y-144130894D01*
G37*
%TD*%
%TO.C,D27*%
G36*
X72995567Y-146927840D02*
G01*
X73056576Y-146230504D01*
X73455053Y-146265366D01*
X73394044Y-146962702D01*
X72995567Y-146927840D01*
G37*
G36*
X76283009Y-147215454D02*
G01*
X76344018Y-146518118D01*
X76742495Y-146552980D01*
X76681486Y-147250316D01*
X76283009Y-147215454D01*
G37*
%TD*%
%TO.C,D26*%
G36*
X324511513Y-144871430D02*
G01*
X324450504Y-144174094D01*
X324848981Y-144139232D01*
X324909990Y-144836568D01*
X324511513Y-144871430D01*
G37*
G36*
X327798955Y-144583816D02*
G01*
X327737946Y-143886480D01*
X328136423Y-143851618D01*
X328197432Y-144548954D01*
X327798955Y-144583816D01*
G37*
%TD*%
%TO.C,D25*%
G36*
X305118881Y-141786873D02*
G01*
X305057872Y-141089537D01*
X305456349Y-141054675D01*
X305517358Y-141752011D01*
X305118881Y-141786873D01*
G37*
G36*
X308406323Y-141499259D02*
G01*
X308345314Y-140801923D01*
X308743791Y-140767061D01*
X308804800Y-141464397D01*
X308406323Y-141499259D01*
G37*
%TD*%
%TO.C,D24*%
G36*
X285311213Y-133958434D02*
G01*
X285250204Y-133261098D01*
X285648681Y-133226236D01*
X285709690Y-133923572D01*
X285311213Y-133958434D01*
G37*
G36*
X288598655Y-133670820D02*
G01*
X288537646Y-132973484D01*
X288936123Y-132938622D01*
X288997132Y-133635958D01*
X288598655Y-133670820D01*
G37*
%TD*%
%TO.C,D22*%
G36*
X247356195Y-137279068D02*
G01*
X247295186Y-136581732D01*
X247693663Y-136546870D01*
X247754672Y-137244206D01*
X247356195Y-137279068D01*
G37*
G36*
X250643637Y-136991454D02*
G01*
X250582628Y-136294118D01*
X250981105Y-136259256D01*
X251042114Y-136956592D01*
X250643637Y-136991454D01*
G37*
%TD*%
%TO.C,D21*%
G36*
X228577924Y-141216686D02*
G01*
X228516915Y-140519350D01*
X228915392Y-140484488D01*
X228976401Y-141181824D01*
X228577924Y-141216686D01*
G37*
G36*
X231865366Y-140929072D02*
G01*
X231804357Y-140231736D01*
X232202834Y-140196874D01*
X232263843Y-140894210D01*
X231865366Y-140929072D01*
G37*
%TD*%
%TO.C,D19*%
G36*
X172504211Y-140273266D02*
G01*
X172565220Y-139575930D01*
X172963697Y-139610792D01*
X172902688Y-140308128D01*
X172504211Y-140273266D01*
G37*
G36*
X169216769Y-139985652D02*
G01*
X169277778Y-139288316D01*
X169676255Y-139323178D01*
X169615246Y-140020514D01*
X169216769Y-139985652D01*
G37*
%TD*%
%TO.C,D18*%
G36*
X153725939Y-136335648D02*
G01*
X153786948Y-135638312D01*
X154185425Y-135673174D01*
X154124416Y-136370510D01*
X153725939Y-136335648D01*
G37*
G36*
X150438497Y-136048034D02*
G01*
X150499506Y-135350698D01*
X150897983Y-135385560D01*
X150836974Y-136082896D01*
X150438497Y-136048034D01*
G37*
%TD*%
%TO.C,D17*%
G36*
X135030729Y-131448655D02*
G01*
X135091738Y-130751319D01*
X135490215Y-130786181D01*
X135429206Y-131483517D01*
X135030729Y-131448655D01*
G37*
G36*
X131743287Y-131161041D02*
G01*
X131804296Y-130463705D01*
X132202773Y-130498567D01*
X132141764Y-131195903D01*
X131743287Y-131161041D01*
G37*
%TD*%
%TO.C,D16*%
G36*
X115763978Y-133065044D02*
G01*
X115824987Y-132367708D01*
X116223464Y-132402570D01*
X116162455Y-133099906D01*
X115763978Y-133065044D01*
G37*
G36*
X112476536Y-132777430D02*
G01*
X112537545Y-132080094D01*
X112936022Y-132114956D01*
X112875013Y-132812292D01*
X112476536Y-132777430D01*
G37*
%TD*%
%TO.C,D15*%
G36*
X95963255Y-140843452D02*
G01*
X96024264Y-140146116D01*
X96422741Y-140180978D01*
X96361732Y-140878314D01*
X95963255Y-140843452D01*
G37*
G36*
X92675813Y-140555838D02*
G01*
X92736822Y-139858502D01*
X93135299Y-139893364D01*
X93074290Y-140590700D01*
X92675813Y-140555838D01*
G37*
%TD*%
%TO.C,D14*%
G36*
X76570623Y-143928010D02*
G01*
X76631632Y-143230674D01*
X77030109Y-143265536D01*
X76969100Y-143962872D01*
X76570623Y-143928010D01*
G37*
G36*
X73283181Y-143640396D02*
G01*
X73344190Y-142943060D01*
X73742667Y-142977922D01*
X73681658Y-143675258D01*
X73283181Y-143640396D01*
G37*
%TD*%
%TO.C,D13*%
G36*
X324297545Y-142479906D02*
G01*
X324236536Y-141782570D01*
X324635013Y-141747708D01*
X324696022Y-142445044D01*
X324297545Y-142479906D01*
G37*
G36*
X327584987Y-142192292D02*
G01*
X327523978Y-141494956D01*
X327922455Y-141460094D01*
X327983464Y-142157430D01*
X327584987Y-142192292D01*
G37*
%TD*%
%TO.C,D12*%
G36*
X304907545Y-139399906D02*
G01*
X304846536Y-138702570D01*
X305245013Y-138667708D01*
X305306022Y-139365044D01*
X304907545Y-139399906D01*
G37*
G36*
X308194987Y-139112292D02*
G01*
X308133978Y-138414956D01*
X308532455Y-138380094D01*
X308593464Y-139077430D01*
X308194987Y-139112292D01*
G37*
%TD*%
%TO.C,D11*%
G36*
X285097545Y-131589906D02*
G01*
X285036536Y-130892570D01*
X285435013Y-130857708D01*
X285496022Y-131555044D01*
X285097545Y-131589906D01*
G37*
G36*
X288384987Y-131302292D02*
G01*
X288323978Y-130604956D01*
X288722455Y-130570094D01*
X288783464Y-131267430D01*
X288384987Y-131302292D01*
G37*
%TD*%
%TO.C,D9*%
G36*
X247147545Y-134889906D02*
G01*
X247086536Y-134192570D01*
X247485013Y-134157708D01*
X247546022Y-134855044D01*
X247147545Y-134889906D01*
G37*
G36*
X250434987Y-134602292D02*
G01*
X250373978Y-133904956D01*
X250772455Y-133870094D01*
X250833464Y-134567430D01*
X250434987Y-134602292D01*
G37*
%TD*%
%TO.C,D8*%
G36*
X228367545Y-138819906D02*
G01*
X228306536Y-138122570D01*
X228705013Y-138087708D01*
X228766022Y-138785044D01*
X228367545Y-138819906D01*
G37*
G36*
X231654987Y-138532292D02*
G01*
X231593978Y-137834956D01*
X231992455Y-137800094D01*
X232053464Y-138497430D01*
X231654987Y-138532292D01*
G37*
%TD*%
D22*
%TO.C,D7*%
X205340000Y-89730000D03*
X202040000Y-89730000D03*
%TD*%
D12*
%TO.C,D6*%
G36*
X172723978Y-137875044D02*
G01*
X172784987Y-137177708D01*
X173183464Y-137212570D01*
X173122455Y-137909906D01*
X172723978Y-137875044D01*
G37*
G36*
X169436536Y-137587430D02*
G01*
X169497545Y-136890094D01*
X169896022Y-136924956D01*
X169835013Y-137622292D01*
X169436536Y-137587430D01*
G37*
%TD*%
%TO.C,D5*%
G36*
X153933978Y-133955044D02*
G01*
X153994987Y-133257708D01*
X154393464Y-133292570D01*
X154332455Y-133989906D01*
X153933978Y-133955044D01*
G37*
G36*
X150646536Y-133667430D02*
G01*
X150707545Y-132970094D01*
X151106022Y-133004956D01*
X151045013Y-133702292D01*
X150646536Y-133667430D01*
G37*
%TD*%
%TO.C,D4*%
G36*
X135243978Y-129055044D02*
G01*
X135304987Y-128357708D01*
X135703464Y-128392570D01*
X135642455Y-129089906D01*
X135243978Y-129055044D01*
G37*
G36*
X131956536Y-128767430D02*
G01*
X132017545Y-128070094D01*
X132416022Y-128104956D01*
X132355013Y-128802292D01*
X131956536Y-128767430D01*
G37*
%TD*%
%TO.C,D3*%
G36*
X115971378Y-130695044D02*
G01*
X116032387Y-129997708D01*
X116430864Y-130032570D01*
X116369855Y-130729906D01*
X115971378Y-130695044D01*
G37*
G36*
X112683936Y-130407430D02*
G01*
X112744945Y-129710094D01*
X113143422Y-129744956D01*
X113082413Y-130442292D01*
X112683936Y-130407430D01*
G37*
%TD*%
%TO.C,D2*%
G36*
X96163713Y-138465044D02*
G01*
X96224722Y-137767708D01*
X96623199Y-137802570D01*
X96562190Y-138499906D01*
X96163713Y-138465044D01*
G37*
G36*
X92876271Y-138177430D02*
G01*
X92937280Y-137480094D01*
X93335757Y-137514956D01*
X93274748Y-138212292D01*
X92876271Y-138177430D01*
G37*
%TD*%
%TO.C,D1*%
G36*
X76793978Y-141485044D02*
G01*
X76854987Y-140787708D01*
X77253464Y-140822570D01*
X77192455Y-141519906D01*
X76793978Y-141485044D01*
G37*
G36*
X73506536Y-141197430D02*
G01*
X73567545Y-140500094D01*
X73966022Y-140534956D01*
X73905013Y-141232292D01*
X73506536Y-141197430D01*
G37*
%TD*%
%TO.C,C7*%
G36*
G01*
X217835000Y-130525000D02*
X217585000Y-130525000D01*
G75*
G02*
X217485000Y-130425000I0J100000D01*
G01*
X217485000Y-130225000D01*
G75*
G02*
X217585000Y-130125000I100000J0D01*
G01*
X217835000Y-130125000D01*
G75*
G02*
X217935000Y-130225000I0J-100000D01*
G01*
X217935000Y-130425000D01*
G75*
G02*
X217835000Y-130525000I-100000J0D01*
G01*
G37*
G36*
G01*
X217835000Y-128975000D02*
X217585000Y-128975000D01*
G75*
G02*
X217485000Y-128875000I0J100000D01*
G01*
X217485000Y-128675000D01*
G75*
G02*
X217585000Y-128575000I100000J0D01*
G01*
X217835000Y-128575000D01*
G75*
G02*
X217935000Y-128675000I0J-100000D01*
G01*
X217935000Y-128875000D01*
G75*
G02*
X217835000Y-128975000I-100000J0D01*
G01*
G37*
%TD*%
%TO.C,C6*%
G36*
G01*
X208755000Y-122095000D02*
X209005000Y-122095000D01*
G75*
G02*
X209105000Y-122195000I0J-100000D01*
G01*
X209105000Y-122395000D01*
G75*
G02*
X209005000Y-122495000I-100000J0D01*
G01*
X208755000Y-122495000D01*
G75*
G02*
X208655000Y-122395000I0J100000D01*
G01*
X208655000Y-122195000D01*
G75*
G02*
X208755000Y-122095000I100000J0D01*
G01*
G37*
G36*
G01*
X208755000Y-123645000D02*
X209005000Y-123645000D01*
G75*
G02*
X209105000Y-123745000I0J-100000D01*
G01*
X209105000Y-123945000D01*
G75*
G02*
X209005000Y-124045000I-100000J0D01*
G01*
X208755000Y-124045000D01*
G75*
G02*
X208655000Y-123945000I0J100000D01*
G01*
X208655000Y-123745000D01*
G75*
G02*
X208755000Y-123645000I100000J0D01*
G01*
G37*
%TD*%
%TO.C,C5*%
G36*
G01*
X196595000Y-138025000D02*
X196595000Y-138275000D01*
G75*
G02*
X196495000Y-138375000I-100000J0D01*
G01*
X196295000Y-138375000D01*
G75*
G02*
X196195000Y-138275000I0J100000D01*
G01*
X196195000Y-138025000D01*
G75*
G02*
X196295000Y-137925000I100000J0D01*
G01*
X196495000Y-137925000D01*
G75*
G02*
X196595000Y-138025000I0J-100000D01*
G01*
G37*
G36*
G01*
X195045000Y-138025000D02*
X195045000Y-138275000D01*
G75*
G02*
X194945000Y-138375000I-100000J0D01*
G01*
X194745000Y-138375000D01*
G75*
G02*
X194645000Y-138275000I0J100000D01*
G01*
X194645000Y-138025000D01*
G75*
G02*
X194745000Y-137925000I100000J0D01*
G01*
X194945000Y-137925000D01*
G75*
G02*
X195045000Y-138025000I0J-100000D01*
G01*
G37*
%TD*%
%TO.C,C4*%
G36*
G01*
X196465000Y-129335000D02*
X196215000Y-129335000D01*
G75*
G02*
X196115000Y-129235000I0J100000D01*
G01*
X196115000Y-129035000D01*
G75*
G02*
X196215000Y-128935000I100000J0D01*
G01*
X196465000Y-128935000D01*
G75*
G02*
X196565000Y-129035000I0J-100000D01*
G01*
X196565000Y-129235000D01*
G75*
G02*
X196465000Y-129335000I-100000J0D01*
G01*
G37*
G36*
G01*
X196465000Y-127785000D02*
X196215000Y-127785000D01*
G75*
G02*
X196115000Y-127685000I0J100000D01*
G01*
X196115000Y-127485000D01*
G75*
G02*
X196215000Y-127385000I100000J0D01*
G01*
X196465000Y-127385000D01*
G75*
G02*
X196565000Y-127485000I0J-100000D01*
G01*
X196565000Y-127685000D01*
G75*
G02*
X196465000Y-127785000I-100000J0D01*
G01*
G37*
%TD*%
%TO.C,C3*%
G36*
G01*
X206315000Y-124525000D02*
X206065000Y-124525000D01*
G75*
G02*
X205965000Y-124425000I0J100000D01*
G01*
X205965000Y-124225000D01*
G75*
G02*
X206065000Y-124125000I100000J0D01*
G01*
X206315000Y-124125000D01*
G75*
G02*
X206415000Y-124225000I0J-100000D01*
G01*
X206415000Y-124425000D01*
G75*
G02*
X206315000Y-124525000I-100000J0D01*
G01*
G37*
G36*
G01*
X206315000Y-122975000D02*
X206065000Y-122975000D01*
G75*
G02*
X205965000Y-122875000I0J100000D01*
G01*
X205965000Y-122675000D01*
G75*
G02*
X206065000Y-122575000I100000J0D01*
G01*
X206315000Y-122575000D01*
G75*
G02*
X206415000Y-122675000I0J-100000D01*
G01*
X206415000Y-122875000D01*
G75*
G02*
X206315000Y-122975000I-100000J0D01*
G01*
G37*
%TD*%
%TO.C,C2*%
G36*
G01*
X223075000Y-131595000D02*
X223325000Y-131595000D01*
G75*
G02*
X223425000Y-131695000I0J-100000D01*
G01*
X223425000Y-131895000D01*
G75*
G02*
X223325000Y-131995000I-100000J0D01*
G01*
X223075000Y-131995000D01*
G75*
G02*
X222975000Y-131895000I0J100000D01*
G01*
X222975000Y-131695000D01*
G75*
G02*
X223075000Y-131595000I100000J0D01*
G01*
G37*
G36*
G01*
X223075000Y-133145000D02*
X223325000Y-133145000D01*
G75*
G02*
X223425000Y-133245000I0J-100000D01*
G01*
X223425000Y-133445000D01*
G75*
G02*
X223325000Y-133545000I-100000J0D01*
G01*
X223075000Y-133545000D01*
G75*
G02*
X222975000Y-133445000I0J100000D01*
G01*
X222975000Y-133245000D01*
G75*
G02*
X223075000Y-133145000I100000J0D01*
G01*
G37*
%TD*%
%TO.C,C1*%
G36*
G01*
X223315000Y-138045000D02*
X223065000Y-138045000D01*
G75*
G02*
X222965000Y-137945000I0J100000D01*
G01*
X222965000Y-137745000D01*
G75*
G02*
X223065000Y-137645000I100000J0D01*
G01*
X223315000Y-137645000D01*
G75*
G02*
X223415000Y-137745000I0J-100000D01*
G01*
X223415000Y-137945000D01*
G75*
G02*
X223315000Y-138045000I-100000J0D01*
G01*
G37*
G36*
G01*
X223315000Y-136495000D02*
X223065000Y-136495000D01*
G75*
G02*
X222965000Y-136395000I0J100000D01*
G01*
X222965000Y-136195000D01*
G75*
G02*
X223065000Y-136095000I100000J0D01*
G01*
X223315000Y-136095000D01*
G75*
G02*
X223415000Y-136195000I0J-100000D01*
G01*
X223415000Y-136395000D01*
G75*
G02*
X223315000Y-136495000I-100000J0D01*
G01*
G37*
%TD*%
M02*
